<svg width="250" height="400" viewBox="0 0 250 400" fill="none" xmlns="http://www.w3.org/2000/svg">
<path d="M1.5 10C1.5 5.30559 5.30558 1.5 10 1.5H240C244.694 1.5 248.5 5.30558 248.5 10V298.5H1.5V10Z" stroke="#EB5569" stroke-width="3"/>
<g clip-path="url(#clip0)">
<path opacity="0.1" d="M89.819 210.918C99.8997 210.918 108.072 209.611 108.072 207.999C108.072 206.387 99.8997 205.08 89.819 205.08C79.7382 205.08 71.5662 206.387 71.5662 207.999C71.5662 209.611 79.7382 210.918 89.819 210.918Z" fill="#EB5569"/>
<path opacity="0.1" d="M189.039 211C201.618 211 211.815 209.693 211.815 208.081C211.815 206.469 201.618 205.162 189.039 205.162C176.459 205.162 166.262 206.469 166.262 208.081C166.262 209.693 176.459 211 189.039 211Z" fill="#EB5569"/>
<path opacity="0.1" d="M23.5926 128.083H42.604V153.884H24.9844C24.9376 154.149 24.8926 154.416 24.8439 154.683H42.604V175.491C42.5722 175.482 42.5441 175.471 42.5141 175.46C42.0121 175.262 41.5138 175.053 41.0155 174.829L40.6971 174.686C40.1976 174.451 39.698 174.202 39.1985 173.939C39.0243 173.848 38.8501 173.753 38.6777 173.656C35.9046 172.109 33.3853 170.149 31.2073 167.844C31.1436 167.782 31.0836 167.717 31.02 167.657C30.7165 167.329 30.4186 166.997 30.1302 166.658L29.8117 166.285C29.4708 165.869 29.1411 165.441 28.8208 165.009C28.7739 164.945 28.729 164.882 28.6803 164.822C27.3775 163.024 26.2958 161.076 25.4583 159.021C25.4321 158.96 25.4096 158.893 25.3853 158.835C25.128 158.176 24.9001 157.51 24.7015 156.839C24.6154 156.557 24.5329 156.279 24.4618 155.987C24.4355 155.901 24.4131 155.817 24.3924 155.733C23.3284 151.598 23.2029 147.302 23.2029 143.036C23.2029 142.538 23.2029 142.038 23.2029 141.544C23.2029 139.819 23.2235 138.082 23.2535 136.347C23.2535 135.898 23.2723 135.45 23.2816 134.999C23.3078 133.854 23.3453 132.708 23.394 131.563C23.4053 131.244 23.4202 130.927 23.4371 130.61C23.4371 130.427 23.4465 130.244 23.4652 130.062C23.5102 129.398 23.5476 128.739 23.5926 128.083Z" fill="#EB5569"/>
<path opacity="0.1" d="M42.604 99.3541H32.1757C33.8708 96.7121 35.723 94.1733 37.7223 91.7513C39.2715 89.8563 40.9068 88.0097 42.604 86.2302V99.3541Z" fill="#EB5569"/>
<path opacity="0.1" d="M42.604 100.152V127.284H23.6525C23.6525 127.206 23.6656 127.126 23.6713 127.047C23.6881 126.833 23.705 126.618 23.7237 126.406C23.7443 126.156 23.7668 125.904 23.7911 125.66C23.8155 125.415 23.8417 125.117 23.8698 124.846C23.8979 124.576 23.9241 124.302 23.956 124.031C23.9878 123.761 24.0159 123.49 24.0497 123.222C24.0834 122.953 24.1133 122.681 24.1489 122.412C24.177 122.188 24.207 121.966 24.237 121.743C24.2801 121.427 24.325 121.11 24.3737 120.797C24.3737 120.75 24.3868 120.702 24.3943 120.657C24.7362 118.363 25.2021 116.089 25.7899 113.845C26.4052 111.491 27.1909 109.185 28.1408 106.944C29.1504 104.599 30.3325 102.333 31.6775 100.162L42.604 100.152Z" fill="#EB5569"/>
<path opacity="0.1" d="M47.1428 128.081V153.884H87.749V128.081H47.1428ZM47.1428 154.681V176.84C47.3751 176.888 47.6055 176.935 47.834 176.974C48.145 177.034 48.4541 177.088 48.7707 177.135C48.8306 177.144 48.8924 177.153 48.958 177.159C49.0816 177.179 49.209 177.196 49.3326 177.213C49.6455 177.256 49.9564 177.291 50.2693 177.319C50.4172 177.334 50.5671 177.347 50.717 177.358L51.0785 177.386C51.2752 177.401 51.47 177.413 51.6629 177.418C51.7828 177.418 51.9027 177.429 52.0263 177.433C52.12 177.433 52.2137 177.433 52.3111 177.433C52.4085 177.433 52.5471 177.433 52.6651 177.433C52.8262 177.433 52.9873 177.433 53.1465 177.433H53.362C53.5231 177.433 53.6842 177.433 53.8434 177.418H53.8546C53.9651 177.418 54.0775 177.418 54.1899 177.403C54.2211 177.405 54.2524 177.405 54.2836 177.403C54.3773 177.403 54.4709 177.403 54.5608 177.39H54.6264L55.2539 177.342C55.46 177.323 55.6679 177.299 55.8777 177.276L56.3048 177.226C58.0424 176.984 59.7607 176.62 61.4469 176.137C65.2345 175.085 68.9398 173.613 72.7256 172.535C77.6204 171.145 83.0284 170.463 87.7583 172.162V154.681H47.1428ZM87.749 99.354V65.0018C83.3033 64.9539 78.8697 65.4716 74.5558 66.5425C64.2736 69.1147 55.0479 74.6936 47.1428 81.8189V99.3521H49.1809V100.149H47.1428V127.284H87.749V100.15H57.5486V99.354H87.749ZM139.905 87.7503C137.362 87.6608 134.833 86.8587 132.546 85.6202C128.172 83.2514 124.678 79.5936 120.774 76.5066C112.663 70.0772 102.604 66.1974 92.2841 65.235V99.354H150.251L150.396 99.2029L139.905 87.7503ZM145.186 86.8177L150.785 92.9357V85.2136C148.91 85.4449 147.267 85.9951 145.194 86.8102L145.186 86.8177ZM150.785 182.342V154.681H138.855C138.823 154.563 138.791 154.444 138.753 154.325C138.789 154.444 138.819 154.563 138.853 154.681H92.2916V174.686C92.7336 175.012 93.1701 175.355 93.6028 175.704C94.0693 176.077 94.5301 176.471 94.9928 176.857L95.4592 177.241C95.6821 177.427 95.9069 177.614 96.1336 177.789C96.5831 178.152 97.0371 178.511 97.4954 178.864C97.7221 179.05 97.9543 179.218 98.1848 179.393C101.843 182.178 105.701 184.691 109.73 186.912C110.632 187.41 111.543 187.895 112.463 188.369C113.075 188.68 113.691 188.99 114.31 189.29C115.239 189.742 116.175 190.177 117.119 190.596C125.824 194.487 135.028 197.156 144.469 198.529C146.565 198.837 148.67 199.08 150.783 199.256V182.34H150.971L150.785 182.342ZM92.2916 100.15V127.284H150.793V100.15H92.2916ZM92.2916 128.081V153.884H150.793V128.081H92.2916ZM155.333 85.18V93.7937L162.48 85.9858C160.112 85.6053 157.73 85.3336 155.333 85.1707V85.18ZM155.333 128.09V153.884H212.233V128.081L155.333 128.09ZM212.025 184.39L212.225 154.681H155.333V199.553C158.998 199.706 162.669 199.663 166.329 199.422H166.393C168.141 199.313 169.882 199.154 171.614 198.945H171.653C180.894 197.874 189.93 195.473 198.478 191.818L212.025 184.39ZM223.205 132.33C222.991 131.828 222.768 131.33 222.541 130.837C222.118 129.905 221.67 128.998 221.21 128.092H216.77V153.884H227.994C227.989 146.58 226.132 139.119 223.21 132.32L223.205 132.33ZM216.77 154.69V180.244C219.932 177.226 222.603 173.773 224.527 169.827C226.84 165.074 227.899 159.928 227.985 154.686L216.77 154.69ZM216.77 120.571V127.286H220.794C219.576 124.974 218.235 122.73 216.776 120.562L216.77 120.571ZM178.181 90.2423C177.885 90.1304 177.589 90.0166 177.292 89.9065C174.15 88.7515 170.94 87.7909 167.68 87.0303L156.744 98.9809L156.534 99.2029L156.675 99.3559H195.597C190.176 95.6404 184.332 92.578 178.187 90.233L178.181 90.2423ZM196.738 100.16H156.131L155.333 100.887V127.284H162.328H162.339H212.24V114.498C207.726 109.062 202.516 104.238 196.743 100.15L196.738 100.16Z" fill="#EB5569"/>
<path opacity="0.1" d="M42.604 113.838V127.284H23.6525C23.6525 127.206 23.6656 127.126 23.6713 127.047C23.6881 126.833 23.705 126.618 23.7237 126.406C23.7443 126.156 23.7668 125.904 23.7911 125.66C23.8155 125.415 23.8417 125.117 23.8698 124.846C23.8979 124.576 23.9241 124.302 23.956 124.031C23.9878 123.761 24.0159 123.49 24.0497 123.222C24.0834 122.953 24.1133 122.681 24.1489 122.412C24.177 122.188 24.207 121.966 24.237 121.743C24.2801 121.427 24.325 121.11 24.3737 120.797C24.3737 120.75 24.3868 120.702 24.3943 120.657C24.7362 118.363 25.2021 116.089 25.7899 113.845L42.604 113.838Z" fill="#EB5569"/>
<path opacity="0.1" d="M23.5926 128.083H42.604V153.884H24.9844C24.9376 154.149 24.8926 154.416 24.8439 154.683H42.604V175.491C42.5722 175.482 42.5441 175.471 42.5141 175.46C42.0121 175.262 41.5138 175.053 41.0155 174.829L40.6971 174.686C40.1976 174.451 39.698 174.202 39.1985 173.939C39.0243 173.848 38.8501 173.753 38.6777 173.656C35.9046 172.109 33.3853 170.149 31.2073 167.844C31.1436 167.782 31.0836 167.717 31.02 167.657C30.7165 167.329 30.4186 166.997 30.1302 166.658L29.8117 166.285C29.4708 165.869 29.1411 165.441 28.8208 165.009C28.7739 164.945 28.729 164.882 28.6803 164.822C27.3775 163.024 26.2958 161.076 25.4583 159.021C25.4321 158.96 25.4096 158.893 25.3853 158.835C25.128 158.176 24.9001 157.51 24.7015 156.839C24.6154 156.557 24.5329 156.279 24.4618 155.987C24.4355 155.901 24.4131 155.817 24.3924 155.733C23.3284 151.598 23.2029 147.302 23.2029 143.036C23.2029 142.538 23.2029 142.038 23.2029 141.544C23.2029 139.819 23.2235 138.082 23.2535 136.347C23.2535 135.898 23.2723 135.45 23.2816 134.999C23.3078 133.854 23.3453 132.708 23.394 131.563C23.4053 131.244 23.4202 130.927 23.4371 130.61C23.4371 130.427 23.4465 130.244 23.4652 130.062C23.5102 129.398 23.5476 128.739 23.5926 128.083Z" fill="#EB5569"/>
<path opacity="0.1" d="M61.4375 104.036V127.284H47.1428V104.036H49.1809V96.1643H57.5468V104.036H61.4375Z" fill="#EB5569"/>
<path opacity="0.1" d="M61.4375 128.081H47.1447V153.883H61.4375V128.081Z" fill="#EB5569"/>
<path opacity="0.1" d="M47.1428 154.683H61.4375V176.133C59.7513 176.615 58.033 176.979 56.2954 177.22L55.8684 177.273C55.6585 177.297 55.4506 177.317 55.2446 177.338C55.0385 177.358 54.825 177.373 54.617 177.386H54.5515C54.4616 177.386 54.3641 177.398 54.2761 177.399H54.1806C54.0682 177.399 53.9558 177.411 53.8434 177.414C53.6842 177.424 53.5249 177.426 53.362 177.427C53.2927 177.427 53.2271 177.427 53.1578 177.427C52.9967 177.427 52.8375 177.427 52.6764 177.427H52.3223C52.2268 177.427 52.135 177.427 52.0357 177.427L51.6742 177.414C51.4869 177.414 51.2845 177.394 51.0897 177.381L50.7301 177.355L50.2824 177.314C49.9677 177.286 49.6548 177.25 49.3457 177.207L48.9711 177.155L48.7838 177.129C48.4709 177.08 48.1619 177.028 47.8472 176.969C47.6167 176.929 47.3882 176.881 47.1559 176.834L47.1428 154.683Z" fill="#EB5569"/>
<path opacity="0.1" d="M150.793 101.29H139.006V127.282H150.793V101.29Z" fill="#EB5569"/>
<path opacity="0.1" d="M150.795 128.081V153.885H92.2916V142.755H123.453V149.32H139.006V128.081H150.795Z" fill="#EB5569"/>
<path opacity="0.1" d="M150.98 182.348H150.793V199.275C148.682 199.097 146.578 198.856 144.48 198.55C135.034 197.173 125.826 194.497 117.119 190.6C114.605 189.473 112.143 188.244 109.731 186.911C105.703 184.688 101.844 182.175 98.1847 179.392C97.2656 178.69 96.3583 177.973 95.4629 177.239C94.8428 176.73 94.2266 176.208 93.6028 175.7C93.1701 175.352 92.7336 175.008 92.2915 174.68V154.683H138.851C138.819 154.564 138.787 154.444 138.753 154.327C138.789 154.444 138.823 154.564 138.855 154.683H150.793V182.337C150.856 182.339 150.918 182.344 150.98 182.348Z" fill="#EB5569"/>
<path opacity="0.1" d="M181.533 99.3541H173.852V96.9778H177.295V89.8992C177.594 90.0074 177.891 90.1186 178.187 90.233V96.9778H181.533V99.3541Z" fill="#EB5569"/>
<path opacity="0.1" d="M200.036 127.284H162.332C162.332 127.284 162.332 127.284 162.345 127.293L162.328 127.284H155.333V101.292H157.315V120.504H166.372V109.126H173.854V100.152H181.534V109.133H189.016V120.511H200.036V127.284Z" fill="#EB5569"/>
<path opacity="0.1" d="M155.333 128.081V153.885H200.036V128.081H155.333ZM212.171 184.258L212.233 163.834H200.036V154.694H155.333V199.553C158.998 199.706 162.669 199.663 166.329 199.423H166.393C168.141 199.313 169.882 199.154 171.614 198.945H171.653C180.894 197.874 189.93 195.474 198.478 191.818" fill="#EB5569"/>
<path opacity="0.1" d="M217.564 154.683H227.993C227.901 159.922 226.844 165.068 224.533 169.821C222.609 173.77 219.936 177.222 216.777 180.238V163.824H217.564V154.683Z" fill="#EB5569"/>
<path opacity="0.1" d="M227.998 153.884H217.564V132.32H223.21C226.132 139.119 227.989 146.58 227.998 153.884Z" fill="#EB5569"/>
<path opacity="0.1" d="M150.795 108.516H144.48V116.665H150.795V108.516Z" fill="#EB5569"/>
<path opacity="0.1" d="M150.795 125.408H144.48V127.284H150.795V125.408Z" fill="#EB5569"/>
<path opacity="0.1" d="M150.795 128.081H144.48V133.555H150.795V128.081Z" fill="#EB5569"/>
<path opacity="0.1" d="M150.795 142.3H144.48V150.449H150.795V142.3Z" fill="#EB5569"/>
<path opacity="0.1" d="M150.795 159.191H144.48V167.34H150.795V159.191Z" fill="#EB5569"/>
<path opacity="0.1" d="M150.793 182.337C150.856 182.337 150.918 182.337 150.98 182.348H150.793V184.241H144.48V176.083H150.793V182.337Z" fill="#EB5569"/>
<path opacity="0.1" d="M150.793 192.97V199.266C148.682 199.088 146.578 198.846 144.48 198.54V192.97H150.793Z" fill="#EB5569"/>
<path opacity="0.1" d="M119.354 153.286H92.2916V153.884H119.354V153.286Z" fill="#EB5569"/>
<path opacity="0.1" d="M119.354 154.681H92.2916V156.975H119.354V154.681Z" fill="#EB5569"/>
<path opacity="0.1" d="M119.354 164.496H92.2916V168.185H119.354V164.496Z" fill="#EB5569"/>
<path opacity="0.1" d="M119.352 175.706V179.395H98.1848C97.2656 178.696 96.3577 177.979 95.4611 177.243C94.841 176.734 94.2266 176.211 93.601 175.706H119.352Z" fill="#EB5569"/>
<path opacity="0.1" d="M119.352 186.914V190.6H117.118C114.606 189.472 112.144 188.241 109.731 186.908L119.352 186.914Z" fill="#EB5569"/>
<path opacity="0.1" d="M171.659 130.582H166.331V135.887H171.659V130.582Z" fill="#EB5569"/>
<path opacity="0.1" d="M56.3086 105.865H50.9811V111.17H56.3086V105.865Z" fill="#EB5569"/>
<path opacity="0.1" d="M56.3086 118.188H50.9811V123.492H56.3086V118.188Z" fill="#EB5569"/>
<path opacity="0.1" d="M56.3086 130.509H50.9811V135.814H56.3086V130.509Z" fill="#EB5569"/>
<path opacity="0.1" d="M56.3086 142.829H50.9811V148.134H56.3086V142.829Z" fill="#EB5569"/>
<path opacity="0.1" d="M56.3086 155.151H50.9811V160.456H56.3086V155.151Z" fill="#EB5569"/>
<path opacity="0.1" d="M56.3086 167.473H50.9811V172.778H56.3086V167.473Z" fill="#EB5569"/>
<path opacity="0.1" d="M191.996 130.582H186.669V135.887H191.996V130.582Z" fill="#EB5569"/>
<path opacity="0.1" d="M171.659 143.667H166.331V148.971H171.659V143.667Z" fill="#EB5569"/>
<path opacity="0.1" d="M191.996 143.667H186.669V148.971H191.996V143.667Z" fill="#EB5569"/>
<path opacity="0.1" d="M171.659 156.749H166.331V162.054H171.659V156.749Z" fill="#EB5569"/>
<path opacity="0.1" d="M191.996 156.749H186.669V162.054H191.996V156.749Z" fill="#EB5569"/>
<path opacity="0.1" d="M171.659 169.834H166.331V175.139H171.659V169.834Z" fill="#EB5569"/>
<path opacity="0.1" d="M191.996 169.834H186.669V175.139H191.996V169.834Z" fill="#EB5569"/>
<path opacity="0.1" d="M171.659 182.919H166.331V188.224H171.659V182.919Z" fill="#EB5569"/>
<path opacity="0.1" d="M191.996 182.919H186.669V188.224H191.996V182.919Z" fill="#EB5569"/>
<path opacity="0.1" d="M166.331 199.422V196.001H171.657V198.936L166.331 199.422Z" fill="#EB5569"/>
<path opacity="0.1" d="M24.3718 120.653V123.688H42.604V120.653H24.3718ZM26.1889 123.498H24.7015V120.84H26.2001L26.1889 123.498ZM28.004 123.498H26.5054V120.84H28.004V123.498ZM29.8154 123.498H28.3169V120.84H29.8154V123.498ZM31.6306 123.498H30.1339V120.84H31.6325L31.6306 123.498ZM33.4439 123.498H31.9453V120.84H33.4439V123.498ZM35.2591 123.498H33.7605V120.84H35.2591V123.498ZM37.0742 123.498H35.5756V120.84H37.0742V123.498ZM38.8875 123.498H37.3889V120.84H38.8875V123.498ZM40.7008 123.498H39.2022V120.84H40.7008V123.498ZM42.5141 123.498H41.0155V120.84H42.5141V123.498Z" fill="#EB5569"/>
<path opacity="0.1" d="M24.3718 129.483V132.518H42.604V129.483H24.3718ZM26.1889 132.326H24.7015V129.676H26.2001L26.1889 132.326ZM28.004 132.326H26.5054V129.676H28.004V132.326ZM29.8154 132.326H28.3169V129.676H29.8154V132.326ZM31.6306 132.326H30.1339V129.676H31.6325L31.6306 132.326ZM33.4439 132.326H31.9453V129.676H33.4439V132.326ZM35.2591 132.326H33.7605V129.676H35.2591V132.326ZM37.0742 132.326H35.5756V129.676H37.0742V132.326ZM38.8875 132.326H37.3889V129.676H38.8875V132.326ZM40.7008 132.326H39.2022V129.676H40.7008V132.326ZM42.5141 132.326H41.0155V129.676H42.5141V132.326Z" fill="#EB5569"/>
<path opacity="0.1" d="M24.3718 138.317V141.357H42.604V138.317H24.3718ZM26.1889 141.16H24.7015V138.507H26.2001L26.1889 141.16ZM28.004 141.16H26.5054V138.507H28.004V141.16ZM29.8154 141.16H28.3169V138.507H29.8154V141.16ZM31.6306 141.16H30.1339V138.507H31.6325L31.6306 141.16ZM33.4439 141.16H31.9453V138.507H33.4439V141.16ZM35.2591 141.16H33.7605V138.507H35.2591V141.16ZM37.0742 141.16H35.5756V138.507H37.0742V141.16ZM38.8875 141.16H37.3889V138.507H38.8875V141.16ZM40.7008 141.16H39.2022V138.507H40.7008V141.16ZM42.5141 141.16H41.0155V138.507H42.5141V141.16Z" fill="#EB5569"/>
<path opacity="0.1" d="M24.3718 147.151V150.182H42.604V147.151H24.3718ZM26.1889 149.994H24.7015V147.339H26.2001L26.1889 149.994ZM28.004 149.994H26.5054V147.339H28.004V149.994ZM29.8154 149.994H28.3169V147.339H29.8154V149.994ZM31.6306 149.994H30.1339V147.339H31.6325L31.6306 149.994ZM33.4439 149.994H31.9453V147.339H33.4439V149.994ZM35.2591 149.994H33.7605V147.339H35.2591V149.994ZM37.0742 149.994H35.5756V147.339H37.0742V149.994ZM38.8875 149.994H37.3889V147.339H38.8875V149.994ZM40.7008 149.994H39.2022V147.339H40.7008V149.994ZM42.5141 149.994H41.0155V147.339H42.5141V149.994Z" fill="#EB5569"/>
<path opacity="0.1" d="M24.4505 155.983C24.5236 156.268 24.606 156.553 24.6921 156.835V156.173H26.1907V158.825H25.389C25.4133 158.887 25.4377 158.954 25.462 159.012H42.604V155.983H24.4505ZM28.0096 158.825H26.5111V156.173H28.0096V158.825ZM29.8211 158.825H28.3225V156.173H29.8211V158.825ZM31.6362 158.825H30.1339V156.173H31.6325L31.6362 158.825ZM33.4495 158.825H31.9509V156.173H33.4495V158.825ZM35.2647 158.825H33.7661V156.173H35.2647V158.825ZM37.0799 158.825H35.5813V156.173H37.0799V158.825ZM38.8931 158.825H37.3946V156.173H38.8931V158.825ZM40.7064 158.825H39.2078V156.173H40.7064V158.825ZM42.5197 158.825H41.0211V156.173H42.5197V158.825Z" fill="#EB5569"/>
<path opacity="0.1" d="M28.684 164.816C28.7309 164.876 28.7758 164.943 28.8245 165.003H29.8155V166.277C29.9222 166.404 30.0271 166.531 30.1358 166.65V164.995H31.6344V167.657H31.0274C31.0874 167.719 31.1455 167.784 31.2148 167.844H42.6097V164.816H28.684ZM33.4439 167.657H31.9453V165.007H33.4439V167.657ZM35.2591 167.657H33.7605V165.007H35.2591V167.657ZM37.0742 167.657H35.5757V165.007H37.0742V167.657ZM38.8875 167.657H37.3889V165.007H38.8875V167.657ZM40.7008 167.657H39.2022V165.007H40.7008V167.657ZM42.5141 167.657H41.0155V165.007H42.5141V167.657Z" fill="#EB5569"/>
<path opacity="0.1" d="M38.6852 173.648C38.8556 173.745 39.0299 173.835 39.2059 173.932V173.839H40.7045V174.678L41.023 174.825V173.839H42.5216V175.452C42.5503 175.466 42.5804 175.478 42.6115 175.486V173.648H38.6852Z" fill="#EB5569"/>
<path opacity="0.1" d="M162.332 127.284H162.343H162.332ZM150.793 182.335H150.98H150.793ZM138.753 154.325C138.789 154.444 138.819 154.564 138.853 154.681C138.823 154.564 138.791 154.444 138.753 154.325ZM162.332 127.279H162.343H162.332ZM49.1885 99.3486V100.145H57.5562V99.3486H49.1885ZM150.793 182.335H150.98H150.793ZM138.753 154.325C138.789 154.444 138.819 154.564 138.853 154.681C138.823 154.564 138.791 154.444 138.753 154.325ZM162.332 127.279H162.343H162.332ZM150.793 182.33H150.98H150.793ZM138.753 154.325C138.789 154.444 138.819 154.564 138.853 154.681C138.823 154.564 138.791 154.444 138.753 154.325Z" fill="#EB5569"/>
<path d="M107.469 135.818C107.469 135.818 106.73 135.715 106.73 134.645C106.73 133.574 106.202 131.574 106.202 131.574C106.202 131.565 105.745 128.092 105.114 127.54C104.483 126.988 103.671 123.746 103.671 123.746C103.671 123.746 103.533 121.987 103.25 121.608C102.967 121.23 102.585 120.303 102.021 118.98C101.457 117.658 99.1064 116.742 99.1064 116.742C99.1064 116.742 94.856 114.287 93.6516 113.487C93.5421 113.421 93.4398 113.344 93.3462 113.258C93.1364 112.983 92.2223 112.978 92.2223 112.978C92.1267 112.377 92.035 111.687 92.005 111.062C92.005 110.995 92.005 110.928 91.9956 110.861C93.3387 110.07 94.3504 108.824 94.8448 107.35C94.8673 107.28 94.886 107.205 94.9066 107.134C94.9871 107.108 95.0612 107.065 95.1241 107.008C95.187 106.952 95.2373 106.883 95.2719 106.806C95.3806 106.565 95.3824 106.284 95.5173 106.06C95.6747 105.795 95.9744 105.653 96.2104 105.453C96.8061 104.95 96.9597 104.101 96.9316 103.329C96.9129 102.704 96.8117 102.074 96.851 101.453L96.8623 101.296C96.8735 101.203 96.8866 101.109 96.9035 101.02C96.9953 100.557 97.1957 100.121 97.3081 99.6619C97.4205 99.2031 97.4317 98.6864 97.1695 98.2909C96.7855 97.7109 95.9856 97.5952 95.2831 97.5355C94.487 97.4684 93.7752 97.556 93.2657 96.8976C93.0272 96.5535 92.7589 96.2308 92.4639 95.9333C92.359 95.8363 91.34 95.217 91.34 95.176C90.3454 94.7173 89.218 94.6312 88.1648 94.9335C87.6366 95.0865 87.1383 95.3364 86.6026 95.4614C85.4468 95.7337 84.1168 95.439 83.1352 96.0974C82.5882 96.4705 82.2604 97.0636 81.9532 97.6418C81.7034 98.1181 81.4499 98.5937 81.1927 99.0688C80.7787 99.8503 80.3572 100.645 80.183 101.51C80.1464 101.699 80.1238 101.889 80.1156 102.081V102.09C80.1156 102.159 80.1156 102.228 80.1156 102.297V102.385C80.1156 102.45 80.1156 102.514 80.1268 102.572C80.138 102.629 80.1362 102.648 80.1418 102.687C80.1474 102.726 80.1568 102.814 80.168 102.874C80.1792 102.934 80.2017 103.038 80.2242 103.12C80.2336 103.155 80.2467 103.189 80.2579 103.223C80.2766 103.286 80.2991 103.348 80.3235 103.409C80.3366 103.441 80.3497 103.474 80.3647 103.506C80.3928 103.571 80.4265 103.635 80.4602 103.693C80.4752 103.719 80.4865 103.743 80.5014 103.767C80.5537 103.854 80.6113 103.938 80.6738 104.017C81.0746 104.515 81.6647 104.832 82.1012 105.299C82.1012 105.317 82.1012 105.336 82.1012 105.353C82.1012 105.405 82.1012 105.455 82.1012 105.508C82.1243 106.548 82.4023 107.566 82.911 108.475C83.4196 109.383 84.1435 110.154 85.0197 110.721C85.0197 110.792 85.0291 110.865 85.0328 110.935C85.0693 111.489 85.0624 112.045 85.0122 112.597C84.9359 112.508 84.8404 112.437 84.7328 112.389C84.6251 112.341 84.5081 112.318 84.3903 112.321C84.3098 112.317 84.2291 112.324 84.1505 112.342L84.1336 112.329V112.346C83.7215 112.446 83.2139 112.873 82.7287 114.088C82.7287 114.088 81.2526 115.744 80.1287 115.675C79.0047 115.606 76.1593 117.398 76.1593 117.398C76.1593 117.398 73.3831 119.193 72.7875 121.021C72.4545 122.057 72.0553 123.072 71.5923 124.057L68.1606 131.099L67.5274 136.685C67.5274 136.685 67.8777 139.17 67.8084 139.548C67.7391 139.927 69.2489 143.342 69.2489 143.342C69.2489 143.342 74.2373 152.07 76.2754 152.517L76.4215 152.415C76.5087 152.46 76.6012 152.495 76.6969 152.517L77.1165 152.223C77.1417 152.551 77.131 152.881 77.0847 153.207C76.8037 154.069 77.1896 159.693 77.6803 160.795C78.1711 161.898 77.9969 176.351 77.9969 176.351L77.9276 177.627C77.9276 177.627 77.9276 177.668 77.9445 177.739L77.9276 178.041L77.9782 178.067C78.0307 178.472 78.0136 178.883 77.9276 179.282C77.7515 179.841 77.6803 181.423 77.6803 181.423C77.6803 181.423 76.2773 190.354 76.9423 192.148C77.6073 193.942 78.173 195.908 78.173 195.908C78.173 195.908 78.8755 198.147 78.2067 198.529C77.538 198.911 75.6366 199.553 76.0282 200.486C76.3841 201.347 77.7347 203.657 77.9351 203.994L77.9182 204.171L77.6429 207.143C77.6875 207.535 77.7943 207.918 77.9595 208.277C78.261 208.924 78.8474 209.596 79.9619 209.523C80.1493 209.51 80.3666 209.487 80.5764 209.459C82.6163 209.187 85.1283 208.281 85.1283 208.281C84.9979 208.198 84.8784 208.1 84.7724 207.988C84.6721 207.891 84.5927 207.775 84.5389 207.647C84.4851 207.518 84.4581 207.381 84.4596 207.242C84.4896 206.701 83.4724 204.123 83.2195 203.489C83.1802 203.397 83.1596 203.345 83.1596 203.345C83.1596 203.345 85.4786 200.932 85.0927 198.792C85.0927 198.792 82.5264 197.3 83.3712 196.481C84.2161 195.662 85.7259 193.31 85.7259 193.31C85.7259 193.31 85.7952 184.516 85.7259 183.202C85.6536 182.291 85.697 181.374 85.8551 180.474C85.8832 180.337 85.917 180.205 85.9526 180.074C87.1209 180.248 88.3004 180.337 89.4817 180.341C89.9126 180.341 90.3509 180.341 90.793 180.315C90.793 180.439 90.7986 180.574 90.8099 180.718C90.9073 182.896 91.089 186.717 91.237 188.136C91.4468 190.171 92.6063 195.655 92.6063 195.655C92.6063 195.655 90.394 197.069 92.9922 200.553C92.9922 200.553 92.9922 201.816 92.8198 201.998C92.6359 202.596 92.4876 203.204 92.3759 203.819C92.2672 204.475 92.2223 205.14 92.3984 205.485C92.8198 206.309 95.3487 206.242 95.3487 206.242L95.4105 206.231C95.8879 206.182 96.3704 206.227 96.8299 206.365C97.2894 206.503 97.7169 206.731 98.0874 207.035C99.0483 207.803 102.696 207.465 104.67 207.221C105.444 207.124 105.961 207.035 105.961 207.035C105.986 206.947 105.995 206.856 105.987 206.766C105.966 206.283 105.586 205.223 103.008 204.278C103.008 204.278 100.584 202.655 100.618 201.241H100.568H100.287C100.491 201.23 100.622 201.241 100.622 201.241C100.622 201.241 99.6721 197.79 100.06 197.511C100.448 197.231 99.2862 193.407 99.2862 193.407C99.2862 193.407 98.6213 186.991 98.5857 186.541C98.5872 186.155 98.6459 185.772 98.7599 185.403L98.5857 181.886C98.5857 181.886 98.5519 180.716 98.5857 180.336C98.58 180.005 98.5531 179.676 98.5051 179.349C98.4882 179.218 98.4714 179.082 98.4527 178.948C99.3612 178.718 99.9512 178.506 99.9512 178.506L99.8463 166.26C100.618 164.768 100.76 161.495 100.757 159.172C100.757 157.68 100.689 156.576 100.689 156.576L101.744 154.862C101.744 154.862 101.987 152.81 101.602 152.361C101.431 152.157 101.508 151.947 101.648 151.773C101.721 151.715 101.798 151.663 101.879 151.616C101.879 151.616 101.868 151.6 101.854 151.575C101.928 151.514 102.006 151.459 102.089 151.409C102.089 151.409 101.714 150.831 102.049 150.587C102.364 150.799 102.645 150.96 102.859 151.09C102.844 151.227 102.829 151.305 102.829 151.305L102.918 151.118C103.125 151.234 103.25 151.305 103.25 151.305C103.25 151.305 104.902 148.028 104.867 147.545C104.831 147.061 105.991 145.026 105.991 145.026C105.991 145.026 106.131 143.958 106.764 143.51C107.397 143.062 107.255 139.819 107.255 139.819C107.255 139.819 107.431 138.129 107.853 137.439C108.274 136.749 107.469 135.818 107.469 135.818ZM75.8558 134.38L75.8877 135.161C75.7003 134.861 75.5655 134.645 75.5655 134.645L75.8558 134.38Z" fill="url(#paint0_linear)"/>
<path d="M103.34 149.889L102.935 151.605C102.935 151.605 99.6947 149.958 99.1103 147.865C98.5258 145.772 100.088 144.978 100.088 144.978L103.108 146.252L103.34 149.889Z" fill="white"/>
<path opacity="0.1" d="M103.34 149.889L102.935 151.605C102.935 151.605 99.6947 149.958 99.1103 147.865C98.5258 145.772 100.088 144.978 100.088 144.978L103.108 146.252L103.34 149.889Z" fill="black"/>
<path d="M85.1526 208.292C85.1526 208.292 82.1555 209.388 80.0949 209.526C79.0009 209.599 78.4259 208.931 78.1299 208.288C77.9682 207.93 77.8639 207.549 77.8208 207.159L78.0887 204.203L78.231 202.629L82.6088 201.497L83.2288 203.384L83.2869 203.528C83.536 204.158 84.5345 206.723 84.5045 207.258C84.5033 207.395 84.5299 207.531 84.5827 207.658C84.6354 207.785 84.7134 207.899 84.8117 207.995C84.9122 208.108 85.0268 208.208 85.1526 208.292Z" fill="white"/>
<path d="M105.625 206.788C105.633 206.878 105.624 206.968 105.599 207.055C105.599 207.055 99.1888 208.12 97.8776 207.055C97.5079 206.744 97.0769 206.513 96.6124 206.378C96.1478 206.242 95.66 206.205 95.1801 206.268C95.1801 206.268 92.6999 206.335 92.2859 205.522C92.1136 205.18 92.1586 204.518 92.2653 203.865C92.3743 203.254 92.5194 202.649 92.6999 202.054L92.7992 201.976L93.3893 201.504L100.298 201.301H100.35C100.317 202.707 102.696 204.321 102.696 204.321C105.223 205.253 105.595 206.307 105.625 206.788Z" fill="white"/>
<path opacity="0.1" d="M105.625 206.788C105.632 206.878 105.622 206.968 105.597 207.055C105.597 207.055 99.1889 208.12 97.8777 207.055C97.5082 206.744 97.0776 206.514 96.6134 206.378C96.1492 206.242 95.6617 206.205 95.1821 206.268C95.1821 206.268 92.7 206.335 92.2879 205.522C92.1156 205.179 92.1587 204.518 92.2654 203.865C93.2208 203.961 94.7287 204.197 95.3207 204.763C96.2161 205.623 97.7334 206.481 98.6644 206.548C99.3931 206.594 103.752 206.732 105.625 206.788Z" fill="black"/>
<path opacity="0.1" d="M85.1527 208.292C85.1527 208.292 82.1555 209.388 80.095 209.526C79.001 209.599 78.4259 208.931 78.1318 208.286C78.8942 208.542 79.9526 208.81 80.509 208.564C81.1684 208.273 83.5062 208.085 84.8174 208.004C84.9172 208.113 85.0298 208.21 85.1527 208.292Z" fill="black"/>
<path d="M89.5997 119.907C87.1271 118.95 83.9463 115.789 84.7406 114.311C84.917 113.938 85.0218 113.536 85.0496 113.125C85.1007 112.567 85.1083 112.006 85.0721 111.446C85.0164 110.53 84.9057 109.618 84.7406 108.716C84.7406 108.716 92.4602 108.889 92.0106 110.021C91.8795 110.353 91.8589 110.93 91.8945 111.575C91.9301 112.22 92.0237 112.95 92.1211 113.567C92.256 114.414 92.3909 115.059 92.3909 115.059C92.3909 115.059 91.9188 115.718 91.6416 115.753C91.3643 115.789 93.1477 121.27 89.5997 119.907Z" fill="#CF6F80"/>
<path opacity="0.1" d="M83.2814 203.528L83.2233 203.591C80.9155 200.812 78.1243 204.276 78.1243 204.276L78.0831 204.203L78.2255 202.629L82.6032 201.497L83.2233 203.384L83.2814 203.528Z" fill="black"/>
<path opacity="0.1" d="M100.352 201.497C100.352 201.497 98.6663 201.461 97.7671 202.252C96.868 203.043 92.522 202.424 92.7094 202.252C92.7649 202.167 92.7983 202.07 92.8068 201.969L93.3969 201.497L100.305 201.293C100.332 201.418 100.352 201.497 100.352 201.497Z" fill="black"/>
<path d="M86.1531 179.671C86.0275 179.981 85.9322 180.301 85.8683 180.628C85.7121 181.525 85.6687 182.437 85.7391 183.344C85.8084 184.65 85.7391 193.4 85.7391 193.4C85.7391 193.4 84.2574 195.733 83.4313 196.556C82.6052 197.378 85.1172 198.855 85.1172 198.855C85.4918 200.982 83.2215 203.384 83.2215 203.384C80.9136 200.605 78.1225 204.071 78.1225 204.071C78.1225 204.071 76.6052 201.459 76.2268 200.527C75.8484 199.594 77.7085 198.949 78.3623 198.57C79.016 198.191 78.3304 195.959 78.3304 195.959C78.3304 195.959 77.7778 194.002 77.1222 192.217C76.4666 190.432 77.8453 181.546 77.8453 181.546C77.8453 181.546 77.9165 179.968 78.0869 179.418C78.1729 179.021 78.19 178.612 78.1375 178.209C78.1263 178.073 78.1131 177.959 78.1038 177.883C78.0944 177.806 78.0869 177.771 78.0869 177.771L78.1131 177.726L79.0498 175.988C79.0498 175.988 86.6026 178.577 86.1531 179.671Z" fill="#EB5569"/>
<path d="M100.352 201.291C100.352 201.291 98.6662 201.256 97.767 202.037C96.8679 202.819 92.522 202.209 92.7093 202.037C92.8966 201.866 92.8816 200.596 92.8816 200.596C90.3322 197.13 92.507 195.724 92.507 195.724C92.507 195.724 91.3681 190.268 91.162 188.244C91.0178 186.83 90.8398 183.031 90.7443 180.861C90.7031 179.929 90.6787 179.287 90.6787 179.287L92.7617 178.869L93.0296 178.815L98.0536 177.812C98.0536 177.812 98.1922 178.744 98.2859 179.507C98.3326 179.833 98.3589 180.161 98.3646 180.49C98.3308 180.863 98.3646 182.031 98.3646 182.031L98.535 185.532C98.4237 185.899 98.3662 186.281 98.3646 186.664C98.3983 187.11 99.052 193.493 99.052 193.493C99.052 193.493 100.189 197.302 99.8013 197.576C99.4136 197.85 100.352 201.291 100.352 201.291Z" fill="#EB5569"/>
<path opacity="0.1" d="M92.0106 110.021C91.8795 110.353 91.8589 110.93 91.8945 111.575C90.8605 112.195 89.6718 112.512 88.465 112.49C87.2582 112.467 86.0822 112.106 85.0722 111.448C85.0166 110.532 84.9058 109.619 84.7406 108.716C84.7406 108.716 92.4602 108.885 92.0106 110.021Z" fill="black"/>
<path d="M94.9947 105.899C94.9962 106.571 94.8899 107.239 94.68 107.878C94.2106 109.31 93.2483 110.53 91.9629 111.323C90.6776 112.116 89.1521 112.431 87.656 112.212C86.1598 111.994 84.7895 111.256 83.7871 110.129C82.7846 109.001 82.2147 107.557 82.178 106.052C82.178 106 82.178 105.951 82.178 105.899C82.1635 105.052 82.3185 104.21 82.6341 103.423C82.9496 102.636 83.4194 101.92 84.016 101.315C84.6126 100.711 85.3241 100.231 86.1089 99.9036C86.8937 99.576 87.7362 99.4072 88.5873 99.4072C89.4383 99.4072 90.2808 99.576 91.0656 99.9036C91.8505 100.231 92.5619 100.711 93.1585 101.315C93.7551 101.92 94.2249 102.636 94.5405 103.423C94.856 104.21 95.0111 105.052 94.9965 105.899H94.9947Z" fill="#CF6F80"/>
<path opacity="0.1" d="M89.5997 119.907C87.1271 118.95 83.9463 115.789 84.7406 114.311C84.917 113.939 85.0218 113.536 85.0496 113.125L88.4346 115.895L90.5289 117.605L92.1211 113.569C92.256 114.416 92.3909 115.061 92.3909 115.061C92.3909 115.061 91.9188 115.72 91.6416 115.755C91.3643 115.79 93.1477 121.271 89.5997 119.907Z" fill="black"/>
<path d="M98.3534 132.149L95.5267 179.433L91.8401 179.673L82.2941 152.256L83.8602 119.706L84.1898 112.829L88.4346 116.3L90.5307 118.01L92.1698 113.856L95.2176 116.501L98.3534 132.149Z" fill="#EB5569"/>
<path opacity="0.1" d="M86.153 179.672C86.0275 179.981 85.9321 180.301 85.8683 180.628C83.1858 180.216 80.5805 179.406 78.1393 178.224L78.0887 178.198L78.1056 177.898L78.115 177.741L79.0516 176.003C79.0516 176.003 86.6026 178.577 86.153 179.672Z" fill="black"/>
<path opacity="0.1" d="M92.8048 180.636C92.1191 180.752 91.4274 180.83 90.733 180.871C90.6918 179.938 90.6675 179.296 90.6675 179.296L92.7505 178.879L92.8048 180.636Z" fill="black"/>
<path opacity="0.1" d="M98.2747 179.517C96.9429 179.862 94.886 180.25 93.0447 180.007L93.0184 178.825L98.0424 177.821C98.0424 177.821 98.1811 178.745 98.2747 179.517Z" fill="black"/>
<path opacity="0.1" d="M93.0109 180.223C85.3306 181.529 78.2966 177.786 78.2966 177.786L78.3641 176.517C78.3641 176.517 78.5383 162.138 78.055 161.036C77.5717 159.933 77.1952 154.343 77.4687 153.485C77.7422 152.627 76.4702 139.761 76.4702 139.761L76.2642 134.538L68.7225 131.496L72.0944 124.497C72.5498 123.516 72.9415 122.507 73.267 121.476C73.8533 119.659 76.5751 117.874 76.5751 117.874C76.5751 117.874 79.3663 116.091 80.4696 116.158C81.5729 116.225 83.0191 114.58 83.0191 114.58C84.0868 111.87 85.0534 113.097 85.0534 113.097C85.0534 113.226 85.0534 113.097 85.0009 113.498C84.6263 116.473 91.059 125.874 91.1508 126.04L91.7633 140.898L92.3834 159.702L93.0109 180.223Z" fill="black"/>
<path d="M92.8049 180.224C85.1246 181.529 78.0887 177.786 78.0887 177.786L78.158 176.517C78.158 176.517 78.3322 162.138 77.8471 161.036C77.3619 159.934 76.9873 154.343 77.2626 153.485C77.538 152.627 76.2642 139.761 76.2642 139.761L76.0563 134.538L68.5109 131.485L71.8827 124.486C72.3371 123.505 72.7288 122.496 73.0553 121.465C73.6398 119.648 76.3635 117.863 76.3635 117.863C76.3635 117.863 79.1546 116.08 80.2561 116.147C81.3575 116.214 82.8055 114.569 82.8055 114.569C83.8751 111.859 85.0534 113.086 85.0534 113.086C85.0534 113.215 84.941 113.273 85.001 113.487C85.8252 116.373 90.8529 125.863 90.9447 126.029L91.5648 140.888L92.1848 159.691L92.8049 180.224Z" fill="white"/>
<path opacity="0.1" d="M90.735 126.452C89.9089 126.109 85.533 121.135 85.533 121.135V120.002C85.3737 119.629 84.4278 119.857 83.6597 120.118L83.9894 113.241L84.3641 113.551C85.1846 116.434 90.6394 126.286 90.735 126.452Z" fill="black"/>
<path d="M90.9429 126.04C90.1149 125.697 85.739 120.722 85.739 120.722V119.59C85.5798 119.217 84.6338 119.445 83.8658 119.706L84.1973 112.829L84.572 113.138C85.3943 116.022 90.8511 125.876 90.9429 126.04Z" fill="white"/>
<path opacity="0.1" d="M78.2967 150.85C78.3997 150.85 83.6372 150.301 83.6372 150.301C83.6372 150.301 86.8086 156.511 86.6007 158.022C86.3928 159.532 86.0163 160.87 84.7406 160.633C83.4649 160.396 77.8752 160.819 77.8752 160.819L78.2967 150.85Z" fill="black"/>
<path d="M78.0887 150.438C78.1917 150.438 83.4293 149.889 83.4293 149.889C83.4293 149.889 86.5988 156.1 86.3928 157.609C86.1867 159.118 85.8064 160.458 84.5326 160.221C83.2588 159.984 77.6672 160.407 77.6672 160.407L78.0887 150.438Z" fill="white"/>
<path d="M82.0356 147.522C82.0356 147.522 86.8423 150.094 86.9454 150.88C87.0484 151.665 84.4989 150.536 83.9482 150.4C83.5857 150.313 83.2167 150.256 82.8449 150.229L79.1714 150.328L82.0356 147.522Z" fill="#CF6F80"/>
<path opacity="0.1" d="M89.3937 126.773C89.673 126.773 89.8994 126.548 89.8994 126.269C89.8994 125.991 89.673 125.766 89.3937 125.766C89.1143 125.766 88.8879 125.991 88.8879 126.269C88.8879 126.548 89.1143 126.773 89.3937 126.773Z" fill="black"/>
<path d="M89.3937 126.568C89.673 126.568 89.8994 126.343 89.8994 126.064C89.8994 125.786 89.673 125.561 89.3937 125.561C89.1143 125.561 88.8879 125.786 88.8879 126.064C88.8879 126.343 89.1143 126.568 89.3937 126.568Z" fill="#3F3D56"/>
<path opacity="0.1" d="M90.3247 148.574C90.6041 148.574 90.8305 148.349 90.8305 148.071C90.8305 147.792 90.6041 147.567 90.3247 147.567C90.0454 147.567 89.819 147.792 89.819 148.071C89.819 148.349 90.0454 148.574 90.3247 148.574Z" fill="black"/>
<path d="M90.3247 148.367C90.6041 148.367 90.8305 148.141 90.8305 147.863C90.8305 147.585 90.6041 147.36 90.3247 147.36C90.0454 147.36 89.819 147.585 89.819 147.863C89.819 148.141 90.0454 148.367 90.3247 148.367Z" fill="#3F3D56"/>
<path opacity="0.1" d="M89.8976 137.674C90.1769 137.674 90.4034 137.448 90.4034 137.17C90.4034 136.892 90.1769 136.667 89.8976 136.667C89.6183 136.667 89.3918 136.892 89.3918 137.17C89.3918 137.448 89.6183 137.674 89.8976 137.674Z" fill="black"/>
<path d="M89.8976 137.468C90.1769 137.468 90.4034 137.243 90.4034 136.965C90.4034 136.686 90.1769 136.461 89.8976 136.461C89.6183 136.461 89.3918 136.686 89.3918 136.965C89.3918 137.243 89.6183 137.468 89.8976 137.468Z" fill="#3F3D56"/>
<path d="M101.557 150.124C101.557 150.124 101.901 150.639 101.557 150.879C101.212 151.12 101.59 151.702 101.59 151.702C101.59 151.702 100.731 152.204 101.109 152.655C101.487 153.106 101.248 155.145 101.248 155.145L100.214 156.85C100.214 156.85 100.275 157.949 100.279 159.433C100.279 161.75 100.142 165.007 99.3855 166.491L99.4904 178.673C99.4904 178.673 95.8695 179.99 92.8386 179.589L92.389 160.041C92.389 160.041 93.0446 148.956 93.2863 146.83C93.4277 145.726 93.4853 144.613 93.4586 143.5C93.4586 143.5 93.3556 140.173 93.009 138.628C93.009 138.628 92.6344 131.938 92.5969 130.086C92.5801 129.2 92.6269 126.614 92.6794 124.156C92.7374 121.468 92.803 118.933 92.803 118.933L92.1193 113.547C92.1193 113.547 92.803 113.478 93.009 113.752C93.1013 113.838 93.2017 113.914 93.3088 113.981C94.4889 114.776 98.6587 117.219 98.6587 117.219C98.6587 117.219 100.967 118.133 101.519 119.443C102.072 120.752 102.456 121.681 102.724 122.054C102.992 122.427 103.138 124.18 103.138 124.18C103.138 124.18 103.932 127.407 104.552 127.954C105.172 128.5 105.625 131.977 105.625 131.977L100.146 136.267C100.146 136.267 99.6647 143.403 99.5616 143.68C99.4586 143.956 101.557 150.124 101.557 150.124Z" fill="white"/>
<path d="M101.765 150.124C101.765 150.124 102.107 150.639 101.765 150.88C101.422 151.12 101.796 151.702 101.796 151.702C101.796 151.702 100.942 152.21 101.317 152.661C101.692 153.112 101.456 155.151 101.456 155.151L100.421 156.856C100.421 156.856 100.483 157.955 100.489 159.439C100.489 161.756 100.352 165.013 99.5954 166.497L99.6984 178.679C99.6984 178.679 96.0718 179.996 93.0447 179.595L92.597 160.047C92.597 160.047 93.2526 148.962 93.4943 146.836C93.6358 145.732 93.6928 144.619 93.6647 143.506C93.6647 143.506 93.5617 140.179 93.217 138.634C93.217 138.634 92.8424 131.944 92.803 130.092C92.7862 129.206 92.8349 126.62 92.8855 124.162C92.9435 121.474 93.0091 118.939 93.0091 118.939L92.1062 113.48C92.1062 113.48 93.0091 113.48 93.217 113.758C93.3085 113.845 93.4089 113.921 93.5167 113.987C94.6969 114.782 98.8686 117.225 98.8686 117.225C98.8686 117.225 101.175 118.139 101.727 119.449C102.28 120.758 102.664 121.687 102.933 122.06C103.203 122.433 103.346 124.186 103.346 124.186C103.346 124.186 104.14 127.413 104.76 127.96C105.38 128.506 105.828 131.975 105.828 131.975L100.348 136.266C100.348 136.266 99.867 143.402 99.7621 143.678C99.6572 143.954 101.765 150.124 101.765 150.124Z" fill="white"/>
<path opacity="0.1" d="M95.2027 120.523L95.6973 121.959L93.0935 124.57C93.1515 121.884 93.2171 119.348 93.2171 119.348L92.3142 113.888C92.3142 113.888 93.2171 113.888 93.425 114.166C93.5162 114.252 93.6167 114.329 93.7248 114.393L95.9389 120.754L95.2027 120.523Z" fill="black"/>
<path d="M94.9947 120.11L95.4911 121.547L92.8873 124.158C92.9454 121.47 93.011 118.935 93.011 118.935L92.1062 113.476C92.1062 113.476 93.011 113.476 93.217 113.754C93.3089 113.84 93.4093 113.917 93.5167 113.983L95.7328 120.342L94.9947 120.11Z" fill="white"/>
<path opacity="0.1" d="M94.9947 105.899C94.9962 106.571 94.8899 107.239 94.68 107.878C94.6446 107.884 94.6084 107.882 94.5737 107.873C94.5389 107.865 94.5063 107.849 94.4776 107.828C94.4289 106.149 93.5991 104.573 92.5782 103.232C92.2916 102.827 91.9441 102.468 91.5479 102.169C91.1474 101.869 90.6492 101.729 90.1505 101.775C89.5885 101.852 89.0921 102.232 88.5245 102.281C87.7752 102.342 87.1046 101.826 86.3609 101.799C86.0586 101.802 85.7604 101.869 85.4861 101.996C85.2119 102.123 84.9679 102.306 84.7706 102.534C84.3799 102.995 84.0896 103.531 83.9182 104.109C83.6237 104.985 83.4633 105.9 83.4424 106.824C83.4331 107.347 83.3825 108.001 82.8955 108.192C82.9321 107.807 82.8883 107.42 82.7667 107.054C82.6451 106.687 82.4485 106.35 82.1892 106.063L82.178 106.052C82.178 106 82.178 105.951 82.178 105.899C82.1635 105.052 82.3185 104.21 82.6341 103.423C82.9496 102.636 83.4194 101.92 84.016 101.315C84.6126 100.711 85.3241 100.231 86.1089 99.9036C86.8937 99.576 87.7362 99.4072 88.5873 99.4072C89.4383 99.4072 90.2808 99.576 91.0656 99.9036C91.8505 100.231 92.5619 100.711 93.1585 101.315C93.7551 101.92 94.2249 102.636 94.5405 103.423C94.856 104.21 95.0111 105.052 94.9965 105.899H94.9947Z" fill="black"/>
<path d="M91.2407 95.7652C90.2673 95.3092 89.1602 95.223 88.1274 95.5227C87.6085 95.6756 87.1196 95.9237 86.5932 96.0487C85.4693 96.3191 84.158 96.0263 83.1933 96.681C82.6576 97.054 82.3354 97.6434 82.0357 98.2161L81.2864 99.6374C80.878 100.415 80.4659 101.206 80.2954 102.062C80.125 102.918 80.228 103.877 80.7731 104.565C81.1702 105.067 81.7565 105.382 82.1874 105.854C82.4455 106.141 82.6413 106.478 82.7625 106.844C82.8837 107.21 82.9277 107.597 82.8917 107.981C83.3806 107.794 83.4275 107.138 83.4387 106.615C83.4596 105.691 83.62 104.776 83.9145 103.899C84.0855 103.321 84.3758 102.785 84.7668 102.325C84.9644 102.097 85.2083 101.914 85.4826 101.787C85.7568 101.661 86.0549 101.593 86.3572 101.59C87.1065 101.616 87.779 102.131 88.5208 102.07C89.0828 102.023 89.5811 101.641 90.1468 101.566C90.6456 101.519 91.144 101.659 91.5442 101.96C91.9402 102.259 92.2872 102.618 92.5726 103.023C93.5954 104.364 94.4252 105.936 94.4739 107.619C94.6856 107.774 94.991 107.572 95.0959 107.333C95.2008 107.095 95.2045 106.815 95.3375 106.587C95.4911 106.324 95.7852 106.184 96.0156 105.987C96.6001 105.485 96.7462 104.64 96.7237 103.873C96.7012 103.107 96.5514 102.329 96.6975 101.575C96.7855 101.113 96.9841 100.68 97.0927 100.223C97.2014 99.7661 97.2145 99.2532 96.9579 98.8596C96.5832 98.2814 95.7946 98.1676 95.1071 98.1135C94.326 98.0463 93.6272 98.1321 93.129 97.4774C92.8951 97.1358 92.6318 96.815 92.3422 96.5187C92.2429 96.4217 91.2407 95.8062 91.2407 95.7652Z" fill="#512E4E"/>
<path opacity="0.1" d="M70.8805 135.1L68.923 131.496L68.3029 137.056C68.3029 137.056 68.6476 139.526 68.5783 139.904C68.509 140.283 69.9907 143.678 69.9907 143.678C69.9907 143.678 74.8855 152.359 76.8842 152.806L83.6372 148.001L81.8464 145.737C81.8464 145.737 81.2264 145.496 81.0709 145.737C81.0709 145.737 77.7459 140.041 77.4012 139.628C77.0565 139.216 77.124 138.394 77.124 138.394C77.124 138.394 76.607 137.845 76.7793 137.33C76.9516 136.816 75.7809 135.03 75.7809 135.03L76.8486 134.036L70.8805 135.1Z" fill="black"/>
<path d="M69.026 131.085L68.509 131.496L67.889 137.056C67.889 137.056 68.2337 139.526 68.1643 139.904C68.095 140.283 69.5786 143.678 69.5786 143.678C69.5786 143.678 74.4715 152.359 76.4703 152.806L83.2252 148.001L81.4325 145.737C81.4325 145.737 80.8124 145.496 80.657 145.737C80.657 145.737 77.332 140.04 76.9873 139.628C76.6426 139.216 76.7119 138.393 76.7119 138.393C76.7119 138.393 76.1949 137.845 76.3672 137.33C76.5396 136.815 75.3669 135.03 75.3669 135.03L76.4347 134.036L69.026 131.085Z" fill="white"/>
<path opacity="0.1" d="M101.109 152.868C101.484 153.321 101.247 155.356 101.247 155.356L100.213 157.061C100.213 157.061 100.275 158.161 100.279 159.644L98.5407 160.185C98.3836 160.234 98.217 160.245 98.0549 160.217C97.8928 160.188 97.7398 160.122 97.6087 160.023C97.4776 159.924 97.3723 159.795 97.3014 159.647C97.2305 159.499 97.1962 159.336 97.2013 159.172L97.501 149.546L101.557 151.09C101.212 151.329 101.59 151.915 101.59 151.915C101.59 151.915 100.73 152.415 101.109 152.868Z" fill="black"/>
<path d="M101.317 152.661C101.691 153.114 101.455 155.151 101.455 155.151L100.421 156.856C100.421 156.856 100.483 157.954 100.489 159.439L98.7186 159.989C98.5647 160.037 98.4017 160.047 98.243 160.02C98.0843 159.992 97.9346 159.927 97.8063 159.83C97.6781 159.732 97.5749 159.606 97.5055 159.461C97.4361 159.317 97.4025 159.158 97.4073 158.997L97.7089 149.341L101.766 150.885C101.42 151.124 101.798 151.708 101.798 151.708C101.798 151.708 100.942 152.21 101.317 152.661Z" fill="white"/>
<path d="M102.66 148.072C102.66 148.072 102.385 149.824 101.695 149.926C101.006 150.029 100.697 152.76 100.009 152.663C99.3219 152.566 99.7771 150.124 99.8014 149.65C99.8258 149.176 99.0521 147.214 99.6309 146.768C100.21 146.323 102.042 146.768 102.042 146.768L102.66 148.072Z" fill="#CF6F80"/>
<path opacity="0.1" d="M104.127 134.585L105.427 131.973C105.427 131.973 105.944 133.964 105.944 135.027C105.944 136.09 106.667 136.194 106.667 136.194C106.667 136.194 107.459 137.127 107.041 137.806C106.624 138.485 106.455 140.175 106.455 140.175C106.455 140.175 106.592 143.4 105.972 143.846C105.352 144.291 105.223 145.357 105.223 145.357C105.223 145.357 104.084 147.38 104.119 147.862C104.155 148.343 102.534 151.601 102.534 151.601C102.534 151.601 103.327 147.552 98.7093 145.802C98.7093 145.802 98.6737 144.428 99.0184 144.051C99.3631 143.674 99.9007 143.502 99.5635 141.598C99.2263 139.694 99.4661 137.418 99.4661 136.961C99.4661 136.504 100.5 133.654 100.5 133.654L104.127 134.585Z" fill="black"/>
<path d="M104.689 131.6L105.824 131.973C105.824 131.973 106.343 133.964 106.343 135.027C106.343 136.09 107.066 136.194 107.066 136.194C107.066 136.194 107.858 137.127 107.441 137.806C107.023 138.485 106.856 140.175 106.856 140.175C106.856 140.175 106.993 143.4 106.373 143.846C105.753 144.291 105.614 145.357 105.614 145.357C105.614 145.357 104.477 147.38 104.513 147.862C104.548 148.343 102.926 151.601 102.926 151.601C102.926 151.601 103.72 147.552 99.1009 145.802C99.1009 145.802 99.0672 144.428 99.4118 144.051C99.7565 143.674 100.294 143.502 99.9569 141.598C99.6198 139.694 99.8595 137.418 99.8595 136.961C99.8595 136.504 100.894 133.654 100.894 133.654L104.689 131.6Z" fill="white"/>
<path opacity="0.1" d="M79.6154 199.284C79.6154 199.284 81.4249 198.152 82.6126 198.975C83.8002 199.797 79.6154 199.284 79.6154 199.284Z" fill="black"/>
<path opacity="0.1" d="M93.6759 195.783C93.6759 195.783 95.2775 195.578 96.6225 197.02C97.9675 198.462 93.6759 195.783 93.6759 195.783Z" fill="black"/>
<g opacity="0.1">
<path opacity="0.1" d="M96.0193 105.579C95.7889 105.776 95.4929 105.918 95.3393 106.181C95.2082 106.407 95.2044 106.685 95.0995 106.927C94.9946 107.17 94.6893 107.367 94.4776 107.214C94.4289 105.536 93.5972 103.959 92.5763 102.617C92.2909 102.211 91.9439 101.853 91.5479 101.553C91.147 101.253 90.648 101.113 90.1486 101.16C89.5866 101.236 89.0921 101.617 88.5245 101.663C87.7752 101.727 87.1027 101.21 86.359 101.184C86.0568 101.187 85.7587 101.254 85.4848 101.381C85.2108 101.508 84.9673 101.692 84.7705 101.921C84.3795 102.38 84.0892 102.916 83.9182 103.493C83.6238 104.37 83.4635 105.285 83.4424 106.209C83.4312 106.729 83.3825 107.378 82.8992 107.572C82.9104 107.71 82.9104 107.849 82.8992 107.987C83.3862 107.8 83.4349 107.143 83.4462 106.621C83.467 105.697 83.6274 104.782 83.922 103.905C84.0929 103.327 84.3832 102.791 84.7743 102.331C84.9714 102.103 85.2151 101.92 85.489 101.793C85.7629 101.666 86.0608 101.599 86.3628 101.596C87.1121 101.622 87.7864 102.137 88.5282 102.076C89.0902 102.029 89.5885 101.647 90.1523 101.572C90.6517 101.525 91.1507 101.665 91.5516 101.966C91.9477 102.265 92.2946 102.623 92.58 103.029C93.6009 104.37 94.4327 105.942 94.4814 107.625C94.693 107.779 94.9984 107.578 95.1033 107.339C95.2082 107.101 95.2119 106.821 95.3431 106.593C95.4967 106.33 95.7926 106.19 96.023 105.993C96.6075 105.491 96.7536 104.646 96.7311 103.879C96.7311 103.855 96.7311 103.831 96.7311 103.808C96.6955 104.472 96.5176 105.149 96.0193 105.579Z" fill="black"/>
<path opacity="0.1" d="M82.1911 105.446C81.7603 104.974 81.1721 104.659 80.7768 104.159C80.444 103.716 80.2539 103.184 80.2317 102.631C80.1727 103.322 80.3663 104.01 80.7768 104.569C81.1721 105.071 81.7603 105.386 82.1911 105.858C82.6048 106.32 82.8531 106.905 82.8973 107.522C82.926 107.146 82.8782 106.769 82.7569 106.412C82.6355 106.056 82.4431 105.727 82.1911 105.446Z" fill="black"/>
<path opacity="0.1" d="M97.0964 99.8149C96.9859 100.272 96.7892 100.706 96.6993 101.167C96.646 101.475 96.6265 101.788 96.6412 102.1C96.6475 101.922 96.6669 101.745 96.6993 101.57C96.7892 101.107 96.9859 100.675 97.0964 100.218C97.1608 99.9657 97.1817 99.7046 97.1582 99.4456C97.1466 99.57 97.1259 99.6934 97.0964 99.8149Z" fill="black"/>
</g>
<path opacity="0.1" d="M45.8635 206.868C55.9442 206.868 64.1163 205.562 64.1163 203.949C64.1163 202.337 55.9442 201.03 45.8635 201.03C35.7827 201.03 27.6107 202.337 27.6107 203.949C27.6107 205.562 35.7827 206.868 45.8635 206.868Z" fill="#EB5569"/>
<path d="M46.4517 148.029H45.2772V174.361H46.4517V148.029Z" fill="#535461"/>
<path d="M53.8321 174.281L53.7591 175.467L53.6542 177.146L53.6111 177.843L53.5081 179.522L53.4631 180.22L53.3582 181.898L52.1743 200.937C52.1229 201.756 51.7599 202.525 51.1592 203.087C50.5586 203.649 49.7654 203.962 48.9411 203.962H42.7857C41.9616 203.962 41.1687 203.649 40.5683 203.087C39.968 202.525 39.6054 201.756 39.5544 200.937L38.3761 181.885L38.2712 180.207L38.2281 179.509L38.1232 177.83L38.0801 177.133L37.9752 175.454L37.9003 174.268C37.8873 174.039 37.9212 173.811 38.0001 173.596C38.079 173.381 38.2011 173.185 38.359 173.019C38.5169 172.853 38.7071 172.72 38.9182 172.63C39.1292 172.54 39.3565 172.494 39.5862 172.494H52.1762C52.405 172.496 52.631 172.544 52.8402 172.637C53.0494 172.729 53.2374 172.863 53.3925 173.031C53.5477 173.198 53.6668 173.395 53.7424 173.61C53.818 173.825 53.8485 174.054 53.8321 174.281Z" fill="#3F3D56"/>
<path d="M53.7592 175.467L53.6543 177.14H38.0727L37.9678 175.467H53.7592Z" fill="#9D9CB5"/>
<path d="M53.6112 177.838L53.5081 179.513H38.2207L38.1158 177.838H53.6112Z" fill="#9D9CB5"/>
<path d="M53.4632 180.212L53.3601 181.886H38.3686L38.2637 180.212H53.4632Z" fill="#9D9CB5"/>
<path d="M36.1746 157.898C43.0138 162.826 45.8686 170.534 45.8686 170.534C45.8686 170.534 37.6264 170.252 30.7853 165.324C23.9443 160.396 21.0951 152.691 21.0951 152.691C21.0951 152.691 29.3336 152.97 36.1746 157.898Z" fill="#EB5569"/>
<path d="M21.0895 152.691C21.0895 152.691 29.6464 157.419 32.3907 161.334C35.135 165.249 45.8686 170.534 45.8686 170.534" stroke="#535461" stroke-width="2" stroke-miterlimit="10"/>
<path d="M40.5903 147.972C44.3124 150.652 45.8691 154.847 45.8691 154.847C45.8691 154.847 41.3827 154.694 37.6587 152.014C33.9347 149.333 32.3818 145.136 32.3818 145.136C32.3818 145.136 36.8663 145.289 40.5903 147.972Z" fill="#EB5569"/>
<path d="M32.3818 145.136C32.3818 145.136 37.0386 147.71 38.5316 149.841C40.0246 151.971 45.8691 154.847 45.8691 154.847" stroke="#535461" stroke-width="2" stroke-miterlimit="10"/>
<path d="M51.2734 154.634C46.9968 159.314 46.092 165.43 46.092 165.43C46.092 165.43 52.122 163.957 56.3948 159.275C60.6677 154.593 61.5762 148.479 61.5762 148.479C61.5762 148.479 55.55 149.954 51.2734 154.634Z" fill="#EB5569"/>
<path d="M61.5799 148.481C61.5799 148.481 56.0089 153.278 54.5928 156.583C53.1766 159.889 46.092 165.43 46.092 165.43" stroke="#535461" stroke-width="2" stroke-miterlimit="10"/>
<path d="M208.262 152.987C208.262 152.987 205.169 137.666 206.353 135.76C206.353 135.76 206.396 133.988 206.325 131.729C206.325 131.643 206.325 131.557 206.325 131.47C206.533 131.608 206.75 131.733 206.975 131.843C208.066 132.401 209.318 132.562 210.515 132.298L209.579 131.259C209.354 131.011 209.12 130.742 209.071 130.414C209.022 130.086 209.157 129.793 209.273 129.5C210.163 127.262 210.21 124.447 208.496 122.739C207.048 121.302 206.696 119.448 205.124 118.137C203.976 117.176 203.345 115.768 202.749 114.407C202.245 113.256 201.737 112.096 201.449 110.876C201.224 109.923 201.134 108.936 200.825 108.005C200.516 107.074 199.937 106.17 199.032 105.754C198.71 105.606 198.352 105.522 198.058 105.327C197.672 105.067 197.44 104.646 197.161 104.276C195.743 102.411 190.994 103.51 188.746 104.267C188.135 104.458 187.569 104.77 187.083 105.185L187.104 105.151C187.12 105.123 187.141 105.095 187.16 105.067C186.914 105.265 186.701 105.502 186.53 105.767C186.203 106.283 186.066 106.886 185.792 107.445C185.463 108.108 183.629 109.956 184.417 110.7C184.473 110.75 184.536 110.791 184.605 110.82C184.901 110.942 185.227 110.975 185.541 110.913L185.508 110.993C185.238 111.65 185.1 112.352 185.101 113.062C185.101 116.126 187.639 118.611 190.773 118.611C191.362 118.611 191.948 118.521 192.51 118.344C192.523 118.415 192.534 118.486 192.547 118.557C192.547 118.585 192.557 118.613 192.56 118.641L192.461 118.779C192.456 118.77 192.45 118.762 192.444 118.754L189.503 122.847C189.054 123.162 186.465 125.027 186.319 126.426C186.165 127.958 186.011 129.75 186.011 129.75L185.991 130.134C185.862 130.241 185.712 130.319 185.55 130.363C185.389 130.406 185.219 130.414 185.054 130.386C184.136 130.237 184.136 133.744 184.136 133.744C184.136 133.744 183.526 134.303 183.106 133.818C182.686 133.333 181.578 134.976 181.578 134.976L174.628 135.275L174.469 135.284L174.094 134.13C174.054 134.008 173.967 133.907 173.852 133.849C173.737 133.79 173.604 133.779 173.481 133.818C173.452 133.828 173.424 133.84 173.397 133.854L173.371 133.869L173.322 133.902L173.298 133.924C173.284 133.937 173.272 133.95 173.26 133.964L173.238 133.99L173.227 134.001C173.183 134.06 173.155 134.129 173.143 134.202C173.131 134.274 173.137 134.349 173.159 134.419L173.481 135.409C172.14 135.678 170.769 136.435 171.887 138.52L166.219 137.478L168.053 139.011L177.52 140.956C177.395 141.18 177.477 141.505 177.869 141.962C179.554 143.933 182.627 144.469 183.863 144.607C184.189 145.334 184.597 146.022 185.079 146.658L184.972 148.623C184.972 148.623 181.842 163.593 181.268 164.352C181.558 164.026 181.823 163.678 182.061 163.313C181.152 166.389 179.882 170.599 179.549 171.229C179.013 172.237 178.517 176.312 179.127 176.573C179.315 176.653 179.85 176.614 180.615 176.556V176.894L180.581 189.688C180.581 189.688 180.735 197.535 180.313 198.283C179.892 199.031 179.779 200.599 179.779 200.599C179.779 200.599 178.093 203.694 176.758 204.938C176.749 204.948 176.739 204.956 176.728 204.964L176.687 204.673C176.687 204.673 175.081 206.691 171.529 206.578C171.529 206.578 169.392 207.962 172.562 208.036C175.731 208.111 179.779 207.924 179.779 207.924C179.779 207.924 182.606 203.634 184.974 204.194V207.445H185.699V204.142C186.035 203.921 186.323 203.635 186.544 203.301C186.766 202.966 186.918 202.59 186.989 202.196C187.051 201.79 187.006 201.374 186.857 200.99C186.709 200.607 186.463 200.268 186.143 200.008C185.999 199.879 185.884 199.721 185.804 199.545C185.724 199.369 185.682 199.179 185.68 198.986L185.654 199.008C185.654 198.943 185.637 198.876 185.629 198.807C185.421 197.128 185.161 193.664 186.081 191.102C187.341 187.588 187.724 182.693 186.806 179.78C186.51 178.848 186.266 177.901 186.077 176.943C186.055 176.821 186.034 176.706 186.015 176.597C186.643 176.682 187.264 176.807 187.875 176.971C190.001 177.554 194.653 177.663 198.624 177.631C198.633 177.739 198.645 177.853 198.658 177.967C198.728 178.757 198.877 179.54 199.1 180.302C199.598 181.794 199.827 188.373 199.827 188.373C199.827 188.373 200.469 193.782 200.119 195.983C199.931 197.207 199.744 198.436 199.637 199.671V199.695C199.637 199.695 198.585 202.679 197.815 204.3C197.796 204.341 197.775 204.382 197.757 204.421C197.551 204.44 197.349 204.484 197.155 204.554C197.155 204.554 196.123 206.606 195.095 206.945C194.066 207.284 194.407 208.402 196.736 207.991C199.064 207.581 202.58 207.245 202.58 207.245L202.732 205.152L203.448 204.261L203.26 206.348L204.023 206.199L203.921 203.66L205.092 202.202C205.092 202.202 206.507 200.948 204.405 198.482V198.536C204.382 198.501 204.362 198.464 204.337 198.428V198.417C203.989 197.88 203.712 196.878 204.219 195.101C205.137 191.889 205.671 188.973 205.671 188.973C205.671 188.973 207.72 181.164 205.257 177.469H205.366C205.113 176.949 204.935 176.396 204.836 175.827C204.823 175.76 204.812 175.691 204.802 175.62C206.625 175.516 208.413 175.187 209.873 174.479C209.867 174.471 208.989 155.938 208.262 152.987ZM185.122 140.061V140.098L184.747 140.117L185.122 140.061ZM183.837 140.238C183.775 140.252 183.717 140.279 183.668 140.319C183.507 140.545 183.406 140.809 183.374 141.085L182.79 140.955C182.79 140.955 182.379 140.867 181.789 140.768L181.51 140.488C182.278 140.425 183.076 140.332 183.837 140.238Z" fill="url(#paint1_linear)"/>
<path d="M203.174 203.687L202.951 206.33L203.698 206.18L203.586 203.313L203.174 203.687Z" fill="#1D2366"/>
<path d="M186.122 191.137C185.221 193.692 185.476 197.141 185.678 198.816C185.753 199.436 185.822 199.812 185.822 199.812C185.822 199.812 184.475 202.868 184.363 202.983C184.251 203.099 180.399 205.44 180.399 205.44L177.707 207.005C177.707 207.005 174.976 205.813 176.286 205.402C176.553 205.296 176.794 205.132 176.992 204.923C178.303 203.683 179.95 200.599 179.95 200.599C179.95 200.599 180.062 199.034 180.474 198.29C180.886 197.546 180.736 189.725 180.736 189.725L180.768 176.976V175.314L185.891 175.352C185.924 175.916 185.998 176.477 186.113 177.03C186.296 177.986 186.535 178.93 186.826 179.858C187.729 182.766 187.354 187.636 186.122 191.137Z" fill="#FFB0B1"/>
<path opacity="0.1" d="M185.822 199.812C185.822 199.812 184.475 202.868 184.363 202.983C184.251 203.099 180.399 205.44 180.399 205.44L177.707 207.005C177.707 207.005 174.976 205.813 176.286 205.402C176.553 205.296 176.794 205.132 176.992 204.923L177.108 205.738L178.005 205.701L185.685 198.82C185.753 199.436 185.822 199.812 185.822 199.812Z" fill="black"/>
<path d="M185.729 198.993L178.005 205.921L177.108 205.958L176.921 204.653C176.921 204.653 175.351 206.663 171.863 206.551C171.863 206.551 169.769 207.93 172.873 208.004C175.977 208.079 179.94 207.892 179.94 207.892C179.94 207.892 182.709 203.602 185.026 204.162V207.402H185.738V204.132C186.069 203.91 186.351 203.624 186.568 203.291C186.785 202.957 186.932 202.584 187.001 202.192C187.062 201.789 187.019 201.377 186.874 200.995C186.729 200.614 186.488 200.276 186.174 200.014C186.034 199.883 185.922 199.725 185.846 199.549C185.769 199.374 185.729 199.185 185.729 198.993Z" fill="#1D2366"/>
<path d="M203.886 195.121C203.387 196.893 203.659 197.891 204 198.426V198.437C204.437 199.098 204.741 199.838 204.895 200.614L204.925 200.782L201.411 205.883L199.504 206.63C199.504 206.63 196.438 205.587 196.998 205.288C197.138 205.216 197.358 204.828 197.609 204.292C198.358 202.679 199.392 199.702 199.392 199.702V199.678C199.501 198.449 199.673 197.223 199.864 196.003C200.207 193.808 199.577 188.419 199.577 188.419C199.577 188.419 199.353 181.867 198.866 180.376C198.646 179.619 198.499 178.841 198.429 178.056C198.328 177.123 198.305 176.355 198.305 176.355C198.305 176.355 200.325 173.557 204.026 176.579C204.322 176.82 204.583 177.101 204.8 177.414C207.357 181.037 205.298 189.016 205.298 189.016C205.298 189.016 204.783 191.918 203.886 195.121Z" fill="#FFB0B1"/>
<path opacity="0.1" d="M204.931 200.782L201.417 205.884L199.51 206.63C199.51 206.63 196.444 205.587 197.004 205.289C197.144 205.216 197.363 204.828 197.614 204.293C198.912 204.282 199.585 205.513 199.585 205.513L201.23 205.252C201.23 205.252 203.399 201.006 203.886 200.747C204.373 200.488 203.961 198.809 203.961 198.809V198.382C203.974 198.397 203.985 198.414 204 198.428V198.44C204.437 199.101 204.742 199.84 204.896 200.616L204.931 200.782Z" fill="black"/>
<path d="M199.697 205.623C199.697 205.623 198.761 203.91 196.966 204.543C196.966 204.543 195.956 206.594 194.947 206.926C193.937 207.258 194.274 208.378 196.556 207.969C198.837 207.561 202.277 207.223 202.277 207.223L202.427 205.136L204.746 202.194C204.746 202.194 206.128 200.947 204.071 198.49V198.917C204.071 198.917 204.483 200.596 203.996 200.855C203.509 201.114 201.348 205.362 201.348 205.362L199.697 205.623Z" fill="#1D2366"/>
<path opacity="0.1" d="M185.897 175.348C185.929 175.912 186.003 176.473 186.118 177.027C184.009 176.719 182.051 176.872 180.768 176.972V175.311L185.897 175.348Z" fill="black"/>
<path opacity="0.1" d="M205.008 177.879C205.008 177.879 202.011 178.025 198.437 178.054C198.335 177.122 198.313 176.353 198.313 176.353C198.313 176.353 200.332 173.555 204.034 176.577C204.33 176.818 204.59 177.099 204.807 177.413C204.865 177.572 204.932 177.727 205.008 177.879Z" fill="black"/>
<path d="M205.008 177.543C205.008 177.543 191.88 178.175 187.879 177.058C183.878 175.941 179.912 176.909 179.315 176.65C178.717 176.39 179.202 172.33 179.727 171.324C180.251 170.319 183.129 160.152 183.129 160.152L185.897 145.778L188.814 144.978L189.02 144.92L194.102 143.525L197.826 142.501C197.826 142.501 205.231 171.287 204.596 173.41C204.365 174.222 204.328 175.078 204.487 175.907C204.584 176.474 204.759 177.024 205.008 177.543Z" fill="#1D2366"/>
<path d="M176.246 135.948C176.246 135.948 173.624 138.746 175.609 140.305C177.595 141.865 178.901 140.454 178.901 140.454L176.246 135.948Z" fill="#C7DAF5"/>
<path opacity="0.1" d="M176.246 135.948C176.246 135.948 173.624 138.746 175.609 140.305C177.595 141.865 178.901 140.454 178.901 140.454L176.246 135.948Z" fill="black"/>
<path d="M197.434 117.553C197.434 117.553 197.127 117.844 196.665 118.273C196.005 118.887 195.029 119.784 194.164 120.536C192.965 121.574 191.976 122.337 192.33 121.686C192.684 121.035 192.616 119.901 192.44 118.84C192.427 118.769 192.416 118.698 192.403 118.629C192.257 117.85 192.064 117.08 191.824 116.324C191.824 116.324 193.761 113.832 194.833 112.849C195.232 112.476 195.511 112.323 195.527 112.582C195.546 112.931 195.808 113.701 196.134 114.518C196.144 114.544 196.153 114.569 196.164 114.595C196.382 115.154 196.627 115.729 196.843 116.225C197.172 116.986 197.434 117.553 197.434 117.553Z" fill="#FFB0B1"/>
<path opacity="0.1" d="M196.164 114.595C195.982 115.57 195.541 116.478 194.886 117.225C194.231 117.972 193.386 118.53 192.44 118.84C192.291 117.989 192.086 117.148 191.824 116.324C191.824 116.324 195.471 111.633 195.528 112.582C195.541 112.942 195.825 113.741 196.164 114.595Z" fill="black"/>
<path opacity="0.1" d="M192.077 120.094L192.549 119.431C192.549 119.431 192.862 121.33 194.012 120.493C195.162 119.655 195.218 126.795 195.218 126.795L193.984 145.174L185.063 144.642L185.316 135.762L186.326 131.285L188.823 124.777L190.309 122.627L192.077 120.094Z" fill="black"/>
<path d="M195.218 126.909L194.094 143.527L193.976 145.288L189.003 144.991L188.816 144.98L185.069 144.756L185.322 135.874L186.332 131.397L188.829 124.889L190.314 122.739L192.083 120.196L192.555 119.536C192.555 119.536 192.867 121.435 194.018 120.597L194.042 120.581C195.166 119.872 195.218 126.909 195.218 126.909Z" fill="#1D2366"/>
<path d="M186.457 129.842C186.457 129.842 186.009 130.774 185.11 130.623C184.211 130.472 184.213 133.981 184.213 133.981C184.213 133.981 183.615 134.54 183.203 134.055C182.791 133.57 181.705 135.21 181.705 135.21L174.897 135.508C174.897 135.508 177.926 136.887 177.333 141.057C177.333 141.057 187.617 140.423 187.954 139.455C188.291 138.487 186.457 129.842 186.457 129.842Z" fill="white"/>
<path opacity="0.03" d="M186.457 129.842C186.457 129.842 186.009 130.774 185.11 130.623C184.211 130.472 184.213 133.981 184.213 133.981C184.213 133.981 183.615 134.54 183.203 134.055C182.791 133.57 181.705 135.21 181.705 135.21L174.897 135.508C174.897 135.508 177.926 136.887 177.333 141.057C177.333 141.057 187.617 140.423 187.954 139.455C188.291 138.487 186.457 129.842 186.457 129.842Z" fill="black"/>
<path d="M166.674 137.7L168.469 139.225L183.241 142.316L181.409 140.455L166.674 137.7Z" fill="white"/>
<path d="M192.105 120.681C191.859 121.054 191.157 122.964 190.571 124.632C190.082 126.021 189.673 127.243 189.673 127.243C189.673 127.243 188.72 133.425 188.233 134.542C187.746 135.659 188.01 140.016 188.01 140.016L186.195 150.777C186.195 150.777 185.373 156.326 184.102 159.641C182.849 162.903 181.454 164.432 181.411 164.481C181.973 163.724 185.035 148.813 185.035 148.813L186.047 130.007C186.047 130.007 186.195 128.221 186.345 126.693C186.495 125.165 189.529 123.08 189.529 123.08L192.455 118.937C192.749 119.329 192.553 120.012 192.105 120.681Z" fill="white"/>
<path d="M184.475 144.849C184.475 144.849 180.167 144.663 178.08 142.167C175.993 139.671 182.904 141.171 182.904 141.171L184.7 141.581L184.475 144.849Z" fill="#FFB0B1"/>
<path opacity="0.1" d="M204.596 173.411C204.365 174.224 204.328 175.079 204.487 175.909C199.787 176.241 194.759 174.976 194.759 174.976C193.823 175.834 191.356 177.099 191.356 177.099L190.011 160.498C189.151 158.26 188.814 146.533 188.814 146.533C188.814 146.533 188.891 145.92 189.001 145C189.001 144.978 189.001 144.954 189.01 144.931C189.346 142.363 190.011 137.541 190.337 136.89C190.786 135.995 188.954 133.613 188.954 133.613L189.788 126.534L189.889 125.68C191.646 124.898 192.993 122.403 192.993 122.403L194.027 120.599C195.151 119.881 195.209 126.918 195.209 126.918L194.085 143.536L197.809 142.512C197.809 142.512 205.231 171.289 204.596 173.411Z" fill="black"/>
<path d="M209.419 174.559C204.296 177.092 194.984 174.745 194.984 174.745C194.047 175.603 191.58 176.868 191.58 176.868L190.234 160.267C189.376 158.029 189.038 146.302 189.038 146.302C189.038 146.302 190.121 137.552 190.571 136.659C190.702 136.398 190.638 136.01 190.483 135.592C189.718 133.603 189.437 131.463 189.662 129.345L190.022 126.303L190.121 125.451C191.88 124.667 193.227 122.172 193.227 122.172L194.164 120.538L195.887 117.527L196.704 116.102L196.842 116.227L197.901 117.182C197.901 117.182 198.35 117.555 199.025 118.115C200.491 119.346 203.026 121.513 204.333 122.839C205.484 124.007 205.847 128.549 205.952 131.968C206.021 134.219 205.98 135.984 205.98 135.984C204.82 137.884 207.853 153.144 207.853 153.144C208.559 156.093 209.419 174.559 209.419 174.559Z" fill="white"/>
<path opacity="0.03" d="M199.585 122.134C199.585 122.134 196.069 128.799 196.477 131.332C196.886 133.865 198.047 136.732 197.487 137.401C197.294 137.655 197.046 137.861 196.76 138.003C196.474 138.145 196.16 138.22 195.84 138.22C195.278 138.258 193.78 139.3 193.78 139.412C193.78 139.524 192.395 139.524 191.157 140.046C189.919 140.569 188.091 140.865 188.091 140.865C188.091 140.865 184.532 140.753 184.2 141.089C183.869 141.425 183.528 143.434 184.238 145.036C184.947 146.638 185.736 147.834 186.332 148.052C186.927 148.27 190.708 147.009 193.774 146.711C196.841 146.412 200.169 143.993 200.169 143.993C200.169 143.993 203.835 142.688 204.478 140.492C205.12 138.297 203.693 126.231 203.693 126.231C203.693 126.231 202.614 120.607 199.585 122.134Z" fill="black"/>
<path opacity="0.03" d="M199.135 121.575C199.135 121.575 195.619 128.241 196.031 130.772C196.443 133.303 197.601 136.172 197.039 136.843C196.847 137.097 196.599 137.304 196.314 137.446C196.028 137.588 195.713 137.662 195.394 137.662C194.832 137.7 193.334 138.742 193.334 138.854C193.334 138.966 191.949 138.966 190.711 139.486C189.473 140.007 187.645 140.305 187.645 140.305C187.645 140.305 184.086 140.193 183.756 140.529C183.426 140.865 183.082 142.876 183.793 144.476C184.505 146.076 185.292 147.274 185.888 147.492C186.483 147.71 190.264 146.449 193.33 146.153C196.397 145.856 199.725 143.433 199.725 143.433C199.725 143.433 203.389 142.128 204.024 139.934C204.659 137.741 203.239 125.671 203.239 125.671C203.239 125.671 202.164 120.049 199.135 121.575Z" fill="black"/>
<path d="M199.474 121.799C199.474 121.799 195.958 128.465 196.37 130.996C196.782 133.527 197.94 136.396 197.38 137.066C197.188 137.32 196.94 137.527 196.654 137.669C196.368 137.812 196.053 137.886 195.733 137.886C195.171 137.924 193.673 138.966 193.673 139.076C193.673 139.186 192.29 139.188 191.05 139.711C189.81 140.233 187.984 140.529 187.984 140.529C187.984 140.529 184.425 140.417 184.093 140.753C183.762 141.089 183.421 143.1 184.131 144.7C184.841 146.3 185.629 147.498 186.225 147.716C186.821 147.934 190.601 146.673 193.667 146.375C196.734 146.077 200.062 143.657 200.062 143.657C200.062 143.657 203.728 142.352 204.371 140.156C205.013 137.961 203.595 125.895 203.595 125.895C203.595 125.895 202.501 120.28 199.474 121.799Z" fill="white"/>
<path opacity="0.1" d="M199.398 139.679C199.398 139.679 196.588 139.119 197.566 140.052C198.543 140.984 198.538 141.801 199.735 141.764C200.932 141.727 199.398 139.679 199.398 139.679Z" fill="black"/>
<path opacity="0.1" d="M204.146 159.745C204.146 159.745 202.876 160.601 205.306 162.575C207.735 164.548 204.146 159.745 204.146 159.745Z" fill="black"/>
<path opacity="0.1" d="M201.722 166.783C201.722 166.895 201.273 170.886 202.955 171.884C204.637 172.882 201.722 166.783 201.722 166.783Z" fill="black"/>
<path d="M175.014 135.499C173.657 135.545 170.728 135.958 172.247 138.78C173.59 141.277 175.847 139.608 177.117 138.341C176.808 137.161 176.055 136.143 175.014 135.499Z" fill="#FFB0B1"/>
<path d="M177.134 138.319L177.19 138.261L177.134 138.319Z" fill="#FFB0B1"/>
<path opacity="0.1" d="M199.025 118.228C197.586 119.207 196.38 120.034 196.144 120.205C195.499 120.681 194.27 123.473 193.478 124.898C192.847 126.045 190.796 126.34 190.022 126.413L190.121 125.561C191.88 124.777 193.227 122.281 193.227 122.281L196.704 116.212L197.901 117.296C197.901 117.296 198.35 117.669 199.025 118.228Z" fill="black"/>
<path d="M199.025 118.116C197.586 119.096 196.38 119.922 196.144 120.095C195.499 120.569 194.27 123.361 193.478 124.787C192.847 125.934 190.796 126.228 190.022 126.301L190.121 125.449C191.88 124.665 193.227 122.17 193.227 122.17L196.704 116.1L197.901 117.18C197.901 117.18 198.35 117.549 199.025 118.116Z" fill="#DCE7FF"/>
<path d="M196.256 113.364C196.257 114.484 195.916 115.577 195.278 116.499C194.525 117.59 193.405 118.375 192.12 118.714C190.835 119.052 189.471 118.92 188.275 118.342C187.079 117.765 186.131 116.779 185.602 115.565C185.074 114.351 185 112.988 185.394 111.724C185.788 110.46 186.624 109.379 187.751 108.676C188.877 107.974 190.219 107.697 191.533 107.895C192.847 108.093 194.046 108.754 194.913 109.758C195.779 110.761 196.256 112.04 196.256 113.364Z" fill="#FFB0B1"/>
<path opacity="0.1" d="M205.952 131.97C205.191 131.504 204.572 130.841 204.159 130.052C203.846 129.437 203.639 128.726 203.105 128.29C202.623 127.898 201.981 127.803 201.381 127.627C199.411 127.047 197.758 125.257 197.697 123.212C197.667 122.25 197.968 121.289 197.832 120.336C197.754 119.797 197.538 119.286 197.206 118.853C197.041 118.646 196.86 118.452 196.665 118.273C196.402 118.027 196.127 117.788 195.887 117.527C195.736 117.365 195.604 117.187 195.494 116.996C195.405 116.839 195.332 116.673 195.278 116.501C194.904 115.36 195.245 114.006 194.832 112.851L194.81 112.788C194.655 112.377 194.338 111.967 193.898 111.935C193.458 111.903 193.081 112.267 192.661 112.429C191.783 112.769 190.835 112.191 190.103 111.601C189.37 111.012 188.544 110.338 187.613 110.469C186.997 110.557 186.51 110.975 185.942 111.191C185.814 111.24 185.682 111.278 185.547 111.305C186.027 110.112 186.91 109.123 188.043 108.508C189.176 107.892 190.489 107.689 191.756 107.933C193.023 108.177 194.166 108.853 194.987 109.844C195.808 110.835 196.257 112.081 196.256 113.366C196.257 113.754 196.216 114.141 196.134 114.52C196.144 114.546 196.153 114.571 196.164 114.597C196.382 115.156 196.627 115.731 196.842 116.227L197.901 117.182C197.901 117.182 198.35 117.555 199.025 118.115C200.492 119.346 203.026 121.513 204.334 122.839C205.484 124.011 205.843 128.551 205.952 131.97Z" fill="black"/>
<path d="M185.877 107.783C186.144 107.24 186.277 106.632 186.598 106.118C187.068 105.371 187.888 104.894 188.731 104.605C190.932 103.849 195.584 102.753 196.974 104.605C197.247 104.978 197.474 105.392 197.852 105.649C198.141 105.845 198.489 105.929 198.806 106.076C199.692 106.491 200.257 107.393 200.559 108.315C200.861 109.236 200.951 110.225 201.172 111.174C201.454 112.392 201.951 113.547 202.445 114.694C203.028 116.048 203.646 117.453 204.77 118.409C206.304 119.715 206.643 121.564 208.067 122.996C209.753 124.697 209.699 127.504 208.829 129.733C208.715 130.026 208.586 130.332 208.631 130.644C208.676 130.955 208.908 131.239 209.127 131.487L210.049 132.522C207.868 133.046 205.401 131.912 204.386 129.922C204.073 129.306 203.865 128.597 203.33 128.159C202.85 127.767 202.206 127.674 201.608 127.499C199.637 126.917 197.985 125.124 197.923 123.08C197.893 122.119 198.195 121.159 198.058 120.208C197.982 119.665 197.766 119.15 197.431 118.715C196.916 118.046 196.138 117.596 195.719 116.85C195.009 115.602 195.548 113.981 195.037 112.642C194.879 112.232 194.565 111.821 194.124 111.79C193.684 111.758 193.308 112.122 192.886 112.284C192.01 112.623 191.062 112.047 190.329 111.456C189.597 110.865 188.771 110.193 187.838 110.326C187.222 110.411 186.736 110.829 186.169 111.047C185.749 111.208 184.899 111.351 184.532 110.999C183.756 110.288 185.553 108.447 185.877 107.783Z" fill="#591D4B"/>
<path opacity="0.1" d="M204.907 129.306C204.592 128.691 204.386 127.982 203.85 127.545C203.371 127.154 202.726 127.058 202.127 126.883C200.158 126.303 198.506 124.511 198.442 122.466C198.412 121.506 198.714 120.543 198.579 119.592C198.501 119.052 198.285 118.542 197.951 118.109C197.434 117.439 196.657 116.99 196.239 116.244C195.529 114.998 196.069 113.377 195.556 112.036C195.4 111.627 195.084 111.217 194.645 111.183C194.207 111.15 193.827 111.517 193.407 111.68C192.53 112.019 191.581 111.441 190.85 110.851C190.119 110.262 189.29 109.589 188.359 109.719C187.742 109.807 187.255 110.225 186.69 110.441C186.27 110.601 185.418 110.747 185.051 110.394C184.279 109.648 186.075 107.811 186.397 107.151C186.665 106.606 186.798 106 187.12 105.485C187.137 105.457 187.156 105.429 187.175 105.401C186.934 105.6 186.726 105.835 186.558 106.099C186.238 106.614 186.105 107.218 185.837 107.764C185.513 108.425 183.717 110.268 184.49 111.008C184.865 111.362 185.708 111.217 186.128 111.057C186.69 110.838 187.18 110.42 187.797 110.335C188.733 110.202 189.558 110.876 190.288 111.465C191.019 112.054 191.974 112.633 192.847 112.293C193.267 112.131 193.634 111.765 194.083 111.799C194.533 111.832 194.833 112.241 194.996 112.651C195.507 113.991 194.967 115.611 195.677 116.859C196.097 117.592 196.874 118.051 197.39 118.725C197.725 119.16 197.941 119.674 198.017 120.217C198.154 121.168 197.852 122.129 197.882 123.089C197.944 125.141 199.596 126.926 201.567 127.508C202.161 127.683 202.809 127.777 203.288 128.168C203.826 128.607 204.038 129.315 204.345 129.931C205.36 131.921 207.827 133.055 210.008 132.531L209.573 132.042C207.683 132.07 205.77 131 204.907 129.306Z" fill="black"/>
<path opacity="0.1" d="M191.993 120.793C191.747 121.166 191.045 123.076 190.458 124.744C189.91 124.531 189.411 123.175 189.411 123.175L192.337 119.031C192.637 119.441 192.44 120.122 191.993 120.793Z" fill="black"/>
<path d="M192.105 120.681C191.86 121.054 191.157 122.964 190.571 124.632C190.022 124.421 189.524 123.063 189.524 123.063L192.45 118.92C192.749 119.329 192.553 120.012 192.105 120.681Z" fill="#DCE7FF"/>
<path d="M175.092 139.736L173.47 134.642C173.451 134.583 173.444 134.52 173.449 134.458C173.454 134.395 173.472 134.334 173.501 134.279C173.53 134.223 173.569 134.174 173.617 134.133C173.665 134.093 173.721 134.063 173.781 134.044C173.902 134.006 174.032 134.018 174.145 134.076C174.257 134.134 174.342 134.233 174.38 134.353L176.003 139.442L175.842 140.507L175.092 139.736Z" fill="#BE8B87"/>
<path opacity="0.1" d="M173.624 134.195C173.745 134.157 173.876 134.168 173.989 134.226C174.101 134.284 174.186 134.384 174.225 134.504L175.847 139.593L175.725 140.391L175.843 140.514L176.005 139.449L174.373 134.361C174.334 134.241 174.25 134.141 174.137 134.083C174.025 134.025 173.894 134.014 173.774 134.051C173.672 134.084 173.584 134.15 173.524 134.238C173.556 134.221 173.589 134.206 173.624 134.195Z" fill="white"/>
<path d="M175.092 139.736L176.003 139.449L175.87 140.322L175.842 140.514L175.576 140.238L175.092 139.736Z" fill="#EFC8C4"/>
<path d="M175.576 140.238C175.592 140.218 175.611 140.202 175.634 140.19C175.647 140.181 175.662 140.177 175.678 140.177C175.693 140.177 175.709 140.181 175.722 140.19C175.735 140.205 175.745 140.222 175.754 140.24C175.766 140.261 175.783 140.278 175.803 140.291C175.823 140.305 175.846 140.313 175.87 140.317L175.842 140.503L175.576 140.238Z" fill="#727A9C"/>
<path d="M173.461 136.452C173.461 136.452 176.714 136.433 175.948 137.812C175.182 139.19 173.985 139.356 173.985 139.356L173.461 136.452Z" fill="#FFB0B1"/>
<path d="M153.224 74.5911H153.084C147.494 74.5911 142.55 77.5363 139.707 81.8823C136.863 77.5363 131.92 74.5911 126.33 74.5911H126.19C121.995 74.6309 117.985 76.3175 115.032 79.2845C112.079 82.2515 110.421 86.2591 110.419 90.4363C110.419 95.6235 112.7 102.984 117.149 109.04C125.626 120.58 139.707 130.677 139.707 130.677C139.707 130.677 153.788 120.582 162.262 109.04C166.713 102.984 168.993 95.6235 168.993 90.4363C168.991 86.2594 167.333 82.2521 164.381 79.2852C161.428 76.3182 157.419 74.6314 153.224 74.5911ZM151.214 109.928C150.578 109.926 149.957 109.732 149.433 109.371C148.909 109.011 148.507 108.502 148.279 107.91H144.937C144.717 107.909 144.503 107.839 144.324 107.71C144.146 107.582 144.012 107.401 143.942 107.194L142.916 104.114L139.668 115.416C139.604 115.633 139.472 115.824 139.29 115.961C139.108 116.097 138.887 116.171 138.66 116.171H138.594C138.357 116.16 138.131 116.067 137.953 115.91C137.776 115.752 137.658 115.539 137.62 115.306L134.273 95.258L131.826 107.121C131.77 107.346 131.64 107.546 131.456 107.689C131.272 107.832 131.046 107.91 130.813 107.91H126.105C125.964 107.916 125.823 107.893 125.691 107.844C125.559 107.794 125.438 107.718 125.336 107.621C125.234 107.524 125.153 107.407 125.098 107.277C125.042 107.148 125.014 107.009 125.014 106.868C125.014 106.728 125.042 106.588 125.098 106.459C125.153 106.33 125.234 106.213 125.336 106.115C125.438 106.018 125.559 105.942 125.691 105.893C125.823 105.843 125.964 105.82 126.105 105.826H129.989L133.454 89.8767C133.511 89.6409 133.648 89.4321 133.843 89.286C134.037 89.1399 134.276 89.0655 134.52 89.0757C134.763 89.0858 134.995 89.1798 135.177 89.3415C135.358 89.5033 135.478 89.7228 135.515 89.9625L138.933 110.413L141.844 100.302C141.905 100.089 142.033 99.9009 142.21 99.7664C142.386 99.632 142.602 99.558 142.824 99.5555H142.845C143.065 99.5555 143.279 99.6248 143.457 99.7534C143.636 99.8821 143.769 100.063 143.837 100.272L145.694 105.832H148.238C148.418 105.285 148.748 104.798 149.189 104.425C149.63 104.053 150.166 103.809 150.737 103.72C151.309 103.632 151.894 103.702 152.428 103.924C152.962 104.146 153.424 104.51 153.763 104.977C154.102 105.443 154.305 105.994 154.35 106.569C154.395 107.143 154.279 107.718 154.016 108.231C153.753 108.744 153.352 109.175 152.859 109.476C152.365 109.776 151.798 109.936 151.22 109.936L151.214 109.928Z" fill="#EB5569"/>
</g>
<path d="M0 300H250V390C250 395.523 245.523 400 240 400H10C4.47716 400 0 395.523 0 390V300Z" fill="#EB5569"/>
<path d="M97.2038 343.072V345.712H94.8998V358H91.7318V350.872C91.5238 350.648 91.2998 350.464 91.0598 350.32C90.8198 350.176 90.5558 350.104 90.2678 350.104C90.0118 350.104 89.7398 350.2 89.4518 350.392C89.1638 350.584 89.0198 351.008 89.0198 351.664C89.0198 351.936 89.0438 352.192 89.0918 352.432L86.3798 352.6C86.2518 351.8 85.9638 351.168 85.5158 350.704C85.0838 350.24 84.4998 350.008 83.7638 350.008C83.3158 350.008 82.9558 350.128 82.6838 350.368C82.4278 350.592 82.2998 350.896 82.2998 351.28C82.2998 351.856 82.5238 352.304 82.9718 352.624C83.4358 352.944 83.9958 353.208 84.6518 353.416L83.7398 356.104C82.2838 355.688 81.1318 355.072 80.2838 354.256C79.4518 353.44 79.0358 352.408 79.0358 351.16C79.0358 350.36 79.2278 349.672 79.6118 349.096C80.0118 348.52 80.5398 348.08 81.1958 347.776C81.8518 347.456 82.5718 347.296 83.3558 347.296C84.2198 347.296 84.9478 347.432 85.5398 347.704C86.1478 347.96 86.7558 348.368 87.3638 348.928C87.5558 348.432 87.8598 348.056 88.2758 347.8C88.7078 347.544 89.1638 347.416 89.6438 347.416C90.0598 347.416 90.4438 347.48 90.7958 347.608C91.1478 347.736 91.4758 347.912 91.7798 348.136C91.7478 347.72 91.7318 347.32 91.7318 346.936V345.712H78.0998V343.072H97.2038ZM120.325 352.192C120.325 352.736 120.197 353.264 119.941 353.776C119.701 354.272 119.309 354.688 118.765 355.024C118.237 355.344 117.541 355.504 116.677 355.504C116.197 355.504 115.701 355.456 115.189 355.36L115.309 352.72C115.389 352.736 115.485 352.752 115.597 352.768C115.709 352.768 115.837 352.768 115.981 352.768C116.477 352.768 116.797 352.68 116.941 352.504C117.085 352.328 117.157 352.136 117.157 351.928C117.157 351.544 116.981 351.24 116.629 351.016C116.325 350.824 115.941 350.696 115.477 350.632C115.013 350.552 114.445 350.512 113.773 350.512V358H110.605V356.44C110.029 355.672 109.429 355.032 108.805 354.52C108.181 353.992 107.517 353.728 106.813 353.728C105.933 353.728 105.493 354.064 105.493 354.736C105.493 354.944 105.525 355.136 105.589 355.312C105.669 355.488 105.757 355.648 105.853 355.792L102.997 356.824C102.773 356.424 102.589 356.008 102.445 355.576C102.317 355.128 102.253 354.632 102.253 354.088C102.253 353.336 102.501 352.736 102.997 352.288C103.493 351.824 104.053 351.504 104.677 351.328C104.437 350.816 104.093 350.392 103.645 350.056C103.213 349.72 102.701 349.552 102.109 349.552C101.709 349.552 101.397 349.648 101.173 349.84C100.965 350.016 100.861 350.256 100.861 350.56C100.861 350.768 100.893 350.968 100.957 351.16C101.037 351.336 101.125 351.488 101.221 351.616L98.3647 352.648C98.1407 352.264 97.9567 351.848 97.8127 351.4C97.6847 350.952 97.6207 350.464 97.6207 349.936C97.6207 349.088 97.9007 348.44 98.4607 347.992C99.0367 347.544 99.7007 347.24 100.453 347.08C100.261 346.552 99.9567 346.096 99.5407 345.712H96.7327V343.072H121.261V345.712H113.773V347.896C115.309 347.928 116.485 348.088 117.301 348.376C118.133 348.648 118.781 349.024 119.245 349.504C119.629 349.888 119.901 350.304 120.061 350.752C120.237 351.2 120.325 351.68 120.325 352.192ZM106.141 345.976C106.141 345.896 106.141 345.808 106.141 345.712H102.877C103.021 345.92 103.141 346.144 103.237 346.384C103.349 346.624 103.429 346.888 103.477 347.176C104.501 347.464 105.389 347.984 106.141 348.736C106.893 349.488 107.357 350.336 107.533 351.28C108.701 351.552 109.741 352.208 110.653 353.248C110.637 353.024 110.621 352.8 110.605 352.576C110.605 352.336 110.605 352.016 110.605 351.616V350.464C109.293 350.32 108.221 349.904 107.389 349.216C106.557 348.528 106.141 347.448 106.141 345.976ZM109.045 345.88C109.045 346.488 109.173 346.952 109.429 347.272C109.701 347.576 110.117 347.768 110.677 347.848V345.712H109.045C109.045 345.76 109.045 345.816 109.045 345.88ZM136.692 343.072V345.712H134.388V358H131.22V348.592C130.516 347.76 129.772 347.056 128.988 346.48C128.22 345.904 127.436 345.616 126.636 345.616C126.156 345.616 125.764 345.752 125.46 346.024C125.172 346.296 125.028 346.68 125.028 347.176C125.028 347.512 125.108 347.824 125.268 348.112C125.444 348.384 125.748 348.608 126.18 348.784C126.612 348.944 127.236 349.04 128.052 349.072L127.692 352.192C125.612 351.952 124.1 351.384 123.156 350.488C122.228 349.592 121.764 348.464 121.764 347.104C121.764 346.256 121.956 345.52 122.34 344.896C122.724 344.256 123.244 343.768 123.9 343.432C124.556 343.08 125.3 342.904 126.132 342.904C127.236 342.904 128.196 343.152 129.012 343.648C129.828 344.144 130.58 344.72 131.268 345.376C131.236 344.768 131.22 344.176 131.22 343.6V341.488H133.812L134.364 343.072H136.692ZM153.673 343.072V345.712H151.369V358H148.201V350.776C147.817 350.392 147.473 350.2 147.169 350.2C146.977 350.2 146.801 350.256 146.641 350.368C146.481 350.48 146.289 350.704 146.065 351.04C145.841 351.376 145.513 351.888 145.081 352.576C144.393 353.648 143.761 354.408 143.185 354.856C142.625 355.304 141.929 355.528 141.097 355.528C140.377 355.528 139.689 355.336 139.033 354.952C138.393 354.568 137.753 353.816 137.113 352.696L139.321 351.328C139.641 351.84 139.913 352.208 140.137 352.432C140.361 352.64 140.625 352.744 140.929 352.744C141.137 352.744 141.329 352.696 141.505 352.6C141.697 352.504 141.937 352.256 142.225 351.856C142.081 350.944 141.929 350.216 141.769 349.672C141.609 349.112 141.353 348.68 141.001 348.376C140.617 348.04 140.105 347.792 139.465 347.632C138.825 347.456 138.017 347.312 137.041 347.2L137.521 345.712H136.201V343.072H153.673ZM148.201 345.712H141.361C142.289 346 142.937 346.4 143.305 346.912C143.689 347.424 143.945 348.144 144.073 349.072C144.425 348.512 144.769 348.12 145.105 347.896C145.457 347.656 145.873 347.536 146.353 347.536C146.705 347.536 147.025 347.608 147.313 347.752C147.617 347.896 147.929 348.104 148.249 348.376C148.233 348.152 148.217 347.92 148.201 347.68C148.201 347.424 148.201 347.176 148.201 346.936V345.712ZM169.154 343.072V345.712H166.85V358H163.682V354.352C162.914 353.456 162.138 352.744 161.354 352.216C160.586 351.672 159.834 351.4 159.098 351.4C158.698 351.4 158.354 351.496 158.066 351.688C157.794 351.88 157.658 352.168 157.658 352.552C157.658 352.904 157.786 353.208 158.042 353.464C158.298 353.704 158.714 353.928 159.29 354.136L157.874 356.8C156.802 356.384 155.954 355.784 155.33 355C154.706 354.216 154.394 353.368 154.394 352.456C154.394 351.688 154.554 351.048 154.874 350.536C155.21 350.024 155.642 349.632 156.17 349.36C156.714 349.072 157.29 348.888 157.898 348.808C157.738 348.44 157.498 348.152 157.178 347.944C156.858 347.72 156.426 347.544 155.882 347.416C155.354 347.288 154.658 347.168 153.794 347.056L154.13 345.712H153.194V343.072H169.154ZM163.682 345.712H158.546C159.282 346.048 159.858 346.496 160.274 347.056C160.69 347.616 160.954 348.344 161.066 349.24C161.946 349.592 162.826 350.192 163.706 351.04C163.69 350.768 163.682 350.496 163.682 350.224C163.682 349.952 163.682 349.688 163.682 349.432V345.712ZM164.246 364.264C163.59 364.264 162.982 364.16 162.422 363.952C161.862 363.744 161.414 363.416 161.078 362.968C160.742 362.536 160.574 361.96 160.574 361.24C160.574 360.44 160.878 359.8 161.486 359.32C162.094 358.856 162.822 358.6 163.67 358.552V357.568H166.838V359.032L165.638 360.616C165.382 360.584 165.094 360.568 164.774 360.568C163.942 360.568 163.526 360.808 163.526 361.288C163.526 361.544 163.638 361.736 163.862 361.864C164.086 361.992 164.35 362.056 164.654 362.056C165.39 362.056 166.038 361.856 166.598 361.456C167.142 361.056 167.63 360.608 168.062 360.112C168.878 360.384 169.67 360.704 170.438 361.072C171.222 361.456 172.014 361.872 172.814 362.32L171.446 364.504C170.854 364.12 170.318 363.784 169.838 363.496C169.358 363.208 168.918 362.968 168.518 362.776C167.974 363.224 167.382 363.584 166.742 363.856C166.102 364.128 165.27 364.264 164.246 364.264ZM175.214 346.36C176.686 346.36 177.854 346.584 178.718 347.032C179.598 347.464 180.23 348.016 180.614 348.688C180.998 349.36 181.19 350.048 181.19 350.752C181.19 351.824 180.91 352.688 180.35 353.344C179.79 354 178.99 354.496 177.95 354.832C178.798 355.136 179.638 355.512 180.47 355.96C181.302 356.392 182.118 356.888 182.918 357.448L181.238 359.68C179.734 358.592 178.054 357.664 176.198 356.896C174.342 356.128 172.278 355.568 170.006 355.216L170.534 352.696C171.094 352.84 171.638 352.952 172.166 353.032C172.71 353.112 173.254 353.152 173.798 353.152C175.318 353.152 176.398 352.936 177.038 352.504C177.678 352.072 177.998 351.496 177.998 350.776C177.998 350.2 177.774 349.736 177.326 349.384C176.894 349.032 176.278 348.856 175.478 348.856C174.774 348.856 174.278 348.952 173.99 349.144C173.718 349.32 173.582 349.592 173.582 349.96C173.582 350.152 173.63 350.344 173.726 350.536L170.75 350.968C170.654 350.728 170.574 350.456 170.51 350.152C170.446 349.832 170.414 349.536 170.414 349.264C170.414 348.24 170.982 347.464 172.118 346.936C171.814 346.392 171.294 345.984 170.558 345.712H168.662V343.072H182.894V345.712H174.566C174.774 345.904 174.95 346.12 175.094 346.36H175.214Z" fill="black"/>
<defs>
<linearGradient id="paint0_linear" x1="87.749" y1="209.532" x2="87.749" y2="94.7563" gradientUnits="userSpaceOnUse">
<stop stop-color="#808080" stop-opacity="0.25"/>
<stop offset="0.54" stop-color="#808080" stop-opacity="0.12"/>
<stop offset="1" stop-color="#808080" stop-opacity="0.1"/>
</linearGradient>
<linearGradient id="paint1_linear" x1="41834.5" y1="86664.9" x2="41834.5" y2="27749.5" gradientUnits="userSpaceOnUse">
<stop stop-color="#808080" stop-opacity="0.25"/>
<stop offset="0.54" stop-color="#808080" stop-opacity="0.12"/>
<stop offset="1" stop-color="#808080" stop-opacity="0.1"/>
</linearGradient>
<clipPath id="clip0">
<rect x="21" y="65" width="207" height="146" fill="white"/>
</clipPath>
</defs>
</svg>
