<svg width="250" height="400" viewBox="0 0 250 400" fill="none" xmlns="http://www.w3.org/2000/svg">
<path d="M1.5 10C1.5 5.30559 5.30558 1.5 10 1.5H240C244.694 1.5 248.5 5.30558 248.5 10V298.5H1.5V10Z" stroke="#EB5569" stroke-width="3"/>
<g clip-path="url(#clip0)">
<path d="M170.027 159.98L132.493 113.015C130.789 114.576 128.689 115.637 126.423 116.084C119.357 117.478 112.456 112.646 111.01 105.292C109.987 100.094 111.966 95.0298 115.709 92.0138L102.911 76L30 138.396L97.1154 222.377L170.027 159.98Z" fill="#F2F2F2"/>
<path d="M46.0046 222.805H219" stroke="#3F3D56" stroke-width="2" stroke-miterlimit="10"/>
<path d="M150.674 89.9812C152.262 89.9812 153.549 88.6925 153.549 87.1028C153.549 85.5131 152.262 84.2244 150.674 84.2244C149.086 84.2244 147.799 85.5131 147.799 87.1028C147.799 88.6925 149.086 89.9812 150.674 89.9812Z" stroke="#3F3D56" stroke-width="2" stroke-miterlimit="10"/>
<path d="M188.663 173.667C190.25 173.667 191.537 172.379 191.537 170.789C191.537 169.199 190.25 167.911 188.663 167.911C187.075 167.911 185.788 169.199 185.788 170.789C185.788 172.379 187.075 173.667 188.663 173.667Z" stroke="#3F3D56" stroke-width="2" stroke-miterlimit="10"/>
<path d="M63.254 97.1987C64.8416 97.1987 66.1286 95.91 66.1286 94.3203C66.1286 92.7306 64.8416 91.4419 63.254 91.4419C61.6664 91.4419 60.3794 92.7306 60.3794 94.3203C60.3794 95.91 61.6664 97.1987 63.254 97.1987Z" stroke="#3F3D56" stroke-width="2" stroke-miterlimit="10"/>
<path d="M123.389 113.853C129.233 113.853 133.971 109.109 133.971 103.257C133.971 97.4056 129.233 92.6619 123.389 92.6619C117.546 92.6619 112.808 97.4056 112.808 103.257C112.808 109.109 117.546 113.853 123.389 113.853Z" fill="#F2F2F2"/>
<path d="M60.5633 97.3371H107.439C109.701 97.3371 111.895 98.1077 113.662 99.5223C115.429 100.937 116.662 102.911 117.159 105.121L140.845 210.317C141.103 211.465 141.108 212.655 140.858 213.804C140.608 214.953 140.111 216.034 139.4 216.971C138.689 217.907 137.782 218.676 136.743 219.225C135.704 219.773 134.558 220.088 133.384 220.145L85.1963 222.523C82.6159 222.65 80.0775 221.833 78.0546 220.224C76.0318 218.615 74.6627 216.324 74.2028 213.778L60.7671 139.403L59.7676 139.689L57.1968 125.592L58.2257 125.335L54.4753 104.574C54.3147 103.685 54.3519 102.771 54.5844 101.898C54.8169 101.025 55.2389 100.213 55.8203 99.5224C56.4017 98.8312 57.1282 98.2771 57.9481 97.8993C58.7679 97.5216 59.6609 97.3297 60.5633 97.3371Z" fill="#3F3D56"/>
<path d="M101.268 99.6047H106.739C108.311 99.6047 109.835 100.143 111.059 101.13C112.283 102.117 113.133 103.493 113.468 105.03L136.202 209.369C136.333 209.969 136.333 210.591 136.202 211.192C136.071 211.793 135.811 212.358 135.442 212.849C135.073 213.34 134.602 213.746 134.062 214.038C133.522 214.331 132.925 214.503 132.312 214.543L84.2798 217.695C82.9247 217.784 81.5844 217.37 80.5146 216.533C79.4447 215.695 78.7203 214.493 78.4796 213.154L59.0801 105.311C58.9545 104.613 58.9835 103.896 59.1649 103.21C59.3463 102.524 59.6758 101.887 60.1301 101.343C60.5844 100.799 61.1524 100.361 61.7941 100.061C62.4358 99.7604 63.1354 99.6047 63.8437 99.6047H69.0346C69.537 99.6047 70.0254 99.7706 70.4241 100.077C70.8229 100.383 71.1098 100.812 71.2404 101.297C71.3557 101.726 71.609 102.105 71.961 102.375C72.313 102.645 72.7442 102.792 73.1877 102.792H97.8305C98.699 102.792 99.5355 102.464 100.173 101.873C100.81 101.282 101.201 100.472 101.268 99.6047L101.268 99.6047Z" fill="#EB5569"/>
<path d="M116.57 126.573H66.8679V126.818H116.57V126.573Z" fill="#2F2E41"/>
<path d="M118.529 134.541H68.3369V134.786H118.529V134.541Z" fill="#2F2E41"/>
<path d="M70.0065 126.185L71.1359 124.677L70.9401 124.53L69.9641 125.833L66.203 122.751L66.0481 122.941L70.0065 126.185Z" fill="#2F2E41"/>
<path d="M76.4948 161.733L77.6241 160.225L77.4283 160.078L76.4521 161.381L72.691 158.3L72.5361 158.49L76.4948 161.733Z" fill="#2F2E41"/>
<path d="M124.035 161.753L72.007 162.857L72.0121 163.102L124.04 161.999L124.035 161.753Z" fill="#2F2E41"/>
<path d="M125.626 168.986L72.6188 170.212L72.6244 170.457L125.632 169.231L125.626 168.986Z" fill="#2F2E41"/>
<path opacity="0.1" d="M93.1268 189.886C93.1268 192.974 94.3521 195.937 96.5331 198.12C98.7141 200.304 101.672 201.531 104.757 201.531C107.841 201.531 110.799 200.304 112.98 198.12C115.161 195.937 116.386 192.974 116.386 189.886C116.386 189.74 116.384 189.595 116.378 189.451C116.264 186.402 114.96 183.52 112.746 181.424C110.532 179.328 107.585 178.186 104.539 178.243C101.493 178.3 98.5906 179.552 96.4565 181.729C94.3224 183.906 93.1268 186.835 93.1268 189.886H93.1268Z" fill="black"/>
<path opacity="0.1" d="M94.2285 194.421C94.2285 194.567 94.231 194.712 94.2371 194.857C95.3652 197.249 97.2734 199.186 99.6476 200.348C102.022 201.51 104.72 201.828 107.299 201.249C109.877 200.671 112.182 199.23 113.834 197.164C115.486 195.099 116.386 192.532 116.386 189.886C116.386 189.74 116.384 189.595 116.378 189.451C115.25 187.058 113.341 185.121 110.967 183.959C108.593 182.797 105.895 182.479 103.316 183.058C100.737 183.637 98.4325 185.077 96.7808 187.143C95.129 189.208 94.2288 191.775 94.2285 194.421H94.2285Z" fill="black"/>
<path d="M164.997 129.005C168.957 129.005 172.167 125.791 172.167 121.826C172.167 117.861 168.957 114.647 164.997 114.647C161.038 114.647 157.828 117.861 157.828 121.826C157.828 125.791 161.038 129.005 164.997 129.005Z" fill="#2F2E41"/>
<path d="M172.732 211.783L174.095 217.636H170.783L169.42 211.003L172.732 211.783Z" fill="#9F616A"/>
<path d="M156.757 211.783V217.245L153.445 217.636V211.783H156.757Z" fill="#9F616A"/>
<path d="M173.705 149.75C173.705 149.75 173.316 158.138 172.926 158.723C172.537 159.309 169.03 167.697 169.03 167.697L167.277 162.235C167.277 162.235 170.004 157.748 169.614 155.212C169.225 152.676 169.47 149.555 169.47 149.555L173.705 149.75Z" fill="#9F616A"/>
<path d="M162.601 129.462C165.614 129.462 168.056 127.017 168.056 124C168.056 120.984 165.614 118.538 162.601 118.538C159.589 118.538 157.146 120.984 157.146 124C157.146 127.017 159.589 129.462 162.601 129.462Z" fill="#9F616A"/>
<path d="M167.082 124.586C167.082 124.586 166.887 132.389 168.251 133.559C169.614 134.729 160.458 133.754 160.458 133.754C160.458 133.754 162.406 128.292 160.848 127.122C159.289 125.951 167.082 124.586 167.082 124.586Z" fill="#9F616A"/>
<path d="M159.874 133.364C159.874 133.364 161.043 131.218 162.601 131.413C164.16 131.608 169.225 131.998 169.42 132.389C169.615 132.779 170.199 134.144 170.589 134.534C170.978 134.924 173.9 135.51 174.095 137.851C174.29 140.191 167.082 154.432 167.082 154.432C167.082 154.432 168.056 157.748 167.861 158.528C167.666 159.309 168.835 161.649 168.64 162.625C168.446 163.6 171.563 169.452 170.004 177.06V189.35C170.004 189.35 175.264 210.613 173.706 212.173C172.147 213.734 166.887 212.759 165.913 212.173C164.939 211.588 160.848 182.132 160.848 182.132L158.9 172.183L158.705 194.032C158.705 194.032 159.095 212.368 157.731 212.954C156.367 213.539 151.107 213.734 150.718 212.564C150.414 211.651 148.925 187.362 148.284 176.716C148.062 173.041 148.351 169.353 149.142 165.757C149.953 162.075 151.13 157.748 152.471 155.992C155.003 152.676 156.562 142.142 156.562 142.142L153.25 136.095C153.25 136.095 155.198 134.144 156.367 134.144C157.536 134.144 159.874 133.364 159.874 133.364Z" fill="#2F2E41"/>
<path d="M172.926 136.485L173.954 137.185C173.954 137.185 174.68 149.75 174.095 150.53C173.511 151.311 169.447 150.93 169.141 150.242C168.835 149.555 172.926 136.485 172.926 136.485Z" fill="#2F2E41"/>
<path d="M155.553 147.909C156.124 151.87 156.623 155.397 153.708 158.587C150.777 161.815 147.472 164.682 143.863 167.126C143.505 168.074 138.255 175.04 137.988 172.261C137.721 169.483 139.535 167.304 142.113 164.955C144.69 162.605 148.297 157.507 150.331 154.709C152.366 151.912 151.528 150.168 151.458 147.831C151.387 145.494 154.753 147.937 155.553 147.909Z" fill="#9F616A"/>
<path d="M153.445 214.085C153.445 214.085 153.25 216.27 152.666 216.855C152.081 217.44 150.523 218.221 150.717 220.366C150.912 222.512 152.179 222.61 152.179 222.61L152.081 222.122L152.666 222.317L152.763 222.61H158.218C158.218 222.61 158.315 220.562 158.12 219.586C157.926 218.611 157.926 213.929 157.341 214.124C156.757 214.319 155.198 214.514 154.809 215.295C154.419 216.075 153.25 215.801 153.445 214.085Z" fill="#2F2E41"/>
<path d="M173.316 214.085C173.316 214.085 173.511 216.27 174.095 216.855C174.68 217.44 176.238 218.221 176.043 220.366C175.848 222.512 174.582 222.61 174.582 222.61L174.68 222.122L174.095 222.317L173.998 222.61H168.543C168.543 222.61 168.445 220.562 168.64 219.586C168.835 218.611 168.835 213.929 169.42 214.124C170.004 214.319 171.563 214.514 171.952 215.295C172.342 216.075 173.511 215.801 173.316 214.085Z" fill="#2F2E41"/>
<path d="M155.978 135.51L153.25 136.095C153.25 136.095 153.25 140.387 152.471 142.142C151.692 143.898 150.328 147.994 150.912 148.189C151.497 148.385 156.952 151.116 157.341 149.555C157.731 147.994 158.705 135.51 155.978 135.51Z" fill="#2F2E41"/>
<path d="M172.764 119.553C176.724 119.553 179.933 116.339 179.933 112.374C179.933 108.41 176.724 105.196 172.764 105.196C168.805 105.196 165.595 108.41 165.595 112.374C165.595 116.339 168.805 119.553 172.764 119.553Z" fill="#2F2E41"/>
<path d="M178.948 118.319C178.02 118.99 176.945 119.429 175.813 119.6C174.68 119.77 173.524 119.666 172.44 119.297C171.356 118.928 170.376 118.304 169.582 117.478C168.788 116.652 168.203 115.648 167.877 114.549C168 115.534 168.327 116.482 168.835 117.334C169.343 118.186 170.022 118.923 170.829 119.499C171.636 120.075 172.553 120.478 173.524 120.681C174.494 120.884 175.495 120.883 176.465 120.679C177.435 120.475 178.352 120.071 179.159 119.495C179.965 118.918 180.643 118.179 181.15 117.327C181.657 116.474 181.982 115.525 182.105 114.541C182.227 113.556 182.145 112.556 181.862 111.605C182.022 112.883 181.837 114.181 181.324 115.362C180.811 116.543 179.99 117.564 178.948 118.319Z" fill="#2F2E41"/>
<path d="M166.909 128.287C169.813 128.287 172.166 125.93 172.166 123.022C172.166 120.115 169.813 117.758 166.909 117.758C164.006 117.758 161.652 120.115 161.652 123.022C161.652 125.93 164.006 128.287 166.909 128.287Z" fill="#2F2E41"/>
<path d="M162.488 124.697C165.062 124.697 167.148 123.064 167.148 121.048C167.148 119.033 165.062 117.399 162.488 117.399C159.915 117.399 157.828 119.033 157.828 121.048C157.828 123.064 159.915 124.697 162.488 124.697Z" fill="#2F2E41"/>
<path d="M161.245 126.354C161.734 126.354 162.13 125.653 162.13 124.788C162.13 123.922 161.734 123.221 161.245 123.221C160.757 123.221 160.361 123.922 160.361 124.788C160.361 125.653 160.757 126.354 161.245 126.354Z" fill="#A0616A"/>
</g>
<path d="M0 300H250V390C250 395.523 245.523 400 240 400H10C4.47716 400 0 395.523 0 390V300Z" fill="#EB5569"/>
<path d="M91.2848 343.072V345.712H89.9168C89.1968 346.064 88.5168 346.528 87.8768 347.104C87.2368 347.68 86.7168 348.352 86.3168 349.12C85.9168 349.888 85.7168 350.744 85.7168 351.688C85.7168 352.648 85.8608 353.4 86.1488 353.944C86.4368 354.488 86.7968 354.872 87.2288 355.096C87.6608 355.304 88.0928 355.408 88.5247 355.408C88.8128 355.408 89.0928 355.384 89.3648 355.336C89.6368 355.272 89.9488 355.152 90.3008 354.976L91.5008 357.352C90.9728 357.656 90.4528 357.864 89.9408 357.976C89.4288 358.072 88.8928 358.12 88.3328 358.12C86.5408 358.12 85.1168 357.576 84.0608 356.488C83.0208 355.384 82.5008 353.808 82.5008 351.76C82.5008 350.448 82.7648 349.232 83.2928 348.112C83.8208 346.976 84.5328 345.976 85.4288 345.112C86.3248 344.232 87.3248 343.552 88.4288 343.072H91.2848ZM97.3667 346.36C98.8387 346.36 100.007 346.584 100.871 347.032C101.751 347.464 102.383 348.016 102.767 348.688C103.151 349.36 103.343 350.048 103.343 350.752C103.343 351.824 103.063 352.688 102.503 353.344C101.943 354 101.143 354.496 100.103 354.832C100.951 355.136 101.791 355.512 102.623 355.96C103.455 356.392 104.271 356.888 105.071 357.448L103.391 359.68C101.887 358.592 100.207 357.664 98.3507 356.896C96.4947 356.128 94.4307 355.568 92.1587 355.216L92.6867 352.696C93.2467 352.84 93.7907 352.952 94.3187 353.032C94.8627 353.112 95.4067 353.152 95.9507 353.152C97.4707 353.152 98.5507 352.936 99.1907 352.504C99.8307 352.072 100.151 351.496 100.151 350.776C100.151 350.2 99.9267 349.736 99.4787 349.384C99.0467 349.032 98.4307 348.856 97.6307 348.856C96.9267 348.856 96.4307 348.952 96.1427 349.144C95.8707 349.32 95.7347 349.592 95.7347 349.96C95.7347 350.152 95.7827 350.344 95.8787 350.536L92.9027 350.968C92.8067 350.728 92.7267 350.456 92.6627 350.152C92.5987 349.832 92.5667 349.536 92.5667 349.264C92.5667 348.24 93.1347 347.464 94.2707 346.936C93.9667 346.392 93.4467 345.984 92.7107 345.712H90.8147V343.072H105.047V345.712H96.7187C96.9267 345.904 97.1027 346.12 97.2467 346.36H97.3667ZM114.077 351.808C115.101 351.808 116.013 352.008 116.812 352.408C117.628 352.808 118.509 353.44 119.453 354.304C119.421 354.016 119.397 353.736 119.381 353.464C119.381 353.192 119.381 352.92 119.381 352.648V350.584C118.981 350.2 118.589 349.904 118.205 349.696C117.837 349.488 117.445 349.384 117.029 349.384C116.677 349.384 116.373 349.488 116.117 349.696C115.861 349.904 115.733 350.192 115.733 350.56C115.733 350.656 115.733 350.744 115.733 350.824C115.749 350.904 115.765 350.992 115.781 351.088L113.069 351.28C112.893 350.72 112.557 350.248 112.061 349.864C111.565 349.48 110.973 349.288 110.285 349.288C109.757 349.288 109.373 349.4 109.133 349.624C108.893 349.832 108.773 350.08 108.773 350.368C108.773 350.96 109.221 351.44 110.117 351.808L108.725 354.328C107.717 353.912 106.925 353.352 106.349 352.648C105.789 351.944 105.509 351.112 105.509 350.152C105.509 349.432 105.693 348.808 106.061 348.28C106.429 347.736 106.933 347.32 107.573 347.032C108.229 346.728 108.973 346.576 109.805 346.576C110.797 346.576 111.605 346.72 112.229 347.008C112.853 347.28 113.461 347.68 114.053 348.208C114.277 347.696 114.605 347.32 115.037 347.08C115.485 346.824 115.997 346.696 116.573 346.696C117.149 346.696 117.669 346.808 118.133 347.032C118.613 347.24 119.037 347.488 119.405 347.776C119.405 347.552 119.397 347.328 119.381 347.104C119.381 346.88 119.381 346.664 119.381 346.456V345.712H104.572V343.072H124.853V345.712H122.549V359.032H119.381V357.376C119.125 357.104 118.877 356.856 118.637 356.632L112.949 361.288L111.077 359.464L111.749 358.912C112.005 358.624 112.133 358.32 112.133 358C112.133 357.744 112.045 357.56 111.868 357.448C111.693 357.32 111.469 357.256 111.197 357.256C110.973 357.256 110.765 357.288 110.573 357.352C110.381 357.4 110.173 357.488 109.949 357.616L107.789 355.696C108.477 354.848 109.133 354.136 109.757 353.56C110.381 352.984 111.037 352.552 111.725 352.264C112.429 351.96 113.213 351.808 114.077 351.808ZM112.349 355.312C112.813 355.312 113.245 355.456 113.645 355.744C114.061 356.016 114.269 356.464 114.269 357.088C114.477 356.88 114.685 356.696 114.893 356.536L116.693 355.12C116.277 354.864 115.853 354.672 115.421 354.544C114.989 354.4 114.541 354.328 114.077 354.328C113.485 354.328 112.965 354.432 112.517 354.64C112.069 354.832 111.605 355.128 111.125 355.528C111.301 355.464 111.485 355.416 111.677 355.384C111.885 355.336 112.109 355.312 112.349 355.312ZM143.481 343.072V345.712H141.177V358H138.009V350.872C137.801 350.648 137.577 350.464 137.337 350.32C137.097 350.176 136.833 350.104 136.545 350.104C136.289 350.104 136.017 350.2 135.729 350.392C135.441 350.584 135.297 351.008 135.297 351.664C135.297 351.936 135.321 352.192 135.369 352.432L132.657 352.6C132.529 351.8 132.241 351.168 131.793 350.704C131.361 350.24 130.777 350.008 130.041 350.008C129.593 350.008 129.233 350.128 128.961 350.368C128.705 350.592 128.577 350.896 128.577 351.28C128.577 351.856 128.801 352.304 129.249 352.624C129.713 352.944 130.273 353.208 130.929 353.416L130.017 356.104C128.561 355.688 127.409 355.072 126.561 354.256C125.729 353.44 125.313 352.408 125.313 351.16C125.313 350.36 125.505 349.672 125.889 349.096C126.289 348.52 126.817 348.08 127.473 347.776C128.129 347.456 128.849 347.296 129.633 347.296C130.497 347.296 131.225 347.432 131.817 347.704C132.425 347.96 133.033 348.368 133.641 348.928C133.833 348.432 134.137 348.056 134.553 347.8C134.985 347.544 135.441 347.416 135.921 347.416C136.337 347.416 136.721 347.48 137.073 347.608C137.425 347.736 137.753 347.912 138.057 348.136C138.025 347.72 138.009 347.32 138.009 346.936V345.712H124.377V343.072H143.481ZM150.786 343.072V345.712H148.482V358H145.314V347.344C145.122 346.848 144.85 346.456 144.498 346.168C144.146 345.864 143.69 345.712 143.13 345.712H143.01V343.072H143.49C143.858 343.072 144.202 343.168 144.522 343.36C144.842 343.552 145.138 343.96 145.41 344.584C145.394 344.504 145.37 344.32 145.338 344.032C145.322 343.744 145.314 343.496 145.314 343.288V341.488H147.906L148.458 343.072H150.786ZM156.851 346.36C158.323 346.36 159.491 346.584 160.355 347.032C161.235 347.464 161.867 348.016 162.251 348.688C162.635 349.36 162.827 350.048 162.827 350.752C162.827 351.824 162.547 352.688 161.987 353.344C161.427 354 160.627 354.496 159.587 354.832C160.435 355.136 161.275 355.512 162.107 355.96C162.939 356.392 163.755 356.888 164.555 357.448L162.875 359.68C161.371 358.592 159.691 357.664 157.835 356.896C155.979 356.128 153.915 355.568 151.643 355.216L152.171 352.696C152.731 352.84 153.275 352.952 153.803 353.032C154.347 353.112 154.891 353.152 155.435 353.152C156.955 353.152 158.035 352.936 158.675 352.504C159.315 352.072 159.635 351.496 159.635 350.776C159.635 350.2 159.411 349.736 158.963 349.384C158.531 349.032 157.915 348.856 157.115 348.856C156.411 348.856 155.915 348.952 155.627 349.144C155.355 349.32 155.219 349.592 155.219 349.96C155.219 350.152 155.267 350.344 155.363 350.536L152.387 350.968C152.291 350.728 152.211 350.456 152.147 350.152C152.083 349.832 152.051 349.536 152.051 349.264C152.051 348.24 152.619 347.464 153.755 346.936C153.451 346.392 152.931 345.984 152.195 345.712H150.299V343.072H159.035C159.019 342.576 158.891 342.224 158.651 342.016C158.411 341.792 157.987 341.68 157.379 341.68H155.963C154.747 341.68 153.755 341.568 152.987 341.344C152.235 341.104 151.643 340.744 151.211 340.264C150.635 339.624 150.347 338.704 150.347 337.504C150.347 337.264 150.355 337.048 150.371 336.856C150.387 336.648 150.419 336.4 150.467 336.112L153.467 336.304C153.451 336.448 153.435 336.576 153.419 336.688C153.419 336.8 153.419 336.904 153.419 337C153.419 337.336 153.451 337.64 153.515 337.912C153.595 338.168 153.723 338.384 153.899 338.56C154.075 338.72 154.299 338.84 154.571 338.92C154.843 339 155.283 339.04 155.891 339.04H157.403C158.347 339.04 159.091 339.112 159.635 339.256C160.195 339.4 160.667 339.656 161.051 340.024C161.355 340.328 161.587 340.728 161.747 341.224C161.923 341.704 162.019 342.32 162.035 343.072H164.531V345.712H156.203C156.411 345.904 156.587 346.12 156.731 346.36H156.851ZM179.776 343.072V345.712H177.472V358H174.304V353.632C173.6 352.8 172.848 352.104 172.048 351.544C171.248 350.984 170.472 350.704 169.72 350.704C169.32 350.704 168.976 350.8 168.688 350.992C168.416 351.168 168.28 351.456 168.28 351.856C168.28 352.208 168.408 352.504 168.664 352.744C168.92 352.984 169.328 353.216 169.888 353.44L168.472 356.08C167.4 355.664 166.552 355.072 165.928 354.304C165.32 353.52 165.016 352.664 165.016 351.736C165.016 350.872 165.216 350.168 165.616 349.624C166.016 349.064 166.528 348.656 167.152 348.4C167.776 348.128 168.432 347.992 169.12 347.992C170.112 347.992 171.032 348.192 171.88 348.592C172.728 348.992 173.544 349.552 174.328 350.272C174.312 350 174.304 349.728 174.304 349.456C174.304 349.184 174.304 348.928 174.304 348.688V345.712H164.08V343.072H179.776Z" fill="black"/>
<defs>
<clipPath id="clip0">
<rect x="30" y="76" width="189" height="147" fill="white"/>
</clipPath>
</defs>
</svg>
