<svg width="250" height="400" viewBox="0 0 250 400" fill="none" xmlns="http://www.w3.org/2000/svg">
<path d="M1.5 10C1.5 5.30559 5.30558 1.5 10 1.5H240C244.694 1.5 248.5 5.30558 248.5 10V298.5H1.5V10Z" stroke="#EB5569" stroke-width="3"/>
<g clip-path="url(#clip0)">
<path opacity="0.1" d="M84.5342 85.2751C91.625 78.8913 102.757 77.5913 112.888 78.0994C144.712 79.6958 173.439 95.2008 198.288 112.74C207.283 119.089 216.139 125.938 221.984 134.676C233.872 152.475 230.345 177.134 213.817 191.796C208.193 196.786 201.375 200.61 194.377 204.002C181.933 210.029 168.51 214.868 154.384 216.245C144.312 217.227 134.125 216.426 124.104 215.059C96.1291 211.23 68.6703 202.765 45.6541 188.276C35.5551 181.923 26.0404 174.024 21.88 163.74C17.7196 153.457 20.3822 140.438 30.6892 134.354C34.9528 131.837 40.0484 130.702 45.0391 129.633C52.385 128.064 59.8466 126.515 66.4762 123.322C73.3228 120.024 81.4284 113.646 80.0735 106.345C78.6192 98.5184 77.4524 91.6391 84.5342 85.2751Z" fill="#EB5569"/>
<path d="M66.4341 158.962C66.4341 158.962 68.3099 157.619 70.2508 158.448C70.2508 158.448 69.7082 159.602 67.2897 159.587L66.4341 158.962Z" fill="#EB5569"/>
<path d="M66.2006 159.04C66.2006 159.04 65.6996 161.291 67.2263 162.752C67.2263 162.752 68.0729 161.799 67.1105 159.582L66.2006 159.04Z" fill="#EB5569"/>
<path d="M63.7207 156.991C63.7207 156.991 63.7894 155.091 68.0946 155.556C68.0946 155.556 68.1615 156.778 66.6818 157.414C65.2022 158.051 64.4931 157.593 63.7207 156.991Z" fill="#EB5569"/>
<path d="M63.4548 156.988C63.4548 156.988 61.6659 157.639 63.4349 161.591C63.4349 161.591 64.618 161.278 64.7681 159.674C64.9182 158.071 64.2634 157.541 63.4548 156.988Z" fill="#EB5569"/>
<path d="M60.9278 154.393C60.9278 154.393 60.566 151.284 64.9508 151.436C64.9508 151.436 65.3686 154.247 61.7291 155.113L60.9278 154.393Z" fill="#EB5569"/>
<path d="M57.9015 150.984C57.9015 150.984 58.3664 147.427 62.7855 148.311C62.7855 148.311 62.9193 151.367 58.654 151.799L57.9015 150.984Z" fill="#EB5569"/>
<path d="M55.6495 147.424C55.6495 147.424 56.5214 143.936 60.8953 144.808C60.8953 144.808 59.9909 147.944 55.9625 148.049L55.6495 147.424Z" fill="#EB5569"/>
<path d="M53.506 143.947C53.506 143.947 54.3507 140.331 58.5709 141.249C58.5709 141.249 57.3046 144.697 53.8008 144.545L53.506 143.947Z" fill="#EB5569"/>
<path d="M52.0823 140.62C52.0823 140.62 52.6702 136.222 56.6045 137.039C56.6045 137.039 55.6241 141.058 52.3898 141.244L52.0823 140.62Z" fill="#EB5569"/>
<path d="M50.713 136.587C50.713 136.587 51.4492 132.148 55.4432 133.278C55.4432 133.278 54.054 137.5 51.0115 137.185L50.713 136.587Z" fill="#EB5569"/>
<path d="M49.8158 132.824C49.8158 132.824 51.082 128.366 54.1426 128.368C54.1426 128.368 52.8493 133.068 50.1052 133.698L49.8158 132.824Z" fill="#EB5569"/>
<path d="M49.1971 129.132C49.1971 129.132 50.5592 123.77 53.0591 124.085C53.0591 124.085 52.1311 128.178 49.3165 129.955L49.1971 129.132Z" fill="#EB5569"/>
<path d="M48.7576 124.718C48.7576 124.718 50.0545 120.245 52.5001 119.974C52.5001 119.974 51.6681 124.358 48.8552 125.864L48.7576 124.718Z" fill="#EB5569"/>
<path d="M48.3018 120.61C48.3018 120.61 49.9623 116.117 51.5795 115.955C51.5795 115.955 50.9518 120.339 48.4917 121.33L48.3018 120.61Z" fill="#EB5569"/>
<path d="M47.9526 116.781C47.9526 116.781 48.8933 111.934 50.4959 111.474C50.4959 111.474 50.4254 115.41 48.1281 117.133L47.9526 116.781Z" fill="#EB5569"/>
<path d="M47.1514 111.784C47.1514 111.784 48.1879 107.911 49.4758 107.276C49.4758 107.276 49.389 111.796 47.486 112.7L47.1514 111.784Z" fill="#EB5569"/>
<path d="M46.5182 108.504L46.0208 101.764C46.0208 101.764 48.6617 106.765 46.7443 109.688L46.5182 108.504Z" fill="#EB5569"/>
<path d="M44.3657 101.869C44.3657 101.869 42.4139 97.0071 41.9797 96.7485C41.9797 96.7485 45.5613 99.8221 45.3804 103.941L44.3657 101.869Z" fill="#EB5569"/>
<path d="M60.8083 154.375C60.8083 154.375 57.6879 154.088 57.9502 158.467C57.9502 158.467 60.7721 158.816 61.5481 155.156L60.8083 154.375Z" fill="#EB5569"/>
<path d="M57.7513 150.871C57.7513 150.871 54.1661 150.996 54.6292 155.471C54.6292 155.471 57.659 155.894 58.4929 151.69L57.7513 150.871Z" fill="#EB5569"/>
<path d="M55.626 147.717C55.626 147.717 52.3121 146.315 50.3802 150.333C50.3802 150.333 53.4355 151.488 55.9371 148.344L55.626 147.717Z" fill="#EB5569"/>
<path d="M53.4335 143.983C53.4335 143.983 50.0401 142.486 48.2294 146.41C48.2294 146.41 51.7476 147.471 53.732 144.58L53.4335 143.983Z" fill="#EB5569"/>
<path d="M52.1276 140.712C52.1276 140.712 48.8029 137.773 46.3627 140.969C46.3627 140.969 49.7362 143.363 52.3012 141.389L52.1276 140.712Z" fill="#EB5569"/>
<path d="M50.8902 136.475C50.8902 136.475 47.5438 133.466 45.1289 136.836C45.1289 136.836 48.8498 139.268 51.0313 137.124L50.8902 136.475Z" fill="#EB5569"/>
<path d="M50.1413 132.682C50.1413 132.682 47.5058 128.867 44.6116 129.851C44.6116 129.851 47.3502 133.893 50.1486 133.602L50.1413 132.682Z" fill="#EB5569"/>
<path d="M49.2713 129.105C49.2713 129.105 46.5743 124.275 44.2408 125.22C44.2408 125.22 46.1908 128.937 49.3654 129.93L49.2713 129.105Z" fill="#EB5569"/>
<path d="M48.9186 124.459C48.9186 124.459 46.1944 120.68 43.8013 121.246C43.8013 121.246 46.0569 125.097 49.2116 125.573L48.9186 124.459Z" fill="#EB5569"/>
<path d="M48.5713 120.512C48.5713 120.512 46.4097 116.238 44.7853 116.262C44.7853 116.262 45.9086 120.547 48.4645 121.248L48.5713 120.512Z" fill="#EB5569"/>
<path d="M48.0285 116.683C48.0285 116.683 45.6408 112.362 43.973 112.416C43.973 112.416 45.2537 116.141 47.9688 117.074L48.0285 116.683Z" fill="#EB5569"/>
<path d="M47.5167 112.033C47.5167 112.033 45.7169 108.45 44.3276 108.09C44.3276 108.09 45.3279 112.501 47.3702 113.007L47.5167 112.033Z" fill="#EB5569"/>
<path d="M46.3156 108.384L42.3921 102.881C42.3921 102.881 43.5552 108.417 46.898 109.44L46.3156 108.384Z" fill="#EB5569"/>
<path d="M43.5354 102.355C43.5354 102.355 39.12 99.5473 38.9391 99.0718C38.9391 99.0718 41.2906 103.154 45.3895 103.733L43.5354 102.355Z" fill="#EB5569"/>
<path d="M43.226 101.028C43.226 101.028 38.096 96.4628 36.8334 96.5171C36.8334 96.5171 40.9214 96.546 43.3453 100.771L43.226 101.028Z" fill="#EB5569"/>
<path d="M47.495 112.756L47.3141 112.787C46.1058 105.546 44.5845 101.299 43.0325 100.825L43.0849 100.645C44.7274 101.144 46.2577 105.329 47.495 112.756Z" fill="#444053"/>
<path d="M49.53 130.091L49.2586 130.123C49.1754 129.447 49.1031 128.753 49.047 128.062C48.5568 122.051 47.9418 116.537 47.2544 112.411L47.4045 112.21C48.0937 116.343 48.8281 122.02 49.3201 128.041C49.3762 128.728 49.4468 129.417 49.53 130.091Z" fill="#444053"/>
<path d="M71.6489 162.231C71.6001 162.211 66.7234 160.255 61.55 155.341C58.5203 152.464 55.9658 149.127 53.9816 145.451C51.5016 140.857 49.879 135.155 49.1935 129.583L49.4829 129.706C51.0205 142.213 57.0657 150.573 61.7833 155.066C66.906 159.937 71.7321 161.873 71.7774 161.891L71.6489 162.231Z" fill="#444053"/>
<g opacity="0.7">
<path opacity="0.7" d="M74.0023 147.507C74.0023 147.507 76.1929 146.784 77.801 148.152C77.801 148.152 76.9381 149.092 74.6336 148.358L74.0023 147.507Z" fill="#EB5569"/>
<path opacity="0.7" d="M73.7564 147.51C73.7564 147.51 72.6096 149.512 73.6316 151.358C73.6316 151.358 74.7169 150.702 74.4655 148.299L73.7564 147.51Z" fill="#EB5569"/>
<path opacity="0.7" d="M71.9963 144.818C71.9963 144.818 72.6294 143.025 76.5999 144.748C76.5999 144.748 76.3015 145.936 74.697 146.102C73.0925 146.268 72.5571 145.619 71.9963 144.818Z" fill="#EB5569"/>
<path opacity="0.7" d="M71.7449 144.737C71.7449 144.737 69.8456 144.828 70.3557 149.125C70.3557 149.125 71.5803 149.179 72.2008 147.692C72.8212 146.204 72.3527 145.504 71.7449 144.737Z" fill="#EB5569"/>
<path opacity="0.7" d="M70.106 141.503C70.106 141.503 70.683 138.429 74.8253 139.876C74.8253 139.876 74.3894 142.683 70.6559 142.428L70.106 141.503Z" fill="#EB5569"/>
<path opacity="0.7" d="M68.2321 137.344C68.2321 137.344 69.7334 134.09 73.684 136.245C73.684 136.245 72.9026 139.201 68.7006 138.346L68.2321 137.344Z" fill="#EB5569"/>
<path opacity="0.7" d="M67.1395 133.285C67.1395 133.285 69.0117 130.212 72.9279 132.347C72.9279 132.347 71.1191 135.07 67.2535 133.974L67.1395 133.285Z" fill="#EB5569"/>
<path opacity="0.7" d="M66.1283 129.328C66.1283 129.328 68.0095 126.131 71.7702 128.259C71.7702 128.259 69.5362 131.174 66.2368 129.988L66.1283 129.328Z" fill="#EB5569"/>
<path opacity="0.7" d="M65.7593 125.728C65.7593 125.728 67.6297 121.704 71.1461 123.656C71.1461 123.656 69.0135 127.2 65.8714 126.417L65.7593 125.728Z" fill="#EB5569"/>
<path opacity="0.7" d="M65.6543 121.471C65.6543 121.471 67.6784 117.452 71.1533 119.719C71.1533 119.719 68.572 123.335 65.761 122.131L65.6543 121.471Z" fill="#EB5569"/>
<path opacity="0.7" d="M65.9203 117.607C65.9203 117.607 68.4527 113.727 71.3759 114.638C71.3759 114.638 68.7403 118.748 65.9348 118.527L65.9203 117.607Z" fill="#EB5569"/>
<path opacity="0.7" d="M66.434 113.902C66.434 113.902 69.3282 109.189 71.6236 110.232C71.6236 110.232 69.5181 113.864 66.3037 114.723L66.434 113.902Z" fill="#EB5569"/>
<path opacity="0.7" d="M67.3185 109.558C67.3185 109.558 69.8908 105.673 72.3038 106.141C72.3038 106.141 70.2055 110.08 67.0725 110.681L67.3185 109.558Z" fill="#EB5569"/>
<path opacity="0.7" d="M68.109 105.499C68.109 105.499 71.0303 101.702 72.6221 102.031C72.6221 102.031 70.7174 106.031 68.0746 106.242L68.109 105.499Z" fill="#EB5569"/>
<path opacity="0.7" d="M68.9141 101.74C68.9141 101.74 71.2548 97.4011 72.9225 97.4301C72.9225 97.4301 71.6816 101.167 68.9774 102.131L68.9141 101.74Z" fill="#EB5569"/>
<path opacity="0.7" d="M69.6357 96.7304C69.6357 96.7304 71.7792 93.3423 73.1974 93.1145C73.1974 93.1145 71.7684 97.4066 69.6846 97.7085L69.6357 96.7304Z" fill="#EB5569"/>
<path opacity="0.7" d="M70.0084 93.411L71.5406 86.8264C71.5406 86.8264 72.5734 92.3859 69.871 94.6006L70.0084 93.411Z" fill="#EB5569"/>
<path opacity="0.7" d="M69.9324 86.4379C69.9324 86.4379 69.5145 81.2165 69.1781 80.8333C69.1781 80.8333 71.6852 84.8252 70.2851 88.7123L69.9324 86.4379Z" fill="#EB5569"/>
<path opacity="0.7" d="M69.9957 141.454C69.9957 141.454 67.1015 140.253 66.0505 144.513C66.0505 144.513 68.639 145.684 70.4696 142.421L69.9957 141.454Z" fill="#EB5569"/>
<path opacity="0.7" d="M68.1199 137.2C68.1199 137.2 64.6595 136.254 63.7695 140.664C63.7695 140.664 66.5371 141.969 68.5848 138.203L68.1199 137.2Z" fill="#EB5569"/>
<path opacity="0.7" d="M67.031 133.557C67.031 133.557 64.2851 131.233 61.2426 134.495C61.2426 134.495 63.8148 136.507 67.1413 134.246L67.031 133.557Z" fill="#EB5569"/>
<path opacity="0.7" d="M66.0498 129.341C66.0498 129.341 63.2532 126.903 60.359 130.109C60.359 130.109 63.4015 132.17 66.1565 130L66.0498 129.341Z" fill="#EB5569"/>
<path opacity="0.7" d="M65.7774 125.831C65.7774 125.831 63.4765 122.035 60.1952 124.36C60.1952 124.36 62.7041 127.65 65.7412 126.529L65.7774 125.831Z" fill="#EB5569"/>
<path opacity="0.7" d="M65.8567 121.416C65.8567 121.416 63.5558 117.549 60.2491 120.051C60.2491 120.051 63.0782 123.487 65.797 122.082L65.8567 121.416Z" fill="#EB5569"/>
<path opacity="0.7" d="M66.2694 117.571C66.2694 117.571 64.8892 113.147 61.834 113.232C61.834 113.232 63.2449 117.907 66.0035 118.46L66.2694 117.571Z" fill="#EB5569"/>
<path opacity="0.7" d="M66.5028 113.899C66.5028 113.899 65.3668 108.484 62.8579 108.694C62.8579 108.694 63.614 112.823 66.349 114.716L66.5028 113.899Z" fill="#EB5569"/>
<path opacity="0.7" d="M67.5519 109.359C67.5519 109.359 66.0759 104.94 63.6212 104.769C63.6212 104.769 64.6288 109.117 67.4994 110.509L67.5519 109.359Z" fill="#EB5569"/>
<path opacity="0.7" d="M68.3948 105.486C68.3948 105.486 67.6025 100.764 66.0432 100.303C66.0432 100.303 65.8425 104.727 68.0728 106.159L68.3948 105.486Z" fill="#EB5569"/>
<path opacity="0.7" d="M69.0154 101.67C69.0154 101.67 68.0223 96.8336 66.4142 96.3906C66.4142 96.3906 66.5281 100.327 68.8435 102.024L69.0154 101.67Z" fill="#EB5569"/>
<path opacity="0.7" d="M69.9088 97.0849C69.9088 97.0849 69.2576 93.1291 68.0384 92.3716C68.0384 92.3716 67.6767 96.8806 69.4855 97.9763L69.9088 97.0849Z" fill="#EB5569"/>
<path opacity="0.7" d="M69.8511 93.2304L67.7419 86.8086C67.7419 86.8086 67.1992 92.4386 70.0934 94.411L69.8511 93.2304Z" fill="#EB5569"/>
<path opacity="0.7" d="M68.9917 86.6549C68.9917 86.6549 65.6037 82.6575 65.5784 82.1531C65.5784 82.1531 66.6149 86.7507 70.3484 88.5207L68.9917 86.6549Z" fill="#EB5569"/>
<path opacity="0.7" d="M69.0913 85.297C69.0913 85.297 65.5513 79.4121 64.3303 79.0867C64.3303 79.0867 68.223 80.3324 69.2722 85.0818L69.0913 85.297Z" fill="#EB5569"/>
<path opacity="0.7" d="M69.6773 97.75L69.4964 97.7247C70.4967 90.4549 70.3104 85.9459 68.9683 85.0329L69.0714 84.8828C70.4949 85.8537 70.703 90.3031 69.6773 97.75Z" fill="#444053"/>
<path opacity="0.7" d="M66.4575 114.926L66.188 114.877C66.311 114.206 66.4485 113.523 66.6004 112.845C67.9227 106.96 68.9773 101.514 69.5471 97.3704L69.7515 97.2222C69.1799 101.38 68.1904 107.012 66.8681 112.906C66.7162 113.57 66.5787 114.25 66.4575 114.926Z" fill="#444053"/>
<path opacity="0.7" d="M78.0108 152.179C77.971 152.146 73.8974 148.829 70.4135 142.597C68.3775 138.95 66.9329 135.004 66.1337 130.905C65.1334 125.781 65.2799 119.854 66.2856 114.331L66.5244 114.534C64.2723 126.933 67.5555 136.714 70.7283 142.407C74.1651 148.579 78.1953 151.862 78.237 151.895L78.0108 152.179Z" fill="#444053"/>
</g>
<path d="M203.484 214.34C203.484 214.34 195.836 213.879 196.739 219.236C196.739 219.236 196.558 220.181 197.417 220.612C197.417 220.612 197.431 220.214 198.202 220.349C198.476 220.396 198.755 220.409 199.032 220.389C199.408 220.363 199.764 220.216 200.049 219.97C200.049 219.97 202.198 219.082 203.034 215.571C203.034 215.571 203.652 214.804 203.629 214.607L202.337 215.15C202.337 215.15 202.778 216.081 202.431 216.853C202.431 216.853 202.39 215.184 202.142 215.226C202.091 215.235 201.471 215.549 201.471 215.549C201.471 215.549 202.23 217.176 201.652 218.348C201.652 218.348 201.869 216.35 201.228 215.665L200.324 216.197C200.324 216.197 201.21 217.871 200.61 219.236C200.61 219.236 200.763 217.14 200.132 216.325L199.309 216.967C199.309 216.967 200.143 218.617 199.635 219.749C199.635 219.749 199.568 217.31 199.132 217.126C199.132 217.126 198.408 217.76 198.301 218.03C198.301 218.03 198.871 219.227 198.519 219.859C198.519 219.859 198.301 218.232 198.122 218.232C198.122 218.232 197.399 219.308 197.33 220.04C197.33 220.04 197.361 218.943 197.949 218.124C197.535 218.202 197.153 218.399 196.851 218.692C196.851 218.692 196.963 217.93 198.117 217.863C198.117 217.863 198.71 217.048 198.869 216.997C198.869 216.997 197.71 216.902 197.008 217.213C197.008 217.213 197.627 216.489 199.081 216.82L199.893 216.157C199.893 216.157 198.368 215.949 197.723 216.178C197.723 216.178 198.466 215.544 200.112 216.007L200.997 215.479C200.997 215.479 199.698 215.199 198.924 215.298C198.924 215.298 199.741 214.857 201.257 215.334L201.89 215.05C201.89 215.05 200.937 214.87 200.658 214.833C200.38 214.797 200.365 214.727 200.365 214.727C200.968 214.626 201.587 214.695 202.153 214.926C202.153 214.926 203.507 214.425 203.484 214.34Z" fill="#EB5569"/>
<path opacity="0.1" d="M198.216 221.993C201.205 221.993 203.629 221.583 203.629 221.078C203.629 220.573 201.205 220.163 198.216 220.163C195.227 220.163 192.804 220.573 192.804 221.078C192.804 221.583 195.227 221.993 198.216 221.993Z" fill="#EB5569"/>
<path d="M218.154 200.225C218.154 200.225 213.844 199.966 214.355 202.986C214.329 203.139 214.352 203.296 214.42 203.435C214.489 203.575 214.6 203.689 214.737 203.761C214.737 203.761 214.746 203.537 215.18 203.613C215.335 203.64 215.492 203.648 215.649 203.637C215.86 203.622 216.061 203.539 216.22 203.4C216.22 203.4 217.432 202.899 217.905 200.919C217.905 200.919 218.254 200.487 218.239 200.377L217.516 200.688C217.516 200.688 217.763 201.212 217.568 201.648C217.568 201.648 217.545 200.706 217.405 200.729C217.376 200.729 217.027 200.91 217.027 200.91C217.027 200.91 217.454 201.825 217.132 202.489C217.132 202.489 217.255 201.362 216.893 200.977L216.381 201.275C216.381 201.275 216.881 202.219 216.542 202.989C216.542 202.989 216.629 201.809 216.273 201.348L215.81 201.709C215.81 201.709 216.278 202.64 215.991 203.279C215.991 203.279 215.953 201.905 215.707 201.8C215.531 201.949 215.374 202.118 215.238 202.304C215.238 202.304 215.56 202.98 215.361 203.336C215.361 203.336 215.238 202.42 215.139 202.416C215.139 202.416 214.734 203.024 214.692 203.44C214.711 203.054 214.832 202.68 215.041 202.355C214.807 202.399 214.592 202.51 214.421 202.675C214.421 202.675 214.484 202.246 215.144 202.208C215.144 202.208 215.479 201.747 215.567 201.72C215.567 201.72 214.914 201.666 214.518 201.841C214.518 201.841 214.867 201.436 215.687 201.619L216.146 201.247C216.146 201.247 215.285 201.129 214.922 201.259C214.922 201.259 215.341 200.898 216.269 201.162L216.769 200.863C216.384 200.779 215.991 200.745 215.598 200.762C215.598 200.762 216.059 200.514 216.913 200.784L217.275 200.623C217.275 200.623 216.732 200.518 216.58 200.502C216.428 200.485 216.414 200.44 216.414 200.44C216.754 200.384 217.104 200.422 217.423 200.552C217.423 200.552 218.167 200.274 218.154 200.225Z" fill="#EB5569"/>
<path opacity="0.1" d="M215.186 204.541C216.871 204.541 218.237 204.31 218.237 204.025C218.237 203.741 216.871 203.51 215.186 203.51C213.5 203.51 212.134 203.741 212.134 204.025C212.134 204.31 213.5 204.541 215.186 204.541Z" fill="#EB5569"/>
<path d="M192.705 202.846C192.705 202.846 187.499 202.532 188.114 206.178C188.082 206.363 188.109 206.553 188.192 206.722C188.275 206.89 188.409 207.028 188.575 207.115C188.575 207.115 188.575 206.846 189.109 206.934C189.296 206.965 189.486 206.975 189.675 206.963C189.93 206.945 190.172 206.844 190.366 206.677C190.366 206.677 191.829 206.074 192.399 203.682C192.399 203.682 192.821 203.161 192.802 203.027L191.925 203.401C191.925 203.401 192.225 204.036 191.988 204.562C191.988 204.562 191.961 203.425 191.791 203.452C191.757 203.452 191.335 203.671 191.335 203.671C191.335 203.671 191.851 204.776 191.462 205.576C191.462 205.576 191.61 204.217 191.174 203.75L190.556 204.112C190.556 204.112 191.158 205.251 190.749 206.182C190.749 206.182 190.854 204.756 190.426 204.193L189.865 204.629C189.865 204.629 190.433 205.752 190.087 206.524C190.087 206.524 190.042 204.864 189.744 204.738C189.744 204.738 189.253 205.17 189.179 205.347C189.179 205.347 189.566 206.162 189.326 206.593C189.326 206.593 189.179 205.488 189.058 205.482C189.058 205.482 188.57 206.215 188.515 206.717C188.54 206.253 188.685 205.803 188.937 205.412C188.655 205.465 188.396 205.6 188.19 205.799C188.19 205.799 188.266 205.28 189.058 205.235C189.058 205.235 189.461 204.68 189.57 204.645C189.57 204.645 188.781 204.58 188.304 204.792C188.304 204.792 188.723 204.302 189.713 204.524L190.266 204.074C190.266 204.074 189.23 203.931 188.789 204.088C188.789 204.088 189.295 203.656 190.417 203.971L191.019 203.609C191.019 203.609 190.134 203.418 189.606 203.486C189.606 203.486 190.163 203.188 191.194 203.512L191.627 203.335C191.627 203.335 190.979 203.208 190.789 203.188C190.599 203.168 190.59 203.116 190.59 203.116C191.001 203.048 191.422 203.094 191.808 203.251C191.808 203.251 192.721 202.904 192.705 202.846Z" fill="#EB5569"/>
<path opacity="0.1" d="M189.12 208.055C191.155 208.055 192.804 207.777 192.804 207.433C192.804 207.09 191.155 206.811 189.12 206.811C187.085 206.811 185.435 207.09 185.435 207.433C185.435 207.777 187.085 208.055 189.12 208.055Z" fill="#EB5569"/>
<path opacity="0.1" d="M149.167 204.738L131.022 211.754L104.5 222C103.5 220.143 102.024 217.603 100.197 214.587C93.9163 204.183 83.5225 188 74.2719 173.778C63.8455 157.754 54.8734 144.224 54.8734 144.224L61.3691 142.341L114.427 126.961L149.167 204.738Z" fill="black"/>
<path d="M149.528 203.472L131.384 210.489L104.862 220.734C103.861 218.878 102.385 216.337 100.558 213.322C94.278 202.917 83.8842 186.734 74.6335 172.513C64.2072 156.489 55.2351 142.958 55.2351 142.958L61.7308 141.076L114.789 125.696L149.528 203.472Z" fill="white"/>
<path opacity="0.1" d="M149.529 203.472L131.384 210.489C121.249 212.599 110.908 213.549 100.559 213.322C94.2782 202.917 83.8843 186.734 74.6337 172.513L61.731 141.076L114.789 125.696L149.529 203.472Z" fill="black"/>
<path d="M163.028 199.108C163.028 199.108 134.839 215.773 92.7532 212.013L59.1985 130.259L75.2776 127.498L130.861 117.958L162.399 197.527L163.028 199.108Z" fill="#EB5569"/>
<path opacity="0.1" d="M162.399 197.527C155.76 197.853 148.083 197.822 140.356 196.902C131.995 195.922 123.595 193.893 116.377 190.18C110.35 187.076 105.196 183.704 100.701 179.656C89.0142 169.148 81.7805 154.117 75.2848 127.498L130.868 117.958L162.399 197.527Z" fill="black"/>
<path d="M183.076 192.957C183.076 192.957 162.288 197.029 141.15 194.521C132.789 193.536 124.38 191.512 117.171 187.799C111.144 184.695 105.991 181.323 101.496 177.275C87.0245 164.258 79.3892 144.33 71.5133 104.069C71.5133 104.069 106.063 112.402 140.198 94.1487C140.198 94.1487 151.712 165.973 183.076 192.957Z" fill="white"/>
<path opacity="0.1" d="M141.15 194.521C132.789 193.536 124.38 191.513 117.171 187.799C111.144 184.695 105.991 181.323 101.495 177.275C113.812 176.275 115.583 169.544 115.583 169.544C124.714 184.03 141.15 194.521 141.15 194.521Z" fill="black"/>
<path opacity="0.3" d="M89.3796 118.851C89.3796 118.851 107.939 120.968 125.309 111.212L126.5 115.032C126.5 115.032 109.882 123.315 89.3796 123.315V118.851Z" fill="#EB5569"/>
<path opacity="0.3" d="M89.3796 137.706C89.3796 137.706 107.83 136.218 128.37 126.296L129.065 127.884C129.065 127.884 121.505 137.392 89.3796 139.876V137.706Z" fill="black"/>
<path opacity="0.3" d="M91.5667 145.061C91.5667 145.061 110.017 143.573 130.557 133.652L131.252 135.24C131.252 135.24 123.694 144.757 91.5667 147.243V145.061Z" fill="black"/>
<path opacity="0.3" d="M93.5673 152.989C93.5673 152.989 112.018 151.501 132.558 141.58L133.252 143.168C133.252 143.168 125.684 152.679 93.5673 155.171V152.989Z" fill="black"/>
<path opacity="0.3" d="M95.9423 159.783C95.9423 159.783 114.393 158.295 134.933 148.375L135.627 149.962C135.627 149.962 128.07 159.475 95.9423 161.967V159.783Z" fill="black"/>
<path opacity="0.1" d="M98.131 167.145C98.131 167.145 116.582 165.657 137.121 155.737L137.816 157.324C137.816 157.324 130.257 166.837 98.131 169.327V167.145Z" fill="black"/>
<path opacity="0.3" d="M136.581 121.345L131.418 123.102L133.176 128.262L138.338 126.505L136.581 121.345Z" fill="#EB5569"/>
<path opacity="0.3" d="M139.518 129.022L134.355 130.779L136.112 135.939L141.275 134.182L139.518 129.022Z" fill="#EB5569"/>
<path opacity="0.3" d="M144.226 143.793L139.064 145.55L140.821 150.71L145.984 148.953L144.226 143.793Z" fill="#EB5569"/>
<path opacity="0.3" d="M146.928 151.721L141.765 153.477L143.523 158.637L148.685 156.881L146.928 151.721Z" fill="#EB5569"/>
<path opacity="0.3" d="M141.912 136.997L136.75 138.753L138.507 143.913L143.67 142.157L141.912 136.997Z" fill="#EB5569"/>
<path d="M195.896 159.28L195.702 159.099C196.201 158.998 196.672 158.953 196.672 158.953C196.672 158.953 194.959 152.759 192.07 150.692C190.641 149.671 189.451 147.97 188.609 146.511C187.076 143.872 185.354 141.348 183.456 138.959L182.935 138.302L182.711 138.017C183.024 137.543 183.407 137.093 183.364 136.543C183.363 136.54 183.363 136.536 183.364 136.532C183.366 136.504 183.366 136.475 183.364 136.446C183.358 136.378 183.346 136.31 183.328 136.245L183.308 136.276C183.063 135.567 182.125 135.254 181.428 134.864C179.8 133.947 179.104 131.944 178.757 130.082C178.485 128.635 178.261 127.008 177.129 126.077C176.405 125.479 175.421 125.282 174.692 124.687C174.001 124.123 173.616 123.267 173.182 122.481C172.458 121.17 171.503 119.95 170.242 119.167C168.981 118.384 167.38 118.082 165.997 118.607C165.467 118.809 164.985 119.124 164.461 119.342C163.159 119.885 161.666 119.812 160.376 120.386C158.788 121.091 157.755 122.649 156.811 124.128C156.323 124.893 155.556 126.012 155.12 127.138C155.12 127.099 155.12 127.061 155.12 127.021C154.911 127.517 154.797 128.048 154.783 128.586C154.775 128.815 154.8 129.044 154.858 129.266C155.053 129.989 155.635 130.389 156.326 130.667C156.366 130.897 156.42 131.125 156.486 131.349C156.798 132.378 157.355 133.316 158.107 134.084C158.86 134.852 159.786 135.428 160.809 135.762C160.868 135.784 160.93 135.798 160.99 135.816C161.04 135.96 161.113 136.094 161.205 136.214C161.782 136.937 162.94 136.731 163.692 136.205C163.723 136.185 163.752 136.16 163.781 136.138C163.786 136.241 163.797 136.343 163.813 136.444C163.83 136.531 163.842 136.625 163.86 136.702C164.539 140.356 166.275 142.329 166.275 142.329C166.275 142.329 166.436 142.571 166.699 142.972C166.561 144.988 167.482 146.825 168.545 148.244C167.628 148.774 165.651 149.812 164.428 149.725C164.428 149.725 159.935 150.305 159.414 150.014C159.342 149.975 159.273 150.029 159.208 150.152C157.971 149.398 154.015 147.225 153.676 150.014C153.371 152.546 156.976 152.869 158.692 152.882C158.615 153.623 158.571 154.216 158.571 154.216L165.953 153.712L169.797 153.146C169.372 153.708 168.893 154.209 168.424 154.453C168.424 154.453 164.949 157.264 164.349 157.29C164.264 157.29 164.237 157.375 164.249 157.51C162.788 157.51 158.242 157.722 159.503 160.253C160.648 162.547 163.871 160.96 165.329 160.083C165.673 160.75 165.966 161.272 165.966 161.272L171.923 157.033L173.212 155.948C173.649 155.927 174.081 155.844 174.495 155.7C174.495 155.717 174.507 155.733 174.513 155.747C174.559 155.88 174.593 156.017 174.616 156.156C174.978 158.233 173.762 163.079 173.762 163.079C173.762 163.079 171.089 169.893 172.373 170.822C173.657 171.751 172.708 175.673 172.708 175.673C172.932 176.05 173.19 176.406 173.478 176.736C173.614 176.893 173.765 177.036 173.929 177.164C173.869 177.327 173.819 177.493 173.78 177.662C173.584 178.497 173.658 179.373 173.992 180.164C174.875 182.304 174.337 185.407 174.337 185.407L172.605 197.108C171.772 196.981 170.698 196.877 170.298 197.108C169.685 197.453 169.886 199.194 171.309 199.943C170.877 200.274 170.377 200.504 169.844 200.617C168.578 200.906 167.688 201.091 167.102 201.203C167.064 201.203 164.063 200.541 163.292 200.979C162.522 201.416 162.893 203.843 165.085 204.437C167.23 205.018 175.231 205.869 177.536 205.522L177.682 205.497C179.641 205.11 177.921 202.537 177.704 202.225C177.689 202.12 177.677 202.009 177.662 201.89C177.631 201.622 177.604 201.315 177.584 200.986C179.769 201.187 181.926 201.284 182.915 201.136C182.962 201.136 183.006 201.122 183.045 201.113C184.78 200.769 183.261 198.495 183.065 198.22C183.057 198.15 183.048 198.076 183.038 197.997V197.978C183.038 197.925 183.025 197.869 183.02 197.815C183.015 197.761 183.02 197.723 183.006 197.674C182.991 197.625 183.006 197.587 182.993 197.542C182.986 197.453 182.978 197.36 182.971 197.265C182.971 197.227 182.971 197.188 182.971 197.148C182.971 197.075 182.962 197.003 182.959 196.929C182.959 196.889 182.959 196.849 182.959 196.808C182.959 196.699 182.959 196.587 182.948 196.475C182.948 196.444 182.948 196.414 182.948 196.383C182.948 196.293 182.948 196.202 182.948 196.108C182.948 196.065 182.948 196.021 182.948 195.976C182.948 195.88 182.948 195.785 182.948 195.687C182.948 195.654 182.948 195.624 182.948 195.591C182.948 195.47 182.959 195.345 182.966 195.22L182.977 195.087C182.977 194.994 182.991 194.906 183 194.812C183 194.767 183 194.721 183.015 194.676C183.029 194.55 183.045 194.423 183.063 194.295C183.063 194.257 183.076 194.219 183.082 194.181C183.098 194.085 183.114 193.987 183.132 193.89C183.132 193.843 183.15 193.794 183.161 193.745C183.183 193.64 183.206 193.535 183.232 193.431C183.232 193.402 183.244 193.373 183.252 193.344C183.284 193.217 183.32 193.093 183.358 192.968C183.371 192.924 183.385 192.881 183.4 192.838C183.431 192.744 183.463 192.657 183.498 192.559L183.541 192.443C183.59 192.321 183.642 192.199 183.697 192.082C183.711 192.051 183.727 192.02 183.744 191.99C183.789 191.896 183.838 191.809 183.888 191.711L183.95 191.605C184.019 191.489 184.089 191.373 184.167 191.263C186.157 188.428 186.681 182.961 186.632 181.771C186.584 180.581 186.869 178.114 187.226 177.748C187.464 177.504 188.854 175.579 189.684 174.114C189.834 173.847 189.964 173.596 190.067 173.371C190.657 173.167 191.048 173.01 191.048 173.01C190.84 172.251 190.74 171.466 190.751 170.679C190.766 169.141 191.189 167.114 192.936 165.469C195.516 163.039 195.876 160.631 195.91 159.705C195.91 159.64 195.91 159.582 195.91 159.533C195.905 159.363 195.896 159.28 195.896 159.28Z" fill="url(#paint0_linear)"/>
<path d="M189.022 174.444C188.322 175.694 187.536 176.894 186.67 178.036C186.33 178.397 186.057 180.84 186.104 182.013C186.151 183.187 185.654 188.596 183.753 191.398C181.852 194.201 182.828 199.044 182.828 199.044L179.795 200.107H176.15L173.639 199.357L172.977 197.531C172.977 197.531 173.86 197.395 176.052 196.875C176.66 196.751 177.211 196.432 177.621 195.966C178.031 195.5 178.277 194.913 178.322 194.295L179.862 183.55C179.862 183.55 180.316 180.838 179.567 178.962C179.356 178.433 179.268 177.864 179.311 177.297C179.354 176.73 179.525 176.18 179.813 175.689L179.862 175.613C179.862 175.613 182.237 173.738 184.657 172.565C186.801 171.531 188.975 171.039 189.592 172.874C189.671 173.111 189.411 173.72 189.022 174.444Z" fill="#A5636D"/>
<path opacity="0.05" d="M189.022 174.444C188.322 175.694 187.536 176.894 186.67 178.036C186.33 178.397 186.057 180.84 186.104 182.013C186.151 183.187 185.654 188.596 183.753 191.398C182.414 193.375 182.503 196.361 182.667 197.954C182.738 198.621 182.825 199.039 182.825 199.039L179.791 200.102H176.15L173.639 199.357L172.977 197.531C172.977 197.531 173.198 197.497 173.701 197.399C174.204 197.301 174.967 197.135 176.063 196.875C176.669 196.749 177.218 196.429 177.625 195.963C178.033 195.498 178.278 194.912 178.322 194.295L179.862 183.55C179.862 183.55 180.316 180.838 179.567 178.962C179.356 178.433 179.268 177.864 179.311 177.297C179.354 176.73 179.525 176.18 179.813 175.689L179.862 175.613C179.862 175.613 182.237 173.738 184.657 172.565C186.801 171.531 188.975 171.039 189.592 172.874C189.671 173.111 189.411 173.72 189.022 174.444Z" fill="black"/>
<path opacity="0.1" d="M182.828 199.046L179.795 200.109H176.15L173.639 199.357L172.977 197.531C172.977 197.531 173.198 197.497 173.701 197.399C173.665 197.731 173.753 198.064 173.946 198.336C174.14 198.608 174.426 198.799 174.752 198.874L176.177 198.923C176.378 198.923 176.58 198.934 176.779 198.934C178.784 198.935 180.776 198.605 182.673 197.956C182.745 198.623 182.828 199.046 182.828 199.046Z" fill="black"/>
<path d="M176.175 199.23L174.748 199.182C174.748 199.182 173.417 198.9 173.742 197.39C173.742 197.39 171.174 196.808 170.517 197.193C169.86 197.578 170.177 199.702 172.033 200.223C173.842 200.731 180.618 201.478 182.566 201.172L182.691 201.151C184.456 200.789 182.691 198.258 182.691 198.258C180.596 198.974 178.388 199.304 176.175 199.23Z" fill="#BEBED0"/>
<path d="M184.965 174.859C184.869 175.051 184.766 175.25 184.648 175.458C183.753 177.085 182.316 179.133 182.065 179.399C181.681 179.808 181.376 182.563 181.425 183.894C181.473 185.224 180.916 191.321 178.771 194.485C177.673 196.112 177.425 198.326 177.443 200.109C177.449 200.713 177.484 201.317 177.55 201.917C177.63 202.653 177.731 203.112 177.731 203.112L174.308 204.311H170.19L167.355 203.468L166.614 201.4C166.614 201.4 166.861 201.36 167.418 201.25C167.976 201.14 168.844 200.955 170.085 200.662C170.769 200.521 171.389 200.16 171.851 199.635C172.312 199.11 172.589 198.448 172.641 197.752L174.375 185.626C174.375 185.626 174.887 182.561 174.044 180.446C173.726 179.661 173.656 178.797 173.842 177.971C173.943 177.506 174.126 177.064 174.384 176.665C174.384 176.665 175.047 176.145 176.045 175.456C176.486 175.152 176.998 174.816 177.548 174.476C179.965 172.981 183.143 171.455 184.666 172.567C185.002 172.82 185.248 173.174 185.368 173.577C185.429 173.787 185.258 174.263 184.965 174.859Z" fill="#A5636D"/>
<path opacity="0.1" d="M177.722 203.114L174.299 204.313H170.19L167.355 203.47L166.614 201.402C166.614 201.402 166.861 201.362 167.418 201.252C167.383 201.497 167.408 201.747 167.492 201.98C167.576 202.213 167.716 202.422 167.9 202.588C168.185 202.83 168.546 202.966 168.92 202.971L170.217 203.013C170.443 203.013 170.671 203.026 170.897 203.026C173.16 203.025 175.408 202.651 177.55 201.919C177.63 202.655 177.722 203.114 177.722 203.114Z" fill="black"/>
<path d="M170.215 203.32L168.92 203.277C168.545 203.271 168.184 203.135 167.898 202.894C167.569 202.601 167.285 202.095 167.469 201.243C167.469 201.243 164.575 200.587 163.828 201.021C163.081 201.455 163.446 203.854 165.539 204.441C167.589 205.014 175.229 205.857 177.429 205.513L177.568 205.488C179.558 205.079 177.568 202.219 177.568 202.219C175.205 203.031 172.713 203.404 170.215 203.32Z" fill="#BEBED0"/>
<path opacity="0.1" d="M189.022 174.444C187.783 174.876 185.963 175.449 184.965 175.472C184.861 175.476 184.758 175.471 184.655 175.458C183.957 175.362 181.799 175.516 179.82 175.693C179.026 175.763 178.263 175.837 177.632 175.903C176.691 176 176.043 176.071 176.043 176.071V175.458C176.485 175.154 176.997 174.818 177.547 174.478C179.963 172.983 183.141 171.457 184.664 172.569C186.808 171.535 188.982 171.043 189.599 172.878C189.671 173.111 189.411 173.72 189.022 174.444Z" fill="black"/>
<path d="M194.968 160.184C194.933 161.101 194.59 163.48 192.126 165.885C188.986 168.949 190.317 173.35 190.317 173.35C190.317 173.35 186.573 174.82 184.957 174.859C184.854 174.863 184.75 174.858 184.648 174.845C183.678 174.709 179.829 175.065 177.617 175.29C176.676 175.387 176.029 175.458 176.029 175.458V162.44L193.381 158.23L194.953 159.794C194.967 159.923 194.972 160.054 194.968 160.184Z" fill="#5C5C8E"/>
<g opacity="0.1">
<path opacity="0.1" d="M176.322 175.297L176.036 175.328V175.465C176.036 175.465 176.684 175.394 177.624 175.297C179.212 175.136 181.638 174.91 183.243 174.843C182.132 174.742 178.464 175.08 176.322 175.297Z" fill="black"/>
<path opacity="0.1" d="M194.961 159.801L193.389 158.235L192.341 158.497L193.658 159.808C193.667 159.939 193.667 160.07 193.658 160.2C193.624 161.115 193.28 163.496 190.816 165.901C187.676 168.963 189.008 173.366 189.008 173.366C189.008 173.366 185.909 174.581 184.134 174.832C184.304 174.832 184.473 174.841 184.641 174.859C184.743 174.873 184.847 174.879 184.95 174.876C186.566 174.836 190.31 173.366 190.31 173.366C190.31 173.366 188.971 168.963 192.119 165.901C194.582 163.496 194.926 161.115 194.961 160.2C194.97 160.067 194.97 159.934 194.961 159.801Z" fill="black"/>
</g>
<path d="M160.291 150.989C160.291 150.989 155.046 147.351 154.66 150.627C154.275 153.903 160.291 153.435 160.291 153.435V150.989Z" fill="#A5636D"/>
<path d="M169.336 148.577C169.336 148.577 166.498 150.454 164.928 150.338C164.928 150.338 160.637 150.913 160.138 150.625C159.638 150.338 159.335 154.784 159.335 154.784L166.389 154.286L170.911 153.596C170.911 153.596 173.173 152.218 173.173 151.03C173.173 149.842 169.336 148.577 169.336 148.577Z" fill="#F7CDDD"/>
<path opacity="0.05" d="M169.336 148.577C169.336 148.577 166.498 150.454 164.928 150.338C164.928 150.338 160.637 150.913 160.138 150.625C159.638 150.338 159.335 154.784 159.335 154.784L166.389 154.286L170.911 153.596C170.911 153.596 173.173 152.218 173.173 151.03C173.173 149.842 169.336 148.577 169.336 148.577Z" fill="black"/>
<path d="M165.174 158.044C165.174 158.044 158.794 157.78 160.223 160.756C161.652 163.731 166.487 160.119 166.487 160.119L165.174 158.044Z" fill="#A5636D"/>
<path d="M171.592 151.717C171.592 151.717 166.42 147.85 167.149 143.141C167.878 138.431 171.592 146.746 171.592 146.746V151.717Z" fill="#5C5C8E"/>
<path d="M170.163 130.366C170.161 132.06 169.501 133.687 168.323 134.906C168.036 135.205 167.72 135.474 167.379 135.71C166.727 136.164 166.001 136.499 165.233 136.701C164.928 136.777 164.618 136.832 164.305 136.865C164.081 136.887 163.855 136.9 163.625 136.9C162.892 136.904 162.163 136.782 161.471 136.538C160.338 136.143 159.336 135.444 158.574 134.517C157.813 133.591 157.321 132.473 157.152 131.285C156.984 130.098 157.146 128.887 157.621 127.786C158.095 126.684 158.863 125.735 159.842 125.041C160.82 124.347 161.971 123.935 163.168 123.851C164.364 123.767 165.561 124.014 166.627 124.565C167.693 125.115 168.587 125.949 169.21 126.973C169.834 127.998 170.163 129.174 170.163 130.373V130.366Z" fill="#A5636D"/>
<path opacity="0.1" d="M194.968 160.184C194.382 160.293 193.658 160.488 193.658 160.792C193.658 161.303 185.486 164.06 185.486 164.06C185.486 164.06 185.791 164.773 184.975 165.999C184.16 167.224 177.517 174.268 177.517 174.268L177.539 174.478L177.624 175.29L178.029 179.169C178.029 179.169 175.475 178.251 174.658 178.352C174.393 178.387 174.115 178.217 173.842 177.973C173.943 177.508 174.126 177.066 174.384 176.667C174.384 176.667 175.047 176.147 176.045 175.458V162.44L193.398 158.23L194.97 159.794C194.978 159.924 194.977 160.054 194.968 160.184Z" fill="black"/>
<path d="M195.702 159.465C195.702 159.465 193.658 159.667 193.658 160.179C193.658 160.69 185.486 163.448 185.486 163.448C185.486 163.448 185.791 164.16 184.975 165.386C184.16 166.611 177.517 173.657 177.517 173.657L178.029 178.557C178.029 178.557 175.475 177.638 174.658 177.739C174.296 177.785 173.889 177.448 173.554 177.056C173.278 176.729 173.031 176.377 172.818 176.006C172.818 176.006 173.739 172.124 172.512 171.205C171.286 170.287 173.84 163.549 173.84 163.549C173.84 163.549 174.994 158.758 174.654 156.702C174.633 156.565 174.6 156.429 174.556 156.297C174.556 156.283 174.547 156.266 174.542 156.252C173.818 154.288 165.975 137.811 165.975 137.811C165.98 137.343 166.013 136.877 166.073 136.413C166.089 136.285 166.111 136.151 166.134 136.015C166.174 135.772 166.227 135.53 166.293 135.292C166.335 135.14 166.384 134.989 166.442 134.842C166.684 134.22 167.055 133.741 167.608 133.73C167.608 133.73 168.222 133.052 169.66 132.868C170.712 132.73 172.216 132.868 174.251 133.73C179.05 135.77 180.175 135.874 180.175 135.874L182.586 139.038L183.082 139.687C184.898 142.056 186.543 144.551 188.004 147.154C188.807 148.601 189.944 150.28 191.308 151.291C194.067 153.339 195.702 159.465 195.702 159.465Z" fill="#F7CDDD"/>
<path opacity="0.1" d="M177.798 147.659C177.798 147.659 184.617 149.344 187.26 153.592L177.798 147.659Z" fill="black"/>
<path opacity="0.1" d="M179.905 155.124C179.905 155.124 181.195 163.778 180.837 164.429C180.479 165.08 179.905 155.124 179.905 155.124Z" fill="black"/>
<path opacity="0.1" d="M179.444 159.566C178.948 160.215 176.935 165.232 176.935 165.232L177.516 173.657L178.027 178.557C178.027 178.557 175.475 177.638 174.657 177.739C174.296 177.785 173.887 177.448 173.554 177.056C174.084 174.187 175.218 168.182 175.423 168.067C175.692 167.913 177.072 163.089 177.145 161.739C177.217 160.388 179.134 157.378 179.134 157.378C179.134 157.378 179.943 158.917 179.444 159.566Z" fill="black"/>
<path opacity="0.1" d="M177.517 151.296C177.391 151.678 177.196 153.9 177.196 153.9C177.054 155.856 175.568 156.496 174.654 156.702C174.633 156.565 174.6 156.429 174.556 156.297C173.943 154.563 165.975 137.818 165.975 137.818C165.983 136.968 166.09 136.123 166.293 135.298C168.028 134.788 170.774 135.573 170.774 135.573C171.568 135.468 174.158 140.615 174.158 140.615C174.158 140.615 175.884 144.556 176.074 145.093C176.264 145.63 176.074 146.511 176.15 146.818C176.226 147.125 177.033 147.389 177.147 147.812C177.261 148.235 177.186 149.078 177.262 149.228C177.338 149.378 177.646 150.913 177.517 151.296Z" fill="black"/>
<path d="M176.904 150.989C176.777 151.372 176.582 153.592 176.582 153.592C176.466 155.22 175.417 155.943 174.542 156.252C174.147 156.393 173.734 156.475 173.315 156.496L172.083 157.566L166.394 161.752C166.394 161.752 164.274 157.834 164.85 157.812C165.425 157.79 168.742 155.006 168.742 155.006C169.757 154.464 170.774 152.656 171.246 151.727C171.219 151.616 171.198 151.503 171.184 151.39C170.98 149.656 166.689 143.018 166.689 143.018C166.689 143.018 165.031 141.067 164.385 137.453C164.367 137.37 164.354 137.285 164.338 137.198C164.319 137.085 164.309 136.972 164.305 136.858C164.227 135.468 165.24 134.961 166.442 134.842C167.069 134.792 167.7 134.812 168.323 134.9C168.944 134.978 169.558 135.099 170.162 135.262C170.676 135.193 171.942 137.328 172.773 138.841C173.219 139.662 173.541 140.302 173.541 140.302C173.541 140.302 175.267 144.245 175.457 144.78C175.647 145.316 175.457 146.2 175.533 146.505C175.609 146.811 176.416 147.078 176.53 147.501C176.644 147.924 176.569 148.767 176.645 148.917C176.721 149.067 177.032 150.606 176.904 150.989Z" fill="#F7CDDD"/>
<path opacity="0.1" d="M183.503 142.155C182.418 143.263 180.665 143.267 179.257 142.697C177.85 142.128 176.658 141.108 175.354 140.315C174.507 139.797 173.61 139.374 172.776 138.841C172.653 138.762 172.534 138.682 172.414 138.599C171.452 137.919 170.618 137.046 169.622 136.429C168.955 135.986 168.179 135.736 167.379 135.706C167.01 135.703 166.645 135.779 166.309 135.93C166.247 135.956 166.187 135.985 166.129 136.019C165.8 136.207 165.497 136.435 165.224 136.697C164.942 136.95 164.672 137.219 164.376 137.456C164.358 137.373 164.345 137.288 164.329 137.201C164.31 137.089 164.3 136.975 164.296 136.861C164.072 136.883 163.846 136.896 163.616 136.896C162.882 136.9 162.154 136.778 161.462 136.534C161.462 136.507 161.462 136.48 161.445 136.453C161.201 135.166 160.76 133.802 159.723 133.079C159.123 132.66 158.164 132.488 157.332 132.175C157.044 131.172 157 130.114 157.205 129.091C157.409 128.067 157.856 127.108 158.508 126.292C159.16 125.477 159.998 124.829 160.952 124.404C161.906 123.979 162.947 123.788 163.99 123.848C165.033 123.908 166.046 124.216 166.944 124.748C167.843 125.279 168.601 126.018 169.156 126.903C169.71 127.788 170.044 128.792 170.13 129.832C170.216 130.873 170.052 131.918 169.65 132.882C170.703 132.745 172.206 132.882 174.241 133.744C179.04 135.784 180.166 135.889 180.166 135.889L182.577 139.053C182.316 139.45 182.021 139.843 181.994 140.307C181.949 141.159 182.779 141.754 183.503 142.155Z" fill="black"/>
<path d="M159.731 132.463C160.767 133.186 161.208 134.547 161.455 135.833C161.53 136.234 161.603 136.657 161.849 136.976C162.392 137.688 163.506 137.487 164.224 136.976C164.942 136.464 165.508 135.688 166.31 135.327C167.373 134.846 168.625 135.197 169.622 135.82C170.618 136.444 171.452 137.317 172.415 137.99C173.346 138.646 174.384 139.114 175.354 139.706C176.658 140.499 177.85 141.524 179.257 142.088C180.665 142.653 182.423 142.651 183.501 141.546C182.778 141.145 181.947 140.552 182.003 139.691C182.059 138.831 183.062 138.189 182.995 137.306C182.928 136.424 181.889 136.079 181.144 135.645C179.589 134.741 178.925 132.752 178.592 130.917C178.333 129.482 178.12 127.878 177.047 126.956C176.354 126.363 175.419 126.169 174.721 125.582C174.061 125.023 173.693 124.179 173.274 123.4C172.581 122.103 171.671 120.897 170.468 120.122C169.265 119.346 167.735 119.037 166.414 119.569C165.908 119.769 165.447 120.08 164.947 120.292C163.703 120.834 162.279 120.756 161.048 121.322C159.53 122.02 158.544 123.561 157.641 125.023C156.878 126.276 155.364 128.485 155.793 130.113C156.22 131.767 158.606 131.678 159.731 132.463Z" fill="#4C3E42"/>
<g opacity="0.1">
<path opacity="0.1" d="M182.993 137.207C182.987 137.14 182.976 137.073 182.959 137.008C182.684 137.44 182.342 137.86 182.309 138.366C182.302 138.483 182.312 138.6 182.338 138.715C182.644 138.228 183.036 137.771 182.993 137.207Z" fill="black"/>
<path opacity="0.1" d="M179.563 140.769C178.156 140.204 176.966 139.179 175.662 138.386C174.69 137.794 173.652 137.326 172.72 136.67C171.758 135.99 170.924 135.117 169.927 134.5C168.931 133.884 167.681 133.526 166.615 134.005C165.814 134.367 165.25 135.135 164.53 135.656C163.81 136.176 162.706 136.379 162.155 135.656C161.909 135.337 161.836 134.914 161.76 134.513C161.516 133.228 161.073 131.866 160.038 131.143C158.911 130.357 156.525 130.445 156.093 128.793C156.021 128.497 156.002 128.191 156.037 127.889C155.76 128.626 155.617 129.368 155.786 130.013C156.22 131.673 158.606 131.584 159.731 132.363C160.767 133.087 161.209 134.45 161.455 135.735C161.531 136.137 161.603 136.56 161.847 136.878C162.39 137.59 163.504 137.389 164.224 136.869C164.944 136.348 165.507 135.582 166.31 135.22C167.373 134.741 168.625 135.092 169.622 135.715C170.618 136.339 171.452 137.212 172.415 137.885C173.346 138.543 174.385 139.009 175.354 139.601C176.658 140.396 177.85 141.421 179.258 141.985C180.665 142.549 182.423 142.546 183.501 141.443C183.222 141.293 182.958 141.118 182.711 140.92C181.73 141.28 180.56 141.168 179.563 140.769Z" fill="black"/>
</g>
<path d="M147.548 153.135L162.019 147.733C162.188 147.669 162.368 147.64 162.549 147.646C162.729 147.652 162.907 147.694 163.072 147.769C163.236 147.844 163.384 147.95 163.507 148.083C163.631 148.215 163.727 148.37 163.79 148.539C163.853 148.708 163.882 148.888 163.876 149.069C163.869 149.25 163.827 149.427 163.752 149.592C163.677 149.756 163.57 149.904 163.438 150.027C163.306 150.15 163.151 150.246 162.981 150.309L148.51 155.713L145.41 155.402L147.548 153.135Z" fill="#5C5C8E"/>
<path opacity="0.1" d="M163.35 148.105C163.478 148.447 163.464 148.826 163.313 149.159C163.161 149.491 162.884 149.749 162.542 149.877L148.071 155.279L145.741 155.046L145.406 155.408L148.507 155.719L162.978 150.315C163.147 150.252 163.302 150.156 163.435 150.033C163.567 149.909 163.674 149.761 163.749 149.597C163.824 149.433 163.866 149.255 163.872 149.075C163.879 148.894 163.849 148.714 163.786 148.545C163.68 148.26 163.482 148.018 163.224 147.858C163.273 147.936 163.316 148.019 163.35 148.105Z" fill="white"/>
<path d="M147.548 153.135L148.512 155.713L145.967 155.458L145.41 155.402L146.171 154.596L147.548 153.135Z" fill="#EFC8C4"/>
<path d="M146.169 154.596C146.229 154.64 146.28 154.695 146.318 154.759C146.342 154.796 146.355 154.84 146.355 154.884C146.355 154.929 146.342 154.972 146.318 155.01C146.276 155.05 146.229 155.084 146.177 155.109C146.118 155.148 146.069 155.2 146.033 155.26C145.997 155.32 145.976 155.388 145.97 155.458L145.413 155.402L146.169 154.596Z" fill="#727A9C"/>
<path d="M134.917 125.201L132.476 124.011C132.442 123.994 132.41 123.97 132.385 123.941C132.359 123.912 132.339 123.878 132.327 123.842C132.314 123.805 132.309 123.767 132.311 123.728C132.314 123.689 132.324 123.652 132.341 123.617L132.599 123.085C132.616 123.05 132.64 123.019 132.669 122.993C132.698 122.967 132.731 122.948 132.768 122.935C132.805 122.922 132.844 122.917 132.882 122.92C132.921 122.922 132.959 122.932 132.994 122.95L134.638 123.751L136.355 120.232C136.389 120.162 136.45 120.108 136.523 120.082C136.597 120.057 136.678 120.061 136.749 120.095L137.281 120.355C137.316 120.372 137.347 120.396 137.373 120.424C137.399 120.453 137.418 120.487 137.431 120.524C137.444 120.561 137.449 120.599 137.446 120.638C137.444 120.677 137.434 120.715 137.416 120.749L135.311 125.065C135.294 125.1 135.27 125.131 135.241 125.156C135.212 125.182 135.178 125.202 135.142 125.214C135.105 125.227 135.066 125.232 135.028 125.23C134.989 125.227 134.951 125.217 134.917 125.201Z" fill="#3ACC6C"/>
<path d="M140.247 140.418L137.807 139.228C137.772 139.211 137.741 139.187 137.716 139.158C137.69 139.129 137.67 139.096 137.658 139.059C137.645 139.023 137.64 138.984 137.642 138.945C137.645 138.907 137.655 138.869 137.671 138.834L137.93 138.302C137.965 138.232 138.026 138.178 138.1 138.153C138.174 138.127 138.256 138.132 138.326 138.167L139.969 138.968L141.684 135.446C141.718 135.376 141.779 135.322 141.852 135.296C141.926 135.27 142.007 135.275 142.078 135.308L142.608 135.569C142.643 135.586 142.674 135.609 142.7 135.638C142.726 135.667 142.746 135.701 142.759 135.737C142.771 135.774 142.777 135.813 142.774 135.851C142.772 135.89 142.762 135.928 142.745 135.963L140.64 140.279C140.605 140.349 140.544 140.402 140.47 140.427C140.395 140.453 140.314 140.448 140.244 140.414L140.247 140.418Z" fill="#3ACC6C"/>
<path d="M137.854 132.917L135.414 131.727C135.344 131.693 135.29 131.632 135.264 131.558C135.238 131.485 135.243 131.404 135.276 131.333L135.537 130.801C135.554 130.766 135.577 130.735 135.606 130.709C135.635 130.684 135.669 130.664 135.706 130.651C135.742 130.639 135.781 130.633 135.82 130.636C135.859 130.638 135.896 130.649 135.931 130.666L137.575 131.467L139.292 127.943C139.309 127.908 139.333 127.877 139.362 127.852C139.391 127.826 139.425 127.806 139.461 127.794C139.498 127.781 139.537 127.776 139.575 127.778C139.614 127.781 139.652 127.79 139.686 127.807L140.218 128.066C140.288 128.101 140.342 128.162 140.367 128.236C140.393 128.31 140.388 128.391 140.354 128.462L138.247 132.781C138.23 132.816 138.206 132.847 138.177 132.873C138.148 132.898 138.114 132.918 138.077 132.931C138.041 132.943 138.002 132.948 137.963 132.946C137.925 132.944 137.887 132.934 137.852 132.917H137.854Z" fill="#3ACC6C"/>
<path d="M142.563 147.288L140.122 146.099C140.088 146.082 140.056 146.058 140.031 146.029C140.005 146 139.985 145.966 139.973 145.93C139.96 145.893 139.955 145.854 139.957 145.816C139.96 145.777 139.97 145.739 139.987 145.704L140.245 145.173C140.262 145.138 140.286 145.107 140.315 145.081C140.344 145.056 140.378 145.036 140.414 145.024C140.451 145.011 140.49 145.006 140.528 145.008C140.567 145.01 140.605 145.02 140.64 145.037L142.284 145.838L144.001 142.32C144.035 142.25 144.096 142.196 144.17 142.17C144.245 142.144 144.326 142.149 144.397 142.183L144.927 142.443C144.962 142.46 144.993 142.483 145.019 142.512C145.045 142.541 145.064 142.575 145.077 142.612C145.09 142.648 145.095 142.687 145.092 142.726C145.09 142.765 145.08 142.802 145.062 142.837L142.959 147.153C142.924 147.223 142.863 147.276 142.788 147.302C142.714 147.327 142.633 147.322 142.563 147.288Z" fill="#3ACC6C"/>
<path d="M51.3335 193.998C51.3335 193.998 52.4097 195.405 50.8378 197.527C49.2659 199.65 47.9671 201.443 48.4863 202.77C48.4863 202.77 50.8595 198.827 52.7896 198.773C54.7197 198.719 53.4571 196.37 51.3335 193.998Z" fill="#3ACC6C"/>
<path opacity="0.1" d="M51.3335 193.998C51.4277 194.134 51.502 194.283 51.5542 194.439C53.4372 196.652 54.4484 198.717 52.6305 198.779C50.9428 198.826 48.9186 201.841 48.4357 202.602C48.4502 202.664 48.469 202.724 48.4917 202.783C48.4917 202.783 50.865 198.84 52.7951 198.786C54.7252 198.732 53.4571 196.37 51.3335 193.998Z" fill="black"/>
<path d="M53.334 195.792C53.334 196.285 53.2779 196.696 53.2092 196.696C53.1404 196.696 53.0862 196.294 53.0862 195.792C53.0862 195.289 53.1549 195.53 53.2237 195.53C53.2924 195.53 53.334 195.296 53.334 195.792Z" fill="#FFD037"/>
<path d="M54.0197 196.381C53.5856 196.618 53.2057 196.763 53.1731 196.701C53.1406 196.64 53.4662 196.401 53.8967 196.159C54.3272 195.917 54.159 196.094 54.1915 196.159C54.2241 196.224 54.4556 196.144 54.0197 196.381Z" fill="#FFD037"/>
<path d="M45.6498 193.998C45.6498 193.998 44.5754 195.405 46.1473 197.527C47.7192 199.65 49.0162 201.443 48.4988 202.77C48.4988 202.77 46.1274 198.827 44.1955 198.773C42.2636 198.719 43.5262 196.37 45.6498 193.998Z" fill="#3ACC6C"/>
<path opacity="0.1" d="M45.6499 193.998C45.5568 194.134 45.4831 194.283 45.431 194.439C43.5462 196.652 42.5368 198.717 44.3548 198.779C46.0406 198.826 48.0648 201.841 48.5496 202.602C48.5344 202.664 48.515 202.724 48.4917 202.783C48.4917 202.783 46.1202 198.824 44.1847 198.769C42.2492 198.715 43.5263 196.37 45.6499 193.998Z" fill="black"/>
<path d="M43.6511 195.792C43.6511 196.285 43.7054 196.696 43.7741 196.696C43.8429 196.696 43.8989 196.294 43.8989 195.792C43.8989 195.289 43.8302 195.53 43.7615 195.53C43.6927 195.53 43.6511 195.296 43.6511 195.792Z" fill="#FFD037"/>
<path d="M42.9638 196.381C43.3998 196.618 43.7778 196.763 43.8104 196.701C43.8429 196.64 43.5173 196.401 43.0868 196.159C42.6563 195.917 42.8227 196.094 42.7902 196.159C42.7576 196.224 42.5297 196.144 42.9638 196.381Z" fill="#FFD037"/>
<path opacity="0.1" d="M48.4936 213.524C54.7065 213.524 59.743 212.752 59.743 211.799C59.743 210.847 54.7065 210.075 48.4936 210.075C42.2807 210.075 37.2441 210.847 37.2441 211.799C37.2441 212.752 42.2807 213.524 48.4936 213.524Z" fill="#EB5569"/>
<path d="M54.282 200.872L54.2277 201.312L54.1535 201.932L54.121 202.19L54.0468 202.81L54.0124 203.069L53.9383 203.689L53.0772 210.74C52.9995 211.369 51.9702 211.861 50.7257 211.861H46.2559C45.0132 211.861 43.9858 211.369 43.9044 210.74L43.0434 203.689L42.9674 203.069L42.9366 202.81L42.8589 202.19L42.8281 201.932L42.7521 201.312L42.6979 200.872C42.6563 200.511 43.2116 200.214 43.9152 200.214H53.0664C53.7718 200.214 54.3272 200.516 54.282 200.872Z" fill="#65617D"/>
<path d="M54.2294 201.312L54.1534 201.932H42.8316L42.7574 201.312H54.2294Z" fill="#9D9CB5"/>
<path d="M54.1227 202.19L54.0468 202.81H42.9402L42.8643 202.19H54.1227Z" fill="#9D9CB5"/>
<path d="M54.0142 203.069L53.9382 203.689H43.0469L42.9709 203.069H54.0142Z" fill="#9D9CB5"/>
</g>
<path d="M0 300H250V390C250 395.523 245.523 400 240 400H10C4.47716 400 0 395.523 0 390V300Z" fill="#EB5569"/>
<path d="M113.128 351.808C113.128 352.336 113.016 352.84 112.792 353.32C112.584 353.8 112.216 354.192 111.688 354.496C111.16 354.8 110.424 354.952 109.48 354.952C108.824 354.952 108.256 354.904 107.776 354.808L107.872 352.168C107.952 352.184 108.048 352.2 108.16 352.216C108.288 352.216 108.448 352.216 108.64 352.216C109.216 352.216 109.592 352.12 109.768 351.928C109.944 351.72 110.032 351.472 110.032 351.184C110.032 350.672 109.72 350.216 109.096 349.816C108.472 349.416 107.56 349.096 106.36 348.856V358H103.192C102.296 356.704 101.136 355.648 99.7121 354.832C98.3041 354 96.7041 353.432 94.9121 353.128L93.7121 350.296C95.1041 349.512 96.6321 348.76 98.2961 348.04C99.9761 347.304 101.632 346.704 103.264 346.24V345.712H93.0881V343.072H114.136V345.712H106.312V346.216C107.576 346.408 108.72 346.752 109.744 347.248C110.784 347.744 111.608 348.376 112.216 349.144C112.824 349.896 113.128 350.784 113.128 351.808ZM97.7441 351.328C98.6401 351.504 99.5761 351.856 100.552 352.384C101.528 352.896 102.424 353.56 103.24 354.376C103.224 354.184 103.208 353.984 103.192 353.776C103.192 353.552 103.192 353.328 103.192 353.104V349.096C102.248 349.4 101.336 349.736 100.456 350.104C99.5921 350.472 98.6881 350.88 97.7441 351.328ZM129.242 343.072V345.712H126.938V358H123.77C122.874 356.704 121.714 355.648 120.29 354.832C118.882 354 117.282 353.432 115.49 353.128L114.29 350.296C115.698 349.512 117.234 348.752 118.898 348.016C120.562 347.28 122.218 346.688 123.866 346.24V345.712H113.666V343.072H129.242ZM118.322 351.328C119.218 351.504 120.154 351.848 121.13 352.36C122.106 352.872 122.994 353.544 123.794 354.376C123.778 353.912 123.77 353.456 123.77 353.008V349.096C122.826 349.4 121.914 349.736 121.034 350.104C120.17 350.472 119.266 350.88 118.322 351.328ZM117.986 358.288C117.49 358.288 117.074 358.12 116.738 357.784C116.402 357.432 116.234 357 116.234 356.488C116.234 355.976 116.402 355.552 116.738 355.216C117.074 354.864 117.49 354.688 117.986 354.688C118.498 354.688 118.914 354.864 119.234 355.216C119.57 355.552 119.738 355.976 119.738 356.488C119.738 357 119.57 357.432 119.234 357.784C118.914 358.12 118.498 358.288 117.986 358.288ZM144.672 343.072V345.712H142.368V358H139.2V348.592C138.496 347.76 137.752 347.056 136.968 346.48C136.2 345.904 135.416 345.616 134.616 345.616C134.136 345.616 133.744 345.752 133.44 346.024C133.152 346.296 133.008 346.68 133.008 347.176C133.008 347.512 133.088 347.824 133.248 348.112C133.424 348.384 133.728 348.608 134.16 348.784C134.592 348.944 135.216 349.04 136.032 349.072L135.672 352.192C133.592 351.952 132.08 351.384 131.136 350.488C130.208 349.592 129.744 348.464 129.744 347.104C129.744 346.256 129.936 345.52 130.32 344.896C130.704 344.256 131.224 343.768 131.88 343.432C132.536 343.08 133.28 342.904 134.112 342.904C135.216 342.904 136.176 343.152 136.992 343.648C137.808 344.144 138.56 344.72 139.248 345.376C139.216 344.768 139.2 344.176 139.2 343.6V341.488H141.792L142.344 343.072H144.672ZM151.958 345.712H149.654V358H146.486V345.712H144.182V343.072H146.486C146.182 341.408 145.286 340.216 143.798 339.496C142.31 338.76 140.278 338.392 137.702 338.392C136.518 338.392 135.638 338.472 135.062 338.632C134.47 338.792 134.174 339.008 134.174 339.28C134.174 339.44 134.262 339.552 134.438 339.616C134.598 339.664 134.918 339.688 135.398 339.688H137.822C138.75 339.688 139.494 339.76 140.054 339.904C140.598 340.048 141.046 340.28 141.398 340.6C141.718 340.888 141.95 341.24 142.094 341.656C142.238 342.072 142.31 342.6 142.31 343.24H139.286C139.286 342.68 139.126 342.304 138.806 342.112C138.662 342.032 138.502 341.976 138.326 341.944C138.15 341.896 137.918 341.872 137.63 341.872H135.878C134.918 341.872 134.166 341.824 133.622 341.728C133.078 341.616 132.638 341.464 132.302 341.272C131.902 341.048 131.622 340.768 131.462 340.432C131.302 340.08 131.222 339.712 131.222 339.328C131.222 338.336 131.798 337.536 132.95 336.928C134.086 336.304 135.83 335.992 138.182 335.992C141.67 335.992 144.398 336.568 146.366 337.72C148.334 338.856 149.446 340.64 149.702 343.072H151.958V345.712ZM167.911 343.072V345.712H165.607V358H162.439C161.463 356.8 160.247 355.88 158.791 355.24C157.351 354.6 155.615 354.144 153.583 353.872L152.455 351.16C153.111 350.76 153.823 350.352 154.591 349.936C155.375 349.504 156.167 349.096 156.967 348.712C156.295 348.328 155.567 347.992 154.783 347.704C154.015 347.416 153.175 347.2 152.263 347.056L152.863 345.712H151.471V343.072H167.911ZM162.439 345.712H156.415C157.135 345.968 157.791 346.304 158.383 346.72C158.975 347.12 159.511 347.536 159.991 347.968L160.279 350.08C159.639 350.336 158.983 350.624 158.311 350.944C157.655 351.248 157.031 351.56 156.439 351.88C157.079 351.992 157.759 352.176 158.479 352.432C159.215 352.688 159.935 353.016 160.639 353.416C161.343 353.816 161.959 354.28 162.487 354.808C162.455 354.536 162.439 354.264 162.439 353.992C162.439 353.72 162.439 353.432 162.439 353.128V345.712ZM155.839 358.648C155.343 358.648 154.927 358.472 154.591 358.12C154.255 357.784 154.087 357.36 154.087 356.848C154.087 356.336 154.255 355.912 154.591 355.576C154.927 355.224 155.343 355.048 155.839 355.048C156.351 355.048 156.767 355.224 157.087 355.576C157.423 355.912 157.591 356.336 157.591 356.848C157.591 357.36 157.423 357.784 157.087 358.12C156.767 358.472 156.351 358.648 155.839 358.648Z" fill="black"/>
<defs>
<linearGradient id="paint0_linear" x1="175.173" y1="205.593" x2="175.173" y2="118.339" gradientUnits="userSpaceOnUse">
<stop stop-color="#808080" stop-opacity="0.25"/>
<stop offset="0.54" stop-color="#808080" stop-opacity="0.12"/>
<stop offset="1" stop-color="#808080" stop-opacity="0.1"/>
</linearGradient>
<clipPath id="clip0">
<rect x="20" y="78" width="209" height="144" fill="white"/>
</clipPath>
</defs>
</svg>
