<svg width="250" height="400" viewBox="0 0 250 400" fill="none" xmlns="http://www.w3.org/2000/svg">
<path d="M1.5 10C1.5 5.30559 5.30558 1.5 10 1.5H240C244.694 1.5 248.5 5.30558 248.5 10V298.5H1.5V10Z" stroke="#EB5569" stroke-width="3"/>
<g clip-path="url(#clip0)">
<path d="M233.871 98.812H128.824V151.305H233.871V98.812Z" fill="#E6E6E6"/>
<path d="M116.746 198.911L119.234 198.194C119.676 197.052 120.052 195.885 120.362 194.701L119.194 194.658L120.468 194.291C120.837 192.822 120.988 191.826 120.988 191.826C120.988 191.826 115.942 193.328 112.142 196.259L111.673 199.546L111.225 197.019C110.811 197.386 110.421 197.778 110.057 198.194C106.398 202.397 104.806 206.999 106.501 208.472C108.195 209.945 112.535 207.731 116.193 203.528C117.325 202.163 118.241 200.632 118.909 198.99L116.746 198.911Z" fill="#E6E6E6"/>
<path d="M22.4855 183.934L21.0673 178.344C18.5528 177.279 15.9802 176.357 13.3617 175.581L13.1826 178.179L12.4565 175.317C9.20918 174.39 7 173.982 7 173.982C7 173.982 9.9841 185.323 16.243 193.993L23.536 195.274L17.8703 196.09C18.6579 197.037 19.5044 197.933 20.4046 198.774C29.5096 207.221 39.6508 211.096 43.0557 207.43C46.4605 203.764 41.8397 193.945 32.7347 185.498C29.9121 182.88 26.3663 180.778 22.8169 179.125L22.4855 183.934Z" fill="#E6E6E6"/>
<path d="M35.9729 177.864L37.6502 172.346C36.0484 170.135 34.3232 168.016 32.4828 166L30.9858 168.131L31.8446 165.306C29.544 162.835 27.864 161.344 27.864 161.344C27.864 161.344 24.5529 172.594 25.4265 183.25L31.0075 188.113L25.7351 185.885C25.9196 187.103 26.1805 188.307 26.5164 189.492C29.9421 201.426 36.6191 209.983 41.4299 208.603C46.2407 207.224 47.3635 196.431 43.9378 184.497C42.8758 180.798 40.9272 177.167 38.7442 173.918L35.9729 177.864Z" fill="#E6E6E6"/>
<path d="M58.6607 200.962L59.2465 203.596L63.3459 203.303L63.0531 200.377L58.6607 200.962Z" fill="#FFB8B8"/>
<path d="M48.4124 200.962L47.8269 203.596L43.7272 203.303L44.0203 200.377L48.4124 200.962Z" fill="#FFB8B8"/>
<path d="M47.2411 115.511C50.3137 115.511 52.8045 113.021 52.8045 109.95C52.8045 106.88 50.3137 104.39 47.2411 104.39C44.1685 104.39 41.6776 106.88 41.6776 109.95C41.6776 113.021 44.1685 115.511 47.2411 115.511Z" fill="#FFB8B8"/>
<path d="M43.7272 111.414L42.2634 118.144L49.5835 120.486L49.2907 111.999L43.7272 111.414Z" fill="#FFB8B8"/>
<path d="M46.3626 119.022L42.6786 116.235C42.6786 116.235 41.9704 115.218 41.6776 116.096C41.3848 116.974 38.7495 120.193 38.7495 120.193L40.7992 144.19L56.3183 144.482C56.3183 144.482 50.2541 116.509 49.4796 117.473C48.7051 118.437 46.6554 118.437 46.3626 119.022Z" fill="#D0CDE1"/>
<path d="M49.4372 115.657C49.4372 115.657 48.2659 116.828 48.8515 117.705C49.4372 118.583 48.9979 120.211 49.5836 120.348C50.1692 120.486 48.9979 130.435 50.7548 133.069C52.5117 135.703 51.6333 142.434 51.6333 143.604C51.6333 144.775 53.3901 151.798 53.3901 151.798C53.3901 151.798 59.2464 152.384 59.2464 150.92C59.2464 149.457 57.1967 139.215 57.1967 139.215L58.9536 121.071C58.9536 121.071 58.9536 119.315 56.9039 118.73C54.8542 118.144 50.7548 116.681 50.7548 116.681L49.4372 115.657Z" fill="#2F2E41"/>
<path d="M57.7823 136.874H56.3183C56.3183 136.874 48.7051 137.459 49.2907 134.24C49.8764 131.021 55.7326 133.362 55.7326 133.362L57.4895 134.24L57.7823 136.874Z" fill="#FFB8B8"/>
<path d="M42.9114 115.165C42.9114 115.165 40.5064 116.681 40.2136 117.266C39.9208 117.852 33.186 121.071 33.186 123.412C33.186 125.753 35.2357 128.387 35.2357 128.387L37.8711 154.139C37.8711 154.139 42.2633 155.603 42.5561 154.432C42.8489 153.261 44.0202 127.509 43.4345 126.338C42.8489 125.168 42.8489 117.559 42.8489 117.559L42.9114 115.165Z" fill="#2F2E41"/>
<path d="M35.2357 157.651L34.9429 159.407C34.9429 159.407 35.2357 165.26 37.5782 164.967C39.9207 164.675 38.4566 158.822 38.4566 158.822L38.1638 157.651H35.2357Z" fill="#FFB8B8"/>
<path d="M38.7495 142.726C38.7495 142.726 39.0423 169.064 40.5063 177.551C41.9704 186.037 42.556 200.67 42.556 200.67C42.556 200.67 46.3626 201.255 46.9482 201.547C47.5339 201.84 48.9979 200.962 48.9979 200.962L49.2907 157.651L54.8542 177.258C54.8542 177.258 55.7326 200.962 57.4895 201.547C59.2464 202.133 64.5171 200.962 64.5171 200.962C64.5171 200.962 62.4674 178.429 61.8817 177.551C61.2961 176.673 59.832 150.92 57.4895 146.238L56.6111 143.019C56.6111 143.019 39.9207 143.604 38.7495 142.726Z" fill="#2F2E41"/>
<path d="M59.5393 202.425C59.5393 202.425 58.0752 201.255 58.0752 202.133C58.0752 203.011 56.6111 208.425 58.368 208.425C60.1249 208.425 71.8374 209.449 71.5446 207.108C71.2518 204.767 64.2057 201.028 64.2057 201.028C64.2057 201.028 61.589 201.84 61.2961 202.133C61.0033 202.425 59.5393 202.425 59.5393 202.425Z" fill="#2F2E41"/>
<path d="M47.5339 202.425C47.5339 202.425 48.998 201.255 48.998 202.133C48.998 203.011 50.462 208.425 48.7052 208.425C46.9483 208.425 35.2357 209.449 35.5285 207.108C35.8213 204.767 42.8674 201.028 42.8674 201.028C42.8674 201.028 45.4842 201.84 45.777 202.133C46.0698 202.425 47.5339 202.425 47.5339 202.425Z" fill="#2F2E41"/>
<path d="M56.9039 120.778L58.9536 121.071L63.053 132.777C63.053 132.777 64.2242 138.629 62.4673 139.507C60.7105 140.385 57.3945 140.214 57.3945 140.214L56.9039 133.655L58.3679 133.947L56.9039 131.021V120.778Z" fill="#2F2E41"/>
<path d="M34.6501 122.241L33.186 123.412C33.186 123.412 31.7219 138.337 32.0147 139.8C32.3075 141.263 34.0644 159.114 34.0644 159.114L39.0423 157.944L35.5285 122.534L34.6501 122.241Z" fill="#2F2E41"/>
<path d="M41.0862 105.909C41.0862 105.909 39.4664 103.855 41.0862 102.829V103.342C41.0862 103.342 44.5572 99.4915 46.6398 100.518L48.4909 100.005V100.518L49.6479 100.005L49.4165 100.775H51.0363L50.3421 101.288C50.3421 101.288 55.6643 101.032 52.4247 104.882C52.4247 104.882 53.9646 107.191 52.5005 108.475C52.5005 108.475 51.2677 105.652 49.6479 106.422C49.2091 106.65 48.7141 106.747 48.2219 106.701C47.7296 106.656 47.2607 106.47 46.8712 106.166C46.8712 106.166 43.6316 105.909 44.0944 107.449C44.5572 108.989 44.3258 109.503 44.3258 109.503C44.3258 109.503 43.1688 110.273 43.4002 110.786C43.6316 111.3 43.6316 112.84 43.6316 112.84C43.6316 112.84 42.4746 111.043 42.0118 111.3C41.549 111.556 39.0036 108.989 41.0862 105.909Z" fill="#2F2E41"/>
<path d="M104.567 124.289L92.2547 124.594L90.5975 109.922H104.567V124.289Z" fill="#2F2E41"/>
<path d="M91.5339 143.309L87.0398 174.451C87.0398 174.451 83.1448 185.53 82.8452 190.919L81.6468 198.705L87.0398 199.903L92.7324 178.044L100.522 158.281L99.6234 181.038L97.8258 199.603L103.219 200.501L106.514 176.846L110.11 159.479C110.11 159.479 112.806 144.507 108.612 143.01L91.5339 143.309Z" fill="#2F2E41"/>
<path d="M86.6791 196.794L86.0794 204.082C86.0794 204.082 92.4972 207.79 90.438 208.509C88.3788 209.228 85.5603 208.303 84.9838 208.139C84.375 207.967 83.2384 207.692 82.3784 207.488C81.9803 207.397 81.6219 207.181 81.3558 206.871C81.0896 206.562 80.9296 206.175 80.8993 205.768L80.8977 205.742C80.8459 204.845 82.8704 197.051 82.8704 197.051L86.6791 196.794Z" fill="#2F2E41"/>
<path d="M102.264 196.976L102.769 203.945C102.769 203.945 110.078 206.659 108.194 207.757C106.31 208.856 103.366 208.487 102.769 208.436C101.668 208.344 98.9286 208.251 98.9286 208.251C98.9286 208.251 98.4222 208.69 98.1998 207.819C97.9774 206.949 98.4964 199.174 98.4964 199.174L102.264 196.976Z" fill="#2F2E41"/>
<path d="M97.8257 118.157C100.97 118.157 103.518 115.609 103.518 112.467C103.518 109.325 100.97 106.778 97.8257 106.778C94.6818 106.778 92.1331 109.325 92.1331 112.467C92.1331 115.609 94.6818 118.157 97.8257 118.157Z" fill="#FFB8B8"/>
<path d="M94.5301 115.761L93.3316 122.349L98.425 124.744L99.6234 116.36L94.5301 115.761Z" fill="#FFB8B8"/>
<path d="M93.9308 146.902L100.223 151.394C100.223 151.394 102.919 158.281 105.016 157.083C107.114 155.886 102.619 149.897 102.619 149.897L97.5261 144.806L93.9308 146.902Z" fill="#FFB8B8"/>
<path d="M111.908 144.806L112.507 148.4C112.507 148.4 111.009 155.886 109.211 154.388C107.413 152.891 109.81 148.1 109.81 148.1L109.511 145.106L111.908 144.806Z" fill="#FFB8B8"/>
<path d="M97.8258 122.948L97.2266 120.552L93.6312 118.756L92.4328 120.253L88.5378 121.451L93.032 145.405C93.032 145.405 108.312 146.304 108.612 143.908C108.911 141.513 105.616 134.925 105.616 134.925C105.616 134.925 106.514 131.631 106.215 129.835L105.016 122.648L100.223 121.151L99.1278 119.827L98.1254 121.451L97.8258 122.948Z" fill="#D0CDE1"/>
<path d="M89.4366 122.049L88.5378 121.45C88.5378 121.45 86.7401 121.75 86.1409 124.145C85.5417 126.541 86.1409 137.321 87.6389 139.417C89.137 141.513 93.3315 147.801 93.3315 147.801L99.0242 145.106L93.0319 138.219L91.5339 129.535L89.4366 122.049Z" fill="#D0CDE1"/>
<path d="M102.62 123.247L105.016 122.648C105.016 122.648 106.514 123.247 107.114 125.343C107.713 127.439 111.009 137.919 110.709 138.818C110.409 139.716 113.406 145.705 113.406 145.705L109.211 146.004L106.814 139.716L104.417 133.428L102.62 123.247Z" fill="#D0CDE1"/>
<path d="M87.9593 117.87C89.1599 117.211 89.7186 115.733 89.7584 114.364C89.7982 112.996 89.4662 111.642 89.4401 110.273C89.4267 109.993 89.4505 109.713 89.5111 109.439C89.6107 109.099 89.7658 108.778 89.9702 108.489C91.5314 106.099 94.2452 104.417 97.1037 104.39C97.5166 104.385 97.9267 104.46 98.3107 104.612C98.6062 104.73 98.7029 104.716 98.7595 105.079C99.4366 104.855 100.171 104.879 100.833 105.145C101.488 105.411 102.099 105.775 102.645 106.224C102.97 106.465 103.276 106.73 103.562 107.017C105.073 108.581 105.42 110.991 104.983 113.121C104.841 113.813 105.523 114.481 106.088 114.906C106.653 115.332 107.305 115.722 107.583 116.372C107.849 116.997 107.703 117.713 107.757 118.39C107.817 119.031 108.055 119.642 108.444 120.155C108.834 120.667 109.359 121.061 109.96 121.291C109.837 121.437 109.677 121.548 109.497 121.612C109.316 121.675 109.122 121.689 108.934 121.651C108.543 121.569 108.177 121.394 107.866 121.143C106.697 120.277 105.86 119.036 105.496 117.628C105.33 118.382 105.394 119.16 105.4 119.932C105.386 120.794 105.545 121.65 105.867 122.449C106.195 123.252 106.797 123.914 107.565 124.317C106.824 124.68 106.007 124.417 105.379 123.882C104.778 123.311 104.343 122.587 104.122 121.788C103.701 120.512 103.53 119.167 103.619 117.827C102.929 118.986 102.678 120.354 102.908 121.683C103.15 123.038 103.857 124.266 104.909 125.154C103.075 125.138 101.272 124.684 99.6492 123.83C99.2302 123.64 98.8609 123.356 98.5703 122.999C98.0482 122.276 98.1717 121.288 98.3181 120.408C98.434 119.712 97.5637 118.706 98.0621 118.206C98.2101 118.06 98.408 117.975 98.616 117.968C99.3655 117.912 100.092 117.684 100.739 117.303C101.387 116.922 101.938 116.397 102.35 115.769C102.925 114.905 103.251 113.9 103.294 112.864C103.293 112.103 103.129 111.351 102.811 110.659C102.493 109.968 102.029 109.353 101.452 108.857C100.874 108.361 100.196 107.996 99.4645 107.786C98.7326 107.576 97.9641 107.526 97.2113 107.641C96.4585 107.755 95.7392 108.03 95.1027 108.448C94.4661 108.865 93.9273 109.415 93.5231 110.06C93.1188 110.705 92.8586 111.429 92.7603 112.184C92.662 112.939 92.7279 113.706 92.9534 114.432C93.1332 115.017 93.262 115.617 93.3384 116.224C93.4287 116.928 93.5722 117.625 93.7677 118.308C94.1447 119.62 94.7836 120.959 95.9656 121.643C95.5523 121.82 95.1082 121.914 94.6586 121.92C93.1755 122.083 91.6156 122.047 90.2731 121.396C88.9306 120.745 87.8637 119.358 87.9593 117.87Z" fill="#2F2E41"/>
<path d="M91.1958 112.062C95.4554 110.356 99.6547 109.992 103.745 112.062V108.623C103.745 108.029 103.508 107.459 103.088 107.039C102.668 106.619 102.098 106.383 101.503 106.383H92.9664C92.7339 106.383 92.5037 106.429 92.2888 106.518C92.074 106.607 91.8788 106.737 91.7144 106.901C91.55 107.066 91.4196 107.261 91.3306 107.475C91.2416 107.69 91.1958 107.92 91.1958 108.153V112.062Z" fill="#2F2E41"/>
<path d="M92.5214 114.192C92.8681 114.192 93.1492 113.742 93.1492 113.188C93.1492 112.633 92.8681 112.184 92.5214 112.184C92.1746 112.184 91.8936 112.633 91.8936 113.188C91.8936 113.742 92.1746 114.192 92.5214 114.192Z" fill="#FFB8B8"/>
<path d="M145.276 208.469H7V209H145.276V208.469Z" fill="#3F3D56"/>
<path d="M243 144.024H137.421V91H243V144.024ZM137.953 143.493H242.468V91.5315H137.953V143.493Z" fill="#3F3D56"/>
<path d="M189.905 134.13C189.904 134.978 189.652 135.807 189.18 136.512C188.708 137.217 188.038 137.766 187.254 138.09C186.47 138.414 185.607 138.499 184.775 138.334C183.943 138.168 183.179 137.76 182.579 137.16C181.979 136.56 181.57 135.796 181.404 134.965C181.239 134.133 181.323 133.271 181.648 132.487C181.972 131.704 182.522 131.034 183.227 130.562C183.932 130.091 184.762 129.839 185.61 129.838C186.175 129.837 186.734 129.946 187.255 130.162C187.777 130.377 188.251 130.693 188.65 131.092C189.049 131.491 189.366 131.964 189.581 132.486C189.796 133.007 189.906 133.566 189.905 134.13Z" fill="#EB5569"/>
<path opacity="0.3" d="M189.905 134.13C189.904 134.978 189.652 135.807 189.18 136.512C188.708 137.217 188.038 137.766 187.254 138.09C186.47 138.414 185.607 138.499 184.775 138.334C183.943 138.168 183.179 137.76 182.579 137.16C181.979 136.56 181.57 135.796 181.404 134.965C181.239 134.133 181.323 133.271 181.648 132.487C181.972 131.704 182.522 131.034 183.227 130.562C183.932 130.091 184.762 129.839 185.61 129.838C186.175 129.837 186.734 129.946 187.255 130.162C187.777 130.377 188.251 130.693 188.65 131.092C189.049 131.491 189.366 131.964 189.581 132.486C189.796 133.007 189.906 133.566 189.905 134.13Z" fill="black"/>
<path d="M197.683 112.495C197.691 113.897 197.402 115.286 196.834 116.569C196.589 117.121 196.294 117.65 195.954 118.15C195.25 119.168 194.405 120.08 193.444 120.861C193.279 120.999 193.098 121.142 192.856 121.328C192.553 121.554 192.215 121.791 191.827 122.046C191.142 122.489 190.482 122.971 189.851 123.489C189.477 123.78 189.153 124.13 188.891 124.526C188.564 125.097 188.4 126.203 188.4 127.813V128.079H181.23V126.835C181.23 125.862 181.254 125.044 181.3 124.332C181.332 123.686 181.4 123.043 181.502 122.405C181.572 121.844 181.741 121.299 182.002 120.797C182.472 120.013 183.608 118.947 185.469 117.539C185.549 117.48 185.629 117.419 185.711 117.358C185.788 117.305 185.863 117.249 185.94 117.191C186.585 116.733 187.178 116.207 187.711 115.623C187.866 115.441 188.01 115.249 188.142 115.049L188.176 114.995C188.593 114.257 188.797 113.419 188.767 112.572C188.769 112.357 188.754 112.143 188.724 111.931C188.641 111.104 188.257 110.336 187.644 109.773C186.98 109.164 186.123 108.807 185.222 108.763C185.108 108.753 185.001 108.75 184.892 108.75C184.468 108.748 184.046 108.798 183.634 108.899C182.863 109.089 182.171 109.517 181.656 110.121C181.383 110.443 181.151 110.798 180.965 111.176C180.336 112.625 179.934 114.161 179.773 115.732L179.747 116.011L172.998 114.214V111.24C173.03 111.121 173.064 111.001 173.101 110.884C173.532 109.393 174.219 107.987 175.13 106.73C175.52 106.197 175.959 105.701 176.441 105.25C176.556 105.136 176.681 105.024 176.806 104.915C177.618 104.211 178.52 103.617 179.489 103.15L179.574 103.111C181.409 102.263 183.411 101.838 185.432 101.867C185.642 101.867 185.889 101.87 186.134 101.883C188.143 101.934 190.114 102.436 191.902 103.352C192.704 103.768 193.457 104.274 194.143 104.862C196.07 106.432 197.311 108.688 197.603 111.155C197.656 111.6 197.683 112.047 197.683 112.495Z" fill="#EB5569"/>
<path opacity="0.3" d="M197.683 112.495C197.691 113.897 197.402 115.286 196.834 116.569C196.589 117.121 196.294 117.65 195.954 118.15C195.25 119.168 194.405 120.08 193.444 120.861C193.279 120.999 193.098 121.142 192.856 121.328C192.553 121.554 192.215 121.791 191.827 122.046C191.142 122.489 190.482 122.971 189.851 123.489C189.477 123.78 189.153 124.13 188.891 124.526C188.564 125.097 188.4 126.203 188.4 127.813V128.079H181.23V126.835C181.23 125.862 181.254 125.044 181.3 124.332C181.332 123.686 181.4 123.043 181.502 122.405C181.572 121.844 181.741 121.299 182.002 120.797C182.472 120.013 183.608 118.947 185.469 117.539C185.549 117.48 185.629 117.419 185.711 117.358C185.788 117.305 185.863 117.249 185.94 117.191C186.585 116.733 187.178 116.207 187.711 115.623C187.866 115.441 188.01 115.249 188.142 115.049L188.176 114.995C188.593 114.257 188.797 113.419 188.767 112.572C188.769 112.357 188.754 112.143 188.724 111.931C188.641 111.104 188.257 110.336 187.644 109.773C186.98 109.164 186.123 108.807 185.222 108.763C185.108 108.753 185.001 108.75 184.892 108.75C184.468 108.748 184.046 108.798 183.634 108.899C182.863 109.089 182.171 109.517 181.656 110.121C181.383 110.443 181.151 110.798 180.965 111.176C180.336 112.625 179.934 114.161 179.773 115.732L179.747 116.011L172.998 114.214V111.24C173.03 111.121 173.064 111.001 173.101 110.884C173.532 109.393 174.219 107.987 175.13 106.73C175.52 106.197 175.959 105.701 176.441 105.25C176.556 105.136 176.681 105.024 176.806 104.915C177.618 104.211 178.52 103.617 179.489 103.15L179.574 103.111C181.409 102.263 183.411 101.838 185.432 101.867C185.642 101.867 185.889 101.87 186.134 101.883C188.143 101.934 190.114 102.436 191.902 103.352C192.704 103.768 193.457 104.274 194.143 104.862C196.07 106.432 197.311 108.688 197.603 111.155C197.656 111.6 197.683 112.047 197.683 112.495Z" fill="black"/>
<path d="M186.98 134.13C186.979 134.978 186.727 135.807 186.255 136.512C185.783 137.217 185.113 137.766 184.329 138.09C183.545 138.414 182.682 138.499 181.85 138.334C181.018 138.168 180.254 137.76 179.654 137.16C179.054 136.56 178.645 135.796 178.479 134.965C178.314 134.133 178.398 133.271 178.723 132.487C179.047 131.704 179.597 131.034 180.302 130.562C181.007 130.091 181.837 129.839 182.685 129.838C183.249 129.837 183.809 129.946 184.33 130.162C184.852 130.377 185.326 130.693 185.725 131.092C186.124 131.491 186.441 131.964 186.656 132.486C186.871 133.007 186.981 133.566 186.98 134.13Z" fill="#EB5569"/>
<path d="M194.758 112.495C194.766 113.897 194.477 115.286 193.909 116.569C193.664 117.121 193.369 117.65 193.029 118.15C192.325 119.168 191.48 120.08 190.519 120.861C190.354 120.999 190.173 121.142 189.931 121.328C189.628 121.554 189.29 121.791 188.902 122.046C188.217 122.489 187.557 122.971 186.926 123.489C186.552 123.78 186.228 124.13 185.966 124.526C185.639 125.097 185.474 126.203 185.474 127.813V128.079H178.305V126.835C178.305 125.862 178.329 125.044 178.375 124.332C178.407 123.686 178.475 123.043 178.577 122.405C178.647 121.844 178.816 121.299 179.077 120.797C179.547 120.013 180.683 118.947 182.544 117.539C182.624 117.48 182.704 117.419 182.786 117.358C182.863 117.305 182.938 117.249 183.015 117.191C183.66 116.733 184.253 116.207 184.786 115.623C184.941 115.441 185.085 115.249 185.217 115.049L185.251 114.995C185.668 114.257 185.872 113.419 185.841 112.572C185.843 112.357 185.829 112.143 185.799 111.931C185.716 111.104 185.332 110.336 184.719 109.773C184.055 109.164 183.198 108.807 182.297 108.763C182.182 108.753 182.076 108.75 181.967 108.75C181.543 108.748 181.121 108.798 180.709 108.899C179.938 109.089 179.246 109.517 178.731 110.121C178.458 110.443 178.226 110.798 178.039 111.176C177.561 112.131 177.25 113.396 177.114 114.934L177.087 115.213L169.498 114.132L169.535 113.869C169.669 112.858 169.883 111.86 170.176 110.884C170.607 109.393 171.294 107.987 172.205 106.73C172.595 106.197 173.034 105.701 173.516 105.25C173.631 105.136 173.756 105.024 173.881 104.915C174.693 104.211 175.595 103.617 176.564 103.15L176.649 103.111C178.484 102.263 180.486 101.838 182.507 101.867C182.717 101.867 182.964 101.87 183.209 101.883C185.217 101.934 187.189 102.436 188.977 103.352C189.779 103.768 190.532 104.274 191.218 104.862C193.145 106.432 194.385 108.688 194.678 111.155C194.731 111.6 194.758 112.047 194.758 112.495Z" fill="#EB5569"/>
</g>
<path d="M0 300H250V390C250 395.523 245.523 400 240 400H10C4.47716 400 0 395.523 0 390V300Z" fill="#EB5569"/>
<path d="M61.232 343.072V345.712H58.928V358H55.76V350.776C55.376 350.392 55.032 350.2 54.728 350.2C54.536 350.2 54.36 350.256 54.2 350.368C54.04 350.48 53.848 350.704 53.624 351.04C53.4 351.376 53.072 351.888 52.64 352.576C51.952 353.648 51.32 354.408 50.744 354.856C50.184 355.304 49.488 355.528 48.656 355.528C47.936 355.528 47.248 355.336 46.592 354.952C45.952 354.568 45.312 353.816 44.672 352.696L46.88 351.328C47.2 351.84 47.472 352.208 47.696 352.432C47.92 352.64 48.184 352.744 48.488 352.744C48.696 352.744 48.888 352.696 49.064 352.6C49.256 352.504 49.496 352.256 49.784 351.856C49.64 350.944 49.488 350.216 49.328 349.672C49.168 349.112 48.912 348.68 48.56 348.376C48.176 348.04 47.664 347.792 47.024 347.632C46.384 347.456 45.576 347.312 44.6 347.2L45.08 345.712H43.76V343.072H61.232ZM55.76 345.712H48.92C49.848 346 50.496 346.4 50.864 346.912C51.248 347.424 51.504 348.144 51.632 349.072C51.984 348.512 52.328 348.12 52.664 347.896C53.016 347.656 53.432 347.536 53.912 347.536C54.264 347.536 54.584 347.608 54.872 347.752C55.176 347.896 55.488 348.104 55.808 348.376C55.792 348.152 55.776 347.92 55.76 347.68C55.76 347.424 55.76 347.176 55.76 346.936V345.712ZM68.5282 343.072V345.712H66.2242V358H63.0562V347.344C62.8642 346.848 62.5922 346.456 62.2402 346.168C61.8882 345.864 61.4322 345.712 60.8722 345.712H60.7522V343.072H61.2322C61.6002 343.072 61.9442 343.168 62.2642 343.36C62.5842 343.552 62.8802 343.96 63.1522 344.584C63.1362 344.504 63.1122 344.32 63.0802 344.032C63.0642 343.744 63.0562 343.496 63.0562 343.288V341.488H65.6482L66.2002 343.072H68.5282ZM73.9693 342.904C74.2253 342.904 74.4733 342.92 74.7133 342.952C74.9693 342.968 75.2173 342.992 75.4573 343.024L75.2653 345.448C75.2013 345.432 75.1133 345.424 75.0013 345.424C74.9053 345.408 74.7773 345.4 74.6172 345.4C74.2013 345.4 73.8973 345.488 73.7053 345.664C73.5293 345.824 73.4413 346.016 73.4413 346.24C73.4413 346.784 73.8013 347.208 74.5213 347.512C75.1133 347.272 75.7133 347.048 76.3213 346.84C76.9453 346.616 77.5533 346.424 78.1453 346.264V343.072H83.6173V345.712H81.3133V358H78.1453C77.2493 356.704 76.0893 355.648 74.6653 354.832C73.2573 354 71.6573 353.432 69.8652 353.128L68.6653 350.296C69.1773 350.008 69.7133 349.72 70.2733 349.432C70.8333 349.144 71.4013 348.864 71.9773 348.592C71.4813 348.224 71.0973 347.816 70.8253 347.368C70.5693 346.92 70.4413 346.4 70.4413 345.808C70.4413 345.36 70.5453 344.912 70.7533 344.464C70.9613 344.016 71.3213 343.648 71.8333 343.36C72.3613 343.056 73.0733 342.904 73.9693 342.904ZM72.6973 351.328C73.5933 351.504 74.5293 351.856 75.5053 352.384C76.4813 352.896 77.3773 353.568 78.1933 354.4C78.1773 354.144 78.1613 353.88 78.1453 353.608C78.1453 353.336 78.1453 353.04 78.1453 352.72V349.096C77.2013 349.4 76.2893 349.736 75.4093 350.104C74.5453 350.472 73.6413 350.88 72.6973 351.328ZM90.911 343.072V345.712H88.607V358H85.439V347.344C85.247 346.848 84.975 346.456 84.623 346.168C84.271 345.864 83.815 345.712 83.255 345.712H83.135V343.072H83.615C83.983 343.072 84.327 343.168 84.647 343.36C84.967 343.552 85.263 343.96 85.535 344.584C85.519 344.504 85.495 344.32 85.463 344.032C85.447 343.744 85.439 343.496 85.439 343.288V341.488H88.031L88.583 343.072H90.911ZM106 343.072V345.712H103.696V358H100.528C99.6321 356.704 98.4721 355.648 97.0481 354.832C95.6401 354 94.0401 353.432 92.2481 353.128L91.0481 350.296C92.4561 349.512 93.9921 348.752 95.6561 348.016C97.3201 347.28 98.9761 346.688 100.624 346.24V345.712H90.4241V343.072H106ZM95.0801 351.328C95.9761 351.504 96.9121 351.848 97.8881 352.36C98.8641 352.872 99.7521 353.544 100.552 354.376C100.536 353.912 100.528 353.456 100.528 353.008V349.096C99.5841 349.4 98.6721 349.736 97.7921 350.104C96.9281 350.472 96.0241 350.88 95.0801 351.328ZM94.7441 358.288C94.2481 358.288 93.8321 358.12 93.4961 357.784C93.1601 357.432 92.9921 357 92.9921 356.488C92.9921 355.976 93.1601 355.552 93.4961 355.216C93.8321 354.864 94.2481 354.688 94.7441 354.688C95.2561 354.688 95.6721 354.864 95.9921 355.216C96.3281 355.552 96.4961 355.976 96.4961 356.488C96.4961 357 96.3281 357.432 95.9921 357.784C95.6721 358.12 95.2561 358.288 94.7441 358.288ZM121.43 343.072V345.712H119.126V358H115.958V348.592C115.254 347.76 114.51 347.056 113.726 346.48C112.958 345.904 112.174 345.616 111.374 345.616C110.894 345.616 110.502 345.752 110.198 346.024C109.91 346.296 109.766 346.68 109.766 347.176C109.766 347.512 109.846 347.824 110.006 348.112C110.182 348.384 110.486 348.608 110.918 348.784C111.35 348.944 111.974 349.04 112.79 349.072L112.43 352.192C110.35 351.952 108.838 351.384 107.894 350.488C106.966 349.592 106.502 348.464 106.502 347.104C106.502 346.256 106.694 345.52 107.078 344.896C107.462 344.256 107.982 343.768 108.638 343.432C109.294 343.08 110.038 342.904 110.87 342.904C111.974 342.904 112.934 343.152 113.75 343.648C114.566 344.144 115.318 344.72 116.006 345.376C115.974 344.768 115.958 344.176 115.958 343.6V341.488H118.55L119.102 343.072H121.43ZM134.692 343.072V345.712H132.388V358H129.22V345.712H126.916V343.072H129.244C128.988 342.784 128.708 342.456 128.404 342.088C128.116 341.72 127.86 341.384 127.636 341.08C128.436 339.784 129.22 338.768 129.988 338.032C130.772 337.296 131.596 336.776 132.46 336.472C133.324 336.152 134.276 335.992 135.316 335.992C136.084 335.992 136.812 336.056 137.5 336.184C138.204 336.312 138.932 336.536 139.684 336.856C140.452 337.16 141.3 337.576 142.228 338.104C143.156 338.616 144.236 339.256 145.468 340.024L143.836 342.16C142.54 341.328 141.436 340.656 140.524 340.144C139.612 339.616 138.78 339.232 138.028 338.992C137.276 338.752 136.484 338.632 135.652 338.632C134.9 338.632 134.244 338.776 133.684 339.064C133.124 339.352 132.636 339.712 132.22 340.144C131.82 340.576 131.468 341.024 131.164 341.488C131.308 341.744 131.476 342.016 131.668 342.304C131.86 342.592 132.06 342.848 132.268 343.072H134.692ZM145.005 357.28C143.485 357.28 142.077 357 140.781 356.44C139.501 355.864 138.357 354.88 137.349 353.488C136.357 352.096 135.517 350.176 134.829 347.728L137.829 346.888C138.389 348.824 138.997 350.352 139.653 351.472C140.325 352.576 141.085 353.36 141.933 353.824C142.781 354.288 143.749 354.52 144.837 354.52C145.973 354.52 146.781 354.32 147.261 353.92C147.757 353.504 148.005 352.976 148.005 352.336C148.005 352.064 147.989 351.808 147.957 351.568C147.477 351.872 146.957 352.112 146.397 352.288C145.853 352.448 145.213 352.528 144.477 352.528C143.437 352.528 142.573 352.272 141.885 351.76C141.213 351.248 140.877 350.44 140.877 349.336C140.877 348.696 141.053 348.072 141.405 347.464C141.757 346.84 142.413 346.248 143.373 345.688C143.069 345.704 142.789 345.712 142.533 345.712C142.293 345.712 142.013 345.712 141.693 345.712H134.205V343.072H158.613V345.712H151.509C151.301 345.712 151.077 345.712 150.837 345.712C150.597 345.696 150.349 345.688 150.093 345.688C150.413 346.088 150.901 346.44 151.557 346.744C152.229 347.048 153.165 347.2 154.365 347.2C154.541 347.2 154.709 347.192 154.869 347.176C155.045 347.16 155.261 347.144 155.517 347.128L156.981 349.504C156.677 350.048 156.437 350.624 156.261 351.232C156.101 351.84 156.021 352.52 156.021 353.272C156.021 353.912 156.085 354.6 156.213 355.336C156.357 356.072 156.557 356.832 156.813 357.616L153.717 358.264C153.413 357.4 153.189 356.568 153.045 355.768C152.901 354.968 152.829 354.08 152.829 353.104C152.829 352.512 152.869 351.936 152.949 351.376C153.045 350.8 153.181 350.264 153.357 349.768C151.693 349.528 150.349 349.104 149.325 348.496C148.317 347.888 147.517 347.144 146.925 346.264C145.997 346.68 145.285 347.128 144.789 347.608C144.293 348.072 144.045 348.52 144.045 348.952C144.045 349.272 144.133 349.512 144.309 349.672C144.485 349.816 144.693 349.888 144.933 349.888C145.365 349.888 145.749 349.8 146.085 349.624C146.421 349.448 146.805 349.2 147.237 348.88L150.741 349.912C150.853 350.232 150.941 350.6 151.005 351.016C151.085 351.432 151.125 351.872 151.125 352.336C151.125 353.136 150.925 353.92 150.525 354.688C150.125 355.44 149.477 356.064 148.581 356.56C147.685 357.04 146.493 357.28 145.005 357.28ZM178.511 357.088C177.407 357.088 176.527 356.864 175.871 356.416C175.215 355.952 174.679 355.408 174.263 354.784C173.847 355.504 173.207 356.104 172.343 356.584C171.479 357.048 170.343 357.28 168.935 357.28C167.415 357.28 166.007 357 164.711 356.44C163.431 355.864 162.287 354.88 161.279 353.488C160.287 352.096 159.447 350.176 158.759 347.728L161.759 346.888C162.319 348.824 162.927 350.352 163.583 351.472C164.255 352.576 165.015 353.36 165.863 353.824C166.711 354.288 167.679 354.52 168.767 354.52C169.903 354.52 170.711 354.32 171.191 353.92C171.687 353.504 171.935 352.976 171.935 352.336C171.935 352.032 171.911 351.744 171.863 351.472C171.319 351.856 170.775 352.128 170.231 352.288C169.687 352.448 169.079 352.528 168.407 352.528C167.367 352.528 166.503 352.272 165.815 351.76C165.143 351.248 164.807 350.44 164.807 349.336C164.807 348.696 164.983 348.072 165.335 347.464C165.687 346.84 166.343 346.248 167.303 345.688C167.015 345.704 166.711 345.712 166.391 345.712C166.071 345.712 165.727 345.712 165.359 345.712H158.135V343.072H183.839V345.712H172.463C172.607 346.176 172.799 346.664 173.039 347.176C173.279 347.672 173.583 348.144 173.951 348.592C174.719 347.68 175.479 347.056 176.231 346.72C176.983 346.368 177.815 346.192 178.727 346.192C179.863 346.192 180.743 346.48 181.367 347.056C182.007 347.616 182.327 348.32 182.327 349.168C182.327 349.536 182.247 349.936 182.087 350.368C181.943 350.784 181.655 351.192 181.223 351.592C181.559 351.848 181.847 352.176 182.087 352.576C182.327 352.96 182.447 353.432 182.447 353.992C182.447 354.536 182.311 355.048 182.039 355.528C181.767 355.992 181.343 356.368 180.767 356.656C180.191 356.944 179.439 357.088 178.511 357.088ZM167.879 348.976C167.879 349.584 168.207 349.888 168.863 349.888C169.279 349.888 169.647 349.824 169.967 349.696C170.303 349.552 170.615 349.36 170.903 349.12C170.663 348.736 170.447 348.344 170.255 347.944C170.063 347.544 169.903 347.152 169.775 346.768C168.511 347.504 167.879 348.24 167.879 348.976ZM178.295 348.616C177.623 348.616 176.991 348.848 176.399 349.312C175.807 349.776 175.295 350.416 174.863 351.232C174.879 351.28 174.887 351.328 174.887 351.376C175.207 352.496 175.663 353.328 176.255 353.872C176.847 354.4 177.479 354.664 178.151 354.664C178.535 354.664 178.847 354.592 179.087 354.448C179.343 354.288 179.471 354.024 179.471 353.656C179.471 353.32 179.343 353.016 179.087 352.744C178.719 352.856 178.319 352.952 177.887 353.032L177.311 350.704C178.655 350.48 179.327 350.048 179.327 349.408C179.327 349.088 179.223 348.88 179.015 348.784C178.823 348.672 178.583 348.616 178.295 348.616ZM191.13 343.072V345.712H188.826V358H185.658V347.344C185.466 346.848 185.194 346.456 184.842 346.168C184.49 345.864 184.034 345.712 183.474 345.712H183.354V343.072H183.834C184.202 343.072 184.546 343.168 184.866 343.36C185.186 343.552 185.482 343.96 185.754 344.584C185.738 344.504 185.714 344.32 185.682 344.032C185.666 343.744 185.658 343.496 185.658 343.288V341.488H188.25L188.802 343.072H191.13ZM208.115 343.072V345.712H205.811V358H202.643V350.776C202.259 350.392 201.915 350.2 201.611 350.2C201.419 350.2 201.243 350.256 201.083 350.368C200.923 350.48 200.731 350.704 200.507 351.04C200.283 351.376 199.955 351.888 199.523 352.576C198.835 353.648 198.203 354.408 197.627 354.856C197.067 355.304 196.371 355.528 195.539 355.528C194.819 355.528 194.131 355.336 193.475 354.952C192.835 354.568 192.195 353.816 191.555 352.696L193.763 351.328C194.083 351.84 194.355 352.208 194.579 352.432C194.803 352.64 195.067 352.744 195.371 352.744C195.579 352.744 195.771 352.696 195.947 352.6C196.139 352.504 196.379 352.256 196.667 351.856C196.523 350.944 196.371 350.216 196.211 349.672C196.051 349.112 195.795 348.68 195.443 348.376C195.059 348.04 194.547 347.792 193.907 347.632C193.267 347.456 192.459 347.312 191.483 347.2L191.963 345.712H190.643V343.072H208.115ZM202.643 345.712H195.803C196.731 346 197.379 346.4 197.747 346.912C198.131 347.424 198.387 348.144 198.515 349.072C198.867 348.512 199.211 348.12 199.547 347.896C199.899 347.656 200.315 347.536 200.795 347.536C201.147 347.536 201.467 347.608 201.755 347.752C202.059 347.896 202.371 348.104 202.691 348.376C202.675 348.152 202.659 347.92 202.643 347.68C202.643 347.424 202.643 347.176 202.643 346.936V345.712ZM215.411 343.072V345.712H213.107V358H209.939V347.344C209.747 346.848 209.475 346.456 209.123 346.168C208.771 345.864 208.315 345.712 207.755 345.712H207.635V343.072H208.115C208.483 343.072 208.827 343.168 209.147 343.36C209.467 343.552 209.763 343.96 210.035 344.584C210.019 344.504 209.995 344.32 209.963 344.032C209.947 343.744 209.939 343.496 209.939 343.288V341.488H212.531L213.083 343.072H215.411Z" fill="black"/>
<defs>
<clipPath id="clip0">
<rect x="7" y="91" width="236" height="118" fill="white"/>
</clipPath>
</defs>
</svg>
