<svg width="904" height="564" viewBox="0 0 904 564" fill="none" xmlns="http://www.w3.org/2000/svg">
<rect width="904" height="564" rx="5" fill="#EB5569"/>
<path d="M390.169 240.936C390.169 243.432 389.833 245.64 389.161 247.56C388.521 249.448 387.449 250.936 385.945 252.024C384.441 253.08 382.393 253.608 379.801 253.608C377.977 253.608 376.265 253.32 374.665 252.744C373.065 252.136 371.593 251.08 370.249 249.576C368.905 248.04 367.689 245.896 366.601 243.144C365.513 240.36 364.569 236.792 363.769 232.44L369.721 231C370.553 235.416 371.433 238.872 372.361 241.368C373.289 243.832 374.329 245.576 375.481 246.6C376.633 247.592 377.929 248.088 379.369 248.088C381.033 248.088 382.185 247.432 382.825 246.12C383.497 244.808 383.833 243.048 383.833 240.84C383.833 239.4 383.657 238.008 383.305 236.664C382.985 235.32 382.537 234.216 381.961 233.352C381.385 232.456 380.729 232.008 379.993 232.008C379.545 232.008 379.161 232.184 378.841 232.536C378.553 232.856 378.409 233.288 378.409 233.832C378.409 234.536 378.601 235.304 378.985 236.136L373.033 237.72C372.713 236.856 372.457 236.024 372.265 235.224C372.105 234.424 372.025 233.544 372.025 232.584C372.025 231.112 372.393 229.96 373.129 229.128C373.865 228.264 374.777 227.656 375.865 227.304C376.953 226.92 378.009 226.728 379.033 226.728C381.625 226.728 383.737 227.384 385.369 228.696C387.033 230.008 388.249 231.752 389.017 233.928C389.785 236.072 390.169 238.408 390.169 240.936ZM419.982 240.936C419.982 243.432 419.646 245.64 418.974 247.56C418.334 249.448 417.262 250.936 415.758 252.024C414.254 253.08 412.206 253.608 409.614 253.608C407.79 253.608 406.078 253.32 404.478 252.744C402.878 252.136 401.406 251.08 400.062 249.576C398.718 248.04 397.502 245.896 396.414 243.144C395.326 240.36 394.382 236.792 393.582 232.44L399.534 231C400.366 235.416 401.246 238.872 402.174 241.368C403.102 243.832 404.142 245.576 405.294 246.6C406.446 247.592 407.742 248.088 409.182 248.088C410.846 248.088 411.998 247.432 412.638 246.12C413.31 244.808 413.646 243.048 413.646 240.84C413.646 239.4 413.47 238.008 413.118 236.664C412.798 235.32 412.35 234.216 411.774 233.352C411.198 232.456 410.542 232.008 409.806 232.008C409.358 232.008 408.974 232.184 408.654 232.536C408.366 232.856 408.222 233.288 408.222 233.832C408.222 234.536 408.414 235.304 408.798 236.136L402.846 237.72C402.526 236.856 402.27 236.024 402.078 235.224C401.918 234.424 401.838 233.544 401.838 232.584C401.838 231.112 402.206 229.96 402.942 229.128C403.678 228.264 404.59 227.656 405.678 227.304C406.766 226.92 407.822 226.728 408.846 226.728C411.438 226.728 413.55 227.384 415.182 228.696C416.846 230.008 418.062 231.752 418.83 233.928C419.598 236.072 419.982 238.408 419.982 240.936ZM449.794 240.936C449.794 243.432 449.458 245.64 448.786 247.56C448.146 249.448 447.074 250.936 445.57 252.024C444.066 253.08 442.018 253.608 439.426 253.608C437.602 253.608 435.89 253.32 434.29 252.744C432.69 252.136 431.218 251.08 429.874 249.576C428.53 248.04 427.314 245.896 426.226 243.144C425.138 240.36 424.194 236.792 423.394 232.44L429.346 231C430.178 235.416 431.058 238.872 431.986 241.368C432.914 243.832 433.954 245.576 435.106 246.6C436.258 247.592 437.554 248.088 438.994 248.088C440.658 248.088 441.81 247.432 442.45 246.12C443.122 244.808 443.458 243.048 443.458 240.84C443.458 239.4 443.282 238.008 442.93 236.664C442.61 235.32 442.162 234.216 441.586 233.352C441.01 232.456 440.354 232.008 439.618 232.008C439.17 232.008 438.786 232.184 438.466 232.536C438.178 232.856 438.034 233.288 438.034 233.832C438.034 234.536 438.226 235.304 438.61 236.136L432.658 237.72C432.338 236.856 432.082 236.024 431.89 235.224C431.73 234.424 431.65 233.544 431.65 232.584C431.65 231.112 432.018 229.96 432.754 229.128C433.49 228.264 434.402 227.656 435.49 227.304C436.578 226.92 437.634 226.728 438.658 226.728C441.25 226.728 443.362 227.384 444.994 228.696C446.658 230.008 447.874 231.752 448.642 233.928C449.41 236.072 449.794 238.408 449.794 240.936Z" fill="white"/>
<path d="M377.397 360C374.165 360 371.781 359.328 370.245 357.984C368.709 356.64 367.941 355.008 367.941 353.088C367.941 351.264 368.469 349.776 369.525 348.624C370.581 347.472 372.133 346.496 374.181 345.696L376.533 351.024C375.189 351.344 374.517 351.904 374.517 352.704C374.517 353.216 374.757 353.648 375.237 354C375.717 354.352 376.437 354.528 377.397 354.528C378.901 354.528 380.037 354.192 380.805 353.52C381.573 352.848 381.957 352.032 381.957 351.072C381.957 350.176 381.733 349.392 381.285 348.72C380.869 348.048 380.181 347.376 379.221 346.704C378.261 346 377.013 345.2 375.477 344.304C373.461 343.088 371.893 342.016 370.773 341.088C369.685 340.16 368.917 339.248 368.469 338.352C368.053 337.424 367.845 336.384 367.845 335.232C367.845 334.336 368.069 333.408 368.517 332.448C368.965 331.456 369.589 330.544 370.389 329.712L375.957 332.928C375.637 333.248 375.349 333.6 375.093 333.984C374.869 334.336 374.757 334.704 374.757 335.088C374.757 335.44 374.821 335.76 374.949 336.048C375.077 336.304 375.349 336.608 375.765 336.96C376.181 337.312 376.821 337.776 377.685 338.352C378.549 338.896 379.717 339.632 381.189 340.56C382.917 341.648 384.309 342.72 385.365 343.776C386.453 344.8 387.237 345.904 387.717 347.088C388.229 348.272 388.485 349.664 388.485 351.264C388.485 353.088 388.021 354.656 387.093 355.968C386.165 357.28 384.869 358.288 383.205 358.992C381.541 359.664 379.605 360 377.397 360ZM407.017 356.112C404.777 356.112 402.745 355.712 400.921 354.912C399.129 354.112 397.705 352.864 396.649 351.168C395.625 349.472 395.113 347.296 395.113 344.64C395.113 342.784 395.529 341.008 396.361 339.312C397.193 337.584 398.505 336.176 400.297 335.088C402.121 333.968 404.473 333.408 407.353 333.408C410.105 333.408 412.361 333.904 414.121 334.896C415.881 335.888 417.177 337.264 418.009 339.024C418.841 340.752 419.257 342.72 419.257 344.928C419.257 346.944 418.809 348.8 417.913 350.496C417.017 352.192 415.657 353.552 413.833 354.576C412.041 355.6 409.769 356.112 407.017 356.112ZM407.497 338.688C405.737 338.688 404.313 339.216 403.225 340.272C402.169 341.328 401.641 342.912 401.641 345.024C401.641 346.752 402.041 348.16 402.841 349.248C403.673 350.304 405.017 350.832 406.873 350.832C408.761 350.832 410.201 350.288 411.193 349.2C412.217 348.08 412.729 346.512 412.729 344.496C412.729 340.624 410.985 338.688 407.497 338.688ZM439.902 358.608C437.886 358.608 436.03 358.336 434.334 357.792C432.67 357.248 431.15 356.288 429.774 354.912C428.398 353.536 427.15 351.632 426.03 349.2C424.942 346.736 423.95 343.6 423.054 339.792L428.958 338.16C429.694 341.776 430.526 344.688 431.454 346.896C432.414 349.072 433.534 350.656 434.814 351.648C436.094 352.608 437.55 353.088 439.182 353.088C442.702 353.088 444.462 350.864 444.462 346.416C444.462 346.224 444.462 346.048 444.462 345.888C442.958 347.392 441.278 348.144 439.422 348.144C438.526 348.144 437.726 348.048 437.022 347.856C436.318 347.632 435.694 347.328 435.15 346.944C434.638 346.56 434.174 345.968 433.758 345.168C433.342 344.336 433.134 343.056 433.134 341.328V339.792C433.134 338.672 432.958 337.92 432.606 337.536C432.254 337.12 431.47 336.896 430.254 336.864L430.974 331.056C432.734 331.088 434.158 331.264 435.246 331.584C436.366 331.872 437.23 332.368 437.838 333.072C438.286 333.584 438.606 334.224 438.798 334.992C439.022 335.76 439.134 336.752 439.134 337.968V340.512C439.134 341.216 439.198 341.792 439.326 342.24C439.486 342.656 439.822 342.864 440.334 342.864C440.622 342.864 440.91 342.816 441.198 342.72C441.486 342.592 441.79 342.304 442.11 341.856C442.462 341.376 442.798 340.624 443.118 339.6L447.87 338.496C448.702 339.68 449.342 341.088 449.79 342.72C450.238 344.32 450.462 345.872 450.462 347.376C450.462 349.456 450.11 351.36 449.406 353.088C448.734 354.784 447.614 356.128 446.046 357.12C444.51 358.112 442.462 358.608 439.902 358.608ZM467.794 360C465.138 360 462.754 359.536 460.642 358.608C458.562 357.68 456.914 356.336 455.698 354.576C454.514 352.784 453.922 350.624 453.922 348.096C453.922 345.536 454.642 343.2 456.082 341.088C457.554 338.976 459.634 337.008 462.322 335.184C465.01 333.328 468.194 331.536 471.874 329.808L474.706 333.696C474.29 334.24 474.082 334.88 474.082 335.616C474.082 336.32 474.386 336.896 474.994 337.344C475.634 337.76 476.402 337.968 477.298 337.968C477.458 337.968 477.618 337.968 477.778 337.968C477.938 337.968 478.082 337.952 478.21 337.92L480.61 341.856C478.594 343.008 477.074 343.968 476.05 344.736C475.058 345.504 474.386 346.208 474.034 346.848C473.682 347.456 473.506 348.096 473.506 348.768C473.506 349.536 473.794 350.176 474.37 350.688C474.946 351.2 475.826 351.456 477.01 351.456C477.202 351.456 477.442 351.456 477.73 351.456C478.018 351.424 478.274 351.392 478.498 351.36L480.706 357.024C478.978 357.952 477.01 358.688 474.802 359.232C472.626 359.744 470.29 360 467.794 360ZM468.13 354.72C468.802 354.72 469.378 354.704 469.858 354.672C470.37 354.608 470.85 354.528 471.298 354.432C469.922 353.856 468.898 353.072 468.226 352.08C467.554 351.088 467.218 349.984 467.218 348.768C467.218 347.424 467.538 346.192 468.178 345.072C468.85 343.92 469.954 342.688 471.49 341.376C470.626 340.864 469.986 340.272 469.57 339.6C469.186 338.928 468.994 338.32 468.994 337.776V337.584C466.306 339.184 464.21 340.864 462.706 342.624C461.202 344.384 460.45 346.336 460.45 348.48C460.45 349.984 460.802 351.2 461.506 352.128C462.242 353.024 463.202 353.68 464.386 354.096C465.57 354.512 466.818 354.72 468.13 354.72ZM497.607 360C494.951 360 492.567 359.536 490.455 358.608C488.375 357.68 486.727 356.336 485.511 354.576C484.327 352.784 483.735 350.624 483.735 348.096C483.735 345.536 484.455 343.2 485.895 341.088C487.367 338.976 489.447 337.008 492.135 335.184C494.823 333.328 498.007 331.536 501.687 329.808L504.519 333.696C504.103 334.24 503.895 334.88 503.895 335.616C503.895 336.32 504.199 336.896 504.807 337.344C505.447 337.76 506.215 337.968 507.111 337.968C507.271 337.968 507.431 337.968 507.591 337.968C507.751 337.968 507.895 337.952 508.023 337.92L510.423 341.856C508.407 343.008 506.887 343.968 505.863 344.736C504.871 345.504 504.199 346.208 503.847 346.848C503.495 347.456 503.319 348.096 503.319 348.768C503.319 349.536 503.607 350.176 504.183 350.688C504.759 351.2 505.639 351.456 506.823 351.456C507.015 351.456 507.255 351.456 507.543 351.456C507.831 351.424 508.087 351.392 508.311 351.36L510.519 357.024C508.791 357.952 506.823 358.688 504.615 359.232C502.439 359.744 500.103 360 497.607 360ZM497.943 354.72C498.615 354.72 499.191 354.704 499.671 354.672C500.183 354.608 500.663 354.528 501.111 354.432C499.735 353.856 498.711 353.072 498.039 352.08C497.367 351.088 497.031 349.984 497.031 348.768C497.031 347.424 497.351 346.192 497.991 345.072C498.663 343.92 499.767 342.688 501.303 341.376C500.439 340.864 499.799 340.272 499.383 339.6C498.999 338.928 498.807 338.32 498.807 337.776V337.584C496.119 339.184 494.023 340.864 492.519 342.624C491.015 344.384 490.263 346.336 490.263 348.48C490.263 349.984 490.615 351.2 491.319 352.128C492.055 353.024 493.015 353.68 494.199 354.096C495.383 354.512 496.631 354.72 497.943 354.72Z" fill="white"/>
<path d="M377.397 471C374.165 471 371.781 470.328 370.245 468.984C368.709 467.64 367.941 466.008 367.941 464.088C367.941 462.264 368.469 460.776 369.525 459.624C370.581 458.472 372.133 457.496 374.181 456.696L376.533 462.024C375.189 462.344 374.517 462.904 374.517 463.704C374.517 464.216 374.757 464.648 375.237 465C375.717 465.352 376.437 465.528 377.397 465.528C378.901 465.528 380.037 465.192 380.805 464.52C381.573 463.848 381.957 463.032 381.957 462.072C381.957 461.176 381.733 460.392 381.285 459.72C380.869 459.048 380.181 458.376 379.221 457.704C378.261 457 377.013 456.2 375.477 455.304C373.461 454.088 371.893 453.016 370.773 452.088C369.685 451.16 368.917 450.248 368.469 449.352C368.053 448.424 367.845 447.384 367.845 446.232C367.845 445.336 368.069 444.408 368.517 443.448C368.965 442.456 369.589 441.544 370.389 440.712L375.957 443.928C375.637 444.248 375.349 444.6 375.093 444.984C374.869 445.336 374.757 445.704 374.757 446.088C374.757 446.44 374.821 446.76 374.949 447.048C375.077 447.304 375.349 447.608 375.765 447.96C376.181 448.312 376.821 448.776 377.685 449.352C378.549 449.896 379.717 450.632 381.189 451.56C382.917 452.648 384.309 453.72 385.365 454.776C386.453 455.8 387.237 456.904 387.717 458.088C388.229 459.272 388.485 460.664 388.485 462.264C388.485 464.088 388.021 465.656 387.093 466.968C386.165 468.28 384.869 469.288 383.205 469.992C381.541 470.664 379.605 471 377.397 471ZM410.089 469.608C408.073 469.608 406.217 469.336 404.521 468.792C402.857 468.248 401.337 467.288 399.961 465.912C398.585 464.536 397.337 462.632 396.217 460.2C395.129 457.736 394.137 454.6 393.241 450.792L399.145 449.16C399.881 452.776 400.713 455.688 401.641 457.896C402.601 460.072 403.721 461.656 405.001 462.648C406.281 463.608 407.737 464.088 409.369 464.088C412.889 464.088 414.649 461.864 414.649 457.416C414.649 457.224 414.649 457.048 414.649 456.888C413.145 458.392 411.465 459.144 409.609 459.144C408.713 459.144 407.913 459.048 407.209 458.856C406.505 458.632 405.881 458.328 405.337 457.944C404.825 457.56 404.361 456.968 403.945 456.168C403.529 455.336 403.321 454.056 403.321 452.328V450.792C403.321 449.672 403.145 448.92 402.793 448.536C402.441 448.12 401.657 447.896 400.441 447.864L401.161 442.056C402.921 442.088 404.345 442.264 405.433 442.584C406.553 442.872 407.417 443.368 408.025 444.072C408.473 444.584 408.793 445.224 408.985 445.992C409.209 446.76 409.321 447.752 409.321 448.968V451.512C409.321 452.216 409.385 452.792 409.513 453.24C409.673 453.656 410.009 453.864 410.521 453.864C410.809 453.864 411.097 453.816 411.385 453.72C411.673 453.592 411.977 453.304 412.297 452.856C412.649 452.376 412.985 451.624 413.305 450.6L418.057 449.496C418.889 450.68 419.529 452.088 419.977 453.72C420.425 455.32 420.649 456.872 420.649 458.376C420.649 460.456 420.297 462.36 419.593 464.088C418.921 465.784 417.801 467.128 416.233 468.12C414.697 469.112 412.649 469.608 410.089 469.608ZM427.662 445.512C427.662 444.68 427.838 443.88 428.19 443.112C428.574 442.312 429.086 441.512 429.726 440.712L435.006 443.016C434.558 443.624 434.334 444.168 434.334 444.648C434.334 444.968 434.398 445.256 434.526 445.512C434.686 445.736 435.086 445.96 435.726 446.184C436.398 446.408 437.486 446.68 438.99 447C442.03 447.608 444.142 448.6 445.326 449.976C446.542 451.32 447.15 453 447.15 455.016C447.15 457.16 446.574 458.888 445.422 460.2C444.27 461.512 442.654 462.44 440.574 462.984C442.11 463.56 443.534 464.232 444.846 465C446.158 465.768 447.646 466.76 449.31 467.976L445.854 472.296C443.838 470.696 441.758 469.336 439.614 468.216C437.47 467.096 435.166 466.152 432.702 465.384C430.27 464.616 427.566 463.976 424.59 463.464L425.55 458.424C426.606 458.712 427.758 458.936 429.006 459.096C430.286 459.256 431.63 459.336 433.038 459.336C435.886 459.336 437.87 459 438.99 458.328C440.142 457.624 440.718 456.728 440.718 455.64C440.718 454.584 440.334 453.816 439.566 453.336C438.83 452.824 437.582 452.392 435.822 452.04C433.518 451.56 431.774 451 430.59 450.36C429.438 449.72 428.654 449 428.238 448.2C427.854 447.368 427.662 446.472 427.662 445.512ZM469.714 469.608C467.698 469.608 465.842 469.336 464.146 468.792C462.482 468.248 460.962 467.288 459.586 465.912C458.21 464.536 456.962 462.632 455.842 460.2C454.754 457.736 453.762 454.6 452.866 450.792L458.77 449.16C459.506 452.776 460.338 455.688 461.266 457.896C462.226 460.072 463.346 461.656 464.626 462.648C465.906 463.608 467.362 464.088 468.994 464.088C472.514 464.088 474.274 461.864 474.274 457.416C474.274 457.224 474.274 457.048 474.274 456.888C472.77 458.392 471.09 459.144 469.234 459.144C468.338 459.144 467.538 459.048 466.834 458.856C466.13 458.632 465.506 458.328 464.962 457.944C464.45 457.56 463.986 456.968 463.57 456.168C463.154 455.336 462.946 454.056 462.946 452.328V450.792C462.946 449.672 462.77 448.92 462.418 448.536C462.066 448.12 461.282 447.896 460.066 447.864L460.786 442.056C462.546 442.088 463.97 442.264 465.058 442.584C466.178 442.872 467.042 443.368 467.65 444.072C468.098 444.584 468.418 445.224 468.61 445.992C468.834 446.76 468.946 447.752 468.946 448.968V451.512C468.946 452.216 469.01 452.792 469.138 453.24C469.298 453.656 469.634 453.864 470.146 453.864C470.434 453.864 470.722 453.816 471.01 453.72C471.298 453.592 471.602 453.304 471.922 452.856C472.274 452.376 472.61 451.624 472.93 450.6L477.682 449.496C478.514 450.68 479.154 452.088 479.602 453.72C480.05 455.32 480.274 456.872 480.274 458.376C480.274 460.456 479.922 462.36 479.218 464.088C478.546 465.784 477.426 467.128 475.858 468.12C474.322 469.112 472.274 469.608 469.714 469.608ZM509.607 456.936C509.607 459.432 509.271 461.64 508.599 463.56C507.959 465.448 506.887 466.936 505.383 468.024C503.879 469.08 501.831 469.608 499.239 469.608C497.415 469.608 495.703 469.32 494.103 468.744C492.503 468.136 491.031 467.08 489.687 465.576C488.343 464.04 487.127 461.896 486.039 459.144C484.951 456.36 484.007 452.792 483.207 448.44L489.159 447C489.991 451.416 490.871 454.872 491.799 457.368C492.727 459.832 493.767 461.576 494.919 462.6C496.071 463.592 497.367 464.088 498.807 464.088C500.471 464.088 501.623 463.432 502.263 462.12C502.935 460.808 503.271 459.048 503.271 456.84C503.271 455.4 503.095 454.008 502.743 452.664C502.423 451.32 501.975 450.216 501.399 449.352C500.823 448.456 500.167 448.008 499.431 448.008C498.983 448.008 498.599 448.184 498.279 448.536C497.991 448.856 497.847 449.288 497.847 449.832C497.847 450.536 498.039 451.304 498.423 452.136L492.471 453.72C492.151 452.856 491.895 452.024 491.703 451.224C491.543 450.424 491.463 449.544 491.463 448.584C491.463 447.112 491.831 445.96 492.567 445.128C493.303 444.264 494.215 443.656 495.303 443.304C496.391 442.92 497.447 442.728 498.471 442.728C501.063 442.728 503.175 443.384 504.807 444.696C506.471 446.008 507.687 447.752 508.455 449.928C509.223 452.072 509.607 454.408 509.607 456.936Z" fill="white"/>
<path d="M130.6 84.856C132.136 84.856 133.384 85.016 134.344 85.336C135.336 85.624 136.2 86.056 136.936 86.632C137.576 87.144 138.104 87.864 138.52 88.792C138.968 89.688 139.192 91.032 139.192 92.824V115H132.952C132.44 113.848 131.8 113.032 131.032 112.552C130.264 112.04 129.128 111.784 127.624 111.784C126.44 111.784 125.352 111.848 124.36 111.976C123.368 112.104 122.376 112.232 121.384 112.36C120.392 112.456 119.288 112.504 118.072 112.504C116.696 112.504 115.32 112.392 113.944 112.168C112.6 111.912 111.368 111.432 110.248 110.728C109.128 109.992 108.216 108.936 107.512 107.56C106.84 106.152 106.504 104.296 106.504 101.992C106.504 101.16 106.568 100.28 106.696 99.352C106.824 98.424 106.952 97.608 107.08 96.904L113.272 97.72C113.144 98.168 113.032 98.712 112.936 99.352C112.84 99.992 112.792 100.776 112.792 101.704C112.792 103.272 113.08 104.44 113.656 105.208C114.264 105.976 115.048 106.472 116.008 106.696C116.968 106.92 117.96 107.032 118.984 107.032C120.488 107.032 121.864 106.92 123.112 106.696C124.36 106.472 125.592 106.36 126.808 106.36C128.088 106.36 129.176 106.52 130.072 106.84C130.968 107.16 131.896 107.8 132.856 108.76V94.12C132.856 93.096 132.792 92.36 132.664 91.912C132.536 91.464 132.328 91.096 132.04 90.808C131.592 90.36 130.904 90.136 129.976 90.136C129.112 90.136 128.296 90.344 127.528 90.76C126.792 91.144 126.136 91.64 125.56 92.248C124.984 92.856 124.52 93.464 124.168 94.072C123.848 94.68 123.688 95.192 123.688 95.608C123.688 96.024 123.832 96.392 124.12 96.712C124.408 97 125.064 97.144 126.088 97.144C126.44 97.144 126.744 97.128 127 97.096C127.256 97.064 127.544 97.032 127.864 97L128.152 102.136C127.736 102.264 127.224 102.376 126.616 102.472C126.008 102.568 125.256 102.616 124.36 102.616C122.408 102.616 120.76 102.12 119.416 101.128C118.104 100.136 117.448 98.584 117.448 96.472C117.448 95.16 117.784 93.832 118.456 92.488C119.128 91.112 120.072 89.848 121.288 88.696C122.504 87.544 123.896 86.616 125.464 85.912C127.064 85.208 128.776 84.856 130.6 84.856ZM154.834 105.784C153.202 105.784 151.826 105.592 150.706 105.208C149.618 104.824 148.754 104.2 148.114 103.336C147.698 102.728 147.362 102.024 147.106 101.224C146.85 100.392 146.722 99.192 146.722 97.624V90.424H142.786V85.144H178.93V90.424H152.818V90.568C153.522 91.144 154.29 91.592 155.122 91.912C155.954 92.232 156.994 92.392 158.242 92.392H161.602C162.37 92.296 163.394 92.248 164.674 92.248C166.914 92.248 168.754 92.552 170.194 93.16C171.666 93.736 172.818 94.472 173.65 95.368C174.482 96.264 175.058 97.208 175.378 98.2C175.73 99.192 175.906 100.104 175.906 100.936C175.906 103.336 175.298 105.304 174.082 106.84C172.866 108.344 171.346 109.512 169.522 110.344C170.962 110.632 172.418 110.968 173.89 111.352C175.394 111.736 176.914 112.184 178.45 112.696L176.77 117.688C172.13 116.088 167.666 114.936 163.378 114.232C159.122 113.496 154.85 113.016 150.562 112.792L151.186 107.464C151.986 107.592 152.962 107.72 154.114 107.848C155.266 107.944 156.53 107.992 157.906 107.992C162.098 107.992 165.09 107.384 166.882 106.168C168.706 104.92 169.618 103.304 169.618 101.32C169.618 99.24 168.626 97.864 166.642 97.192V97.24C166.642 98.84 166.13 100.296 165.106 101.608C164.082 102.888 162.674 103.912 160.882 104.68C159.122 105.416 157.106 105.784 154.834 105.784ZM153.25 100.216C153.602 100.696 154.274 100.936 155.266 100.936C156.738 100.936 157.986 100.616 159.01 99.976C160.034 99.304 160.546 98.616 160.546 97.912C160.546 97.208 160.002 96.856 158.914 96.856H157.618C156.722 96.856 155.858 96.728 155.026 96.472C154.226 96.184 153.458 95.8 152.722 95.32C152.786 95.896 152.818 96.376 152.818 96.76V98.2C152.818 98.808 152.85 99.256 152.914 99.544C153.01 99.832 153.122 100.056 153.25 100.216ZM193.541 85.144V90.424H188.933V115H182.597V93.688C182.213 92.696 181.669 91.912 180.965 91.336C180.261 90.728 179.349 90.424 178.229 90.424H177.989V85.144H178.949C179.685 85.144 180.373 85.336 181.013 85.72C181.653 86.104 182.245 86.92 182.789 88.168C182.757 88.008 182.709 87.64 182.645 87.064C182.613 86.488 182.597 85.992 182.597 85.576V81.976H187.781L188.885 85.144H193.541ZM229.095 85.144V90.424H212.391V96.616C212.391 97.096 212.471 97.512 212.631 97.864C212.791 98.184 213.127 98.344 213.639 98.344C214.279 98.344 214.967 98.008 215.703 97.336C216.439 96.664 217.191 95.784 217.959 94.696L223.575 93.64C224.663 95.208 225.479 96.792 226.023 98.392C226.567 99.96 226.839 101.656 226.839 103.48C226.839 105.496 226.343 107.304 225.351 108.904C224.391 110.472 222.935 111.72 220.983 112.648C219.063 113.576 216.679 114.04 213.831 114.04C211.719 114.04 209.687 113.736 207.735 113.128C205.783 112.52 203.943 111.496 202.215 110.056C200.519 108.584 198.951 106.584 197.511 104.056C196.103 101.496 194.871 98.296 193.815 94.456L199.815 92.776C200.871 96.584 202.071 99.656 203.415 101.992C204.759 104.296 206.247 105.976 207.879 107.032C209.543 108.056 211.351 108.568 213.303 108.568C215.607 108.568 217.383 108.056 218.631 107.032C219.911 105.976 220.551 104.52 220.551 102.664C220.551 101.832 220.439 101.064 220.215 100.36C218.967 101.512 217.687 102.36 216.375 102.904C215.095 103.416 213.783 103.672 212.439 103.672C210.327 103.672 208.743 103.064 207.687 101.848C207.143 101.24 206.727 100.456 206.439 99.496C206.183 98.536 206.055 97.304 206.055 95.8V90.424H192.567V85.144H229.095ZM210.855 123.496C209.863 123.496 209.031 123.144 208.359 122.44C207.687 121.768 207.351 120.92 207.351 119.896C207.351 118.872 207.687 118.008 208.359 117.304C209.031 116.632 209.863 116.296 210.855 116.296C211.879 116.296 212.711 116.632 213.351 117.304C214.023 118.008 214.359 118.872 214.359 119.896C214.359 120.92 214.023 121.768 213.351 122.44C212.711 123.144 211.879 123.496 210.855 123.496ZM243.697 85.144V90.424H239.089V115H232.753V93.688C232.369 92.696 231.825 91.912 231.121 91.336C230.417 90.728 229.505 90.424 228.385 90.424H228.145V85.144H229.105C229.841 85.144 230.529 85.336 231.169 85.72C231.809 86.104 232.401 86.92 232.945 88.168C232.913 88.008 232.865 87.64 232.801 87.064C232.769 86.488 232.753 85.992 232.753 85.576V81.976H237.937L239.041 85.144H243.697ZM278.291 104.632C278.291 107.352 277.219 109.56 275.075 111.256C272.963 112.92 270.067 113.752 266.387 113.752C263.859 113.752 261.491 113.416 259.283 112.744C257.075 112.04 255.027 110.888 253.139 109.288C251.283 107.688 249.587 105.512 248.051 102.76C246.547 99.976 245.187 96.504 243.971 92.344L249.971 90.664C251.283 95.016 252.691 98.488 254.195 101.08C255.731 103.64 257.443 105.48 259.331 106.6C261.219 107.688 263.379 108.232 265.811 108.232C267.475 108.232 268.899 107.864 270.083 107.128C271.267 106.392 271.859 105.336 271.859 103.96C271.859 103 271.507 102.152 270.803 101.416C269.875 101.896 268.867 102.328 267.779 102.712L265.571 97.528C267.171 96.984 268.531 96.312 269.651 95.512C270.803 94.712 271.379 93.656 271.379 92.344C271.379 91.608 271.139 91.032 270.659 90.616C270.179 90.2 269.459 89.992 268.499 89.992C267.347 89.992 266.259 90.232 265.235 90.712C264.211 91.192 263.363 91.768 262.691 92.44C262.051 93.08 261.731 93.672 261.731 94.216C261.731 94.568 261.859 94.888 262.115 95.176C262.371 95.432 262.947 95.624 263.843 95.752L262.547 101.08C260.115 100.824 258.291 100.088 257.075 98.872C255.859 97.656 255.251 96.248 255.251 94.648C255.251 93.304 255.619 92.04 256.355 90.856C257.091 89.64 258.099 88.584 259.379 87.688C260.659 86.792 262.099 86.088 263.699 85.576C265.299 85.064 266.963 84.808 268.691 84.808C271.635 84.808 273.891 85.464 275.459 86.776C277.059 88.088 277.859 89.896 277.859 92.2C277.859 93.384 277.619 94.488 277.139 95.512C276.659 96.536 276.003 97.48 275.171 98.344C276.099 99.176 276.851 100.12 277.427 101.176C278.003 102.2 278.291 103.352 278.291 104.632ZM312.241 85.144V90.424H309.505C308.065 91.128 306.705 92.056 305.425 93.208C304.145 94.36 303.105 95.704 302.305 97.24C301.505 98.776 301.105 100.488 301.105 102.376C301.105 104.296 301.393 105.8 301.969 106.888C302.545 107.976 303.265 108.744 304.129 109.192C304.993 109.608 305.857 109.816 306.721 109.816C307.297 109.816 307.857 109.768 308.401 109.672C308.945 109.544 309.569 109.304 310.273 108.952L312.673 113.704C311.617 114.312 310.577 114.728 309.553 114.952C308.529 115.144 307.457 115.24 306.337 115.24C302.753 115.24 299.905 114.152 297.793 111.976C295.713 109.768 294.673 106.616 294.673 102.52C294.673 99.896 295.201 97.464 296.257 95.224C297.313 92.952 298.737 90.952 300.529 89.224C302.321 87.464 304.321 86.104 306.529 85.144H312.241ZM344.181 85.144V90.424H339.573V115H333.237C331.285 112.6 328.853 110.76 325.941 109.48C323.061 108.2 319.589 107.288 315.525 106.744L313.269 101.32C314.581 100.52 316.005 99.704 317.541 98.872C319.109 98.008 320.693 97.192 322.293 96.424C320.949 95.656 319.493 94.984 317.925 94.408C316.389 93.832 314.709 93.4 312.885 93.112L314.085 90.424H311.301V85.144H344.181ZM333.237 90.424H321.189C322.629 90.936 323.941 91.608 325.125 92.44C326.309 93.24 327.381 94.072 328.341 94.936L328.917 99.16C327.637 99.672 326.325 100.248 324.981 100.888C323.669 101.496 322.421 102.12 321.237 102.76C322.517 102.984 323.877 103.352 325.317 103.864C326.789 104.376 328.229 105.032 329.637 105.832C331.045 106.632 332.277 107.56 333.333 108.616C333.269 108.072 333.237 107.528 333.237 106.984C333.237 106.44 333.237 105.864 333.237 105.256V90.424ZM358.775 85.144V90.424H354.167V115H347.831V93.688C347.447 92.696 346.903 91.912 346.199 91.336C345.495 90.728 344.583 90.424 343.463 90.424H343.223V85.144H344.183C344.919 85.144 345.607 85.336 346.247 85.72C346.887 86.104 347.479 86.92 348.023 88.168C347.991 88.008 347.943 87.64 347.879 87.064C347.847 86.488 347.831 85.992 347.831 85.576V81.976H353.015L354.119 85.144H358.775ZM381.417 115V96.232C380.521 95.176 379.561 94.184 378.537 93.256C377.545 92.328 376.457 91.576 375.273 91C374.089 90.392 372.825 90.088 371.481 90.088C370.233 90.088 369.193 90.328 368.361 90.808C367.561 91.288 366.809 91.88 366.105 92.584C366.617 92.36 367.177 92.184 367.785 92.056C368.393 91.928 369.081 91.864 369.849 91.864C371.993 91.864 373.625 92.456 374.745 93.64C375.897 94.792 376.473 96.216 376.473 97.912C376.473 99.832 375.769 101.592 374.361 103.192C372.985 104.792 370.873 106.392 368.025 107.992L364.377 102.856C366.233 102.024 367.705 101.208 368.793 100.408C369.913 99.608 370.473 98.76 370.473 97.864C370.473 97.32 370.297 96.904 369.945 96.616C369.625 96.296 369.065 96.136 368.265 96.136C367.017 96.136 365.609 96.552 364.041 97.384L359.001 93.352C360.697 90.888 362.521 88.856 364.473 87.256C366.457 85.624 368.713 84.808 371.241 84.808C373.161 84.808 374.921 85.224 376.521 86.056C378.121 86.888 379.785 88.104 381.513 89.704C381.481 89.32 381.449 88.904 381.417 88.456C381.417 87.976 381.417 87.464 381.417 86.92V81.976H386.649L387.705 85.144H392.361V90.424H387.753V115H381.417ZM406.963 85.144V90.424H402.355V115H396.019V93.688C395.635 92.696 395.091 91.912 394.387 91.336C393.683 90.728 392.771 90.424 391.651 90.424H391.411V85.144H392.371C393.107 85.144 393.795 85.336 394.435 85.72C395.075 86.104 395.667 86.92 396.211 88.168C396.179 88.008 396.131 87.64 396.067 87.064C396.035 86.488 396.019 85.992 396.019 85.576V81.976H401.203L402.307 85.144H406.963ZM426.101 85.144V90.424H423.365C421.925 91.128 420.565 92.056 419.285 93.208C418.005 94.36 416.965 95.704 416.165 97.24C415.365 98.776 414.965 100.488 414.965 102.376C414.965 104.296 415.253 105.8 415.829 106.888C416.405 107.976 417.125 108.744 417.989 109.192C418.853 109.608 419.717 109.816 420.581 109.816C421.157 109.816 421.717 109.768 422.261 109.672C422.805 109.544 423.429 109.304 424.133 108.952L426.533 113.704C425.477 114.312 424.437 114.728 423.413 114.952C422.389 115.144 421.317 115.24 420.197 115.24C416.613 115.24 413.765 114.152 411.653 111.976C409.573 109.768 408.533 106.616 408.533 102.52C408.533 99.992 409.045 97.688 410.069 95.608C411.125 93.496 412.565 91.736 414.389 90.328C413.589 90.392 412.437 90.424 410.933 90.424H405.989V85.144H426.101ZM458.041 85.144V90.424H453.433V115H447.097C445.145 112.6 442.713 110.76 439.801 109.48C436.921 108.2 433.449 107.288 429.385 106.744L427.129 101.32C428.441 100.52 429.865 99.704 431.401 98.872C432.969 98.008 434.553 97.192 436.153 96.424C434.809 95.656 433.353 94.984 431.785 94.408C430.249 93.832 428.569 93.4 426.745 93.112L427.945 90.424H425.161V85.144H458.041ZM447.097 90.424H435.049C436.489 90.936 437.801 91.608 438.985 92.44C440.169 93.24 441.241 94.072 442.201 94.936L442.777 99.16C441.497 99.672 440.185 100.248 438.841 100.888C437.529 101.496 436.281 102.12 435.097 102.76C436.377 102.984 437.737 103.352 439.177 103.864C440.649 104.376 442.089 105.032 443.497 105.832C444.905 106.632 446.137 107.56 447.193 108.616C447.129 108.072 447.097 107.528 447.097 106.984C447.097 106.44 447.097 105.864 447.097 105.256V90.424ZM472.635 85.144V90.424H468.027V115H461.691V93.688C461.307 92.696 460.763 91.912 460.059 91.336C459.355 90.728 458.443 90.424 457.322 90.424H457.082V85.144H458.043C458.779 85.144 459.467 85.336 460.107 85.72C460.747 86.104 461.339 86.92 461.883 88.168C461.851 88.008 461.803 87.64 461.739 87.064C461.707 86.488 461.691 85.992 461.691 85.576V81.976H466.875L467.979 85.144H472.635ZM495.277 115V96.232C494.381 95.176 493.421 94.184 492.397 93.256C491.405 92.328 490.317 91.576 489.133 91C487.949 90.392 486.685 90.088 485.341 90.088C484.093 90.088 483.053 90.328 482.221 90.808C481.421 91.288 480.669 91.88 479.965 92.584C480.477 92.36 481.037 92.184 481.645 92.056C482.253 91.928 482.941 91.864 483.709 91.864C485.853 91.864 487.485 92.456 488.605 93.64C489.757 94.792 490.333 96.216 490.333 97.912C490.333 99.832 489.629 101.592 488.221 103.192C486.845 104.792 484.733 106.392 481.885 107.992L478.237 102.856C480.093 102.024 481.565 101.208 482.653 100.408C483.773 99.608 484.333 98.76 484.333 97.864C484.333 97.32 484.157 96.904 483.805 96.616C483.485 96.296 482.925 96.136 482.125 96.136C480.877 96.136 479.469 96.552 477.901 97.384L472.861 93.352C474.557 90.888 476.381 88.856 478.333 87.256C480.317 85.624 482.573 84.808 485.101 84.808C487.021 84.808 488.781 85.224 490.381 86.056C491.981 86.888 493.645 88.104 495.373 89.704C495.341 89.32 495.309 88.904 495.277 88.456C495.277 87.976 495.277 87.464 495.277 86.92V81.976H500.509L501.565 85.144H506.221V90.424H501.613V115H495.277ZM557.303 102.616C557.303 103.672 557.079 104.68 556.631 105.64C556.215 106.6 555.479 107.384 554.423 107.992C553.367 108.6 551.895 108.904 550.007 108.904C548.695 108.904 547.559 108.808 546.599 108.616L546.791 103.336C546.951 103.368 547.143 103.4 547.367 103.432C547.623 103.432 547.943 103.432 548.327 103.432C549.479 103.432 550.231 103.24 550.583 102.856C550.935 102.44 551.111 101.944 551.111 101.368C551.111 100.344 550.487 99.432 549.239 98.632C547.991 97.832 546.167 97.192 543.767 96.712V115H537.431C535.639 112.408 533.319 110.296 530.471 108.664C527.655 107 524.455 105.864 520.871 105.256L518.471 99.592C521.255 98.024 524.311 96.52 527.639 95.08C530.999 93.608 534.311 92.408 537.575 91.48V90.424H517.223V85.144H559.319V90.424H543.671V91.432C546.199 91.816 548.487 92.504 550.535 93.496C552.615 94.488 554.263 95.752 555.479 97.288C556.695 98.792 557.303 100.568 557.303 102.616ZM526.535 101.656C528.327 102.008 530.199 102.712 532.151 103.768C534.103 104.792 535.895 106.12 537.527 107.752C537.495 107.368 537.463 106.968 537.431 106.552C537.431 106.104 537.431 105.656 537.431 105.208V97.192C535.543 97.8 533.719 98.472 531.959 99.208C530.231 99.944 528.423 100.76 526.535 101.656ZM591.211 108.808C588.779 108.808 586.651 107.944 584.827 106.216C584.859 106.664 584.875 107.112 584.875 107.56C584.907 108.008 584.923 108.472 584.923 108.952V115H578.587C576.795 112.408 574.475 110.296 571.627 108.664C568.811 107 565.611 105.864 562.027 105.256L559.627 99.592C562.443 98.024 565.515 96.504 568.843 95.032C572.171 93.56 575.483 92.376 578.779 91.48V90.424H558.379V85.144H600.139V90.424H584.923V99.256C585.467 100.728 586.203 101.848 587.131 102.616C588.059 103.352 588.987 103.72 589.915 103.72C590.555 103.72 591.083 103.56 591.499 103.24C591.915 102.92 592.123 102.392 592.123 101.656C592.123 100.984 591.851 100.36 591.307 99.784C590.763 99.208 589.835 98.728 588.523 98.344L590.299 92.968C592.859 93.736 594.811 94.872 596.155 96.376C597.499 97.88 598.171 99.736 598.171 101.944C598.171 103.992 597.547 105.656 596.299 106.936C595.083 108.184 593.387 108.808 591.211 108.808ZM567.691 101.656C569.483 102.008 571.355 102.696 573.307 103.72C575.259 104.744 577.035 106.088 578.635 107.752C578.603 106.824 578.587 105.912 578.587 105.016V97.192C576.699 97.8 574.875 98.472 573.115 99.208C571.387 99.944 569.579 100.76 567.691 101.656ZM567.019 115.576C566.027 115.576 565.195 115.24 564.523 114.568C563.851 113.864 563.515 113 563.515 111.976C563.515 110.952 563.851 110.104 564.523 109.432C565.195 108.728 566.027 108.376 567.019 108.376C568.043 108.376 568.875 108.728 569.515 109.432C570.187 110.104 570.523 110.952 570.523 111.976C570.523 113 570.187 113.864 569.515 114.568C568.875 115.24 568.043 115.576 567.019 115.576ZM630.553 85.144V90.424H625.945V115H619.609V106.264C618.201 104.6 616.697 103.208 615.097 102.088C613.497 100.968 611.945 100.408 610.441 100.408C609.641 100.408 608.953 100.6 608.377 100.984C607.833 101.336 607.561 101.912 607.561 102.712C607.561 103.416 607.817 104.008 608.329 104.488C608.841 104.968 609.657 105.432 610.777 105.88L607.945 111.16C605.801 110.328 604.105 109.144 602.857 107.608C601.641 106.04 601.033 104.328 601.033 102.472C601.033 100.744 601.433 99.336 602.233 98.248C603.033 97.128 604.057 96.312 605.305 95.8C606.553 95.256 607.865 94.984 609.241 94.984C611.225 94.984 613.065 95.384 614.761 96.184C616.457 96.984 618.089 98.104 619.657 99.544C619.625 99 619.609 98.456 619.609 97.912C619.609 97.368 619.609 96.856 619.609 96.376V90.424H599.161V85.144H630.553ZM654.64 91.72C657.584 91.72 659.92 92.168 661.648 93.064C663.408 93.928 664.672 95.032 665.44 96.376C666.208 97.72 666.592 99.096 666.592 100.504C666.592 102.648 666.032 104.376 664.912 105.688C663.792 107 662.192 107.992 660.112 108.664C661.808 109.272 663.488 110.024 665.152 110.92C666.816 111.784 668.448 112.776 670.048 113.896L666.688 118.36C663.68 116.184 660.32 114.328 656.608 112.792C652.896 111.256 648.768 110.136 644.224 109.432L645.28 104.392C646.4 104.68 647.488 104.904 648.544 105.064C649.632 105.224 650.72 105.304 651.808 105.304C654.848 105.304 657.008 104.872 658.288 104.008C659.568 103.144 660.208 101.992 660.208 100.552C660.208 99.4 659.76 98.472 658.864 97.768C658 97.064 656.768 96.712 655.168 96.712C653.76 96.712 652.768 96.904 652.192 97.288C651.648 97.64 651.376 98.184 651.376 98.92C651.376 99.304 651.472 99.688 651.664 100.072L645.712 100.936C645.52 100.456 645.36 99.912 645.232 99.304C645.104 98.664 645.04 98.072 645.04 97.528C645.04 95.48 646.176 93.928 648.448 92.872C647.84 91.784 646.8 90.968 645.328 90.424H641.536V85.144H670V90.424H653.344C653.76 90.808 654.112 91.24 654.4 91.72H654.64ZM687.771 85.144C687.739 84.152 687.483 83.448 687.003 83.032C686.523 82.584 685.675 82.36 684.459 82.36H680.859C678.427 82.36 676.443 82.136 674.907 81.688C673.403 81.208 672.219 80.488 671.355 79.528C670.203 78.248 669.627 76.408 669.627 74.008C669.627 73.528 669.643 73.096 669.675 72.712C669.707 72.296 669.771 71.8 669.867 71.224L675.867 71.608C675.835 71.896 675.803 72.152 675.771 72.376C675.771 72.6 675.771 72.808 675.771 73C675.771 73.672 675.835 74.28 675.963 74.824C676.123 75.336 676.379 75.768 676.731 76.12C677.083 76.44 677.531 76.68 678.075 76.84C678.619 77 679.499 77.08 680.715 77.08H684.507C686.395 77.08 687.883 77.224 688.971 77.512C690.091 77.8 691.035 78.312 691.803 79.048C692.411 79.656 692.875 80.456 693.195 81.448C693.547 82.408 693.739 83.64 693.771 85.144H698.475V90.424H679.755V104.488C679.755 105.576 679.819 106.376 679.947 106.888C680.075 107.4 680.267 107.784 680.523 108.04C680.971 108.52 681.707 108.76 682.731 108.76C684.395 108.76 686.043 107.992 687.675 106.456C688.379 105.816 688.923 105.128 689.307 104.392C689.691 103.656 689.883 102.904 689.883 102.136C689.883 101.528 689.691 101.032 689.307 100.648C688.923 100.264 688.299 100.072 687.435 100.072C687.019 100.072 686.635 100.088 686.283 100.12C685.963 100.152 685.659 100.2 685.371 100.264L684.507 95.08C685.211 94.92 685.915 94.792 686.619 94.696C687.323 94.6 688.139 94.552 689.067 94.552C691.595 94.552 693.403 95.176 694.491 96.424C695.579 97.672 696.123 99.192 696.123 100.984C696.123 102.744 695.755 104.392 695.019 105.928C694.283 107.432 693.307 108.792 692.091 110.008C690.811 111.256 689.339 112.248 687.675 112.984C686.011 113.688 684.235 114.04 682.347 114.04C680.619 114.04 679.275 113.88 678.315 113.56C677.355 113.24 676.539 112.776 675.867 112.168C675.195 111.592 674.619 110.744 674.139 109.624C673.659 108.504 673.419 106.776 673.419 104.44V90.424H669.051V85.144H687.771ZM735.712 85.144V90.424H731.104V115H724.768V100.744C724.352 100.296 723.904 99.928 723.424 99.64C722.944 99.352 722.416 99.208 721.84 99.208C721.328 99.208 720.784 99.4 720.208 99.784C719.632 100.168 719.344 101.016 719.344 102.328C719.344 102.872 719.392 103.384 719.488 103.864L714.064 104.2C713.808 102.6 713.232 101.336 712.336 100.408C711.472 99.48 710.304 99.016 708.832 99.016C707.936 99.016 707.216 99.256 706.672 99.736C706.16 100.184 705.904 100.792 705.904 101.56C705.904 102.712 706.352 103.608 707.248 104.248C708.176 104.888 709.296 105.416 710.608 105.832L708.784 111.208C705.872 110.376 703.568 109.144 701.872 107.512C700.208 105.88 699.376 103.816 699.376 101.32C699.376 99.72 699.76 98.344 700.528 97.192C701.328 96.04 702.384 95.16 703.696 94.552C705.008 93.912 706.448 93.592 708.016 93.592C709.744 93.592 711.2 93.864 712.384 94.408C713.6 94.92 714.816 95.736 716.032 96.856C716.416 95.864 717.024 95.112 717.856 94.6C718.72 94.088 719.632 93.832 720.592 93.832C721.424 93.832 722.192 93.96 722.896 94.216C723.6 94.472 724.256 94.824 724.864 95.272C724.8 94.44 724.768 93.64 724.768 92.872V90.424H697.504V85.144H735.712ZM750.322 85.144V90.424H745.714V115H739.378V93.688C738.994 92.696 738.45 91.912 737.746 91.336C737.042 90.728 736.13 90.424 735.01 90.424H734.77V85.144H735.73C736.466 85.144 737.154 85.336 737.794 85.72C738.434 86.104 739.026 86.92 739.57 88.168C739.538 88.008 739.49 87.64 739.426 87.064C739.394 86.488 739.378 85.992 739.378 85.576V81.976H744.562L745.666 85.144H750.322ZM762.452 91.72C765.396 91.72 767.732 92.168 769.46 93.064C771.22 93.928 772.484 95.032 773.252 96.376C774.02 97.72 774.404 99.096 774.404 100.504C774.404 102.648 773.844 104.376 772.724 105.688C771.604 107 770.004 107.992 767.924 108.664C769.62 109.272 771.3 110.024 772.964 110.92C774.628 111.784 776.26 112.776 777.86 113.896L774.5 118.36C771.492 116.184 768.132 114.328 764.42 112.792C760.708 111.256 756.58 110.136 752.036 109.432L753.092 104.392C754.212 104.68 755.3 104.904 756.356 105.064C757.444 105.224 758.532 105.304 759.62 105.304C762.66 105.304 764.82 104.872 766.1 104.008C767.38 103.144 768.02 101.992 768.02 100.552C768.02 99.4 767.572 98.472 766.676 97.768C765.812 97.064 764.58 96.712 762.98 96.712C761.572 96.712 760.58 96.904 760.004 97.288C759.46 97.64 759.188 98.184 759.188 98.92C759.188 99.304 759.284 99.688 759.476 100.072L753.524 100.936C753.332 100.456 753.172 99.912 753.044 99.304C752.916 98.664 752.852 98.072 752.852 97.528C752.852 95.48 753.988 93.928 756.26 92.872C755.652 91.784 754.612 90.968 753.14 90.424H749.348V85.144H766.82C766.788 84.152 766.532 83.448 766.052 83.032C765.572 82.584 764.724 82.36 763.508 82.36H760.676C758.244 82.36 756.26 82.136 754.724 81.688C753.22 81.208 752.036 80.488 751.172 79.528C750.02 78.248 749.444 76.408 749.444 74.008C749.444 73.528 749.46 73.096 749.492 72.712C749.524 72.296 749.588 71.8 749.684 71.224L755.684 71.608C755.652 71.896 755.62 72.152 755.588 72.376C755.588 72.6 755.588 72.808 755.588 73C755.588 73.672 755.652 74.28 755.78 74.824C755.94 75.336 756.196 75.768 756.548 76.12C756.9 76.44 757.348 76.68 757.892 76.84C758.436 77 759.316 77.08 760.532 77.08H763.556C765.444 77.08 766.932 77.224 768.02 77.512C769.14 77.8 770.084 78.312 770.852 79.048C771.46 79.656 771.924 80.456 772.244 81.448C772.596 82.408 772.788 83.64 772.82 85.144H777.812V90.424H761.156C761.572 90.808 761.924 91.24 762.212 91.72H762.452ZM797.023 85.144V90.424H794.287C792.847 91.128 791.487 92.056 790.207 93.208C788.927 94.36 787.887 95.704 787.087 97.24C786.287 98.776 785.887 100.488 785.887 102.376C785.887 104.296 786.175 105.8 786.751 106.888C787.327 107.976 788.047 108.744 788.911 109.192C789.775 109.608 790.639 109.816 791.503 109.816C792.079 109.816 792.639 109.768 793.183 109.672C793.727 109.544 794.351 109.304 795.055 108.952L797.455 113.704C796.399 114.312 795.359 114.728 794.335 114.952C793.311 115.144 792.239 115.24 791.119 115.24C787.535 115.24 784.687 114.152 782.575 111.976C780.495 109.768 779.455 106.616 779.455 102.52C779.455 99.992 779.967 97.688 780.991 95.608C782.047 93.496 783.487 91.736 785.311 90.328C784.511 90.392 783.359 90.424 781.855 90.424H776.911V85.144H797.023ZM827.475 85.144V90.424H822.867V115H816.531V106.264C815.123 104.6 813.619 103.208 812.019 102.088C810.419 100.968 808.867 100.408 807.363 100.408C806.563 100.408 805.875 100.6 805.299 100.984C804.755 101.336 804.483 101.912 804.483 102.712C804.483 103.416 804.739 104.008 805.251 104.488C805.763 104.968 806.579 105.432 807.699 105.88L804.867 111.16C802.723 110.328 801.027 109.144 799.779 107.608C798.563 106.04 797.955 104.328 797.955 102.472C797.955 100.744 798.355 99.336 799.155 98.248C799.955 97.128 800.979 96.312 802.227 95.8C803.475 95.256 804.787 94.984 806.163 94.984C808.147 94.984 809.987 95.384 811.683 96.184C813.379 96.984 815.011 98.104 816.579 99.544C816.547 99 816.531 98.456 816.531 97.912C816.531 97.368 816.531 96.856 816.531 96.376V90.424H796.082V85.144H827.475Z" fill="white"/>
<path d="M344.972 250.448C344.852 249.711 344.39 249.081 343.698 248.707L333.459 242.674L333.375 242.627C332.945 242.412 332.471 242.301 331.991 242.305C331.133 242.305 330.314 242.63 329.745 243.2L326.723 246.224C326.594 246.347 326.172 246.524 326.044 246.531C326.009 246.528 322.528 246.277 316.119 239.867C309.721 233.471 309.449 229.979 309.447 229.979C309.451 229.8 309.627 229.38 309.752 229.25L312.329 226.674C313.237 225.764 313.509 224.255 312.97 223.086L307.279 212.377C306.865 211.526 306.062 211 305.17 211C304.539 211 303.931 211.261 303.455 211.736L296.43 218.746C295.757 219.416 295.177 220.587 295.05 221.53C294.989 221.981 293.742 232.739 308.492 247.492C321.014 260.012 330.779 260.985 333.475 260.985C333.804 260.989 334.132 260.972 334.458 260.934C335.398 260.809 336.568 260.23 337.237 259.559L344.257 252.541C344.83 251.965 345.091 251.204 344.972 250.448V250.448Z" fill="white"/>
<path d="M344.972 361.448C344.852 360.711 344.39 360.081 343.698 359.707L333.459 353.674L333.375 353.627C332.945 353.412 332.471 353.301 331.991 353.305C331.133 353.305 330.314 353.63 329.745 354.2L326.723 357.224C326.594 357.347 326.172 357.524 326.045 357.531C326.01 357.528 322.528 357.277 316.119 350.867C309.721 344.471 309.449 340.979 309.447 340.979C309.451 340.8 309.627 340.38 309.752 340.25L312.329 337.674C313.237 336.764 313.509 335.255 312.97 334.086L307.279 323.377C306.865 322.526 306.062 322 305.17 322C304.539 322 303.931 322.261 303.455 322.736L296.43 329.746C295.757 330.416 295.177 331.587 295.05 332.53C294.989 332.981 293.742 343.739 308.492 358.492C321.014 371.012 330.779 371.985 333.475 371.985C333.804 371.989 334.132 371.972 334.458 371.934C335.398 371.809 336.568 371.23 337.237 370.559L344.257 363.541C344.83 362.965 345.091 362.204 344.972 361.448Z" fill="white"/>
<path d="M344.972 472.448C344.852 471.711 344.39 471.081 343.698 470.707L333.459 464.674L333.375 464.627C332.945 464.412 332.471 464.301 331.991 464.305C331.133 464.305 330.314 464.63 329.745 465.2L326.723 468.224C326.594 468.347 326.172 468.524 326.044 468.531C326.009 468.528 322.528 468.277 316.119 461.867C309.721 455.471 309.449 451.979 309.447 451.979C309.451 451.8 309.627 451.38 309.752 451.25L312.329 448.674C313.237 447.764 313.509 446.255 312.97 445.086L307.279 434.377C306.865 433.526 306.062 433 305.17 433C304.539 433 303.931 433.261 303.455 433.736L296.43 440.746C295.757 441.416 295.177 442.587 295.05 443.53C294.989 443.981 293.742 454.739 308.492 469.492C321.014 482.012 330.779 482.985 333.475 482.985C333.804 482.989 334.132 482.972 334.458 482.934C335.398 482.809 336.568 482.23 337.237 481.559L344.257 474.541C344.83 473.965 345.091 473.204 344.972 472.448V472.448Z" fill="white"/>
</svg>
