<svg width="904" height="193" viewBox="0 0 904 193" fill="none" xmlns="http://www.w3.org/2000/svg">
<rect width="904" height="193" rx="5" fill="#EB5569"/>
<path d="M112.913 56.144V61.424H110.177C108.737 62.128 107.377 63.056 106.097 64.208C104.817 65.36 103.777 66.704 102.977 68.24C102.177 69.776 101.777 71.488 101.777 73.376C101.777 75.296 102.065 76.8 102.641 77.888C103.217 78.976 103.937 79.744 104.801 80.192C105.665 80.608 106.529 80.816 107.393 80.816C107.969 80.816 108.529 80.768 109.073 80.672C109.617 80.544 110.241 80.304 110.945 79.952L113.345 84.704C112.289 85.312 111.249 85.728 110.225 85.952C109.201 86.144 108.129 86.24 107.009 86.24C103.425 86.24 100.577 85.152 98.4653 82.976C96.3853 80.768 95.3453 77.616 95.3453 73.52C95.3453 70.896 95.8733 68.464 96.9293 66.224C97.9853 63.952 99.4093 61.952 101.201 60.224C102.993 58.464 104.993 57.104 107.201 56.144H112.913ZM144.853 56.144V61.424H140.245V86H133.909C131.957 83.6 129.525 81.76 126.613 80.48C123.733 79.2 120.261 78.288 116.197 77.744L113.941 72.32C115.253 71.52 116.677 70.704 118.213 69.872C119.781 69.008 121.365 68.192 122.965 67.424C121.621 66.656 120.165 65.984 118.597 65.408C117.061 64.832 115.381 64.4 113.557 64.112L114.757 61.424H111.973V56.144H144.853ZM133.909 61.424H121.861C123.301 61.936 124.613 62.608 125.797 63.44C126.981 64.24 128.053 65.072 129.013 65.936L129.589 70.16C128.309 70.672 126.997 71.248 125.653 71.888C124.341 72.496 123.093 73.12 121.909 73.76C123.189 73.984 124.549 74.352 125.989 74.864C127.461 75.376 128.901 76.032 130.309 76.832C131.717 77.632 132.949 78.56 134.005 79.616C133.941 79.072 133.909 78.528 133.909 77.984C133.909 77.44 133.909 76.864 133.909 76.256V61.424ZM164.007 56.144V61.424H161.271C159.831 62.128 158.471 63.056 157.191 64.208C155.911 65.36 154.871 66.704 154.071 68.24C153.271 69.776 152.871 71.488 152.871 73.376C152.871 75.296 153.159 76.8 153.735 77.888C154.311 78.976 155.031 79.744 155.895 80.192C156.759 80.608 157.623 80.816 158.487 80.816C159.063 80.816 159.623 80.768 160.167 80.672C160.711 80.544 161.335 80.304 162.039 79.952L164.439 84.704C163.383 85.312 162.343 85.728 161.319 85.952C160.295 86.144 159.223 86.24 158.103 86.24C154.519 86.24 151.671 85.152 149.559 82.976C147.479 80.768 146.439 77.616 146.439 73.52C146.439 70.992 146.951 68.688 147.975 66.608C149.031 64.496 150.471 62.736 152.295 61.328C151.495 61.392 150.343 61.424 148.839 61.424H143.895V56.144H164.007ZM203.147 73.616C203.147 74.672 202.923 75.68 202.475 76.64C202.059 77.6 201.323 78.384 200.267 78.992C199.211 79.6 197.739 79.904 195.851 79.904C194.539 79.904 193.403 79.808 192.443 79.616L192.635 74.336C192.795 74.368 192.987 74.4 193.211 74.432C193.467 74.432 193.787 74.432 194.171 74.432C195.323 74.432 196.075 74.24 196.427 73.856C196.779 73.44 196.955 72.944 196.955 72.368C196.955 71.344 196.331 70.432 195.083 69.632C193.835 68.832 192.011 68.192 189.611 67.712V86H183.275C181.483 83.408 179.163 81.296 176.315 79.664C173.499 78 170.299 76.864 166.715 76.256L164.315 70.592C167.099 69.024 170.155 67.52 173.483 66.08C176.843 64.608 180.155 63.408 183.419 62.48V61.424H163.067V56.144H205.163V61.424H189.515V62.432C192.043 62.816 194.331 63.504 196.379 64.496C198.459 65.488 200.107 66.752 201.323 68.288C202.539 69.792 203.147 71.568 203.147 73.616ZM172.379 72.656C174.171 73.008 176.043 73.712 177.995 74.768C179.947 75.792 181.739 77.12 183.371 78.752C183.339 78.368 183.307 77.968 183.275 77.552C183.275 77.104 183.275 76.656 183.275 76.208V68.192C181.387 68.8 179.563 69.472 177.803 70.208C176.075 70.944 174.267 71.76 172.379 72.656ZM219.775 56.144V61.424H215.167V86H208.831V64.688C208.447 63.696 207.903 62.912 207.199 62.336C206.495 61.728 205.583 61.424 204.463 61.424H204.223V56.144H205.183C205.919 56.144 206.607 56.336 207.247 56.72C207.887 57.104 208.479 57.92 209.023 59.168C208.991 59.008 208.943 58.64 208.879 58.064C208.847 57.488 208.831 56.992 208.831 56.576V52.976H214.015L215.119 56.144H219.775ZM238.913 56.144V61.424H236.177C234.737 62.128 233.377 63.056 232.097 64.208C230.817 65.36 229.777 66.704 228.977 68.24C228.177 69.776 227.777 71.488 227.777 73.376C227.777 75.296 228.065 76.8 228.641 77.888C229.217 78.976 229.937 79.744 230.801 80.192C231.665 80.608 232.529 80.816 233.393 80.816C233.969 80.816 234.529 80.768 235.073 80.672C235.617 80.544 236.241 80.304 236.945 79.952L239.345 84.704C238.289 85.312 237.249 85.728 236.225 85.952C235.201 86.144 234.129 86.24 233.009 86.24C229.425 86.24 226.577 85.152 224.465 82.976C222.385 80.768 221.345 77.616 221.345 73.52C221.345 70.992 221.857 68.688 222.881 66.608C223.937 64.496 225.377 62.736 227.201 61.328C226.401 61.392 225.249 61.424 223.745 61.424H218.801V56.144H238.913ZM269.365 56.144V61.424H264.757V86H258.421V77.264C257.013 75.6 255.509 74.208 253.909 73.088C252.309 71.968 250.757 71.408 249.253 71.408C248.453 71.408 247.765 71.6 247.189 71.984C246.645 72.336 246.373 72.912 246.373 73.712C246.373 74.416 246.629 75.008 247.141 75.488C247.653 75.968 248.469 76.432 249.589 76.88L246.757 82.16C244.613 81.328 242.917 80.144 241.669 78.608C240.453 77.04 239.845 75.328 239.845 73.472C239.845 71.744 240.245 70.336 241.045 69.248C241.845 68.128 242.869 67.312 244.117 66.8C245.365 66.256 246.677 65.984 248.053 65.984C250.037 65.984 251.877 66.384 253.573 67.184C255.269 67.984 256.901 69.104 258.469 70.544C258.437 70 258.421 69.456 258.421 68.912C258.421 68.368 258.421 67.856 258.421 67.376V61.424H237.973V56.144H269.365ZM283.947 56.144V61.424H279.339V86H273.003V64.688C272.619 63.696 272.075 62.912 271.371 62.336C270.667 61.728 269.755 61.424 268.635 61.424H268.395V56.144H269.355C270.091 56.144 270.779 56.336 271.419 56.72C272.059 57.104 272.651 57.92 273.195 59.168C273.163 59.008 273.115 58.64 273.051 58.064C273.019 57.488 273.003 56.992 273.003 56.576V52.976H278.187L279.291 56.144H283.947ZM331.022 56.144V61.424H294.926V56.144H331.022ZM316.046 84.416C313.038 84.416 310.27 83.84 307.742 82.688C305.246 81.504 303.022 79.536 301.07 76.784C299.15 74 297.518 70.224 296.174 65.456L302.174 63.776C303.678 68.96 305.438 72.784 307.454 75.248C309.47 77.68 312.078 78.896 315.278 78.896C317.742 78.896 319.566 78.416 320.75 77.456C321.934 76.464 322.526 75.04 322.526 73.184C322.526 71.552 322.094 70.336 321.23 69.536C320.398 68.704 319.422 68.288 318.302 68.288C317.566 68.288 316.942 68.48 316.43 68.864C315.95 69.248 315.71 69.824 315.71 70.592C315.71 71.296 315.838 71.984 316.094 72.656L310.094 73.568C309.774 72.832 309.55 72.144 309.422 71.504C309.294 70.864 309.23 70.304 309.23 69.824C309.23 68.224 309.63 66.944 310.43 65.984C311.23 64.992 312.27 64.272 313.55 63.824C314.862 63.376 316.254 63.152 317.726 63.152C320.126 63.152 322.158 63.616 323.822 64.544C325.486 65.472 326.75 66.736 327.614 68.336C328.478 69.904 328.91 71.712 328.91 73.76C328.91 75.648 328.462 77.408 327.566 79.04C326.702 80.672 325.326 81.984 323.438 82.976C321.55 83.936 319.086 84.416 316.046 84.416ZM350.195 56.144V61.424H347.459C346.019 62.128 344.659 63.056 343.379 64.208C342.099 65.36 341.059 66.704 340.259 68.24C339.459 69.776 339.059 71.488 339.059 73.376C339.059 75.296 339.347 76.8 339.923 77.888C340.499 78.976 341.219 79.744 342.083 80.192C342.947 80.608 343.811 80.816 344.674 80.816C345.251 80.816 345.811 80.768 346.355 80.672C346.899 80.544 347.523 80.304 348.227 79.952L350.627 84.704C349.571 85.312 348.531 85.728 347.507 85.952C346.483 86.144 345.411 86.24 344.291 86.24C340.707 86.24 337.859 85.152 335.747 82.976C333.667 80.768 332.627 77.616 332.627 73.52C332.627 70.992 333.139 68.688 334.163 66.608C335.219 64.496 336.659 62.736 338.483 61.328C337.683 61.392 336.531 61.424 335.027 61.424H330.082V56.144H350.195ZM360.63 56C363.062 56 365.03 56.4 366.534 57.2C368.07 58 369.206 59.04 369.942 60.32C370.678 61.568 371.046 62.912 371.046 64.352C371.046 66.432 370.406 68.24 369.126 69.776C367.846 71.28 366.054 72.416 363.75 73.184C366.214 73.888 368.182 74.768 369.654 75.824C371.158 76.848 372.55 77.904 373.83 78.992C373.798 78.256 373.766 77.52 373.734 76.784C373.734 76.016 373.734 75.216 373.734 74.384V52.976H378.918L380.022 56.144H384.678V61.424H380.07V86H373.734C372.23 84.176 370.63 82.64 368.934 81.392C367.27 80.144 365.398 79.12 363.318 78.32C361.27 77.488 358.902 76.864 356.214 76.448L354.678 70.88C358.294 70.208 360.87 69.36 362.406 68.336C363.942 67.312 364.71 66.048 364.71 64.544C364.71 63.616 364.374 62.816 363.702 62.144C363.03 61.472 362.022 61.136 360.678 61.136C359.686 61.136 358.95 61.328 358.47 61.712C358.022 62.064 357.798 62.464 357.798 62.912C357.798 63.68 358.262 64.368 359.19 64.976L355.254 68.912C354.71 68.528 354.134 68.08 353.526 67.568C352.95 67.024 352.47 66.368 352.086 65.6C351.702 64.832 351.51 63.92 351.51 62.864C351.51 61.616 351.846 60.48 352.518 59.456C353.19 58.4 354.198 57.568 355.542 56.96C356.886 56.32 358.582 56 360.63 56ZM398.348 56.144V61.424H396.38C395.42 62.416 394.732 63.36 394.316 64.256C393.932 65.12 393.74 66.112 393.74 67.232C393.74 68.288 393.868 69.392 394.124 70.544C394.412 71.664 394.684 72.816 394.94 74C395.228 75.152 395.372 76.304 395.372 77.456C395.372 79.216 395.084 80.8 394.508 82.208C393.932 83.584 392.844 84.8 391.243 85.856C389.676 86.912 387.356 87.792 384.284 88.496L382.891 83.312C384.684 82.864 386.012 82.352 386.876 81.776C387.74 81.2 388.3 80.544 388.556 79.808C388.844 79.072 388.988 78.272 388.988 77.408C388.988 76.192 388.844 75.024 388.556 73.904C388.3 72.784 388.028 71.68 387.74 70.592C387.484 69.504 387.355 68.384 387.355 67.232C387.355 66.016 387.548 64.976 387.932 64.112C388.316 63.216 388.876 62.32 389.612 61.424H383.707V56.144H398.348ZM428.547 56.144V61.424H423.939V86H417.603C415.811 83.408 413.491 81.296 410.643 79.664C407.827 78 404.627 76.864 401.043 76.256L398.643 70.592C401.459 69.024 404.531 67.504 407.859 66.032C411.187 64.56 414.499 63.376 417.795 62.48V61.424H397.395V56.144H428.547ZM406.707 72.656C408.499 73.008 410.371 73.696 412.323 74.72C414.275 75.744 416.051 77.088 417.651 78.752C417.619 77.824 417.603 76.912 417.603 76.016V68.192C415.715 68.8 413.891 69.472 412.131 70.208C410.403 70.944 408.595 71.76 406.707 72.656ZM406.035 86.576C405.043 86.576 404.211 86.24 403.539 85.568C402.867 84.864 402.531 84 402.531 82.976C402.531 81.952 402.867 81.104 403.539 80.432C404.211 79.728 405.043 79.376 406.035 79.376C407.059 79.376 407.891 79.728 408.531 80.432C409.203 81.104 409.539 81.952 409.539 82.976C409.539 84 409.203 84.864 408.531 85.568C407.891 86.24 407.059 86.576 406.035 86.576ZM461.136 84.56C458.096 84.56 455.28 84 452.688 82.88C450.128 81.728 447.84 79.76 445.824 76.976C443.84 74.192 442.16 70.352 440.784 65.456L446.784 63.776C447.904 67.648 449.12 70.704 450.432 72.944C451.776 75.152 453.296 76.72 454.992 77.648C456.688 78.576 458.624 79.04 460.8 79.04C463.072 79.04 464.688 78.64 465.648 77.84C466.64 77.008 467.136 75.952 467.136 74.672C467.136 74.128 467.104 73.616 467.04 73.136C466.08 73.744 465.04 74.224 463.92 74.576C462.832 74.896 461.552 75.056 460.08 75.056C458 75.056 456.272 74.544 454.896 73.52C453.552 72.496 452.88 70.88 452.88 68.672C452.88 67.392 453.232 66.144 453.936 64.928C454.64 63.68 455.952 62.496 457.872 61.376C457.264 61.408 456.704 61.424 456.192 61.424C455.712 61.424 455.152 61.424 454.512 61.424H439.536V56.144H488.352V61.424H474.144C473.728 61.424 473.28 61.424 472.8 61.424C472.32 61.392 471.824 61.376 471.312 61.376C471.952 62.176 472.928 62.88 474.24 63.488C475.584 64.096 477.456 64.4 479.856 64.4C480.208 64.4 480.544 64.384 480.864 64.352C481.216 64.32 481.648 64.288 482.16 64.256L485.088 69.008C484.48 70.096 484 71.248 483.648 72.464C483.328 73.68 483.168 75.04 483.168 76.544C483.168 77.824 483.296 79.2 483.552 80.672C483.84 82.144 484.24 83.664 484.752 85.232L478.56 86.528C477.952 84.8 477.504 83.136 477.216 81.536C476.928 79.936 476.784 78.16 476.784 76.208C476.784 75.024 476.864 73.872 477.024 72.752C477.216 71.6 477.488 70.528 477.84 69.536C474.512 69.056 471.824 68.208 469.776 66.992C467.76 65.776 466.16 64.288 464.976 62.528C463.12 63.36 461.696 64.256 460.704 65.216C459.712 66.144 459.216 67.04 459.216 67.904C459.216 68.544 459.392 69.024 459.744 69.344C460.096 69.632 460.512 69.776 460.992 69.776C461.856 69.776 462.624 69.6 463.296 69.248C463.968 68.896 464.736 68.4 465.6 67.76L472.608 69.824C472.832 70.464 473.008 71.2 473.136 72.032C473.296 72.864 473.376 73.744 473.376 74.672C473.376 76.272 472.976 77.84 472.176 79.376C471.376 80.88 470.08 82.128 468.288 83.12C466.496 84.08 464.112 84.56 461.136 84.56ZM518.787 56.144V61.424H514.179V86H507.843V77.264C506.435 75.6 504.931 74.208 503.331 73.088C501.731 71.968 500.179 71.408 498.675 71.408C497.875 71.408 497.187 71.6 496.611 71.984C496.067 72.336 495.795 72.912 495.795 73.712C495.795 74.416 496.051 75.008 496.563 75.488C497.075 75.968 497.891 76.432 499.011 76.88L496.179 82.16C494.035 81.328 492.339 80.144 491.091 78.608C489.875 77.04 489.267 75.328 489.267 73.472C489.267 71.744 489.667 70.336 490.467 69.248C491.267 68.128 492.291 67.312 493.539 66.8C494.787 66.256 496.099 65.984 497.475 65.984C499.459 65.984 501.299 66.384 502.995 67.184C504.691 67.984 506.323 69.104 507.891 70.544C507.859 70 507.843 69.456 507.843 68.912C507.843 68.368 507.843 67.856 507.843 67.376V61.424H487.395V56.144H518.787ZM532.457 56.144V61.424H530.489C529.529 62.416 528.841 63.36 528.425 64.256C528.041 65.12 527.849 66.112 527.849 67.232C527.849 68.288 527.977 69.392 528.233 70.544C528.521 71.664 528.793 72.816 529.049 74C529.337 75.152 529.481 76.304 529.481 77.456C529.481 79.216 529.193 80.8 528.617 82.208C528.041 83.584 526.953 84.8 525.353 85.856C523.785 86.912 521.465 87.792 518.393 88.496L517.001 83.312C518.793 82.864 520.121 82.352 520.985 81.776C521.849 81.2 522.409 80.544 522.665 79.808C522.953 79.072 523.097 78.272 523.097 77.408C523.097 76.192 522.953 75.024 522.665 73.904C522.409 72.784 522.137 71.68 521.849 70.592C521.593 69.504 521.465 68.384 521.465 67.232C521.465 66.016 521.657 64.976 522.041 64.112C522.425 63.216 522.985 62.32 523.721 61.424H517.817V56.144H532.457ZM559.01 56.144V61.424H554.402V86H548.066V61.424H543.457V56.144H548.114C547.602 55.568 547.042 54.912 546.434 54.176C545.858 53.44 545.346 52.768 544.898 52.16C546.498 49.568 548.066 47.536 549.602 46.064C551.17 44.592 552.818 43.552 554.546 42.944C556.274 42.304 558.178 41.984 560.258 41.984C561.794 41.984 563.25 42.112 564.626 42.368C566.034 42.624 567.49 43.072 568.994 43.712C570.53 44.32 572.226 45.152 574.082 46.208C575.938 47.232 578.098 48.512 580.562 50.048L577.298 54.32C574.706 52.656 572.498 51.312 570.674 50.288C568.85 49.232 567.186 48.464 565.682 47.984C564.178 47.504 562.594 47.264 560.93 47.264C559.426 47.264 558.114 47.552 556.994 48.128C555.874 48.704 554.898 49.424 554.066 50.288C553.266 51.152 552.562 52.048 551.954 52.976C552.242 53.488 552.578 54.032 552.962 54.608C553.346 55.184 553.746 55.696 554.162 56.144H559.01ZM594.996 56.144V61.424H558.036V56.144H594.996ZM579.732 84.608C577.492 84.608 575.348 84.304 573.3 83.696C571.284 83.088 569.396 82.064 567.636 80.624C565.908 79.184 564.34 77.232 562.932 74.768C561.524 72.304 560.308 69.2 559.284 65.456L565.284 63.776C566.404 67.648 567.62 70.704 568.932 72.944C570.276 75.152 571.796 76.736 573.492 77.696C575.188 78.624 577.108 79.088 579.252 79.088C581.556 79.088 583.332 78.592 584.58 77.6C585.86 76.608 586.5 75.184 586.5 73.328C586.5 72.4 586.356 71.552 586.068 70.784C584.948 71.744 583.732 72.48 582.42 72.992C581.108 73.472 579.652 73.712 578.052 73.712C575.876 73.712 574.148 73.2 572.868 72.176C571.62 71.12 570.996 69.696 570.996 67.904C570.996 67.136 571.092 66.4 571.284 65.696C571.476 64.992 571.716 64.352 572.004 63.776L577.668 65.168C577.38 65.744 577.236 66.272 577.236 66.752C577.236 67.36 577.412 67.792 577.764 68.048C578.116 68.304 578.564 68.432 579.108 68.432C580.036 68.432 580.836 68.192 581.508 67.712C582.212 67.232 583.028 66.32 583.956 64.976L589.284 64.064C591.62 67.232 592.788 70.592 592.788 74.144C592.788 76.128 592.292 77.92 591.3 79.52C590.34 81.088 588.884 82.336 586.932 83.264C585.012 84.16 582.612 84.608 579.732 84.608ZM609.588 56.144V61.424H604.98V86H598.644V61.424H594.036V56.144H598.692C598.18 55.568 597.62 54.912 597.012 54.176C596.436 53.44 595.924 52.768 595.476 52.16C597.076 49.568 598.644 47.536 600.18 46.064C601.748 44.592 603.396 43.552 605.124 42.944C606.852 42.304 608.756 41.984 610.836 41.984C612.372 41.984 613.828 42.112 615.204 42.368C616.612 42.624 618.068 43.072 619.572 43.712C621.108 44.32 622.804 45.152 624.66 46.208C626.516 47.232 628.676 48.512 631.14 50.048L627.876 54.32C625.284 52.656 623.076 51.312 621.252 50.288C619.428 49.232 617.764 48.464 616.26 47.984C614.756 47.504 613.172 47.264 611.508 47.264C610.004 47.264 608.692 47.552 607.572 48.128C606.452 48.704 605.476 49.424 604.644 50.288C603.844 51.152 603.14 52.048 602.532 52.976C602.82 53.488 603.156 54.032 603.54 54.608C603.924 55.184 604.324 55.696 604.74 56.144H609.588ZM630.214 84.56C627.174 84.56 624.358 84 621.766 82.88C619.206 81.728 616.918 79.76 614.902 76.976C612.918 74.192 611.238 70.352 609.862 65.456L615.862 63.776C616.982 67.648 618.198 70.704 619.51 72.944C620.854 75.152 622.374 76.72 624.07 77.648C625.766 78.576 627.702 79.04 629.878 79.04C632.15 79.04 633.766 78.64 634.726 77.84C635.718 77.008 636.214 75.952 636.214 74.672C636.214 74.128 636.182 73.616 636.118 73.136C635.158 73.744 634.118 74.224 632.998 74.576C631.91 74.896 630.63 75.056 629.158 75.056C627.078 75.056 625.35 74.544 623.974 73.52C622.63 72.496 621.958 70.88 621.958 68.672C621.958 67.392 622.31 66.144 623.014 64.928C623.718 63.68 625.03 62.496 626.95 61.376C626.342 61.408 625.782 61.424 625.27 61.424C624.79 61.424 624.23 61.424 623.59 61.424H608.614V56.144H657.43V61.424H643.222C642.806 61.424 642.358 61.424 641.878 61.424C641.398 61.392 640.902 61.376 640.39 61.376C641.03 62.176 642.006 62.88 643.318 63.488C644.662 64.096 646.534 64.4 648.934 64.4C649.286 64.4 649.622 64.384 649.942 64.352C650.294 64.32 650.726 64.288 651.238 64.256L654.166 69.008C653.558 70.096 653.078 71.248 652.726 72.464C652.406 73.68 652.246 75.04 652.246 76.544C652.246 77.824 652.374 79.2 652.63 80.672C652.918 82.144 653.318 83.664 653.83 85.232L647.638 86.528C647.03 84.8 646.582 83.136 646.294 81.536C646.006 79.936 645.862 78.16 645.862 76.208C645.862 75.024 645.942 73.872 646.102 72.752C646.294 71.6 646.566 70.528 646.918 69.536C643.59 69.056 640.902 68.208 638.854 66.992C636.838 65.776 635.238 64.288 634.054 62.528C632.198 63.36 630.774 64.256 629.782 65.216C628.79 66.144 628.294 67.04 628.294 67.904C628.294 68.544 628.47 69.024 628.822 69.344C629.174 69.632 629.59 69.776 630.07 69.776C630.934 69.776 631.702 69.6 632.374 69.248C633.046 68.896 633.814 68.4 634.678 67.76L641.686 69.824C641.91 70.464 642.086 71.2 642.214 72.032C642.374 72.864 642.454 73.744 642.454 74.672C642.454 76.272 642.054 77.84 641.254 79.376C640.454 80.88 639.158 82.128 637.366 83.12C635.574 84.08 633.19 84.56 630.214 84.56ZM675.193 56.144C675.161 55.152 674.905 54.448 674.425 54.032C673.945 53.584 673.097 53.36 671.881 53.36H668.281C665.849 53.36 663.865 53.136 662.329 52.688C660.825 52.208 659.641 51.488 658.777 50.528C657.625 49.248 657.049 47.408 657.049 45.008C657.049 44.528 657.065 44.096 657.097 43.712C657.129 43.296 657.193 42.8 657.289 42.224L663.289 42.608C663.257 42.896 663.225 43.152 663.193 43.376C663.193 43.6 663.193 43.808 663.193 44C663.193 44.672 663.257 45.28 663.385 45.824C663.545 46.336 663.801 46.768 664.153 47.12C664.505 47.44 664.953 47.68 665.497 47.84C666.041 48 666.921 48.08 668.137 48.08H671.929C673.817 48.08 675.305 48.224 676.393 48.512C677.513 48.8 678.457 49.312 679.225 50.048C679.833 50.656 680.297 51.456 680.617 52.448C680.969 53.408 681.161 54.64 681.193 56.144H685.897V61.424H667.177V75.488C667.177 76.576 667.241 77.376 667.369 77.888C667.497 78.4 667.689 78.784 667.945 79.04C668.393 79.52 669.129 79.76 670.153 79.76C671.817 79.76 673.465 78.992 675.097 77.456C675.801 76.816 676.345 76.128 676.729 75.392C677.113 74.656 677.305 73.904 677.305 73.136C677.305 72.528 677.113 72.032 676.729 71.648C676.345 71.264 675.721 71.072 674.857 71.072C674.441 71.072 674.057 71.088 673.705 71.12C673.385 71.152 673.081 71.2 672.793 71.264L671.929 66.08C672.633 65.92 673.337 65.792 674.041 65.696C674.745 65.6 675.561 65.552 676.489 65.552C679.017 65.552 680.825 66.176 681.913 67.424C683.001 68.672 683.545 70.192 683.545 71.984C683.545 73.744 683.177 75.392 682.441 76.928C681.705 78.432 680.729 79.792 679.513 81.008C678.233 82.256 676.761 83.248 675.097 83.984C673.433 84.688 671.657 85.04 669.769 85.04C668.041 85.04 666.697 84.88 665.737 84.56C664.777 84.24 663.961 83.776 663.289 83.168C662.617 82.592 662.041 81.744 661.561 80.624C661.081 79.504 660.841 77.776 660.841 75.44V61.424H656.473V56.144H675.193ZM736.959 73.616C736.959 74.672 736.735 75.68 736.287 76.64C735.871 77.6 735.135 78.384 734.079 78.992C733.023 79.6 731.551 79.904 729.663 79.904C728.351 79.904 727.215 79.808 726.255 79.616L726.447 74.336C726.607 74.368 726.799 74.4 727.023 74.432C727.279 74.432 727.599 74.432 727.983 74.432C729.135 74.432 729.887 74.24 730.239 73.856C730.591 73.44 730.767 72.944 730.767 72.368C730.767 71.344 730.143 70.432 728.895 69.632C727.647 68.832 725.823 68.192 723.423 67.712V86H717.087C715.295 83.408 712.975 81.296 710.127 79.664C707.311 78 704.111 76.864 700.527 76.256L698.127 70.592C700.911 69.024 703.967 67.52 707.295 66.08C710.655 64.608 713.967 63.408 717.231 62.48V61.424H696.879V56.144H738.975V61.424H723.327V62.432C725.855 62.816 728.143 63.504 730.191 64.496C732.271 65.488 733.919 66.752 735.135 68.288C736.351 69.792 736.959 71.568 736.959 73.616ZM706.191 72.656C707.983 73.008 709.855 73.712 711.807 74.768C713.759 75.792 715.551 77.12 717.183 78.752C717.151 78.368 717.119 77.968 717.087 77.552C717.087 77.104 717.087 76.656 717.087 76.208V68.192C715.199 68.8 713.375 69.472 711.615 70.208C709.887 70.944 708.079 71.76 706.191 72.656ZM770.868 79.808C768.436 79.808 766.308 78.944 764.484 77.216C764.516 77.664 764.532 78.112 764.532 78.56C764.564 79.008 764.58 79.472 764.58 79.952V86H758.244C756.452 83.408 754.132 81.296 751.284 79.664C748.468 78 745.268 76.864 741.684 76.256L739.284 70.592C742.1 69.024 745.172 67.504 748.5 66.032C751.828 64.56 755.14 63.376 758.436 62.48V61.424H738.036V56.144H779.796V61.424H764.58V70.256C765.124 71.728 765.86 72.848 766.788 73.616C767.716 74.352 768.644 74.72 769.572 74.72C770.212 74.72 770.74 74.56 771.156 74.24C771.572 73.92 771.78 73.392 771.78 72.656C771.78 71.984 771.508 71.36 770.964 70.784C770.42 70.208 769.492 69.728 768.18 69.344L769.956 63.968C772.516 64.736 774.468 65.872 775.812 67.376C777.156 68.88 777.828 70.736 777.828 72.944C777.828 74.992 777.204 76.656 775.956 77.936C774.74 79.184 773.044 79.808 770.868 79.808ZM747.348 72.656C749.14 73.008 751.012 73.696 752.964 74.72C754.916 75.744 756.692 77.088 758.292 78.752C758.26 77.824 758.244 76.912 758.244 76.016V68.192C756.356 68.8 754.532 69.472 752.772 70.208C751.044 70.944 749.236 71.76 747.348 72.656ZM746.676 86.576C745.684 86.576 744.852 86.24 744.18 85.568C743.508 84.864 743.172 84 743.172 82.976C743.172 81.952 743.508 81.104 744.18 80.432C744.852 79.728 745.684 79.376 746.676 79.376C747.7 79.376 748.532 79.728 749.172 80.432C749.844 81.104 750.18 81.952 750.18 82.976C750.18 84 749.844 84.864 749.172 85.568C748.532 86.24 747.7 86.576 746.676 86.576ZM810.209 56.144V61.424H805.601V86H799.265V77.264C797.857 75.6 796.353 74.208 794.753 73.088C793.153 71.968 791.601 71.408 790.097 71.408C789.297 71.408 788.609 71.6 788.033 71.984C787.489 72.336 787.217 72.912 787.217 73.712C787.217 74.416 787.473 75.008 787.985 75.488C788.497 75.968 789.313 76.432 790.433 76.88L787.601 82.16C785.457 81.328 783.761 80.144 782.513 78.608C781.297 77.04 780.689 75.328 780.689 73.472C780.689 71.744 781.089 70.336 781.889 69.248C782.689 68.128 783.713 67.312 784.961 66.8C786.209 66.256 787.521 65.984 788.897 65.984C790.881 65.984 792.721 66.384 794.417 67.184C796.113 67.984 797.745 69.104 799.313 70.544C799.281 70 799.265 69.456 799.265 68.912C799.265 68.368 799.265 67.856 799.265 67.376V61.424H778.817V56.144H810.209Z" fill="white"/>
<path d="M311.684 148.092L314.18 135.98H319.084L314.232 155H309.979L306.375 143.029L302.771 155H298.535L293.684 135.98H298.588L301.066 148.074L304.547 135.98H308.221L311.684 148.092ZM338.156 148.092L340.652 135.98H345.557L340.705 155H336.451L332.848 143.029L329.244 155H325.008L320.156 135.98H325.061L327.539 148.074L331.02 135.98H334.693L338.156 148.092ZM364.629 148.092L367.125 135.98H372.029L367.178 155H362.924L359.32 143.029L355.717 155H351.48L346.629 135.98H351.533L354.012 148.074L357.492 135.98H361.166L364.629 148.092ZM372.645 152.504C372.645 151.695 372.914 151.039 373.453 150.535C374.004 150.031 374.689 149.779 375.51 149.779C376.342 149.779 377.027 150.031 377.566 150.535C378.117 151.039 378.393 151.695 378.393 152.504C378.393 153.301 378.123 153.951 377.584 154.455C377.045 154.947 376.354 155.193 375.51 155.193C374.678 155.193 373.992 154.947 373.453 154.455C372.914 153.951 372.645 153.301 372.645 152.504ZM390.768 151.256C391.705 151.256 392.467 150.998 393.053 150.482C393.639 149.967 393.943 149.281 393.967 148.426H398.73C398.719 149.715 398.367 150.898 397.676 151.977C396.984 153.043 396.035 153.875 394.828 154.473C393.633 155.059 392.309 155.352 390.855 155.352C388.137 155.352 385.992 154.49 384.422 152.768C382.852 151.033 382.066 148.643 382.066 145.596V145.262C382.066 142.332 382.846 139.994 384.404 138.248C385.963 136.502 388.102 135.629 390.82 135.629C393.199 135.629 395.104 136.309 396.533 137.668C397.975 139.016 398.707 140.814 398.73 143.064H393.967C393.943 142.08 393.639 141.283 393.053 140.674C392.467 140.053 391.693 139.742 390.732 139.742C389.549 139.742 388.652 140.176 388.043 141.043C387.445 141.898 387.146 143.293 387.146 145.227V145.754C387.146 147.711 387.445 149.117 388.043 149.973C388.641 150.828 389.549 151.256 390.768 151.256ZM400.84 145.314C400.84 143.428 401.203 141.746 401.93 140.27C402.656 138.793 403.699 137.65 405.059 136.842C406.43 136.033 408.018 135.629 409.822 135.629C412.389 135.629 414.48 136.414 416.098 137.984C417.727 139.555 418.635 141.688 418.822 144.383L418.857 145.684C418.857 148.602 418.043 150.945 416.414 152.715C414.785 154.473 412.6 155.352 409.857 155.352C407.115 155.352 404.924 154.473 403.283 152.715C401.654 150.957 400.84 148.566 400.84 145.543V145.314ZM405.92 145.684C405.92 147.488 406.26 148.871 406.939 149.832C407.619 150.781 408.592 151.256 409.857 151.256C411.088 151.256 412.049 150.787 412.74 149.85C413.432 148.9 413.777 147.389 413.777 145.314C413.777 143.545 413.432 142.174 412.74 141.201C412.049 140.229 411.076 139.742 409.822 139.742C408.58 139.742 407.619 140.229 406.939 141.201C406.26 142.162 405.92 143.656 405.92 145.684ZM432.674 140.744C431.982 140.65 431.373 140.604 430.846 140.604C428.924 140.604 427.664 141.254 427.066 142.555V155H421.986V135.98H426.785L426.926 138.248C427.945 136.502 429.357 135.629 431.162 135.629C431.725 135.629 432.252 135.705 432.744 135.857L432.674 140.744ZM433.711 145.314C433.711 143.428 434.074 141.746 434.801 140.27C435.527 138.793 436.57 137.65 437.93 136.842C439.301 136.033 440.889 135.629 442.693 135.629C445.26 135.629 447.352 136.414 448.969 137.984C450.598 139.555 451.506 141.688 451.693 144.383L451.729 145.684C451.729 148.602 450.914 150.945 449.285 152.715C447.656 154.473 445.471 155.352 442.729 155.352C439.986 155.352 437.795 154.473 436.154 152.715C434.525 150.957 433.711 148.566 433.711 145.543V145.314ZM438.791 145.684C438.791 147.488 439.131 148.871 439.811 149.832C440.49 150.781 441.463 151.256 442.729 151.256C443.959 151.256 444.92 150.787 445.611 149.85C446.303 148.9 446.648 147.389 446.648 145.314C446.648 143.545 446.303 142.174 445.611 141.201C444.92 140.229 443.947 139.742 442.693 139.742C441.451 139.742 440.49 140.229 439.811 141.201C439.131 142.162 438.791 143.656 438.791 145.684ZM459.533 135.98L459.691 138.178C461.051 136.479 462.873 135.629 465.158 135.629C467.174 135.629 468.674 136.221 469.658 137.404C470.643 138.588 471.146 140.357 471.17 142.713V155H466.09V142.836C466.09 141.758 465.855 140.979 465.387 140.498C464.918 140.006 464.139 139.76 463.049 139.76C461.619 139.76 460.547 140.369 459.832 141.588V155H454.752V135.98H459.533ZM486.059 155C485.824 154.543 485.654 153.975 485.549 153.295C484.318 154.666 482.719 155.352 480.75 155.352C478.887 155.352 477.34 154.812 476.109 153.734C474.891 152.656 474.281 151.297 474.281 149.656C474.281 147.641 475.025 146.094 476.514 145.016C478.014 143.938 480.176 143.393 483 143.381H485.338V142.291C485.338 141.412 485.109 140.709 484.652 140.182C484.207 139.654 483.498 139.391 482.525 139.391C481.67 139.391 480.996 139.596 480.504 140.006C480.023 140.416 479.783 140.979 479.783 141.693H474.703C474.703 140.592 475.043 139.572 475.723 138.635C476.402 137.697 477.363 136.965 478.605 136.438C479.848 135.898 481.242 135.629 482.789 135.629C485.133 135.629 486.99 136.221 488.361 137.404C489.744 138.576 490.436 140.229 490.436 142.361V150.605C490.447 152.41 490.699 153.775 491.191 154.701V155H486.059ZM481.857 151.467C482.607 151.467 483.299 151.303 483.932 150.975C484.564 150.635 485.033 150.184 485.338 149.621V146.352H483.439C480.896 146.352 479.543 147.23 479.379 148.988L479.361 149.287C479.361 149.92 479.584 150.441 480.029 150.852C480.475 151.262 481.084 151.467 481.857 151.467ZM494.602 152.504C494.602 151.695 494.871 151.039 495.41 150.535C495.961 150.031 496.646 149.779 497.467 149.779C498.299 149.779 498.984 150.031 499.523 150.535C500.074 151.039 500.35 151.695 500.35 152.504C500.35 153.301 500.08 153.951 499.541 154.455C499.002 154.947 498.311 155.193 497.467 155.193C496.635 155.193 495.949 154.947 495.41 154.455C494.871 153.951 494.602 153.301 494.602 152.504ZM504.076 145.35C504.076 142.432 504.768 140.082 506.15 138.301C507.545 136.52 509.42 135.629 511.775 135.629C513.861 135.629 515.484 136.344 516.645 137.773L516.855 135.98H521.461V154.367C521.461 156.031 521.08 157.479 520.318 158.709C519.568 159.939 518.508 160.877 517.137 161.521C515.766 162.166 514.16 162.488 512.32 162.488C510.926 162.488 509.566 162.207 508.242 161.645C506.918 161.094 505.916 160.379 505.236 159.5L507.486 156.406C508.752 157.824 510.287 158.533 512.092 158.533C513.439 158.533 514.488 158.17 515.238 157.443C515.988 156.729 516.363 155.709 516.363 154.385V153.365C515.191 154.689 513.65 155.352 511.74 155.352C509.455 155.352 507.604 154.461 506.186 152.68C504.779 150.887 504.076 148.514 504.076 145.561V145.35ZM509.156 145.719C509.156 147.441 509.502 148.795 510.193 149.779C510.885 150.752 511.834 151.238 513.041 151.238C514.588 151.238 515.695 150.658 516.363 149.498V141.5C515.684 140.34 514.588 139.76 513.076 139.76C511.857 139.76 510.896 140.258 510.193 141.254C509.502 142.25 509.156 143.738 509.156 145.719ZM524.59 145.314C524.59 143.428 524.953 141.746 525.68 140.27C526.406 138.793 527.449 137.65 528.809 136.842C530.18 136.033 531.768 135.629 533.572 135.629C536.139 135.629 538.23 136.414 539.848 137.984C541.477 139.555 542.385 141.688 542.572 144.383L542.607 145.684C542.607 148.602 541.793 150.945 540.164 152.715C538.535 154.473 536.35 155.352 533.607 155.352C530.865 155.352 528.674 154.473 527.033 152.715C525.404 150.957 524.59 148.566 524.59 145.543V145.314ZM529.67 145.684C529.67 147.488 530.01 148.871 530.689 149.832C531.369 150.781 532.342 151.256 533.607 151.256C534.838 151.256 535.799 150.787 536.49 149.85C537.182 148.9 537.527 147.389 537.527 145.314C537.527 143.545 537.182 142.174 536.49 141.201C535.799 140.229 534.826 139.742 533.572 139.742C532.33 139.742 531.369 140.229 530.689 141.201C530.01 142.162 529.67 143.656 529.67 145.684ZM552.574 148.795L556.107 135.98H561.416L555 155H550.148L543.732 135.98H549.041L552.574 148.795ZM560.977 152.504C560.977 151.695 561.246 151.039 561.785 150.535C562.336 150.031 563.021 149.779 563.842 149.779C564.674 149.779 565.359 150.031 565.898 150.535C566.449 151.039 566.725 151.695 566.725 152.504C566.725 153.301 566.455 153.951 565.916 154.455C565.377 154.947 564.686 155.193 563.842 155.193C563.01 155.193 562.324 154.947 561.785 154.455C561.246 153.951 560.977 153.301 560.977 152.504ZM588.328 145.666C588.328 148.713 587.678 151.092 586.377 152.803C585.076 154.502 583.26 155.352 580.928 155.352C578.865 155.352 577.219 154.561 575.988 152.979L575.76 155H571.189V128H576.27V137.686C577.441 136.314 578.982 135.629 580.893 135.629C583.213 135.629 585.029 136.484 586.342 138.195C587.666 139.895 588.328 142.291 588.328 145.385V145.666ZM583.248 145.297C583.248 143.375 582.943 141.975 582.334 141.096C581.725 140.205 580.816 139.76 579.609 139.76C577.992 139.76 576.879 140.422 576.27 141.746V149.252C576.891 150.588 578.016 151.256 579.645 151.256C581.285 151.256 582.363 150.447 582.879 148.83C583.125 148.057 583.248 146.879 583.248 145.297ZM590.684 145.35C590.684 142.385 591.346 140.023 592.67 138.266C594.006 136.508 595.828 135.629 598.137 135.629C599.988 135.629 601.518 136.32 602.725 137.703V128H607.822V155H603.234L602.988 152.979C601.723 154.561 600.094 155.352 598.102 155.352C595.863 155.352 594.064 154.473 592.705 152.715C591.357 150.945 590.684 148.49 590.684 145.35ZM595.764 145.719C595.764 147.5 596.074 148.865 596.695 149.814C597.316 150.764 598.219 151.238 599.402 151.238C600.973 151.238 602.08 150.576 602.725 149.252V141.746C602.092 140.422 600.996 139.76 599.438 139.76C596.988 139.76 595.764 141.746 595.764 145.719Z" fill="white"/>
</svg>
