<svg width="912" height="203" viewBox="0 0 912 203" fill="none" xmlns="http://www.w3.org/2000/svg">
<g filter="url(#filter0_d)">
<rect x="1" width="904" height="193" rx="5" fill="#EB5569"/>
<path d="M113.913 56.144V61.424H111.177C109.737 62.128 108.377 63.056 107.097 64.208C105.817 65.36 104.777 66.704 103.977 68.24C103.177 69.776 102.777 71.488 102.777 73.376C102.777 75.296 103.065 76.8 103.641 77.888C104.217 78.976 104.937 79.744 105.801 80.192C106.665 80.608 107.529 80.816 108.393 80.816C108.969 80.816 109.529 80.768 110.073 80.672C110.617 80.544 111.241 80.304 111.945 79.952L114.345 84.704C113.289 85.312 112.249 85.728 111.225 85.952C110.201 86.144 109.129 86.24 108.009 86.24C104.425 86.24 101.577 85.152 99.4653 82.976C97.3853 80.768 96.3453 77.616 96.3453 73.52C96.3453 70.896 96.8733 68.464 97.9293 66.224C98.9853 63.952 100.409 61.952 102.201 60.224C103.993 58.464 105.993 57.104 108.201 56.144H113.913ZM145.853 56.144V61.424H141.245V86H134.909C132.957 83.6 130.525 81.76 127.613 80.48C124.733 79.2 121.261 78.288 117.197 77.744L114.941 72.32C116.253 71.52 117.677 70.704 119.213 69.872C120.781 69.008 122.365 68.192 123.965 67.424C122.621 66.656 121.165 65.984 119.597 65.408C118.061 64.832 116.381 64.4 114.557 64.112L115.757 61.424H112.973V56.144H145.853ZM134.909 61.424H122.861C124.301 61.936 125.613 62.608 126.797 63.44C127.981 64.24 129.053 65.072 130.013 65.936L130.589 70.16C129.309 70.672 127.997 71.248 126.653 71.888C125.341 72.496 124.093 73.12 122.909 73.76C124.189 73.984 125.549 74.352 126.989 74.864C128.461 75.376 129.901 76.032 131.309 76.832C132.717 77.632 133.949 78.56 135.005 79.616C134.941 79.072 134.909 78.528 134.909 77.984C134.909 77.44 134.909 76.864 134.909 76.256V61.424ZM165.007 56.144V61.424H162.271C160.831 62.128 159.471 63.056 158.191 64.208C156.911 65.36 155.871 66.704 155.071 68.24C154.271 69.776 153.871 71.488 153.871 73.376C153.871 75.296 154.159 76.8 154.735 77.888C155.311 78.976 156.031 79.744 156.895 80.192C157.759 80.608 158.623 80.816 159.487 80.816C160.063 80.816 160.623 80.768 161.167 80.672C161.711 80.544 162.335 80.304 163.039 79.952L165.439 84.704C164.383 85.312 163.343 85.728 162.319 85.952C161.295 86.144 160.223 86.24 159.103 86.24C155.519 86.24 152.671 85.152 150.559 82.976C148.479 80.768 147.439 77.616 147.439 73.52C147.439 70.992 147.951 68.688 148.975 66.608C150.031 64.496 151.471 62.736 153.295 61.328C152.495 61.392 151.343 61.424 149.839 61.424H144.895V56.144H165.007ZM204.147 73.616C204.147 74.672 203.923 75.68 203.475 76.64C203.059 77.6 202.323 78.384 201.267 78.992C200.211 79.6 198.739 79.904 196.851 79.904C195.539 79.904 194.403 79.808 193.443 79.616L193.635 74.336C193.795 74.368 193.987 74.4 194.211 74.432C194.467 74.432 194.787 74.432 195.171 74.432C196.323 74.432 197.075 74.24 197.427 73.856C197.779 73.44 197.955 72.944 197.955 72.368C197.955 71.344 197.331 70.432 196.083 69.632C194.835 68.832 193.011 68.192 190.611 67.712V86H184.275C182.483 83.408 180.163 81.296 177.315 79.664C174.499 78 171.299 76.864 167.715 76.256L165.315 70.592C168.099 69.024 171.155 67.52 174.483 66.08C177.843 64.608 181.155 63.408 184.419 62.48V61.424H164.067V56.144H206.163V61.424H190.515V62.432C193.043 62.816 195.331 63.504 197.379 64.496C199.459 65.488 201.107 66.752 202.323 68.288C203.539 69.792 204.147 71.568 204.147 73.616ZM173.379 72.656C175.171 73.008 177.043 73.712 178.995 74.768C180.947 75.792 182.739 77.12 184.371 78.752C184.339 78.368 184.307 77.968 184.275 77.552C184.275 77.104 184.275 76.656 184.275 76.208V68.192C182.387 68.8 180.563 69.472 178.803 70.208C177.075 70.944 175.267 71.76 173.379 72.656ZM220.775 56.144V61.424H216.167V86H209.831V64.688C209.447 63.696 208.903 62.912 208.199 62.336C207.495 61.728 206.583 61.424 205.463 61.424H205.223V56.144H206.183C206.919 56.144 207.607 56.336 208.247 56.72C208.887 57.104 209.479 57.92 210.023 59.168C209.991 59.008 209.943 58.64 209.879 58.064C209.847 57.488 209.831 56.992 209.831 56.576V52.976H215.015L216.119 56.144H220.775ZM239.913 56.144V61.424H237.177C235.737 62.128 234.377 63.056 233.097 64.208C231.817 65.36 230.777 66.704 229.977 68.24C229.177 69.776 228.777 71.488 228.777 73.376C228.777 75.296 229.065 76.8 229.641 77.888C230.217 78.976 230.937 79.744 231.801 80.192C232.665 80.608 233.529 80.816 234.393 80.816C234.969 80.816 235.529 80.768 236.073 80.672C236.617 80.544 237.241 80.304 237.945 79.952L240.345 84.704C239.289 85.312 238.249 85.728 237.225 85.952C236.201 86.144 235.129 86.24 234.009 86.24C230.425 86.24 227.577 85.152 225.465 82.976C223.385 80.768 222.345 77.616 222.345 73.52C222.345 70.992 222.857 68.688 223.881 66.608C224.937 64.496 226.377 62.736 228.201 61.328C227.401 61.392 226.249 61.424 224.745 61.424H219.801V56.144H239.913ZM270.365 56.144V61.424H265.757V86H259.421V77.264C258.013 75.6 256.509 74.208 254.909 73.088C253.309 71.968 251.757 71.408 250.253 71.408C249.453 71.408 248.765 71.6 248.189 71.984C247.645 72.336 247.373 72.912 247.373 73.712C247.373 74.416 247.629 75.008 248.141 75.488C248.653 75.968 249.469 76.432 250.589 76.88L247.757 82.16C245.613 81.328 243.917 80.144 242.669 78.608C241.453 77.04 240.845 75.328 240.845 73.472C240.845 71.744 241.245 70.336 242.045 69.248C242.845 68.128 243.869 67.312 245.117 66.8C246.365 66.256 247.677 65.984 249.053 65.984C251.037 65.984 252.877 66.384 254.573 67.184C256.269 67.984 257.901 69.104 259.469 70.544C259.437 70 259.421 69.456 259.421 68.912C259.421 68.368 259.421 67.856 259.421 67.376V61.424H238.973V56.144H270.365ZM284.947 56.144V61.424H280.339V86H274.003V64.688C273.619 63.696 273.075 62.912 272.371 62.336C271.667 61.728 270.755 61.424 269.635 61.424H269.395V56.144H270.355C271.091 56.144 271.779 56.336 272.419 56.72C273.059 57.104 273.651 57.92 274.195 59.168C274.163 59.008 274.115 58.64 274.051 58.064C274.019 57.488 274.003 56.992 274.003 56.576V52.976H279.187L280.291 56.144H284.947ZM332.022 56.144V61.424H295.926V56.144H332.022ZM317.046 84.416C314.038 84.416 311.27 83.84 308.742 82.688C306.246 81.504 304.022 79.536 302.07 76.784C300.15 74 298.518 70.224 297.174 65.456L303.174 63.776C304.678 68.96 306.438 72.784 308.454 75.248C310.47 77.68 313.078 78.896 316.278 78.896C318.742 78.896 320.566 78.416 321.75 77.456C322.934 76.464 323.526 75.04 323.526 73.184C323.526 71.552 323.094 70.336 322.23 69.536C321.398 68.704 320.422 68.288 319.302 68.288C318.566 68.288 317.942 68.48 317.43 68.864C316.95 69.248 316.71 69.824 316.71 70.592C316.71 71.296 316.838 71.984 317.094 72.656L311.094 73.568C310.774 72.832 310.55 72.144 310.422 71.504C310.294 70.864 310.23 70.304 310.23 69.824C310.23 68.224 310.63 66.944 311.43 65.984C312.23 64.992 313.27 64.272 314.55 63.824C315.862 63.376 317.254 63.152 318.726 63.152C321.126 63.152 323.158 63.616 324.822 64.544C326.486 65.472 327.75 66.736 328.614 68.336C329.478 69.904 329.91 71.712 329.91 73.76C329.91 75.648 329.462 77.408 328.566 79.04C327.702 80.672 326.326 81.984 324.438 82.976C322.55 83.936 320.086 84.416 317.046 84.416ZM351.195 56.144V61.424H348.459C347.019 62.128 345.659 63.056 344.379 64.208C343.099 65.36 342.059 66.704 341.259 68.24C340.459 69.776 340.059 71.488 340.059 73.376C340.059 75.296 340.347 76.8 340.923 77.888C341.499 78.976 342.219 79.744 343.083 80.192C343.947 80.608 344.811 80.816 345.674 80.816C346.251 80.816 346.811 80.768 347.355 80.672C347.899 80.544 348.523 80.304 349.227 79.952L351.627 84.704C350.571 85.312 349.531 85.728 348.507 85.952C347.483 86.144 346.411 86.24 345.291 86.24C341.707 86.24 338.859 85.152 336.747 82.976C334.667 80.768 333.627 77.616 333.627 73.52C333.627 70.992 334.139 68.688 335.163 66.608C336.219 64.496 337.659 62.736 339.483 61.328C338.683 61.392 337.531 61.424 336.027 61.424H331.082V56.144H351.195ZM361.63 56C364.062 56 366.03 56.4 367.534 57.2C369.07 58 370.206 59.04 370.942 60.32C371.678 61.568 372.046 62.912 372.046 64.352C372.046 66.432 371.406 68.24 370.126 69.776C368.846 71.28 367.054 72.416 364.75 73.184C367.214 73.888 369.182 74.768 370.654 75.824C372.158 76.848 373.55 77.904 374.83 78.992C374.798 78.256 374.766 77.52 374.734 76.784C374.734 76.016 374.734 75.216 374.734 74.384V52.976H379.918L381.022 56.144H385.678V61.424H381.07V86H374.734C373.23 84.176 371.63 82.64 369.934 81.392C368.27 80.144 366.398 79.12 364.318 78.32C362.27 77.488 359.902 76.864 357.214 76.448L355.678 70.88C359.294 70.208 361.87 69.36 363.406 68.336C364.942 67.312 365.71 66.048 365.71 64.544C365.71 63.616 365.374 62.816 364.702 62.144C364.03 61.472 363.022 61.136 361.678 61.136C360.686 61.136 359.95 61.328 359.47 61.712C359.022 62.064 358.798 62.464 358.798 62.912C358.798 63.68 359.262 64.368 360.19 64.976L356.254 68.912C355.71 68.528 355.134 68.08 354.526 67.568C353.95 67.024 353.47 66.368 353.086 65.6C352.702 64.832 352.51 63.92 352.51 62.864C352.51 61.616 352.846 60.48 353.518 59.456C354.19 58.4 355.198 57.568 356.542 56.96C357.886 56.32 359.582 56 361.63 56ZM399.348 56.144V61.424H397.38C396.42 62.416 395.732 63.36 395.316 64.256C394.932 65.12 394.74 66.112 394.74 67.232C394.74 68.288 394.868 69.392 395.124 70.544C395.412 71.664 395.684 72.816 395.94 74C396.228 75.152 396.372 76.304 396.372 77.456C396.372 79.216 396.084 80.8 395.508 82.208C394.932 83.584 393.844 84.8 392.243 85.856C390.676 86.912 388.356 87.792 385.284 88.496L383.891 83.312C385.684 82.864 387.012 82.352 387.876 81.776C388.74 81.2 389.3 80.544 389.556 79.808C389.844 79.072 389.988 78.272 389.988 77.408C389.988 76.192 389.844 75.024 389.556 73.904C389.3 72.784 389.028 71.68 388.74 70.592C388.484 69.504 388.355 68.384 388.355 67.232C388.355 66.016 388.548 64.976 388.932 64.112C389.316 63.216 389.876 62.32 390.612 61.424H384.707V56.144H399.348ZM429.547 56.144V61.424H424.939V86H418.603C416.811 83.408 414.491 81.296 411.643 79.664C408.827 78 405.627 76.864 402.043 76.256L399.643 70.592C402.459 69.024 405.531 67.504 408.859 66.032C412.187 64.56 415.499 63.376 418.795 62.48V61.424H398.395V56.144H429.547ZM407.707 72.656C409.499 73.008 411.371 73.696 413.323 74.72C415.275 75.744 417.051 77.088 418.651 78.752C418.619 77.824 418.603 76.912 418.603 76.016V68.192C416.715 68.8 414.891 69.472 413.131 70.208C411.403 70.944 409.595 71.76 407.707 72.656ZM407.035 86.576C406.043 86.576 405.211 86.24 404.539 85.568C403.867 84.864 403.531 84 403.531 82.976C403.531 81.952 403.867 81.104 404.539 80.432C405.211 79.728 406.043 79.376 407.035 79.376C408.059 79.376 408.891 79.728 409.531 80.432C410.203 81.104 410.539 81.952 410.539 82.976C410.539 84 410.203 84.864 409.531 85.568C408.891 86.24 408.059 86.576 407.035 86.576ZM462.136 84.56C459.096 84.56 456.28 84 453.688 82.88C451.128 81.728 448.84 79.76 446.824 76.976C444.84 74.192 443.16 70.352 441.784 65.456L447.784 63.776C448.904 67.648 450.12 70.704 451.432 72.944C452.776 75.152 454.296 76.72 455.992 77.648C457.688 78.576 459.624 79.04 461.8 79.04C464.072 79.04 465.688 78.64 466.648 77.84C467.64 77.008 468.136 75.952 468.136 74.672C468.136 74.128 468.104 73.616 468.04 73.136C467.08 73.744 466.04 74.224 464.92 74.576C463.832 74.896 462.552 75.056 461.08 75.056C459 75.056 457.272 74.544 455.896 73.52C454.552 72.496 453.88 70.88 453.88 68.672C453.88 67.392 454.232 66.144 454.936 64.928C455.64 63.68 456.952 62.496 458.872 61.376C458.264 61.408 457.704 61.424 457.192 61.424C456.712 61.424 456.152 61.424 455.512 61.424H440.536V56.144H489.352V61.424H475.144C474.728 61.424 474.28 61.424 473.8 61.424C473.32 61.392 472.824 61.376 472.312 61.376C472.952 62.176 473.928 62.88 475.24 63.488C476.584 64.096 478.456 64.4 480.856 64.4C481.208 64.4 481.544 64.384 481.864 64.352C482.216 64.32 482.648 64.288 483.16 64.256L486.088 69.008C485.48 70.096 485 71.248 484.648 72.464C484.328 73.68 484.168 75.04 484.168 76.544C484.168 77.824 484.296 79.2 484.552 80.672C484.84 82.144 485.24 83.664 485.752 85.232L479.56 86.528C478.952 84.8 478.504 83.136 478.216 81.536C477.928 79.936 477.784 78.16 477.784 76.208C477.784 75.024 477.864 73.872 478.024 72.752C478.216 71.6 478.488 70.528 478.84 69.536C475.512 69.056 472.824 68.208 470.776 66.992C468.76 65.776 467.16 64.288 465.976 62.528C464.12 63.36 462.696 64.256 461.704 65.216C460.712 66.144 460.216 67.04 460.216 67.904C460.216 68.544 460.392 69.024 460.744 69.344C461.096 69.632 461.512 69.776 461.992 69.776C462.856 69.776 463.624 69.6 464.296 69.248C464.968 68.896 465.736 68.4 466.6 67.76L473.608 69.824C473.832 70.464 474.008 71.2 474.136 72.032C474.296 72.864 474.376 73.744 474.376 74.672C474.376 76.272 473.976 77.84 473.176 79.376C472.376 80.88 471.08 82.128 469.288 83.12C467.496 84.08 465.112 84.56 462.136 84.56ZM519.787 56.144V61.424H515.179V86H508.843V77.264C507.435 75.6 505.931 74.208 504.331 73.088C502.731 71.968 501.179 71.408 499.675 71.408C498.875 71.408 498.187 71.6 497.611 71.984C497.067 72.336 496.795 72.912 496.795 73.712C496.795 74.416 497.051 75.008 497.563 75.488C498.075 75.968 498.891 76.432 500.011 76.88L497.179 82.16C495.035 81.328 493.339 80.144 492.091 78.608C490.875 77.04 490.267 75.328 490.267 73.472C490.267 71.744 490.667 70.336 491.467 69.248C492.267 68.128 493.291 67.312 494.539 66.8C495.787 66.256 497.099 65.984 498.475 65.984C500.459 65.984 502.299 66.384 503.995 67.184C505.691 67.984 507.323 69.104 508.891 70.544C508.859 70 508.843 69.456 508.843 68.912C508.843 68.368 508.843 67.856 508.843 67.376V61.424H488.395V56.144H519.787ZM533.457 56.144V61.424H531.489C530.529 62.416 529.841 63.36 529.425 64.256C529.041 65.12 528.849 66.112 528.849 67.232C528.849 68.288 528.977 69.392 529.233 70.544C529.521 71.664 529.793 72.816 530.049 74C530.337 75.152 530.481 76.304 530.481 77.456C530.481 79.216 530.193 80.8 529.617 82.208C529.041 83.584 527.953 84.8 526.353 85.856C524.785 86.912 522.465 87.792 519.393 88.496L518.001 83.312C519.793 82.864 521.121 82.352 521.985 81.776C522.849 81.2 523.409 80.544 523.665 79.808C523.953 79.072 524.097 78.272 524.097 77.408C524.097 76.192 523.953 75.024 523.665 73.904C523.409 72.784 523.137 71.68 522.849 70.592C522.593 69.504 522.465 68.384 522.465 67.232C522.465 66.016 522.657 64.976 523.041 64.112C523.425 63.216 523.985 62.32 524.721 61.424H518.817V56.144H533.457ZM560.01 56.144V61.424H555.402V86H549.066V61.424H544.457V56.144H549.114C548.602 55.568 548.042 54.912 547.434 54.176C546.858 53.44 546.346 52.768 545.898 52.16C547.498 49.568 549.066 47.536 550.602 46.064C552.17 44.592 553.818 43.552 555.546 42.944C557.274 42.304 559.178 41.984 561.258 41.984C562.794 41.984 564.25 42.112 565.626 42.368C567.034 42.624 568.49 43.072 569.994 43.712C571.53 44.32 573.226 45.152 575.082 46.208C576.938 47.232 579.098 48.512 581.562 50.048L578.298 54.32C575.706 52.656 573.498 51.312 571.674 50.288C569.85 49.232 568.186 48.464 566.682 47.984C565.178 47.504 563.594 47.264 561.93 47.264C560.426 47.264 559.114 47.552 557.994 48.128C556.874 48.704 555.898 49.424 555.066 50.288C554.266 51.152 553.562 52.048 552.954 52.976C553.242 53.488 553.578 54.032 553.962 54.608C554.346 55.184 554.746 55.696 555.162 56.144H560.01ZM595.996 56.144V61.424H559.036V56.144H595.996ZM580.732 84.608C578.492 84.608 576.348 84.304 574.3 83.696C572.284 83.088 570.396 82.064 568.636 80.624C566.908 79.184 565.34 77.232 563.932 74.768C562.524 72.304 561.308 69.2 560.284 65.456L566.284 63.776C567.404 67.648 568.62 70.704 569.932 72.944C571.276 75.152 572.796 76.736 574.492 77.696C576.188 78.624 578.108 79.088 580.252 79.088C582.556 79.088 584.332 78.592 585.58 77.6C586.86 76.608 587.5 75.184 587.5 73.328C587.5 72.4 587.356 71.552 587.068 70.784C585.948 71.744 584.732 72.48 583.42 72.992C582.108 73.472 580.652 73.712 579.052 73.712C576.876 73.712 575.148 73.2 573.868 72.176C572.62 71.12 571.996 69.696 571.996 67.904C571.996 67.136 572.092 66.4 572.284 65.696C572.476 64.992 572.716 64.352 573.004 63.776L578.668 65.168C578.38 65.744 578.236 66.272 578.236 66.752C578.236 67.36 578.412 67.792 578.764 68.048C579.116 68.304 579.564 68.432 580.108 68.432C581.036 68.432 581.836 68.192 582.508 67.712C583.212 67.232 584.028 66.32 584.956 64.976L590.284 64.064C592.62 67.232 593.788 70.592 593.788 74.144C593.788 76.128 593.292 77.92 592.3 79.52C591.34 81.088 589.884 82.336 587.932 83.264C586.012 84.16 583.612 84.608 580.732 84.608ZM610.588 56.144V61.424H605.98V86H599.644V61.424H595.036V56.144H599.692C599.18 55.568 598.62 54.912 598.012 54.176C597.436 53.44 596.924 52.768 596.476 52.16C598.076 49.568 599.644 47.536 601.18 46.064C602.748 44.592 604.396 43.552 606.124 42.944C607.852 42.304 609.756 41.984 611.836 41.984C613.372 41.984 614.828 42.112 616.204 42.368C617.612 42.624 619.068 43.072 620.572 43.712C622.108 44.32 623.804 45.152 625.66 46.208C627.516 47.232 629.676 48.512 632.14 50.048L628.876 54.32C626.284 52.656 624.076 51.312 622.252 50.288C620.428 49.232 618.764 48.464 617.26 47.984C615.756 47.504 614.172 47.264 612.508 47.264C611.004 47.264 609.692 47.552 608.572 48.128C607.452 48.704 606.476 49.424 605.644 50.288C604.844 51.152 604.14 52.048 603.532 52.976C603.82 53.488 604.156 54.032 604.54 54.608C604.924 55.184 605.324 55.696 605.74 56.144H610.588ZM631.214 84.56C628.174 84.56 625.358 84 622.766 82.88C620.206 81.728 617.918 79.76 615.902 76.976C613.918 74.192 612.238 70.352 610.862 65.456L616.862 63.776C617.982 67.648 619.198 70.704 620.51 72.944C621.854 75.152 623.374 76.72 625.07 77.648C626.766 78.576 628.702 79.04 630.878 79.04C633.15 79.04 634.766 78.64 635.726 77.84C636.718 77.008 637.214 75.952 637.214 74.672C637.214 74.128 637.182 73.616 637.118 73.136C636.158 73.744 635.118 74.224 633.998 74.576C632.91 74.896 631.63 75.056 630.158 75.056C628.078 75.056 626.35 74.544 624.974 73.52C623.63 72.496 622.958 70.88 622.958 68.672C622.958 67.392 623.31 66.144 624.014 64.928C624.718 63.68 626.03 62.496 627.95 61.376C627.342 61.408 626.782 61.424 626.27 61.424C625.79 61.424 625.23 61.424 624.59 61.424H609.614V56.144H658.43V61.424H644.222C643.806 61.424 643.358 61.424 642.878 61.424C642.398 61.392 641.902 61.376 641.39 61.376C642.03 62.176 643.006 62.88 644.318 63.488C645.662 64.096 647.534 64.4 649.934 64.4C650.286 64.4 650.622 64.384 650.942 64.352C651.294 64.32 651.726 64.288 652.238 64.256L655.166 69.008C654.558 70.096 654.078 71.248 653.726 72.464C653.406 73.68 653.246 75.04 653.246 76.544C653.246 77.824 653.374 79.2 653.63 80.672C653.918 82.144 654.318 83.664 654.83 85.232L648.638 86.528C648.03 84.8 647.582 83.136 647.294 81.536C647.006 79.936 646.862 78.16 646.862 76.208C646.862 75.024 646.942 73.872 647.102 72.752C647.294 71.6 647.566 70.528 647.918 69.536C644.59 69.056 641.902 68.208 639.854 66.992C637.838 65.776 636.238 64.288 635.054 62.528C633.198 63.36 631.774 64.256 630.782 65.216C629.79 66.144 629.294 67.04 629.294 67.904C629.294 68.544 629.47 69.024 629.822 69.344C630.174 69.632 630.59 69.776 631.07 69.776C631.934 69.776 632.702 69.6 633.374 69.248C634.046 68.896 634.814 68.4 635.678 67.76L642.686 69.824C642.91 70.464 643.086 71.2 643.214 72.032C643.374 72.864 643.454 73.744 643.454 74.672C643.454 76.272 643.054 77.84 642.254 79.376C641.454 80.88 640.158 82.128 638.366 83.12C636.574 84.08 634.19 84.56 631.214 84.56ZM676.193 56.144C676.161 55.152 675.905 54.448 675.425 54.032C674.945 53.584 674.097 53.36 672.881 53.36H669.281C666.849 53.36 664.865 53.136 663.329 52.688C661.825 52.208 660.641 51.488 659.777 50.528C658.625 49.248 658.049 47.408 658.049 45.008C658.049 44.528 658.065 44.096 658.097 43.712C658.129 43.296 658.193 42.8 658.289 42.224L664.289 42.608C664.257 42.896 664.225 43.152 664.193 43.376C664.193 43.6 664.193 43.808 664.193 44C664.193 44.672 664.257 45.28 664.385 45.824C664.545 46.336 664.801 46.768 665.153 47.12C665.505 47.44 665.953 47.68 666.497 47.84C667.041 48 667.921 48.08 669.137 48.08H672.929C674.817 48.08 676.305 48.224 677.393 48.512C678.513 48.8 679.457 49.312 680.225 50.048C680.833 50.656 681.297 51.456 681.617 52.448C681.969 53.408 682.161 54.64 682.193 56.144H686.897V61.424H668.177V75.488C668.177 76.576 668.241 77.376 668.369 77.888C668.497 78.4 668.689 78.784 668.945 79.04C669.393 79.52 670.129 79.76 671.153 79.76C672.817 79.76 674.465 78.992 676.097 77.456C676.801 76.816 677.345 76.128 677.729 75.392C678.113 74.656 678.305 73.904 678.305 73.136C678.305 72.528 678.113 72.032 677.729 71.648C677.345 71.264 676.721 71.072 675.857 71.072C675.441 71.072 675.057 71.088 674.705 71.12C674.385 71.152 674.081 71.2 673.793 71.264L672.929 66.08C673.633 65.92 674.337 65.792 675.041 65.696C675.745 65.6 676.561 65.552 677.489 65.552C680.017 65.552 681.825 66.176 682.913 67.424C684.001 68.672 684.545 70.192 684.545 71.984C684.545 73.744 684.177 75.392 683.441 76.928C682.705 78.432 681.729 79.792 680.513 81.008C679.233 82.256 677.761 83.248 676.097 83.984C674.433 84.688 672.657 85.04 670.769 85.04C669.041 85.04 667.697 84.88 666.737 84.56C665.777 84.24 664.961 83.776 664.289 83.168C663.617 82.592 663.041 81.744 662.561 80.624C662.081 79.504 661.841 77.776 661.841 75.44V61.424H657.473V56.144H676.193ZM737.959 73.616C737.959 74.672 737.735 75.68 737.287 76.64C736.871 77.6 736.135 78.384 735.079 78.992C734.023 79.6 732.551 79.904 730.663 79.904C729.351 79.904 728.215 79.808 727.255 79.616L727.447 74.336C727.607 74.368 727.799 74.4 728.023 74.432C728.279 74.432 728.599 74.432 728.983 74.432C730.135 74.432 730.887 74.24 731.239 73.856C731.591 73.44 731.767 72.944 731.767 72.368C731.767 71.344 731.143 70.432 729.895 69.632C728.647 68.832 726.823 68.192 724.423 67.712V86H718.087C716.295 83.408 713.975 81.296 711.127 79.664C708.311 78 705.111 76.864 701.527 76.256L699.127 70.592C701.911 69.024 704.967 67.52 708.295 66.08C711.655 64.608 714.967 63.408 718.231 62.48V61.424H697.879V56.144H739.975V61.424H724.327V62.432C726.855 62.816 729.143 63.504 731.191 64.496C733.271 65.488 734.919 66.752 736.135 68.288C737.351 69.792 737.959 71.568 737.959 73.616ZM707.191 72.656C708.983 73.008 710.855 73.712 712.807 74.768C714.759 75.792 716.551 77.12 718.183 78.752C718.151 78.368 718.119 77.968 718.087 77.552C718.087 77.104 718.087 76.656 718.087 76.208V68.192C716.199 68.8 714.375 69.472 712.615 70.208C710.887 70.944 709.079 71.76 707.191 72.656ZM771.868 79.808C769.436 79.808 767.308 78.944 765.484 77.216C765.516 77.664 765.532 78.112 765.532 78.56C765.564 79.008 765.58 79.472 765.58 79.952V86H759.244C757.452 83.408 755.132 81.296 752.284 79.664C749.468 78 746.268 76.864 742.684 76.256L740.284 70.592C743.1 69.024 746.172 67.504 749.5 66.032C752.828 64.56 756.14 63.376 759.436 62.48V61.424H739.036V56.144H780.796V61.424H765.58V70.256C766.124 71.728 766.86 72.848 767.788 73.616C768.716 74.352 769.644 74.72 770.572 74.72C771.212 74.72 771.74 74.56 772.156 74.24C772.572 73.92 772.78 73.392 772.78 72.656C772.78 71.984 772.508 71.36 771.964 70.784C771.42 70.208 770.492 69.728 769.18 69.344L770.956 63.968C773.516 64.736 775.468 65.872 776.812 67.376C778.156 68.88 778.828 70.736 778.828 72.944C778.828 74.992 778.204 76.656 776.956 77.936C775.74 79.184 774.044 79.808 771.868 79.808ZM748.348 72.656C750.14 73.008 752.012 73.696 753.964 74.72C755.916 75.744 757.692 77.088 759.292 78.752C759.26 77.824 759.244 76.912 759.244 76.016V68.192C757.356 68.8 755.532 69.472 753.772 70.208C752.044 70.944 750.236 71.76 748.348 72.656ZM747.676 86.576C746.684 86.576 745.852 86.24 745.18 85.568C744.508 84.864 744.172 84 744.172 82.976C744.172 81.952 744.508 81.104 745.18 80.432C745.852 79.728 746.684 79.376 747.676 79.376C748.7 79.376 749.532 79.728 750.172 80.432C750.844 81.104 751.18 81.952 751.18 82.976C751.18 84 750.844 84.864 750.172 85.568C749.532 86.24 748.7 86.576 747.676 86.576ZM811.209 56.144V61.424H806.601V86H800.265V77.264C798.857 75.6 797.353 74.208 795.753 73.088C794.153 71.968 792.601 71.408 791.097 71.408C790.297 71.408 789.609 71.6 789.033 71.984C788.489 72.336 788.217 72.912 788.217 73.712C788.217 74.416 788.473 75.008 788.985 75.488C789.497 75.968 790.313 76.432 791.433 76.88L788.601 82.16C786.457 81.328 784.761 80.144 783.513 78.608C782.297 77.04 781.689 75.328 781.689 73.472C781.689 71.744 782.089 70.336 782.889 69.248C783.689 68.128 784.713 67.312 785.961 66.8C787.209 66.256 788.521 65.984 789.897 65.984C791.881 65.984 793.721 66.384 795.417 67.184C797.113 67.984 798.745 69.104 800.313 70.544C800.281 70 800.265 69.456 800.265 68.912C800.265 68.368 800.265 67.856 800.265 67.376V61.424H779.817V56.144H811.209Z" fill="white"/>
<path d="M312.684 148.092L315.18 135.98H320.084L315.232 155H310.979L307.375 143.029L303.771 155H299.535L294.684 135.98H299.588L302.066 148.074L305.547 135.98H309.221L312.684 148.092ZM339.156 148.092L341.652 135.98H346.557L341.705 155H337.451L333.848 143.029L330.244 155H326.008L321.156 135.98H326.061L328.539 148.074L332.02 135.98H335.693L339.156 148.092ZM365.629 148.092L368.125 135.98H373.029L368.178 155H363.924L360.32 143.029L356.717 155H352.48L347.629 135.98H352.533L355.012 148.074L358.492 135.98H362.166L365.629 148.092ZM373.645 152.504C373.645 151.695 373.914 151.039 374.453 150.535C375.004 150.031 375.689 149.779 376.51 149.779C377.342 149.779 378.027 150.031 378.566 150.535C379.117 151.039 379.393 151.695 379.393 152.504C379.393 153.301 379.123 153.951 378.584 154.455C378.045 154.947 377.354 155.193 376.51 155.193C375.678 155.193 374.992 154.947 374.453 154.455C373.914 153.951 373.645 153.301 373.645 152.504ZM391.768 151.256C392.705 151.256 393.467 150.998 394.053 150.482C394.639 149.967 394.943 149.281 394.967 148.426H399.73C399.719 149.715 399.367 150.898 398.676 151.977C397.984 153.043 397.035 153.875 395.828 154.473C394.633 155.059 393.309 155.352 391.855 155.352C389.137 155.352 386.992 154.49 385.422 152.768C383.852 151.033 383.066 148.643 383.066 145.596V145.262C383.066 142.332 383.846 139.994 385.404 138.248C386.963 136.502 389.102 135.629 391.82 135.629C394.199 135.629 396.104 136.309 397.533 137.668C398.975 139.016 399.707 140.814 399.73 143.064H394.967C394.943 142.08 394.639 141.283 394.053 140.674C393.467 140.053 392.693 139.742 391.732 139.742C390.549 139.742 389.652 140.176 389.043 141.043C388.445 141.898 388.146 143.293 388.146 145.227V145.754C388.146 147.711 388.445 149.117 389.043 149.973C389.641 150.828 390.549 151.256 391.768 151.256ZM401.84 145.314C401.84 143.428 402.203 141.746 402.93 140.27C403.656 138.793 404.699 137.65 406.059 136.842C407.43 136.033 409.018 135.629 410.822 135.629C413.389 135.629 415.48 136.414 417.098 137.984C418.727 139.555 419.635 141.688 419.822 144.383L419.857 145.684C419.857 148.602 419.043 150.945 417.414 152.715C415.785 154.473 413.6 155.352 410.857 155.352C408.115 155.352 405.924 154.473 404.283 152.715C402.654 150.957 401.84 148.566 401.84 145.543V145.314ZM406.92 145.684C406.92 147.488 407.26 148.871 407.939 149.832C408.619 150.781 409.592 151.256 410.857 151.256C412.088 151.256 413.049 150.787 413.74 149.85C414.432 148.9 414.777 147.389 414.777 145.314C414.777 143.545 414.432 142.174 413.74 141.201C413.049 140.229 412.076 139.742 410.822 139.742C409.58 139.742 408.619 140.229 407.939 141.201C407.26 142.162 406.92 143.656 406.92 145.684ZM433.674 140.744C432.982 140.65 432.373 140.604 431.846 140.604C429.924 140.604 428.664 141.254 428.066 142.555V155H422.986V135.98H427.785L427.926 138.248C428.945 136.502 430.357 135.629 432.162 135.629C432.725 135.629 433.252 135.705 433.744 135.857L433.674 140.744ZM434.711 145.314C434.711 143.428 435.074 141.746 435.801 140.27C436.527 138.793 437.57 137.65 438.93 136.842C440.301 136.033 441.889 135.629 443.693 135.629C446.26 135.629 448.352 136.414 449.969 137.984C451.598 139.555 452.506 141.688 452.693 144.383L452.729 145.684C452.729 148.602 451.914 150.945 450.285 152.715C448.656 154.473 446.471 155.352 443.729 155.352C440.986 155.352 438.795 154.473 437.154 152.715C435.525 150.957 434.711 148.566 434.711 145.543V145.314ZM439.791 145.684C439.791 147.488 440.131 148.871 440.811 149.832C441.49 150.781 442.463 151.256 443.729 151.256C444.959 151.256 445.92 150.787 446.611 149.85C447.303 148.9 447.648 147.389 447.648 145.314C447.648 143.545 447.303 142.174 446.611 141.201C445.92 140.229 444.947 139.742 443.693 139.742C442.451 139.742 441.49 140.229 440.811 141.201C440.131 142.162 439.791 143.656 439.791 145.684ZM460.533 135.98L460.691 138.178C462.051 136.479 463.873 135.629 466.158 135.629C468.174 135.629 469.674 136.221 470.658 137.404C471.643 138.588 472.146 140.357 472.17 142.713V155H467.09V142.836C467.09 141.758 466.855 140.979 466.387 140.498C465.918 140.006 465.139 139.76 464.049 139.76C462.619 139.76 461.547 140.369 460.832 141.588V155H455.752V135.98H460.533ZM487.059 155C486.824 154.543 486.654 153.975 486.549 153.295C485.318 154.666 483.719 155.352 481.75 155.352C479.887 155.352 478.34 154.812 477.109 153.734C475.891 152.656 475.281 151.297 475.281 149.656C475.281 147.641 476.025 146.094 477.514 145.016C479.014 143.938 481.176 143.393 484 143.381H486.338V142.291C486.338 141.412 486.109 140.709 485.652 140.182C485.207 139.654 484.498 139.391 483.525 139.391C482.67 139.391 481.996 139.596 481.504 140.006C481.023 140.416 480.783 140.979 480.783 141.693H475.703C475.703 140.592 476.043 139.572 476.723 138.635C477.402 137.697 478.363 136.965 479.605 136.438C480.848 135.898 482.242 135.629 483.789 135.629C486.133 135.629 487.99 136.221 489.361 137.404C490.744 138.576 491.436 140.229 491.436 142.361V150.605C491.447 152.41 491.699 153.775 492.191 154.701V155H487.059ZM482.857 151.467C483.607 151.467 484.299 151.303 484.932 150.975C485.564 150.635 486.033 150.184 486.338 149.621V146.352H484.439C481.896 146.352 480.543 147.23 480.379 148.988L480.361 149.287C480.361 149.92 480.584 150.441 481.029 150.852C481.475 151.262 482.084 151.467 482.857 151.467ZM495.602 152.504C495.602 151.695 495.871 151.039 496.41 150.535C496.961 150.031 497.646 149.779 498.467 149.779C499.299 149.779 499.984 150.031 500.523 150.535C501.074 151.039 501.35 151.695 501.35 152.504C501.35 153.301 501.08 153.951 500.541 154.455C500.002 154.947 499.311 155.193 498.467 155.193C497.635 155.193 496.949 154.947 496.41 154.455C495.871 153.951 495.602 153.301 495.602 152.504ZM505.076 145.35C505.076 142.432 505.768 140.082 507.15 138.301C508.545 136.52 510.42 135.629 512.775 135.629C514.861 135.629 516.484 136.344 517.645 137.773L517.855 135.98H522.461V154.367C522.461 156.031 522.08 157.479 521.318 158.709C520.568 159.939 519.508 160.877 518.137 161.521C516.766 162.166 515.16 162.488 513.32 162.488C511.926 162.488 510.566 162.207 509.242 161.645C507.918 161.094 506.916 160.379 506.236 159.5L508.486 156.406C509.752 157.824 511.287 158.533 513.092 158.533C514.439 158.533 515.488 158.17 516.238 157.443C516.988 156.729 517.363 155.709 517.363 154.385V153.365C516.191 154.689 514.65 155.352 512.74 155.352C510.455 155.352 508.604 154.461 507.186 152.68C505.779 150.887 505.076 148.514 505.076 145.561V145.35ZM510.156 145.719C510.156 147.441 510.502 148.795 511.193 149.779C511.885 150.752 512.834 151.238 514.041 151.238C515.588 151.238 516.695 150.658 517.363 149.498V141.5C516.684 140.34 515.588 139.76 514.076 139.76C512.857 139.76 511.896 140.258 511.193 141.254C510.502 142.25 510.156 143.738 510.156 145.719ZM525.59 145.314C525.59 143.428 525.953 141.746 526.68 140.27C527.406 138.793 528.449 137.65 529.809 136.842C531.18 136.033 532.768 135.629 534.572 135.629C537.139 135.629 539.23 136.414 540.848 137.984C542.477 139.555 543.385 141.688 543.572 144.383L543.607 145.684C543.607 148.602 542.793 150.945 541.164 152.715C539.535 154.473 537.35 155.352 534.607 155.352C531.865 155.352 529.674 154.473 528.033 152.715C526.404 150.957 525.59 148.566 525.59 145.543V145.314ZM530.67 145.684C530.67 147.488 531.01 148.871 531.689 149.832C532.369 150.781 533.342 151.256 534.607 151.256C535.838 151.256 536.799 150.787 537.49 149.85C538.182 148.9 538.527 147.389 538.527 145.314C538.527 143.545 538.182 142.174 537.49 141.201C536.799 140.229 535.826 139.742 534.572 139.742C533.33 139.742 532.369 140.229 531.689 141.201C531.01 142.162 530.67 143.656 530.67 145.684ZM553.574 148.795L557.107 135.98H562.416L556 155H551.148L544.732 135.98H550.041L553.574 148.795ZM561.977 152.504C561.977 151.695 562.246 151.039 562.785 150.535C563.336 150.031 564.021 149.779 564.842 149.779C565.674 149.779 566.359 150.031 566.898 150.535C567.449 151.039 567.725 151.695 567.725 152.504C567.725 153.301 567.455 153.951 566.916 154.455C566.377 154.947 565.686 155.193 564.842 155.193C564.01 155.193 563.324 154.947 562.785 154.455C562.246 153.951 561.977 153.301 561.977 152.504ZM589.328 145.666C589.328 148.713 588.678 151.092 587.377 152.803C586.076 154.502 584.26 155.352 581.928 155.352C579.865 155.352 578.219 154.561 576.988 152.979L576.76 155H572.189V128H577.27V137.686C578.441 136.314 579.982 135.629 581.893 135.629C584.213 135.629 586.029 136.484 587.342 138.195C588.666 139.895 589.328 142.291 589.328 145.385V145.666ZM584.248 145.297C584.248 143.375 583.943 141.975 583.334 141.096C582.725 140.205 581.816 139.76 580.609 139.76C578.992 139.76 577.879 140.422 577.27 141.746V149.252C577.891 150.588 579.016 151.256 580.645 151.256C582.285 151.256 583.363 150.447 583.879 148.83C584.125 148.057 584.248 146.879 584.248 145.297ZM591.684 145.35C591.684 142.385 592.346 140.023 593.67 138.266C595.006 136.508 596.828 135.629 599.137 135.629C600.988 135.629 602.518 136.32 603.725 137.703V128H608.822V155H604.234L603.988 152.979C602.723 154.561 601.094 155.352 599.102 155.352C596.863 155.352 595.064 154.473 593.705 152.715C592.357 150.945 591.684 148.49 591.684 145.35ZM596.764 145.719C596.764 147.5 597.074 148.865 597.695 149.814C598.316 150.764 599.219 151.238 600.402 151.238C601.973 151.238 603.08 150.576 603.725 149.252V141.746C603.092 140.422 601.996 139.76 600.438 139.76C597.988 139.76 596.764 141.746 596.764 145.719Z" fill="white"/>
</g>
<defs>
<filter id="filter0_d" x="0" y="0" width="912" height="203" filterUnits="userSpaceOnUse" color-interpolation-filters="sRGB">
<feFlood flood-opacity="0" result="BackgroundImageFix"/>
<feColorMatrix in="SourceAlpha" type="matrix" values="0 0 0 0 0 0 0 0 0 0 0 0 0 0 0 0 0 0 127 0"/>
<feOffset dx="3" dy="6"/>
<feGaussianBlur stdDeviation="2"/>
<feColorMatrix type="matrix" values="0 0 0 0 0 0 0 0 0 0 0 0 0 0 0 0 0 0 0.25 0"/>
<feBlend mode="normal" in2="BackgroundImageFix" result="effect1_dropShadow"/>
<feBlend mode="normal" in="SourceGraphic" in2="effect1_dropShadow" result="shape"/>
</filter>
</defs>
</svg>
