<svg width="71" height="25" viewBox="0 0 71 25" fill="none" xmlns="http://www.w3.org/2000/svg">
<path d="M20.44 21.204H16.8C16.352 20.14 15.2787 19.608 13.58 19.608C12.74 19.608 11.8067 19.692 10.78 19.86C9.772 20.0093 8.67067 20.084 7.476 20.084C6.76667 20.084 6.02933 20.0187 5.264 19.888C4.49867 19.7573 3.78 19.5053 3.108 19.132C2.436 18.7587 1.89467 18.208 1.484 17.48C1.07333 16.7333 0.868 15.744 0.868 14.512C0.868 14.1013 0.896 13.6533 0.952 13.168C1.02667 12.6827 1.10133 12.2627 1.176 11.908L4.704 12.384C4.62933 12.6267 4.564 12.916 4.508 13.252C4.47067 13.588 4.452 13.924 4.452 14.26C4.452 15.0253 4.60133 15.604 4.9 15.996C5.21733 16.388 5.628 16.6493 6.132 16.78C6.65467 16.9107 7.23333 16.976 7.868 16.976C8.89467 16.976 9.81867 16.9013 10.64 16.752C11.4613 16.584 12.3573 16.5 13.328 16.5C14.0187 16.5 14.6533 16.6307 15.232 16.892C15.8293 17.1347 16.3333 17.508 16.744 18.012V10.228C16.3707 9.74267 16.0067 9.304 15.652 8.912L8.54 15.38L5.992 13L6.776 12.3C7.18667 11.7587 7.392 11.2453 7.392 10.76C7.392 10.312 7.27067 9.99467 7.028 9.808C6.78533 9.60267 6.47733 9.5 6.104 9.5C5.63733 9.5 5.124 9.668 4.564 10.004L1.792 7.456C2.65067 6.392 3.472 5.48667 4.256 4.74C5.05867 3.97467 5.89867 3.396 6.776 3.004C7.672 2.59333 8.66133 2.388 9.744 2.388C11.1253 2.388 12.348 2.73333 13.412 3.424C14.4947 4.096 15.6333 5.02 16.828 6.196C16.8093 5.89733 16.7907 5.58933 16.772 5.272C16.7533 4.936 16.744 4.6 16.744 4.264V0.735999H19.768L20.412 2.584H23.128V5.664H20.44V21.204ZM9.94 9.64C9.94 9.696 9.94 9.73333 9.94 9.752C10.1453 9.54667 10.36 9.34133 10.584 9.136C10.8267 8.93067 11.0507 8.73467 11.256 8.548L13.356 6.728C12.7773 6.31733 12.1987 6.00933 11.62 5.804C11.0413 5.58 10.4533 5.468 9.856 5.468C8.99733 5.468 8.24133 5.64533 7.588 6C6.93467 6.35467 6.30933 6.84 5.712 7.456C5.936 7.36267 6.17867 7.288 6.44 7.232C6.70133 7.176 6.98133 7.148 7.28 7.148C8.21333 7.148 8.88533 7.40933 9.296 7.932C9.72533 8.436 9.94 9.00533 9.94 9.64ZM43.6354 2.584V5.664H22.5794V2.584H43.6354ZM34.8994 19.076C33.1447 19.076 31.53 18.74 30.0554 18.068C28.5994 17.3773 27.302 16.2293 26.1634 14.624C25.0434 13 24.0914 10.7973 23.3074 8.016L26.8074 7.036C27.6847 10.06 28.7114 12.2907 29.8874 13.728C31.0634 15.1467 32.5847 15.856 34.4514 15.856C35.8887 15.856 36.9527 15.576 37.6434 15.016C38.334 14.4373 38.6794 13.6067 38.6794 12.524C38.6794 11.572 38.4274 10.8627 37.9234 10.396C37.438 9.91067 36.8687 9.668 36.2154 9.668C35.786 9.668 35.422 9.78 35.1234 10.004C34.8434 10.228 34.7034 10.564 34.7034 11.012C34.7034 11.4227 34.778 11.824 34.9274 12.216L31.4274 12.748C31.2407 12.3187 31.11 11.9173 31.0354 11.544C30.9607 11.1707 30.9234 10.844 30.9234 10.564C30.9234 9.63067 31.1567 8.884 31.6234 8.324C32.09 7.74533 32.6967 7.32533 33.4434 7.064C34.2087 6.80267 35.0207 6.672 35.8794 6.672C37.2794 6.672 38.4647 6.94267 39.4354 7.484C40.406 8.02533 41.1434 8.76267 41.6474 9.696C42.1514 10.6107 42.4034 11.6653 42.4034 12.86C42.4034 13.9613 42.142 14.988 41.6194 15.94C41.1154 16.892 40.3127 17.6573 39.2114 18.236C38.11 18.796 36.6727 19.076 34.8994 19.076ZM51.6272 2.584V5.664H50.4792C49.9192 6.24267 49.5179 6.79333 49.2752 7.316C49.0512 7.82 48.9392 8.39867 48.9392 9.052C48.9392 9.668 49.0139 10.312 49.1632 10.984C49.3312 11.6373 49.4899 12.3093 49.6392 13C49.8072 13.672 49.8912 14.344 49.8912 15.016C49.8912 16.0427 49.7232 16.9667 49.3872 17.788C49.0512 18.5907 48.4165 19.3 47.4832 19.916C46.5685 20.532 45.2152 21.0453 43.4232 21.456L42.6112 18.432C43.6565 18.1707 44.4312 17.872 44.9352 17.536C45.4392 17.2 45.7659 16.8173 45.9152 16.388C46.0832 15.9587 46.1672 15.492 46.1672 14.988C46.1672 14.2787 46.0832 13.5973 45.9152 12.944C45.7659 12.2907 45.6072 11.6467 45.4392 11.012C45.2899 10.3773 45.2152 9.724 45.2152 9.052C45.2152 8.34267 45.3272 7.736 45.5512 7.232C45.7752 6.70933 46.1019 6.18667 46.5312 5.664H43.0872V2.584H51.6272ZM70.2516 2.584V5.664H67.5636V20H63.8676C62.7289 18.6 61.3102 17.5267 59.6116 16.78C57.9316 16.0333 55.9062 15.5013 53.5356 15.184L52.2196 12.02C52.9849 11.5533 53.8156 11.0773 54.7116 10.592C55.6262 10.088 56.5502 9.612 57.4836 9.164C56.6996 8.716 55.8502 8.324 54.9356 7.988C54.0396 7.652 53.0596 7.4 51.9956 7.232L52.6956 5.664H51.0716V2.584H70.2516ZM63.8676 5.664H56.8396C57.6796 5.96267 58.4449 6.35467 59.1356 6.84C59.8262 7.30667 60.4516 7.792 61.0116 8.296L61.3476 10.76C60.6009 11.0587 59.8356 11.3947 59.0516 11.768C58.2862 12.1227 57.5582 12.4867 56.8676 12.86C57.6142 12.9907 58.4076 13.2053 59.2476 13.504C60.1062 13.8027 60.9462 14.1853 61.7676 14.652C62.5889 15.1187 63.3076 15.66 63.9236 16.276C63.8862 15.9587 63.8676 15.6413 63.8676 15.324C63.8676 15.0067 63.8676 14.6707 63.8676 14.316V5.664ZM56.1676 20.756C55.5889 20.756 55.1036 20.5507 54.7116 20.14C54.3196 19.748 54.1236 19.2533 54.1236 18.656C54.1236 18.0587 54.3196 17.564 54.7116 17.172C55.1036 16.7613 55.5889 16.556 56.1676 16.556C56.7649 16.556 57.2502 16.7613 57.6236 17.172C58.0156 17.564 58.2116 18.0587 58.2116 18.656C58.2116 19.2533 58.0156 19.748 57.6236 20.14C57.2502 20.5507 56.7649 20.756 56.1676 20.756Z" fill="#EB5569"/>
<path d="M0 23.5H69.9716V24.9H0V23.5Z" fill="#EB5569"/>
</svg>
