<svg width="175" height="50" viewBox="0 0 175 50" fill="none" xmlns="http://www.w3.org/2000/svg">
<path d="M0 0H175L172.5 25L150 50H25L2.5 25L0 0Z" fill="#EB5569"/>
<path d="M73.44 35.204H69.8C69.352 34.14 68.2787 33.608 66.58 33.608C65.74 33.608 64.8067 33.692 63.78 33.86C62.772 34.0093 61.6707 34.084 60.476 34.084C59.7667 34.084 59.0293 34.0187 58.264 33.888C57.4987 33.7573 56.78 33.5053 56.108 33.132C55.436 32.7587 54.8947 32.208 54.484 31.48C54.0733 30.7333 53.868 29.744 53.868 28.512C53.868 28.1013 53.896 27.6533 53.952 27.168C54.0267 26.6827 54.1013 26.2627 54.176 25.908L57.704 26.384C57.6293 26.6267 57.564 26.916 57.508 27.252C57.4707 27.588 57.452 27.924 57.452 28.26C57.452 29.0253 57.6013 29.604 57.9 29.996C58.2173 30.388 58.628 30.6493 59.132 30.78C59.6547 30.9107 60.2333 30.976 60.868 30.976C61.8947 30.976 62.8187 30.9013 63.64 30.752C64.4613 30.584 65.3573 30.5 66.328 30.5C67.0187 30.5 67.6533 30.6307 68.232 30.892C68.8293 31.1347 69.3333 31.508 69.744 32.012V24.228C69.3707 23.7427 69.0067 23.304 68.652 22.912L61.54 29.38L58.992 27L59.776 26.3C60.1867 25.7587 60.392 25.2453 60.392 24.76C60.392 24.312 60.2707 23.9947 60.028 23.808C59.7853 23.6027 59.4773 23.5 59.104 23.5C58.6373 23.5 58.124 23.668 57.564 24.004L54.792 21.456C55.6507 20.392 56.472 19.4867 57.256 18.74C58.0587 17.9747 58.8987 17.396 59.776 17.004C60.672 16.5933 61.6613 16.388 62.744 16.388C64.1253 16.388 65.348 16.7333 66.412 17.424C67.4947 18.096 68.6333 19.02 69.828 20.196C69.8093 19.8973 69.7907 19.5893 69.772 19.272C69.7533 18.936 69.744 18.6 69.744 18.264V14.736H72.768L73.412 16.584H76.128V19.664H73.44V35.204ZM62.94 23.64C62.94 23.696 62.94 23.7333 62.94 23.752C63.1453 23.5467 63.36 23.3413 63.584 23.136C63.8267 22.9307 64.0507 22.7347 64.256 22.548L66.356 20.728C65.7773 20.3173 65.1987 20.0093 64.62 19.804C64.0413 19.58 63.4533 19.468 62.856 19.468C61.9973 19.468 61.2413 19.6453 60.588 20C59.9347 20.3547 59.3093 20.84 58.712 21.456C58.936 21.3627 59.1787 21.288 59.44 21.232C59.7013 21.176 59.9813 21.148 60.28 21.148C61.2133 21.148 61.8853 21.4093 62.296 21.932C62.7253 22.436 62.94 23.0053 62.94 23.64ZM96.6354 16.584V19.664H75.5794V16.584H96.6354ZM87.8994 33.076C86.1447 33.076 84.53 32.74 83.0554 32.068C81.5994 31.3773 80.302 30.2293 79.1634 28.624C78.0434 27 77.0914 24.7973 76.3074 22.016L79.8074 21.036C80.6847 24.06 81.7114 26.2907 82.8874 27.728C84.0634 29.1467 85.5847 29.856 87.4514 29.856C88.8887 29.856 89.9527 29.576 90.6434 29.016C91.334 28.4373 91.6794 27.6067 91.6794 26.524C91.6794 25.572 91.4274 24.8627 90.9234 24.396C90.438 23.9107 89.8687 23.668 89.2154 23.668C88.786 23.668 88.422 23.78 88.1234 24.004C87.8434 24.228 87.7034 24.564 87.7034 25.012C87.7034 25.4227 87.778 25.824 87.9274 26.216L84.4274 26.748C84.2407 26.3187 84.11 25.9173 84.0354 25.544C83.9607 25.1707 83.9234 24.844 83.9234 24.564C83.9234 23.6307 84.1567 22.884 84.6234 22.324C85.09 21.7453 85.6967 21.3253 86.4434 21.064C87.2087 20.8027 88.0207 20.672 88.8794 20.672C90.2794 20.672 91.4647 20.9427 92.4354 21.484C93.406 22.0253 94.1434 22.7627 94.6474 23.696C95.1514 24.6107 95.4034 25.6653 95.4034 26.86C95.4034 27.9613 95.142 28.988 94.6194 29.94C94.1154 30.892 93.3127 31.6573 92.2114 32.236C91.11 32.796 89.6727 33.076 87.8994 33.076ZM104.627 16.584V19.664H103.479C102.919 20.2427 102.518 20.7933 102.275 21.316C102.051 21.82 101.939 22.3987 101.939 23.052C101.939 23.668 102.014 24.312 102.163 24.984C102.331 25.6373 102.49 26.3093 102.639 27C102.807 27.672 102.891 28.344 102.891 29.016C102.891 30.0427 102.723 30.9667 102.387 31.788C102.051 32.5907 101.417 33.3 100.483 33.916C99.5685 34.532 98.2152 35.0453 96.4232 35.456L95.6112 32.432C96.6565 32.1707 97.4312 31.872 97.9352 31.536C98.4392 31.2 98.7659 30.8173 98.9152 30.388C99.0832 29.9587 99.1672 29.492 99.1672 28.988C99.1672 28.2787 99.0832 27.5973 98.9152 26.944C98.7659 26.2907 98.6072 25.6467 98.4392 25.012C98.2899 24.3773 98.2152 23.724 98.2152 23.052C98.2152 22.3427 98.3272 21.736 98.5512 21.232C98.7752 20.7093 99.1019 20.1867 99.5312 19.664H96.0872V16.584H104.627ZM123.252 16.584V19.664H120.564V34H116.868C115.729 32.6 114.31 31.5267 112.612 30.78C110.932 30.0333 108.906 29.5013 106.536 29.184L105.22 26.02C105.985 25.5533 106.816 25.0773 107.712 24.592C108.626 24.088 109.55 23.612 110.484 23.164C109.7 22.716 108.85 22.324 107.936 21.988C107.04 21.652 106.06 21.4 104.996 21.232L105.696 19.664H104.072V16.584H123.252ZM116.868 19.664H109.84C110.68 19.9627 111.445 20.3547 112.136 20.84C112.826 21.3067 113.452 21.792 114.012 22.296L114.348 24.76C113.601 25.0587 112.836 25.3947 112.052 25.768C111.286 26.1227 110.558 26.4867 109.868 26.86C110.614 26.9907 111.408 27.2053 112.248 27.504C113.106 27.8027 113.946 28.1853 114.768 28.652C115.589 29.1187 116.308 29.66 116.924 30.276C116.886 29.9587 116.868 29.6413 116.868 29.324C116.868 29.0067 116.868 28.6707 116.868 28.316V19.664ZM109.168 34.756C108.589 34.756 108.104 34.5507 107.712 34.14C107.32 33.748 107.124 33.2533 107.124 32.656C107.124 32.0587 107.32 31.564 107.712 31.172C108.104 30.7613 108.589 30.556 109.168 30.556C109.765 30.556 110.25 30.7613 110.624 31.172C111.016 31.564 111.212 32.0587 111.212 32.656C111.212 33.2533 111.016 33.748 110.624 34.14C110.25 34.5507 109.765 34.756 109.168 34.756Z" fill="#FDEFD2"/>
</svg>
