<svg width="124" height="28" viewBox="0 0 124 28" fill="none" xmlns="http://www.w3.org/2000/svg">
<path d="M23.008 2.584V5.664H20.32V20H16.624V11.684C16.3813 11.4227 16.12 11.208 15.84 11.04C15.56 10.872 15.252 10.788 14.916 10.788C14.6173 10.788 14.3 10.9 13.964 11.124C13.628 11.348 13.46 11.8427 13.46 12.608C13.46 12.9253 13.488 13.224 13.544 13.504L10.38 13.7C10.2307 12.7667 9.89467 12.0293 9.372 11.488C8.868 10.9467 8.18667 10.676 7.328 10.676C6.80533 10.676 6.38533 10.816 6.068 11.096C5.76933 11.3573 5.62 11.712 5.62 12.16C5.62 12.832 5.88133 13.3547 6.404 13.728C6.94533 14.1013 7.59867 14.4093 8.364 14.652L7.3 17.788C5.60133 17.3027 4.25733 16.584 3.268 15.632C2.29733 14.68 1.812 13.476 1.812 12.02C1.812 11.0867 2.036 10.284 2.484 9.612C2.95067 8.94 3.56667 8.42667 4.332 8.072C5.09733 7.69867 5.93733 7.512 6.852 7.512C7.86 7.512 8.70933 7.67067 9.4 7.988C10.1093 8.28667 10.8187 8.76267 11.528 9.416C11.752 8.83733 12.1067 8.39867 12.592 8.1C13.096 7.80133 13.628 7.652 14.188 7.652C14.6733 7.652 15.1213 7.72667 15.532 7.876C15.9427 8.02533 16.3253 8.23067 16.68 8.492C16.6427 8.00667 16.624 7.54 16.624 7.092V5.664H0.72V2.584H23.008ZM49.9823 13.224C49.9823 13.8587 49.8329 14.4747 49.5343 15.072C49.2543 15.6507 48.7969 16.136 48.1623 16.528C47.5463 16.9013 46.7343 17.088 45.7263 17.088C45.1663 17.088 44.5876 17.032 43.9903 16.92L44.1303 13.84C44.2236 13.8587 44.3356 13.8773 44.4663 13.896C44.5969 13.896 44.7463 13.896 44.9143 13.896C45.4929 13.896 45.8663 13.7933 46.0343 13.588C46.2023 13.3827 46.2863 13.1587 46.2863 12.916C46.2863 12.468 46.0809 12.1133 45.6703 11.852C45.3156 11.628 44.8676 11.4787 44.3263 11.404C43.7849 11.3107 43.1223 11.264 42.3383 11.264V20H38.6423V18.18C37.9703 17.284 37.2703 16.5373 36.5423 15.94C35.8143 15.324 35.0396 15.016 34.2183 15.016C33.1916 15.016 32.6783 15.408 32.6783 16.192C32.6783 16.4347 32.7156 16.6587 32.7903 16.864C32.8836 17.0693 32.9863 17.256 33.0983 17.424L29.7663 18.628C29.5049 18.1613 29.2903 17.676 29.1223 17.172C28.9729 16.6493 28.8983 16.0707 28.8983 15.436C28.8983 14.5587 29.1876 13.8587 29.7663 13.336C30.3449 12.7947 30.9983 12.4213 31.7263 12.216C31.4463 11.6187 31.0449 11.124 30.5223 10.732C30.0183 10.34 29.4209 10.144 28.7303 10.144C28.2636 10.144 27.8996 10.256 27.6383 10.48C27.3956 10.6853 27.2743 10.9653 27.2743 11.32C27.2743 11.5627 27.3116 11.796 27.3863 12.02C27.4796 12.2253 27.5823 12.4027 27.6943 12.552L24.3623 13.756C24.1009 13.308 23.8863 12.8227 23.7183 12.3C23.5689 11.7773 23.4943 11.208 23.4943 10.592C23.4943 9.60267 23.8209 8.84667 24.4743 8.324C25.1463 7.80133 25.9209 7.44667 26.7983 7.26C26.5743 6.644 26.2196 6.112 25.7343 5.664H22.4583V2.584H51.0743V5.664H42.3383V8.212C44.1303 8.24933 45.5023 8.436 46.4543 8.772C47.4249 9.08933 48.1809 9.528 48.7223 10.088C49.1703 10.536 49.4876 11.0213 49.6743 11.544C49.8796 12.0667 49.9823 12.6267 49.9823 13.224ZM33.4343 5.972C33.4343 5.87867 33.4343 5.776 33.4343 5.664H29.6263C29.7943 5.90667 29.9343 6.168 30.0463 6.448C30.1769 6.728 30.2703 7.036 30.3263 7.372C31.5209 7.708 32.5569 8.31467 33.4343 9.192C34.3116 10.0693 34.8529 11.0587 35.0583 12.16C36.4209 12.4773 37.6343 13.2427 38.6983 14.456C38.6796 14.1947 38.6609 13.9333 38.6423 13.672C38.6423 13.392 38.6423 13.0187 38.6423 12.552V11.208C37.1116 11.04 35.8609 10.5547 34.8903 9.752C33.9196 8.94933 33.4343 7.68933 33.4343 5.972ZM36.8223 5.86C36.8223 6.56933 36.9716 7.11067 37.2703 7.484C37.5876 7.83867 38.0729 8.06267 38.7263 8.156V5.664H36.8223C36.8223 5.72 36.8223 5.78533 36.8223 5.86ZM69.077 2.584V5.664H66.389V20H62.693V9.024C61.8716 8.05333 61.0036 7.232 60.089 6.56C59.193 5.888 58.2783 5.552 57.345 5.552C56.785 5.552 56.3276 5.71067 55.973 6.028C55.637 6.34533 55.469 6.79333 55.469 7.372C55.469 7.764 55.5623 8.128 55.749 8.464C55.9543 8.78133 56.309 9.04267 56.813 9.248C57.317 9.43467 58.045 9.54667 58.997 9.584L58.577 13.224C56.1503 12.944 54.3863 12.2813 53.285 11.236C52.2023 10.1907 51.661 8.87467 51.661 7.288C51.661 6.29867 51.885 5.44 52.333 4.712C52.781 3.96533 53.3876 3.396 54.153 3.004C54.9183 2.59333 55.7863 2.388 56.757 2.388C58.045 2.388 59.165 2.67733 60.117 3.256C61.069 3.83467 61.9463 4.50667 62.749 5.272C62.7116 4.56267 62.693 3.872 62.693 3.2V0.735999H65.717L66.361 2.584H69.077ZM88.8892 2.584V5.664H86.2012V20H82.5052V11.572C82.0572 11.124 81.6558 10.9 81.3012 10.9C81.0772 10.9 80.8718 10.9653 80.6852 11.096C80.4985 11.2267 80.2745 11.488 80.0132 11.88C79.7518 12.272 79.3692 12.8693 78.8652 13.672C78.0625 14.9227 77.3252 15.8093 76.6532 16.332C75.9998 16.8547 75.1878 17.116 74.2172 17.116C73.3772 17.116 72.5745 16.892 71.8092 16.444C71.0625 15.996 70.3158 15.1187 69.5692 13.812L72.1452 12.216C72.5185 12.8133 72.8358 13.2427 73.0972 13.504C73.3585 13.7467 73.6665 13.868 74.0212 13.868C74.2638 13.868 74.4878 13.812 74.6932 13.7C74.9172 13.588 75.1972 13.2987 75.5332 12.832C75.3652 11.768 75.1878 10.9187 75.0012 10.284C74.8145 9.63067 74.5158 9.12667 74.1052 8.772C73.6572 8.38 73.0598 8.09067 72.3132 7.904C71.5665 7.69867 70.6238 7.53067 69.4852 7.4L70.0452 5.664H68.5052V2.584H88.8892ZM82.5052 5.664H74.5252C75.6078 6 76.3638 6.46667 76.7932 7.064C77.2412 7.66133 77.5398 8.50133 77.6892 9.584C78.0998 8.93067 78.5012 8.47333 78.8932 8.212C79.3038 7.932 79.7892 7.792 80.3492 7.792C80.7598 7.792 81.1332 7.876 81.4692 8.044C81.8238 8.212 82.1878 8.45467 82.5612 8.772C82.5425 8.51067 82.5238 8.24 82.5052 7.96C82.5052 7.66133 82.5052 7.372 82.5052 7.092V5.664ZM106.949 2.584V5.664H104.261V20H100.565V15.744C99.6694 14.6987 98.764 13.868 97.8494 13.252C96.9534 12.6173 96.076 12.3 95.2174 12.3C94.7507 12.3 94.3494 12.412 94.0134 12.636C93.696 12.86 93.5374 13.196 93.5374 13.644C93.5374 14.0547 93.6867 14.4093 93.9854 14.708C94.284 14.988 94.7694 15.2493 95.4414 15.492L93.7894 18.6C92.5387 18.1147 91.5494 17.4147 90.8214 16.5C90.0934 15.5853 89.7294 14.596 89.7294 13.532C89.7294 12.636 89.916 11.8893 90.2894 11.292C90.6814 10.6947 91.1854 10.2373 91.8014 9.92C92.436 9.584 93.108 9.36933 93.8174 9.276C93.6307 8.84667 93.3507 8.51067 92.9774 8.268C92.604 8.00667 92.1 7.80133 91.4654 7.652C90.8494 7.50267 90.0374 7.36267 89.0294 7.232L89.4214 5.664H88.3294V2.584H106.949ZM100.565 5.664H94.5734C95.432 6.056 96.104 6.57867 96.5894 7.232C97.0747 7.88533 97.3827 8.73467 97.5134 9.78C98.54 10.1907 99.5667 10.8907 100.593 11.88C100.575 11.5627 100.565 11.2453 100.565 10.928C100.565 10.6107 100.565 10.3027 100.565 10.004V5.664ZM101.224 27.308C100.459 27.308 99.7496 27.1867 99.0962 26.944C98.4429 26.7013 97.9202 26.3187 97.5282 25.796C97.1362 25.292 96.9402 24.62 96.9402 23.78C96.9402 22.8467 97.2949 22.1 98.0042 21.54C98.7136 20.9987 99.5629 20.7 100.552 20.644V19.496H104.248V21.204L102.848 23.052C102.55 23.0147 102.214 22.996 101.84 22.996C100.87 22.996 100.384 23.276 100.384 23.836C100.384 24.1347 100.515 24.3587 100.776 24.508C101.038 24.6573 101.346 24.732 101.7 24.732C102.559 24.732 103.315 24.4987 103.968 24.032C104.603 23.5653 105.172 23.0427 105.676 22.464C106.628 22.7813 107.552 23.1547 108.448 23.584C109.363 24.032 110.287 24.5173 111.22 25.04L109.624 27.588C108.934 27.14 108.308 26.748 107.748 26.412C107.188 26.076 106.675 25.796 106.208 25.572C105.574 26.0947 104.883 26.5147 104.136 26.832C103.39 27.1493 102.419 27.308 101.224 27.308ZM114.02 6.42C115.738 6.42 117.1 6.68133 118.108 7.204C119.135 7.708 119.872 8.352 120.32 9.136C120.768 9.92 120.992 10.7227 120.992 11.544C120.992 12.7947 120.666 13.8027 120.012 14.568C119.359 15.3333 118.426 15.912 117.212 16.304C118.202 16.6587 119.182 17.0973 120.152 17.62C121.123 18.124 122.075 18.7027 123.008 19.356L121.048 21.96C119.294 20.6907 117.334 19.608 115.168 18.712C113.003 17.816 110.595 17.1627 107.944 16.752L108.56 13.812C109.214 13.98 109.848 14.1107 110.464 14.204C111.099 14.2973 111.734 14.344 112.368 14.344C114.142 14.344 115.402 14.092 116.148 13.588C116.895 13.084 117.268 12.412 117.268 11.572C117.268 10.9 117.007 10.3587 116.484 9.948C115.98 9.53733 115.262 9.332 114.328 9.332C113.507 9.332 112.928 9.444 112.592 9.668C112.275 9.87333 112.116 10.1907 112.116 10.62C112.116 10.844 112.172 11.068 112.284 11.292L108.812 11.796C108.7 11.516 108.607 11.1987 108.532 10.844C108.458 10.4707 108.42 10.1253 108.42 9.808C108.42 8.61333 109.083 7.708 110.408 7.092C110.054 6.45733 109.447 5.98133 108.588 5.664H106.376V2.584H122.98V5.664H113.264C113.507 5.888 113.712 6.14 113.88 6.42H114.02Z" fill="#EB5569"/>
</svg>
