<svg width="298" height="27" viewBox="0 0 298 27" fill="none" xmlns="http://www.w3.org/2000/svg">
<path d="M21.104 8.584V11.664H18.416V26H14.72V17.572C14.272 17.124 13.8707 16.9 13.516 16.9C13.292 16.9 13.0867 16.9653 12.9 17.096C12.7133 17.2267 12.4893 17.488 12.228 17.88C11.9667 18.272 11.584 18.8693 11.08 19.672C10.2773 20.9227 9.54 21.8093 8.868 22.332C8.21467 22.8547 7.40267 23.116 6.432 23.116C5.592 23.116 4.78933 22.892 4.024 22.444C3.27733 21.996 2.53067 21.1187 1.784 19.812L4.36 18.216C4.73333 18.8133 5.05067 19.2427 5.312 19.504C5.57333 19.7467 5.88133 19.868 6.236 19.868C6.47867 19.868 6.70267 19.812 6.908 19.7C7.132 19.588 7.412 19.2987 7.748 18.832C7.58 17.768 7.40267 16.9187 7.216 16.284C7.02933 15.6307 6.73067 15.1267 6.32 14.772C5.872 14.38 5.27467 14.0907 4.528 13.904C3.78133 13.6987 2.83867 13.5307 1.7 13.4L2.26 11.664H0.72V8.584H21.104ZM14.72 11.664H6.74C7.82267 12 8.57867 12.4667 9.008 13.064C9.456 13.6613 9.75467 14.5013 9.904 15.584C10.3147 14.9307 10.716 14.4733 11.108 14.212C11.5187 13.932 12.004 13.792 12.564 13.792C12.9747 13.792 13.348 13.876 13.684 14.044C14.0387 14.212 14.4027 14.4547 14.776 14.772C14.7573 14.5107 14.7387 14.24 14.72 13.96C14.72 13.6613 14.72 13.372 14.72 13.092V11.664ZM29.6162 8.584V11.664H26.9282V26H23.2322V13.568C23.0082 12.9893 22.6909 12.532 22.2802 12.196C21.8696 11.8413 21.3376 11.664 20.6842 11.664H20.5442V8.584H21.1042C21.5336 8.584 21.9349 8.696 22.3082 8.92C22.6816 9.144 23.0269 9.62 23.3442 10.348C23.3256 10.2547 23.2976 10.04 23.2602 9.704C23.2416 9.368 23.2322 9.07867 23.2322 8.836V6.736H26.2562L26.9002 8.584H29.6162ZM35.9641 8.388C36.2628 8.388 36.5521 8.40667 36.8321 8.444C37.1308 8.46267 37.4201 8.49067 37.7001 8.528L37.4761 11.356C37.4015 11.3373 37.2988 11.328 37.1681 11.328C37.0561 11.3093 36.9068 11.3 36.7201 11.3C36.2348 11.3 35.8801 11.4027 35.6561 11.608C35.4508 11.7947 35.3481 12.0187 35.3481 12.28C35.3481 12.9147 35.7681 13.4093 36.6081 13.764C37.2988 13.484 37.9988 13.2227 38.7081 12.98C39.4361 12.7187 40.1455 12.4947 40.8361 12.308V8.584H47.2201V11.664H44.5321V26H40.8361C39.7908 24.488 38.4375 23.256 36.7761 22.304C35.1335 21.3333 33.2668 20.6707 31.1761 20.316L29.7761 17.012C30.3735 16.676 30.9988 16.34 31.6521 16.004C32.3055 15.668 32.9681 15.3413 33.6401 15.024C33.0615 14.5947 32.6135 14.1187 32.2961 13.596C31.9975 13.0733 31.8481 12.4667 31.8481 11.776C31.8481 11.2533 31.9695 10.7307 32.2121 10.208C32.4548 9.68533 32.8748 9.256 33.4721 8.92C34.0881 8.56533 34.9188 8.388 35.9641 8.388ZM34.4801 18.216C35.5255 18.4213 36.6175 18.832 37.7561 19.448C38.8948 20.0453 39.9401 20.8293 40.8921 21.8C40.8735 21.5013 40.8548 21.1933 40.8361 20.876C40.8361 20.5587 40.8361 20.2133 40.8361 19.84V15.612C39.7348 15.9667 38.6708 16.3587 37.6441 16.788C36.6361 17.2173 35.5815 17.6933 34.4801 18.216ZM55.7295 8.584V11.664H53.0415V26H49.3455V13.568C49.1215 12.9893 48.8042 12.532 48.3935 12.196C47.9828 11.8413 47.4508 11.664 46.7975 11.664H46.6575V8.584H47.2175C47.6468 8.584 48.0482 8.696 48.4215 8.92C48.7948 9.144 49.1402 9.62 49.4575 10.348C49.4388 10.2547 49.4108 10.04 49.3735 9.704C49.3548 9.368 49.3455 9.07867 49.3455 8.836V6.736H52.3695L53.0135 8.584H55.7295ZM73.3334 8.584V11.664H70.6454V26H66.9494C65.9041 24.488 64.5507 23.256 62.8894 22.304C61.2467 21.3333 59.3801 20.6707 57.2894 20.316L55.8894 17.012C57.5321 16.0973 59.3241 15.2107 61.2654 14.352C63.2067 13.4933 65.1387 12.8027 67.0614 12.28V11.664H55.1614V8.584H73.3334ZM60.5934 18.216C61.6387 18.4213 62.7307 18.8227 63.8694 19.42C65.0081 20.0173 66.0441 20.8013 66.9774 21.772C66.9587 21.2307 66.9494 20.6987 66.9494 20.176V15.612C65.8481 15.9667 64.7841 16.3587 63.7574 16.788C62.7494 17.2173 61.6947 17.6933 60.5934 18.216ZM60.2014 26.336C59.6227 26.336 59.1374 26.14 58.7454 25.748C58.3534 25.3373 58.1574 24.8333 58.1574 24.236C58.1574 23.6387 58.3534 23.144 58.7454 22.752C59.1374 22.3413 59.6227 22.136 60.2014 22.136C60.7987 22.136 61.2841 22.3413 61.6574 22.752C62.0494 23.144 62.2454 23.6387 62.2454 24.236C62.2454 24.8333 62.0494 25.3373 61.6574 25.748C61.2841 26.14 60.7987 26.336 60.2014 26.336ZM91.3348 8.584V11.664H88.6468V26H84.9508V15.024C84.1294 14.0533 83.2614 13.232 82.3468 12.56C81.4508 11.888 80.5361 11.552 79.6028 11.552C79.0428 11.552 78.5854 11.7107 78.2308 12.028C77.8948 12.3453 77.7268 12.7933 77.7268 13.372C77.7268 13.764 77.8201 14.128 78.0068 14.464C78.2121 14.7813 78.5668 15.0427 79.0708 15.248C79.5748 15.4347 80.3028 15.5467 81.2548 15.584L80.8348 19.224C78.4081 18.944 76.6441 18.2813 75.5428 17.236C74.4601 16.1907 73.9188 14.8747 73.9188 13.288C73.9188 12.2987 74.1428 11.44 74.5908 10.712C75.0388 9.96533 75.6454 9.396 76.4108 9.004C77.1761 8.59333 78.0441 8.388 79.0148 8.388C80.3028 8.388 81.4228 8.67733 82.3748 9.256C83.3268 9.83467 84.2041 10.5067 85.0068 11.272C84.9694 10.5627 84.9508 9.872 84.9508 9.2V6.736H87.9748L88.6188 8.584H91.3348ZM106.808 8.584V11.664H104.12V26H100.424V11.664H97.7356V8.584H100.452C100.153 8.248 99.8263 7.86533 99.4716 7.436C99.1356 7.00667 98.837 6.61467 98.5756 6.26C99.509 4.748 100.424 3.56267 101.32 2.704C102.234 1.84533 103.196 1.23867 104.204 0.884C105.212 0.510665 106.322 0.323998 107.536 0.323998C108.432 0.323998 109.281 0.398665 110.084 0.547999C110.905 0.697333 111.754 0.958666 112.632 1.332C113.528 1.68667 114.517 2.172 115.6 2.788C116.682 3.38533 117.942 4.132 119.38 5.028L117.476 7.52C115.964 6.54933 114.676 5.76533 113.612 5.168C112.548 4.552 111.577 4.104 110.7 3.824C109.822 3.544 108.898 3.404 107.928 3.404C107.05 3.404 106.285 3.572 105.632 3.908C104.978 4.244 104.409 4.664 103.924 5.168C103.457 5.672 103.046 6.19467 102.692 6.736C102.86 7.03467 103.056 7.352 103.28 7.688C103.504 8.024 103.737 8.32267 103.98 8.584H106.808ZM118.84 25.16C117.066 25.16 115.424 24.8333 113.912 24.18C112.418 23.508 111.084 22.36 109.908 20.736C108.75 19.112 107.77 16.872 106.968 14.016L110.468 13.036C111.121 15.2947 111.83 17.0773 112.596 18.384C113.38 19.672 114.266 20.5867 115.256 21.128C116.245 21.6693 117.374 21.94 118.644 21.94C119.969 21.94 120.912 21.7067 121.472 21.24C122.05 20.7547 122.34 20.1387 122.34 19.392C122.34 19.0747 122.321 18.776 122.284 18.496C121.724 18.8507 121.117 19.1307 120.464 19.336C119.829 19.5227 119.082 19.616 118.224 19.616C117.01 19.616 116.002 19.3173 115.2 18.72C114.416 18.1227 114.024 17.18 114.024 15.892C114.024 15.1453 114.229 14.4173 114.64 13.708C115.05 12.98 115.816 12.2893 116.936 11.636C116.581 11.6547 116.254 11.664 115.956 11.664C115.676 11.664 115.349 11.664 114.976 11.664H106.24V8.584H134.716V11.664H126.428C126.185 11.664 125.924 11.664 125.644 11.664C125.364 11.6453 125.074 11.636 124.776 11.636C125.149 12.1027 125.718 12.5133 126.484 12.868C127.268 13.2227 128.36 13.4 129.76 13.4C129.965 13.4 130.161 13.3907 130.348 13.372C130.553 13.3533 130.805 13.3347 131.104 13.316L132.812 16.088C132.457 16.7227 132.177 17.3947 131.972 18.104C131.785 18.8133 131.692 19.6067 131.692 20.484C131.692 21.2307 131.766 22.0333 131.916 22.892C132.084 23.7507 132.317 24.6373 132.616 25.552L129.004 26.308C128.649 25.3 128.388 24.3293 128.22 23.396C128.052 22.4627 127.968 21.4267 127.968 20.288C127.968 19.5973 128.014 18.9253 128.108 18.272C128.22 17.6 128.378 16.9747 128.584 16.396C126.642 16.116 125.074 15.6213 123.88 14.912C122.704 14.2027 121.77 13.3347 121.08 12.308C119.997 12.7933 119.166 13.316 118.588 13.876C118.009 14.4173 117.72 14.94 117.72 15.444C117.72 15.8173 117.822 16.0973 118.028 16.284C118.233 16.452 118.476 16.536 118.756 16.536C119.26 16.536 119.708 16.4333 120.1 16.228C120.492 16.0227 120.94 15.7333 121.444 15.36L125.532 16.564C125.662 16.9373 125.765 17.3667 125.84 17.852C125.933 18.3373 125.98 18.8507 125.98 19.392C125.98 20.3253 125.746 21.24 125.28 22.136C124.813 23.0133 124.057 23.7413 123.012 24.32C121.966 24.88 120.576 25.16 118.84 25.16ZM157.93 24.936C156.642 24.936 155.615 24.6747 154.85 24.152C154.084 23.6107 153.459 22.976 152.974 22.248C152.488 23.088 151.742 23.788 150.734 24.348C149.726 24.8893 148.4 25.16 146.758 25.16C144.984 25.16 143.342 24.8333 141.829 24.18C140.336 23.508 139.002 22.36 137.826 20.736C136.668 19.112 135.688 16.872 134.886 14.016L138.386 13.036C139.039 15.2947 139.748 17.0773 140.514 18.384C141.298 19.672 142.184 20.5867 143.174 21.128C144.163 21.6693 145.292 21.94 146.562 21.94C147.887 21.94 148.83 21.7067 149.39 21.24C149.968 20.7547 150.257 20.1387 150.257 19.392C150.257 19.0373 150.23 18.7013 150.174 18.384C149.539 18.832 148.904 19.1493 148.27 19.336C147.635 19.5227 146.926 19.616 146.142 19.616C144.928 19.616 143.92 19.3173 143.118 18.72C142.334 18.1227 141.942 17.18 141.942 15.892C141.942 15.1453 142.147 14.4173 142.558 13.708C142.968 12.98 143.734 12.2893 144.854 11.636C144.518 11.6547 144.163 11.664 143.79 11.664C143.416 11.664 143.015 11.664 142.586 11.664H134.157V8.584H164.146V11.664H150.874C151.042 12.2053 151.266 12.7747 151.546 13.372C151.826 13.9507 152.18 14.5013 152.61 15.024C153.506 13.96 154.392 13.232 155.27 12.84C156.147 12.4293 157.118 12.224 158.182 12.224C159.507 12.224 160.534 12.56 161.262 13.232C162.008 13.8853 162.382 14.7067 162.382 15.696C162.382 16.1253 162.288 16.592 162.102 17.096C161.934 17.5813 161.598 18.0573 161.094 18.524C161.486 18.8227 161.822 19.2053 162.102 19.672C162.382 20.12 162.522 20.6707 162.522 21.324C162.522 21.9587 162.363 22.556 162.046 23.116C161.728 23.6573 161.234 24.096 160.562 24.432C159.89 24.768 159.012 24.936 157.93 24.936ZM145.526 15.472C145.526 16.1813 145.908 16.536 146.674 16.536C147.159 16.536 147.588 16.4613 147.962 16.312C148.354 16.144 148.718 15.92 149.054 15.64C148.774 15.192 148.522 14.7347 148.298 14.268C148.074 13.8013 147.887 13.344 147.738 12.896C146.263 13.7547 145.526 14.6133 145.526 15.472ZM157.678 15.052C156.894 15.052 156.156 15.3227 155.466 15.864C154.775 16.4053 154.178 17.152 153.674 18.104C153.692 18.16 153.702 18.216 153.702 18.272C154.075 19.5787 154.607 20.5493 155.298 21.184C155.988 21.8 156.726 22.108 157.51 22.108C157.958 22.108 158.322 22.024 158.602 21.856C158.9 21.6693 159.05 21.3613 159.05 20.932C159.05 20.54 158.9 20.1853 158.602 19.868C158.172 19.9987 157.706 20.1107 157.202 20.204L156.53 17.488C158.098 17.2267 158.882 16.7227 158.882 15.976C158.882 15.6027 158.76 15.36 158.518 15.248C158.294 15.1173 158.014 15.052 157.678 15.052ZM172.651 8.584V11.664H169.963V26H166.267V13.568C166.043 12.9893 165.726 12.532 165.315 12.196C164.905 11.8413 164.373 11.664 163.719 11.664H163.579V8.584H164.139C164.569 8.584 164.97 8.696 165.343 8.92C165.717 9.144 166.062 9.62 166.379 10.348C166.361 10.2547 166.333 10.04 166.295 9.704C166.277 9.368 166.267 9.07867 166.267 8.836V6.736H169.291L169.935 8.584H172.651ZM192.467 8.584V11.664H189.779V26H186.083V17.572C185.635 17.124 185.234 16.9 184.879 16.9C184.655 16.9 184.45 16.9653 184.263 17.096C184.077 17.2267 183.853 17.488 183.591 17.88C183.33 18.272 182.947 18.8693 182.443 19.672C181.641 20.9227 180.903 21.8093 180.231 22.332C179.578 22.8547 178.766 23.116 177.795 23.116C176.955 23.116 176.153 22.892 175.387 22.444C174.641 21.996 173.894 21.1187 173.147 19.812L175.723 18.216C176.097 18.8133 176.414 19.2427 176.675 19.504C176.937 19.7467 177.245 19.868 177.599 19.868C177.842 19.868 178.066 19.812 178.271 19.7C178.495 19.588 178.775 19.2987 179.111 18.832C178.943 17.768 178.766 16.9187 178.579 16.284C178.393 15.6307 178.094 15.1267 177.683 14.772C177.235 14.38 176.638 14.0907 175.891 13.904C175.145 13.6987 174.202 13.5307 173.063 13.4L173.623 11.664H172.083V8.584H192.467ZM186.083 11.664H178.103C179.186 12 179.942 12.4667 180.371 13.064C180.819 13.6613 181.118 14.5013 181.267 15.584C181.678 14.9307 182.079 14.4733 182.471 14.212C182.882 13.932 183.367 13.792 183.927 13.792C184.338 13.792 184.711 13.876 185.047 14.044C185.402 14.212 185.766 14.4547 186.139 14.772C186.121 14.5107 186.102 14.24 186.083 13.96C186.083 13.6613 186.083 13.372 186.083 13.092V11.664ZM200.98 8.584V11.664H198.292V26H194.596V13.568C194.372 12.9893 194.054 12.532 193.644 12.196C193.233 11.8413 192.701 11.664 192.047 11.664H191.907V8.584H192.468C192.897 8.584 193.298 8.696 193.672 8.92C194.045 9.144 194.39 9.62 194.708 10.348C194.689 10.2547 194.661 10.04 194.624 9.704C194.605 9.368 194.596 9.07867 194.596 8.836V6.736H197.62L198.264 8.584H200.98ZM228.132 19.952C228.132 21.5387 227.507 22.8267 226.256 23.816C225.024 24.7867 223.335 25.272 221.188 25.272C219.713 25.272 218.332 25.076 217.044 24.684C215.756 24.2733 214.561 23.6013 213.46 22.668C212.377 21.7347 211.388 20.4653 210.492 18.86C209.615 17.236 208.821 15.2107 208.112 12.784L211.612 11.804C212.377 14.3427 213.199 16.368 214.076 17.88C214.972 19.3733 215.971 20.4467 217.072 21.1C218.173 21.7347 219.433 22.052 220.852 22.052C221.823 22.052 222.653 21.8373 223.344 21.408C224.035 20.9787 224.38 20.3627 224.38 19.56C224.38 19 224.175 18.5053 223.764 18.076C223.223 18.356 222.635 18.608 222 18.832L220.712 15.808C221.645 15.4907 222.439 15.0987 223.092 14.632C223.764 14.1653 224.1 13.5493 224.1 12.784C224.1 12.3547 223.96 12.0187 223.68 11.776C223.4 11.5333 222.98 11.412 222.42 11.412C221.748 11.412 221.113 11.552 220.516 11.832C219.919 12.112 219.424 12.448 219.032 12.84C218.659 13.2133 218.472 13.5587 218.472 13.876C218.472 14.0813 218.547 14.268 218.696 14.436C218.845 14.5853 219.181 14.6973 219.704 14.772L218.948 17.88C217.529 17.7307 216.465 17.3013 215.756 16.592C215.047 15.8827 214.692 15.0613 214.692 14.128C214.692 13.344 214.907 12.6067 215.336 11.916C215.765 11.2067 216.353 10.5907 217.1 10.068C217.847 9.54533 218.687 9.13467 219.62 8.836C220.553 8.53733 221.524 8.388 222.532 8.388C224.249 8.388 225.565 8.77067 226.48 9.536C227.413 10.3013 227.88 11.356 227.88 12.7C227.88 13.3907 227.74 14.0347 227.46 14.632C227.18 15.2293 226.797 15.78 226.312 16.284C226.853 16.7693 227.292 17.32 227.628 17.936C227.964 18.5333 228.132 19.2053 228.132 19.952ZM250.736 8.584C250.718 8.00533 250.568 7.59467 250.288 7.352C250.008 7.09067 249.514 6.96 248.804 6.96H244.828C243.41 6.96 242.252 6.82933 241.356 6.568C240.479 6.288 239.788 5.868 239.284 5.308C238.612 4.56133 238.276 3.488 238.276 2.088C238.276 1.808 238.286 1.556 238.304 1.332C238.323 1.08933 238.36 0.799998 238.416 0.463998L241.916 0.687999C241.898 0.855999 241.879 1.00533 241.86 1.136C241.86 1.26667 241.86 1.388 241.86 1.5C241.86 1.892 241.898 2.24667 241.972 2.564C242.066 2.86267 242.215 3.11467 242.42 3.32C242.626 3.50667 242.887 3.64667 243.204 3.74C243.522 3.83333 244.035 3.88 244.744 3.88H248.832C249.934 3.88 250.802 3.964 251.436 4.132C252.09 4.3 252.64 4.59867 253.088 5.028C253.443 5.38267 253.714 5.84933 253.9 6.428C254.106 6.988 254.218 7.70667 254.236 8.584H257.512V11.664H247.768V15.276C247.768 15.556 247.815 15.7987 247.908 16.004C248.002 16.1907 248.198 16.284 248.496 16.284C248.87 16.284 249.271 16.088 249.7 15.696C250.13 15.304 250.568 14.7907 251.016 14.156L254.292 13.54C254.927 14.4547 255.403 15.3787 255.72 16.312C256.038 17.2267 256.196 18.216 256.196 19.28C256.196 20.456 255.907 21.5107 255.328 22.444C254.768 23.3587 253.919 24.0867 252.78 24.628C251.66 25.1693 250.27 25.44 248.608 25.44C247.376 25.44 246.191 25.2627 245.052 24.908C243.914 24.5533 242.84 23.956 241.832 23.116C240.843 22.2573 239.928 21.0907 239.088 19.616C238.267 18.1227 237.548 16.256 236.932 14.016L240.432 13.036C241.048 15.2573 241.748 17.0493 242.532 18.412C243.316 19.756 244.184 20.736 245.136 21.352C246.107 21.9493 247.162 22.248 248.3 22.248C249.644 22.248 250.68 21.9493 251.408 21.352C252.155 20.736 252.528 19.8867 252.528 18.804C252.528 18.3187 252.463 17.8707 252.332 17.46C251.604 18.132 250.858 18.6267 250.092 18.944C249.346 19.2427 248.58 19.392 247.796 19.392C246.564 19.392 245.64 19.0373 245.024 18.328C244.707 17.9733 244.464 17.516 244.296 16.956C244.147 16.396 244.072 15.6773 244.072 14.8V11.664H236.204V8.584H250.736ZM279.386 8.584V11.664H256.958V8.584H279.386ZM272.638 12C274.188 12 275.354 12.3173 276.138 12.952C276.941 13.5867 277.342 14.4547 277.342 15.556C277.342 16.0973 277.23 16.6013 277.006 17.068C276.801 17.5347 276.493 17.964 276.082 18.356C276.549 18.7667 276.922 19.224 277.202 19.728C277.482 20.2133 277.622 20.7453 277.622 21.324C277.622 22.7427 276.988 23.8813 275.718 24.74C274.449 25.58 272.694 26 270.454 26C269.036 26 267.692 25.832 266.422 25.496C265.153 25.1413 263.977 24.5533 262.894 23.732C261.812 22.9107 260.832 21.7907 259.954 20.372C259.096 18.9533 258.34 17.18 257.686 15.052L261.158 14.1C261.793 16.2467 262.54 17.964 263.398 19.252C264.276 20.5213 265.274 21.436 266.394 21.996C267.533 22.556 268.821 22.836 270.258 22.836C271.304 22.836 272.181 22.6773 272.89 22.36C273.6 22.0427 273.954 21.5667 273.954 20.932C273.954 20.596 273.833 20.2973 273.59 20.036C273.105 20.26 272.582 20.4653 272.022 20.652L270.762 17.824C271.808 17.5067 272.564 17.1987 273.03 16.9C273.516 16.5827 273.758 16.1907 273.758 15.724C273.758 15.164 273.32 14.884 272.442 14.884C271.752 14.884 271.117 14.996 270.538 15.22C269.96 15.4253 269.484 15.6773 269.11 15.976C268.756 16.256 268.578 16.508 268.578 16.732C268.578 16.9 268.644 17.0493 268.774 17.18C268.905 17.292 269.213 17.3667 269.698 17.404L268.914 20.54C267.552 20.3907 266.544 19.9987 265.89 19.364C265.237 18.7293 264.91 17.9827 264.91 17.124C264.91 16.3587 265.134 15.6587 265.582 15.024C266.049 14.3893 266.656 13.848 267.402 13.4C268.168 12.952 269.008 12.6067 269.922 12.364C270.837 12.1213 271.742 12 272.638 12ZM297.005 8.584V11.664H294.317V26H290.621C289.576 24.488 288.223 23.256 286.561 22.304C284.919 21.3333 283.052 20.6707 280.961 20.316L279.561 17.012C281.204 16.0973 282.996 15.2107 284.937 14.352C286.879 13.4933 288.811 12.8027 290.733 12.28V11.664H278.833V8.584H297.005ZM284.265 18.216C285.311 18.4213 286.403 18.8227 287.541 19.42C288.68 20.0173 289.716 20.8013 290.649 21.772C290.631 21.2307 290.621 20.6987 290.621 20.176V15.612C289.52 15.9667 288.456 16.3587 287.429 16.788C286.421 17.2173 285.367 17.6933 284.265 18.216ZM283.873 26.336C283.295 26.336 282.809 26.14 282.417 25.748C282.025 25.3373 281.829 24.8333 281.829 24.236C281.829 23.6387 282.025 23.144 282.417 22.752C282.809 22.3413 283.295 22.136 283.873 22.136C284.471 22.136 284.956 22.3413 285.329 22.752C285.721 23.144 285.917 23.6387 285.917 24.236C285.917 24.8333 285.721 25.3373 285.329 25.748C284.956 26.14 284.471 26.336 283.873 26.336Z" fill="#EB5569"/>
</svg>
